G04 #@! TF.GenerationSoftware,KiCad,Pcbnew,(5.99.0-8491-gb8dfcb34c4)*
G04 #@! TF.CreationDate,2021-01-20T09:42:39+01:00*
G04 #@! TF.ProjectId,TMC2130_Driver,544d4332-3133-4305-9f44-72697665722e,rev?*
G04 #@! TF.SameCoordinates,PX67f3540PY6cb8080*
G04 #@! TF.FileFunction,Soldermask,Top*
G04 #@! TF.FilePolarity,Negative*
%FSLAX46Y46*%
G04 Gerber Fmt 4.6, Leading zero omitted, Abs format (unit mm)*
G04 Created by KiCad (PCBNEW (5.99.0-8491-gb8dfcb34c4)) date 2021-01-20 09:42:39*
%MOMM*%
%LPD*%
G01*
G04 APERTURE LIST*
G04 Aperture macros list*
%AMRoundRect*
0 Rectangle with rounded corners*
0 $1 Rounding radius*
0 $2 $3 $4 $5 $6 $7 $8 $9 X,Y pos of 4 corners*
0 Add a 4 corners polygon primitive as box body*
4,1,4,$2,$3,$4,$5,$6,$7,$8,$9,$2,$3,0*
0 Add four circle primitives for the rounded corners*
1,1,$1+$1,$2,$3*
1,1,$1+$1,$4,$5*
1,1,$1+$1,$6,$7*
1,1,$1+$1,$8,$9*
0 Add four rect primitives between the rounded corners*
20,1,$1+$1,$2,$3,$4,$5,0*
20,1,$1+$1,$4,$5,$6,$7,0*
20,1,$1+$1,$6,$7,$8,$9,0*
20,1,$1+$1,$8,$9,$2,$3,0*%
%AMRotRect*
0 Rectangle, with rotation*
0 The origin of the aperture is its center*
0 $1 length*
0 $2 width*
0 $3 Rotation angle, in degrees counterclockwise*
0 Add horizontal line*
21,1,$1,$2,0,0,$3*%
G04 Aperture macros list end*
%ADD10R,0.950000X0.875000*%
%ADD11RotRect,0.875000X0.950000X135.000000*%
%ADD12R,1.750000X1.250000*%
%ADD13R,0.127000X3.000000*%
%ADD14R,3.000000X0.127000*%
%ADD15C,2.700000*%
%ADD16C,0.650000*%
%ADD17R,0.650000X4.600000*%
%ADD18R,0.650000X3.600000*%
%ADD19R,1.778000X1.778000*%
%ADD20C,1.778000*%
%ADD21RoundRect,0.250000X0.425000X1.425000X-0.425000X1.425000X-0.425000X-1.425000X0.425000X-1.425000X0*%
%ADD22R,0.875000X0.950000*%
%ADD23R,0.680000X0.300000*%
%ADD24R,1.450000X1.560000*%
%ADD25RoundRect,0.250000X1.500000X0.550000X-1.500000X0.550000X-1.500000X-0.550000X1.500000X-0.550000X0*%
%ADD26RoundRect,0.218750X-0.218750X-0.256250X0.218750X-0.256250X0.218750X0.256250X-0.218750X0.256250X0*%
%ADD27R,0.590000X0.640000*%
%ADD28R,0.640000X0.590000*%
%ADD29R,2.400000X2.400000*%
%ADD30C,2.400000*%
%ADD31R,1.000000X1.500000*%
%ADD32R,1.500000X0.300000*%
%ADD33R,0.300000X1.500000*%
%ADD34R,5.100000X5.100000*%
%ADD35R,1.800000X2.500000*%
%ADD36RoundRect,0.250000X0.375000X0.625000X-0.375000X0.625000X-0.375000X-0.625000X0.375000X-0.625000X0*%
G04 APERTURE END LIST*
D10*
X13790000Y25297500D03*
X13790000Y23722500D03*
D11*
X25246847Y31653153D03*
X24133153Y32766847D03*
D12*
X23820000Y34750000D03*
X23820000Y37550000D03*
D13*
X1744000Y37546000D03*
D14*
X1744000Y37546000D03*
D13*
X35100000Y1600000D03*
D14*
X35100000Y1600000D03*
D13*
X34764000Y37546000D03*
D14*
X34764000Y37546000D03*
D13*
X1600000Y1600000D03*
D14*
X1600000Y1600000D03*
D15*
X2800000Y3256000D03*
X33750000Y3256000D03*
D16*
X27652800Y1014800D03*
X14652800Y1014800D03*
X17652800Y1014800D03*
X18652800Y1014800D03*
X11652800Y1014800D03*
X10652800Y1014800D03*
X15652800Y1014800D03*
X16652800Y1014800D03*
X23652800Y1014800D03*
X25652800Y1014800D03*
X22652800Y1014800D03*
X13652800Y1014800D03*
X24652800Y1014800D03*
X9652800Y1014800D03*
X12652800Y1014800D03*
X21652800Y1014800D03*
X8652800Y1014800D03*
D17*
X8652800Y3314800D03*
X9652800Y3314800D03*
X10652800Y3314800D03*
X11652800Y3314800D03*
X12652800Y3314800D03*
X13652800Y3314800D03*
X14652800Y3314800D03*
X15652800Y3314800D03*
X16652800Y3314800D03*
X17652800Y3314800D03*
X18652800Y3314800D03*
X21652800Y3314800D03*
X22652800Y3314800D03*
X23652800Y3314800D03*
X24652800Y3314800D03*
X25652800Y3314800D03*
D18*
X26652800Y3814800D03*
D17*
X27652800Y3314800D03*
D19*
X32540000Y30820000D03*
D20*
X32540000Y28280000D03*
X32540000Y25740000D03*
X32540000Y23200000D03*
D10*
X30040000Y34147500D03*
X30040000Y32572500D03*
D21*
X19440000Y18750000D03*
X13640000Y18750000D03*
X19280000Y36090000D03*
X13480000Y36090000D03*
D22*
X28452500Y23780000D03*
X30027500Y23780000D03*
D23*
X11530800Y10879200D03*
X11530800Y11379200D03*
X11530800Y11879200D03*
X11530800Y12379200D03*
X8810800Y12379200D03*
X8810800Y11879200D03*
X8810800Y11379200D03*
X8810800Y10879200D03*
D24*
X10170800Y11629200D03*
D10*
X7130000Y10955000D03*
X7130000Y12530000D03*
D25*
X19820000Y13240000D03*
X14420000Y13240000D03*
D12*
X26940000Y17860000D03*
X26940000Y15060000D03*
D10*
X26490000Y27272500D03*
X26490000Y28847500D03*
D26*
X26452500Y30310000D03*
X28027500Y30310000D03*
D27*
X21655000Y33260000D03*
X22625000Y33260000D03*
X20825000Y16560000D03*
X21795000Y16560000D03*
D10*
X28560000Y34147500D03*
X28560000Y32572500D03*
D28*
X20720000Y35865000D03*
X20720000Y36835000D03*
D29*
X32540000Y13010000D03*
D30*
X32540000Y16510000D03*
D31*
X7170000Y17600000D03*
X8470000Y17600000D03*
X9770000Y17600000D03*
G36*
X23080000Y10675000D02*
G01*
X22330000Y11175000D01*
X22330000Y12175000D01*
X23830000Y12175000D01*
X23830000Y11175000D01*
X23080000Y10675000D01*
G37*
G36*
X22330000Y9725000D02*
G01*
X22330000Y10875000D01*
X23080000Y10375000D01*
X23830000Y10875000D01*
X23830000Y9725000D01*
X22330000Y9725000D01*
G37*
D32*
X15840000Y30260000D03*
X15840000Y29760000D03*
X15840000Y29260000D03*
X15840000Y28760000D03*
X15840000Y28260000D03*
X15840000Y27760000D03*
X15840000Y27260000D03*
X15840000Y26760000D03*
X15840000Y26260000D03*
X15840000Y25760000D03*
X15840000Y25260000D03*
X15840000Y24760000D03*
D33*
X17290000Y23310000D03*
X18290000Y23310000D03*
X19290000Y23310000D03*
X20290000Y23310000D03*
X21290000Y23310000D03*
X22290000Y23310000D03*
X22790000Y23310000D03*
D32*
X24240000Y24760000D03*
X24240000Y25260000D03*
X24240000Y25760000D03*
X24240000Y26260000D03*
X24240000Y26760000D03*
X24240000Y27260000D03*
X24240000Y27760000D03*
X24240000Y28260000D03*
X24240000Y28760000D03*
X24240000Y29260000D03*
X24240000Y29760000D03*
X24240000Y30260000D03*
D33*
X22790000Y31710000D03*
X22290000Y31710000D03*
X21790000Y31710000D03*
X21290000Y31710000D03*
X20290000Y31710000D03*
X19290000Y31710000D03*
X18290000Y31710000D03*
X17290000Y31710000D03*
D34*
X20040000Y27510000D03*
D22*
X28452500Y25260000D03*
X30027500Y25260000D03*
D35*
X24010000Y14550000D03*
X24010000Y18550000D03*
D36*
X28030000Y11880000D03*
X25230000Y11880000D03*
D10*
X21930000Y35012500D03*
X21930000Y36587500D03*
X21520000Y19307500D03*
X21520000Y17732500D03*
M02*
