G04 #@! TF.GenerationSoftware,KiCad,Pcbnew,(5.99.0-8491-gb8dfcb34c4)*
G04 #@! TF.CreationDate,2021-01-20T09:42:39+01:00*
G04 #@! TF.ProjectId,TMC2130_Driver,544d4332-3133-4305-9f44-72697665722e,rev?*
G04 #@! TF.SameCoordinates,PX67f3540PY6cb8080*
G04 #@! TF.FileFunction,Legend,Bot*
G04 #@! TF.FilePolarity,Positive*
%FSLAX46Y46*%
G04 Gerber Fmt 4.6, Leading zero omitted, Abs format (unit mm)*
G04 Created by KiCad (PCBNEW (5.99.0-8491-gb8dfcb34c4)) date 2021-01-20 09:42:39*
%MOMM*%
%LPD*%
G01*
G04 APERTURE LIST*
%ADD10C,0.150000*%
%ADD11C,0.010000*%
G04 APERTURE END LIST*
D10*
X35218571Y12617143D02*
X35218571Y13379048D01*
X34837619Y12998096D02*
X35599523Y12998096D01*
X35218571Y16140953D02*
X35218571Y16902858D01*
X29392619Y12569524D02*
X29392619Y11998096D01*
X29392619Y12283810D02*
X30392619Y12283810D01*
X30249761Y12188572D01*
X30154523Y12093334D01*
X30106904Y11998096D01*
X30297380Y12950477D02*
X30345000Y12998096D01*
X30392619Y13093334D01*
X30392619Y13331429D01*
X30345000Y13426667D01*
X30297380Y13474286D01*
X30202142Y13521905D01*
X30106904Y13521905D01*
X29964047Y13474286D01*
X29392619Y12902858D01*
X29392619Y13521905D01*
X29773571Y13950477D02*
X29773571Y14712381D01*
X30059285Y15617143D02*
X29392619Y15617143D01*
X30440238Y15379048D02*
X29725952Y15140953D01*
X29725952Y15760000D01*
X30297380Y16093334D02*
X30345000Y16140953D01*
X30392619Y16236191D01*
X30392619Y16474286D01*
X30345000Y16569524D01*
X30297380Y16617143D01*
X30202142Y16664762D01*
X30106904Y16664762D01*
X29964047Y16617143D01*
X29392619Y16045715D01*
X29392619Y16664762D01*
X30392619Y16950477D02*
X29392619Y17283810D01*
X30392619Y17617143D01*
X27782619Y13998096D02*
X28782619Y13998096D01*
X28782619Y14236191D01*
X28735000Y14379048D01*
X28639761Y14474286D01*
X28544523Y14521905D01*
X28354047Y14569524D01*
X28211190Y14569524D01*
X28020714Y14521905D01*
X27925476Y14474286D01*
X27830238Y14379048D01*
X27782619Y14236191D01*
X27782619Y13998096D01*
X27877857Y15569524D02*
X27830238Y15521905D01*
X27782619Y15379048D01*
X27782619Y15283810D01*
X27830238Y15140953D01*
X27925476Y15045715D01*
X28020714Y14998096D01*
X28211190Y14950477D01*
X28354047Y14950477D01*
X28544523Y14998096D01*
X28639761Y15045715D01*
X28735000Y15140953D01*
X28782619Y15283810D01*
X28782619Y15379048D01*
X28735000Y15521905D01*
X28687380Y15569524D01*
D11*
X5470167Y34041337D02*
X5467952Y34003150D01*
X5467952Y34003150D02*
X5466216Y33945114D01*
X5466216Y33945114D02*
X5465101Y33871820D01*
X5465101Y33871820D02*
X5464743Y33794945D01*
X5464743Y33794945D02*
X5464743Y33534804D01*
X5464743Y33534804D02*
X5510674Y33488873D01*
X5510674Y33488873D02*
X5542325Y33460571D01*
X5542325Y33460571D02*
X5570110Y33449107D01*
X5570110Y33449107D02*
X5608085Y33449832D01*
X5608085Y33449832D02*
X5623160Y33451679D01*
X5623160Y33451679D02*
X5670274Y33457052D01*
X5670274Y33457052D02*
X5709244Y33460131D01*
X5709244Y33460131D02*
X5718743Y33460415D01*
X5718743Y33460415D02*
X5750767Y33458555D01*
X5750767Y33458555D02*
X5796568Y33453886D01*
X5796568Y33453886D02*
X5814326Y33451679D01*
X5814326Y33451679D02*
X5857943Y33448265D01*
X5857943Y33448265D02*
X5887255Y33455680D01*
X5887255Y33455680D02*
X5916320Y33478573D01*
X5916320Y33478573D02*
X5926812Y33488873D01*
X5926812Y33488873D02*
X5972743Y33534804D01*
X5972743Y33534804D02*
X5972743Y34021398D01*
X5972743Y34021398D02*
X5935774Y34038242D01*
X5935774Y34038242D02*
X5903941Y34050718D01*
X5903941Y34050718D02*
X5885317Y34055086D01*
X5885317Y34055086D02*
X5880542Y34041282D01*
X5880542Y34041282D02*
X5876079Y34002714D01*
X5876079Y34002714D02*
X5872225Y33943644D01*
X5872225Y33943644D02*
X5869278Y33868337D01*
X5869278Y33868337D02*
X5867857Y33804714D01*
X5867857Y33804714D02*
X5863886Y33554343D01*
X5863886Y33554343D02*
X5829241Y33549444D01*
X5829241Y33549444D02*
X5797732Y33552869D01*
X5797732Y33552869D02*
X5782292Y33563959D01*
X5782292Y33563959D02*
X5777977Y33584692D01*
X5777977Y33584692D02*
X5774292Y33628855D01*
X5774292Y33628855D02*
X5771531Y33690854D01*
X5771531Y33690854D02*
X5769988Y33765091D01*
X5769988Y33765091D02*
X5769765Y33803294D01*
X5769765Y33803294D02*
X5769543Y34023217D01*
X5769543Y34023217D02*
X5723834Y34039151D01*
X5723834Y34039151D02*
X5691482Y34049985D01*
X5691482Y34049985D02*
X5673885Y34055038D01*
X5673885Y34055038D02*
X5673377Y34055086D01*
X5673377Y34055086D02*
X5671612Y34041352D01*
X5671612Y34041352D02*
X5669671Y34003270D01*
X5669671Y34003270D02*
X5667718Y33945518D01*
X5667718Y33945518D02*
X5665916Y33872773D01*
X5665916Y33872773D02*
X5664657Y33804714D01*
X5664657Y33804714D02*
X5660686Y33554343D01*
X5660686Y33554343D02*
X5573600Y33554343D01*
X5573600Y33554343D02*
X5569604Y33782760D01*
X5569604Y33782760D02*
X5565608Y34011178D01*
X5565608Y34011178D02*
X5523153Y34033132D01*
X5523153Y34033132D02*
X5491808Y34048207D01*
X5491808Y34048207D02*
X5473256Y34055049D01*
X5473256Y34055049D02*
X5472721Y34055086D01*
X5472721Y34055086D02*
X5470167Y34041337D01*
X5470167Y34041337D02*
X5470167Y34041337D01*
G36*
X5903941Y34050718D02*
G01*
X5935774Y34038242D01*
X5972743Y34021398D01*
X5972743Y33534804D01*
X5926812Y33488873D01*
X5916320Y33478573D01*
X5887255Y33455680D01*
X5857943Y33448265D01*
X5814326Y33451679D01*
X5796568Y33453886D01*
X5750767Y33458555D01*
X5718743Y33460415D01*
X5709244Y33460131D01*
X5670274Y33457052D01*
X5623160Y33451679D01*
X5608085Y33449832D01*
X5570110Y33449107D01*
X5542325Y33460571D01*
X5510674Y33488873D01*
X5464743Y33534804D01*
X5464743Y33794945D01*
X5465101Y33871820D01*
X5466216Y33945114D01*
X5467952Y34003150D01*
X5470167Y34041337D01*
X5472721Y34055086D01*
X5473256Y34055049D01*
X5491808Y34048207D01*
X5523153Y34033132D01*
X5565608Y34011178D01*
X5569604Y33782760D01*
X5573600Y33554343D01*
X5660686Y33554343D01*
X5664657Y33804714D01*
X5665916Y33872773D01*
X5667718Y33945518D01*
X5669671Y34003270D01*
X5671612Y34041352D01*
X5673377Y34055086D01*
X5673885Y34055038D01*
X5691482Y34049985D01*
X5723834Y34039151D01*
X5769543Y34023217D01*
X5769765Y33803294D01*
X5769988Y33765091D01*
X5771531Y33690854D01*
X5774292Y33628855D01*
X5777977Y33584692D01*
X5782292Y33563959D01*
X5797732Y33552869D01*
X5829241Y33549444D01*
X5863886Y33554343D01*
X5867857Y33804714D01*
X5869278Y33868337D01*
X5872225Y33943644D01*
X5876079Y34002714D01*
X5880542Y34041282D01*
X5885317Y34055086D01*
X5903941Y34050718D01*
G37*
X5903941Y34050718D02*
X5935774Y34038242D01*
X5972743Y34021398D01*
X5972743Y33534804D01*
X5926812Y33488873D01*
X5916320Y33478573D01*
X5887255Y33455680D01*
X5857943Y33448265D01*
X5814326Y33451679D01*
X5796568Y33453886D01*
X5750767Y33458555D01*
X5718743Y33460415D01*
X5709244Y33460131D01*
X5670274Y33457052D01*
X5623160Y33451679D01*
X5608085Y33449832D01*
X5570110Y33449107D01*
X5542325Y33460571D01*
X5510674Y33488873D01*
X5464743Y33534804D01*
X5464743Y33794945D01*
X5465101Y33871820D01*
X5466216Y33945114D01*
X5467952Y34003150D01*
X5470167Y34041337D01*
X5472721Y34055086D01*
X5473256Y34055049D01*
X5491808Y34048207D01*
X5523153Y34033132D01*
X5565608Y34011178D01*
X5569604Y33782760D01*
X5573600Y33554343D01*
X5660686Y33554343D01*
X5664657Y33804714D01*
X5665916Y33872773D01*
X5667718Y33945518D01*
X5669671Y34003270D01*
X5671612Y34041352D01*
X5673377Y34055086D01*
X5673885Y34055038D01*
X5691482Y34049985D01*
X5723834Y34039151D01*
X5769543Y34023217D01*
X5769765Y33803294D01*
X5769988Y33765091D01*
X5771531Y33690854D01*
X5774292Y33628855D01*
X5777977Y33584692D01*
X5782292Y33563959D01*
X5797732Y33552869D01*
X5829241Y33549444D01*
X5863886Y33554343D01*
X5867857Y33804714D01*
X5869278Y33868337D01*
X5872225Y33943644D01*
X5876079Y34002714D01*
X5880542Y34041282D01*
X5885317Y34055086D01*
X5903941Y34050718D01*
X4597400Y34041248D02*
X4580052Y34033666D01*
X4580052Y34033666D02*
X4538644Y34000872D01*
X4538644Y34000872D02*
X4503235Y33953453D01*
X4503235Y33953453D02*
X4481336Y33902849D01*
X4481336Y33902849D02*
X4477771Y33877902D01*
X4477771Y33877902D02*
X4489721Y33843073D01*
X4489721Y33843073D02*
X4515933Y33824643D01*
X4515933Y33824643D02*
X4544036Y33813484D01*
X4544036Y33813484D02*
X4556905Y33811428D01*
X4556905Y33811428D02*
X4563171Y33826351D01*
X4563171Y33826351D02*
X4575544Y33858825D01*
X4575544Y33858825D02*
X4580972Y33873498D01*
X4580972Y33873498D02*
X4611410Y33924256D01*
X4611410Y33924256D02*
X4655480Y33949573D01*
X4655480Y33949573D02*
X4711990Y33948794D01*
X4711990Y33948794D02*
X4716175Y33947797D01*
X4716175Y33947797D02*
X4746345Y33933493D01*
X4746345Y33933493D02*
X4768524Y33905607D01*
X4768524Y33905607D02*
X4783673Y33860713D01*
X4783673Y33860713D02*
X4792750Y33795385D01*
X4792750Y33795385D02*
X4796714Y33706196D01*
X4796714Y33706196D02*
X4797086Y33658739D01*
X4797086Y33658739D02*
X4797270Y33583929D01*
X4797270Y33583929D02*
X4798478Y33532931D01*
X4798478Y33532931D02*
X4801691Y33500529D01*
X4801691Y33500529D02*
X4807891Y33481505D01*
X4807891Y33481505D02*
X4818060Y33470644D01*
X4818060Y33470644D02*
X4833181Y33462728D01*
X4833181Y33462728D02*
X4834054Y33462330D01*
X4834054Y33462330D02*
X4863172Y33450019D01*
X4863172Y33450019D02*
X4877597Y33445486D01*
X4877597Y33445486D02*
X4879814Y33459191D01*
X4879814Y33459191D02*
X4881711Y33497075D01*
X4881711Y33497075D02*
X4883153Y33554285D01*
X4883153Y33554285D02*
X4884002Y33625973D01*
X4884002Y33625973D02*
X4884171Y33678435D01*
X4884171Y33678435D02*
X4883308Y33779953D01*
X4883308Y33779953D02*
X4879930Y33856968D01*
X4879930Y33856968D02*
X4872858Y33913977D01*
X4872858Y33913977D02*
X4860912Y33955474D01*
X4860912Y33955474D02*
X4842910Y33985957D01*
X4842910Y33985957D02*
X4817673Y34009920D01*
X4817673Y34009920D02*
X4792753Y34026645D01*
X4792753Y34026645D02*
X4732829Y34048903D01*
X4732829Y34048903D02*
X4663089Y34053924D01*
X4663089Y34053924D02*
X4597400Y34041248D01*
X4597400Y34041248D02*
X4597400Y34041248D01*
G36*
X4732829Y34048903D02*
G01*
X4792753Y34026645D01*
X4817673Y34009920D01*
X4842910Y33985957D01*
X4860912Y33955474D01*
X4872858Y33913977D01*
X4879930Y33856968D01*
X4883308Y33779953D01*
X4884171Y33678435D01*
X4884002Y33625973D01*
X4883153Y33554285D01*
X4881711Y33497075D01*
X4879814Y33459191D01*
X4877597Y33445486D01*
X4863172Y33450019D01*
X4834054Y33462330D01*
X4833181Y33462728D01*
X4818060Y33470644D01*
X4807891Y33481505D01*
X4801691Y33500529D01*
X4798478Y33532931D01*
X4797270Y33583929D01*
X4797086Y33658739D01*
X4796714Y33706196D01*
X4792750Y33795385D01*
X4783673Y33860713D01*
X4768524Y33905607D01*
X4746345Y33933493D01*
X4716175Y33947797D01*
X4711990Y33948794D01*
X4655480Y33949573D01*
X4611410Y33924256D01*
X4580972Y33873498D01*
X4575544Y33858825D01*
X4563171Y33826351D01*
X4556905Y33811428D01*
X4544036Y33813484D01*
X4515933Y33824643D01*
X4489721Y33843073D01*
X4477771Y33877902D01*
X4481336Y33902849D01*
X4503235Y33953453D01*
X4538644Y34000872D01*
X4580052Y34033666D01*
X4597400Y34041248D01*
X4663089Y34053924D01*
X4732829Y34048903D01*
G37*
X4732829Y34048903D02*
X4792753Y34026645D01*
X4817673Y34009920D01*
X4842910Y33985957D01*
X4860912Y33955474D01*
X4872858Y33913977D01*
X4879930Y33856968D01*
X4883308Y33779953D01*
X4884171Y33678435D01*
X4884002Y33625973D01*
X4883153Y33554285D01*
X4881711Y33497075D01*
X4879814Y33459191D01*
X4877597Y33445486D01*
X4863172Y33450019D01*
X4834054Y33462330D01*
X4833181Y33462728D01*
X4818060Y33470644D01*
X4807891Y33481505D01*
X4801691Y33500529D01*
X4798478Y33532931D01*
X4797270Y33583929D01*
X4797086Y33658739D01*
X4796714Y33706196D01*
X4792750Y33795385D01*
X4783673Y33860713D01*
X4768524Y33905607D01*
X4746345Y33933493D01*
X4716175Y33947797D01*
X4711990Y33948794D01*
X4655480Y33949573D01*
X4611410Y33924256D01*
X4580972Y33873498D01*
X4575544Y33858825D01*
X4563171Y33826351D01*
X4556905Y33811428D01*
X4544036Y33813484D01*
X4515933Y33824643D01*
X4489721Y33843073D01*
X4477771Y33877902D01*
X4481336Y33902849D01*
X4503235Y33953453D01*
X4538644Y34000872D01*
X4580052Y34033666D01*
X4597400Y34041248D01*
X4663089Y34053924D01*
X4732829Y34048903D01*
X7874114Y34148711D02*
X7869861Y34089387D01*
X7869861Y34089387D02*
X7864975Y34054428D01*
X7864975Y34054428D02*
X7858205Y34039180D01*
X7858205Y34039180D02*
X7848298Y34038985D01*
X7848298Y34038985D02*
X7845086Y34040805D01*
X7845086Y34040805D02*
X7802356Y34053985D01*
X7802356Y34053985D02*
X7746773Y34053215D01*
X7746773Y34053215D02*
X7690263Y34039667D01*
X7690263Y34039667D02*
X7654918Y34022139D01*
X7654918Y34022139D02*
X7618679Y33994139D01*
X7618679Y33994139D02*
X7592187Y33962451D01*
X7592187Y33962451D02*
X7574001Y33922187D01*
X7574001Y33922187D02*
X7562678Y33868457D01*
X7562678Y33868457D02*
X7556778Y33796374D01*
X7556778Y33796374D02*
X7554857Y33701049D01*
X7554857Y33701049D02*
X7554823Y33682763D01*
X7554823Y33682763D02*
X7554800Y33477354D01*
X7554800Y33477354D02*
X7600509Y33461420D01*
X7600509Y33461420D02*
X7632973Y33450580D01*
X7632973Y33450580D02*
X7650785Y33445532D01*
X7650785Y33445532D02*
X7651309Y33445486D01*
X7651309Y33445486D02*
X7653063Y33459172D01*
X7653063Y33459172D02*
X7654556Y33496924D01*
X7654556Y33496924D02*
X7655674Y33553776D01*
X7655674Y33553776D02*
X7656303Y33624766D01*
X7656303Y33624766D02*
X7656400Y33667927D01*
X7656400Y33667927D02*
X7656602Y33753027D01*
X7656602Y33753027D02*
X7657642Y33814019D01*
X7657642Y33814019D02*
X7660169Y33855823D01*
X7660169Y33855823D02*
X7664836Y33883358D01*
X7664836Y33883358D02*
X7672293Y33901544D01*
X7672293Y33901544D02*
X7683189Y33915302D01*
X7683189Y33915302D02*
X7689993Y33921927D01*
X7689993Y33921927D02*
X7736728Y33948625D01*
X7736728Y33948625D02*
X7787728Y33950625D01*
X7787728Y33950625D02*
X7833999Y33928045D01*
X7833999Y33928045D02*
X7842556Y33919893D01*
X7842556Y33919893D02*
X7855107Y33904564D01*
X7855107Y33904564D02*
X7863812Y33886382D01*
X7863812Y33886382D02*
X7869369Y33860091D01*
X7869369Y33860091D02*
X7872474Y33820438D01*
X7872474Y33820438D02*
X7873824Y33762168D01*
X7873824Y33762168D02*
X7874114Y33681827D01*
X7874114Y33681827D02*
X7874114Y33477354D01*
X7874114Y33477354D02*
X7919823Y33461420D01*
X7919823Y33461420D02*
X7952287Y33450580D01*
X7952287Y33450580D02*
X7970099Y33445532D01*
X7970099Y33445532D02*
X7970623Y33445486D01*
X7970623Y33445486D02*
X7971963Y33459377D01*
X7971963Y33459377D02*
X7973172Y33498561D01*
X7973172Y33498561D02*
X7974199Y33559300D01*
X7974199Y33559300D02*
X7974998Y33637859D01*
X7974998Y33637859D02*
X7975519Y33730502D01*
X7975519Y33730502D02*
X7975714Y33833491D01*
X7975714Y33833491D02*
X7975714Y34230658D01*
X7975714Y34230658D02*
X7928543Y34250556D01*
X7928543Y34250556D02*
X7881371Y34270453D01*
X7881371Y34270453D02*
X7874114Y34148711D01*
X7874114Y34148711D02*
X7874114Y34148711D01*
G36*
X7928543Y34250556D02*
G01*
X7975714Y34230658D01*
X7975714Y33833491D01*
X7975519Y33730502D01*
X7974998Y33637859D01*
X7974199Y33559300D01*
X7973172Y33498561D01*
X7971963Y33459377D01*
X7970623Y33445486D01*
X7970099Y33445532D01*
X7952287Y33450580D01*
X7919823Y33461420D01*
X7874114Y33477354D01*
X7874114Y33681827D01*
X7873824Y33762168D01*
X7872474Y33820438D01*
X7869369Y33860091D01*
X7863812Y33886382D01*
X7855107Y33904564D01*
X7842556Y33919893D01*
X7833999Y33928045D01*
X7787728Y33950625D01*
X7736728Y33948625D01*
X7689993Y33921927D01*
X7683189Y33915302D01*
X7672293Y33901544D01*
X7664836Y33883358D01*
X7660169Y33855823D01*
X7657642Y33814019D01*
X7656602Y33753027D01*
X7656400Y33667927D01*
X7656303Y33624766D01*
X7655674Y33553776D01*
X7654556Y33496924D01*
X7653063Y33459172D01*
X7651309Y33445486D01*
X7650785Y33445532D01*
X7632973Y33450580D01*
X7600509Y33461420D01*
X7554800Y33477354D01*
X7554823Y33682763D01*
X7554857Y33701049D01*
X7556778Y33796374D01*
X7562678Y33868457D01*
X7574001Y33922187D01*
X7592187Y33962451D01*
X7618679Y33994139D01*
X7654918Y34022139D01*
X7690263Y34039667D01*
X7746773Y34053215D01*
X7802356Y34053985D01*
X7845086Y34040805D01*
X7848298Y34038985D01*
X7858205Y34039180D01*
X7864975Y34054428D01*
X7869861Y34089387D01*
X7874114Y34148711D01*
X7881371Y34270453D01*
X7928543Y34250556D01*
G37*
X7928543Y34250556D02*
X7975714Y34230658D01*
X7975714Y33833491D01*
X7975519Y33730502D01*
X7974998Y33637859D01*
X7974199Y33559300D01*
X7973172Y33498561D01*
X7971963Y33459377D01*
X7970623Y33445486D01*
X7970099Y33445532D01*
X7952287Y33450580D01*
X7919823Y33461420D01*
X7874114Y33477354D01*
X7874114Y33681827D01*
X7873824Y33762168D01*
X7872474Y33820438D01*
X7869369Y33860091D01*
X7863812Y33886382D01*
X7855107Y33904564D01*
X7842556Y33919893D01*
X7833999Y33928045D01*
X7787728Y33950625D01*
X7736728Y33948625D01*
X7689993Y33921927D01*
X7683189Y33915302D01*
X7672293Y33901544D01*
X7664836Y33883358D01*
X7660169Y33855823D01*
X7657642Y33814019D01*
X7656602Y33753027D01*
X7656400Y33667927D01*
X7656303Y33624766D01*
X7655674Y33553776D01*
X7654556Y33496924D01*
X7653063Y33459172D01*
X7651309Y33445486D01*
X7650785Y33445532D01*
X7632973Y33450580D01*
X7600509Y33461420D01*
X7554800Y33477354D01*
X7554823Y33682763D01*
X7554857Y33701049D01*
X7556778Y33796374D01*
X7562678Y33868457D01*
X7574001Y33922187D01*
X7592187Y33962451D01*
X7618679Y33994139D01*
X7654918Y34022139D01*
X7690263Y34039667D01*
X7746773Y34053215D01*
X7802356Y34053985D01*
X7845086Y34040805D01*
X7848298Y34038985D01*
X7858205Y34039180D01*
X7864975Y34054428D01*
X7869861Y34089387D01*
X7874114Y34148711D01*
X7881371Y34270453D01*
X7928543Y34250556D01*
X4096405Y34033034D02*
X4038979Y33995503D01*
X4038979Y33995503D02*
X4011281Y33961904D01*
X4011281Y33961904D02*
X3989338Y33900936D01*
X3989338Y33900936D02*
X3987595Y33852692D01*
X3987595Y33852692D02*
X3991543Y33788184D01*
X3991543Y33788184D02*
X4140314Y33723066D01*
X4140314Y33723066D02*
X4212651Y33689798D01*
X4212651Y33689798D02*
X4259916Y33663036D01*
X4259916Y33663036D02*
X4284493Y33639856D01*
X4284493Y33639856D02*
X4288763Y33617333D01*
X4288763Y33617333D02*
X4275111Y33592545D01*
X4275111Y33592545D02*
X4260057Y33576114D01*
X4260057Y33576114D02*
X4216254Y33549765D01*
X4216254Y33549765D02*
X4168611Y33547919D01*
X4168611Y33547919D02*
X4124855Y33568454D01*
X4124855Y33568454D02*
X4092711Y33609248D01*
X4092711Y33609248D02*
X4086962Y33623653D01*
X4086962Y33623653D02*
X4059424Y33668644D01*
X4059424Y33668644D02*
X4027742Y33687818D01*
X4027742Y33687818D02*
X3984286Y33704221D01*
X3984286Y33704221D02*
X3984286Y33642034D01*
X3984286Y33642034D02*
X3988128Y33599717D01*
X3988128Y33599717D02*
X4003177Y33564031D01*
X4003177Y33564031D02*
X4034720Y33523057D01*
X4034720Y33523057D02*
X4039408Y33517733D01*
X4039408Y33517733D02*
X4074494Y33481280D01*
X4074494Y33481280D02*
X4104653Y33461717D01*
X4104653Y33461717D02*
X4142385Y33452717D01*
X4142385Y33452717D02*
X4173665Y33449770D01*
X4173665Y33449770D02*
X4229615Y33449035D01*
X4229615Y33449035D02*
X4269445Y33458340D01*
X4269445Y33458340D02*
X4294292Y33472154D01*
X4294292Y33472154D02*
X4333344Y33502533D01*
X4333344Y33502533D02*
X4360375Y33535387D01*
X4360375Y33535387D02*
X4377483Y33576706D01*
X4377483Y33576706D02*
X4386762Y33632479D01*
X4386762Y33632479D02*
X4390307Y33708695D01*
X4390307Y33708695D02*
X4390590Y33747378D01*
X4390590Y33747378D02*
X4389628Y33793753D01*
X4389628Y33793753D02*
X4301993Y33793753D01*
X4301993Y33793753D02*
X4300977Y33768874D01*
X4300977Y33768874D02*
X4298444Y33764800D01*
X4298444Y33764800D02*
X4281726Y33770335D01*
X4281726Y33770335D02*
X4245751Y33784983D01*
X4245751Y33784983D02*
X4197669Y33805810D01*
X4197669Y33805810D02*
X4187614Y33810286D01*
X4187614Y33810286D02*
X4126848Y33841186D01*
X4126848Y33841186D02*
X4093368Y33868343D01*
X4093368Y33868343D02*
X4086010Y33893780D01*
X4086010Y33893780D02*
X4103609Y33919519D01*
X4103609Y33919519D02*
X4118144Y33930891D01*
X4118144Y33930891D02*
X4170590Y33953636D01*
X4170590Y33953636D02*
X4219678Y33949878D01*
X4219678Y33949878D02*
X4260773Y33922116D01*
X4260773Y33922116D02*
X4289242Y33872848D01*
X4289242Y33872848D02*
X4298369Y33833743D01*
X4298369Y33833743D02*
X4301993Y33793753D01*
X4301993Y33793753D02*
X4389628Y33793753D01*
X4389628Y33793753D02*
X4388715Y33837751D01*
X4388715Y33837751D02*
X4381804Y33904616D01*
X4381804Y33904616D02*
X4368116Y33953305D01*
X4368116Y33953305D02*
X4345904Y33989151D01*
X4345904Y33989151D02*
X4313426Y34017487D01*
X4313426Y34017487D02*
X4299267Y34026645D01*
X4299267Y34026645D02*
X4234947Y34050493D01*
X4234947Y34050493D02*
X4164527Y34051994D01*
X4164527Y34051994D02*
X4096405Y34033034D01*
X4096405Y34033034D02*
X4096405Y34033034D01*
G36*
X4390307Y33708695D02*
G01*
X4386762Y33632479D01*
X4377483Y33576706D01*
X4360375Y33535387D01*
X4333344Y33502533D01*
X4294292Y33472154D01*
X4269445Y33458340D01*
X4229615Y33449035D01*
X4173665Y33449770D01*
X4142385Y33452717D01*
X4104653Y33461717D01*
X4074494Y33481280D01*
X4039408Y33517733D01*
X4034720Y33523057D01*
X4003177Y33564031D01*
X3988128Y33599717D01*
X3984286Y33642034D01*
X3984286Y33704221D01*
X4027742Y33687818D01*
X4059424Y33668644D01*
X4086962Y33623653D01*
X4092711Y33609248D01*
X4124855Y33568454D01*
X4168611Y33547919D01*
X4216254Y33549765D01*
X4260057Y33576114D01*
X4275111Y33592545D01*
X4288763Y33617333D01*
X4284493Y33639856D01*
X4259916Y33663036D01*
X4212651Y33689798D01*
X4140314Y33723066D01*
X3991543Y33788184D01*
X3987595Y33852692D01*
X3989079Y33893780D01*
X4086010Y33893780D01*
X4093368Y33868343D01*
X4126848Y33841186D01*
X4187614Y33810286D01*
X4197669Y33805810D01*
X4245751Y33784983D01*
X4281726Y33770335D01*
X4298444Y33764800D01*
X4300977Y33768874D01*
X4301993Y33793753D01*
X4298369Y33833743D01*
X4289242Y33872848D01*
X4260773Y33922116D01*
X4219678Y33949878D01*
X4170590Y33953636D01*
X4118144Y33930891D01*
X4103609Y33919519D01*
X4086010Y33893780D01*
X3989079Y33893780D01*
X3989338Y33900936D01*
X4011281Y33961904D01*
X4038979Y33995503D01*
X4096405Y34033034D01*
X4164527Y34051994D01*
X4234947Y34050493D01*
X4299267Y34026645D01*
X4313426Y34017487D01*
X4345904Y33989151D01*
X4368116Y33953305D01*
X4381804Y33904616D01*
X4388715Y33837751D01*
X4389628Y33793753D01*
X4390590Y33747378D01*
X4390307Y33708695D01*
G37*
X4390307Y33708695D02*
X4386762Y33632479D01*
X4377483Y33576706D01*
X4360375Y33535387D01*
X4333344Y33502533D01*
X4294292Y33472154D01*
X4269445Y33458340D01*
X4229615Y33449035D01*
X4173665Y33449770D01*
X4142385Y33452717D01*
X4104653Y33461717D01*
X4074494Y33481280D01*
X4039408Y33517733D01*
X4034720Y33523057D01*
X4003177Y33564031D01*
X3988128Y33599717D01*
X3984286Y33642034D01*
X3984286Y33704221D01*
X4027742Y33687818D01*
X4059424Y33668644D01*
X4086962Y33623653D01*
X4092711Y33609248D01*
X4124855Y33568454D01*
X4168611Y33547919D01*
X4216254Y33549765D01*
X4260057Y33576114D01*
X4275111Y33592545D01*
X4288763Y33617333D01*
X4284493Y33639856D01*
X4259916Y33663036D01*
X4212651Y33689798D01*
X4140314Y33723066D01*
X3991543Y33788184D01*
X3987595Y33852692D01*
X3989079Y33893780D01*
X4086010Y33893780D01*
X4093368Y33868343D01*
X4126848Y33841186D01*
X4187614Y33810286D01*
X4197669Y33805810D01*
X4245751Y33784983D01*
X4281726Y33770335D01*
X4298444Y33764800D01*
X4300977Y33768874D01*
X4301993Y33793753D01*
X4298369Y33833743D01*
X4289242Y33872848D01*
X4260773Y33922116D01*
X4219678Y33949878D01*
X4170590Y33953636D01*
X4118144Y33930891D01*
X4103609Y33919519D01*
X4086010Y33893780D01*
X3989079Y33893780D01*
X3989338Y33900936D01*
X4011281Y33961904D01*
X4038979Y33995503D01*
X4096405Y34033034D01*
X4164527Y34051994D01*
X4234947Y34050493D01*
X4299267Y34026645D01*
X4313426Y34017487D01*
X4345904Y33989151D01*
X4368116Y33953305D01*
X4381804Y33904616D01*
X4388715Y33837751D01*
X4389628Y33793753D01*
X4390590Y33747378D01*
X4390307Y33708695D01*
X6720074Y34050245D02*
X6654142Y34025916D01*
X6654142Y34025916D02*
X6600727Y33982883D01*
X6600727Y33982883D02*
X6579836Y33952591D01*
X6579836Y33952591D02*
X6557061Y33897006D01*
X6557061Y33897006D02*
X6557534Y33856814D01*
X6557534Y33856814D02*
X6581438Y33829783D01*
X6581438Y33829783D02*
X6590283Y33825187D01*
X6590283Y33825187D02*
X6628470Y33810856D01*
X6628470Y33810856D02*
X6647972Y33814528D01*
X6647972Y33814528D02*
X6654578Y33838593D01*
X6654578Y33838593D02*
X6654914Y33851886D01*
X6654914Y33851886D02*
X6667008Y33900790D01*
X6667008Y33900790D02*
X6698529Y33935001D01*
X6698529Y33935001D02*
X6742341Y33951524D01*
X6742341Y33951524D02*
X6791305Y33947366D01*
X6791305Y33947366D02*
X6831106Y33925773D01*
X6831106Y33925773D02*
X6844550Y33913456D01*
X6844550Y33913456D02*
X6854079Y33898513D01*
X6854079Y33898513D02*
X6860515Y33875925D01*
X6860515Y33875925D02*
X6864683Y33840672D01*
X6864683Y33840672D02*
X6867403Y33787734D01*
X6867403Y33787734D02*
X6869498Y33712093D01*
X6869498Y33712093D02*
X6870040Y33688143D01*
X6870040Y33688143D02*
X6872019Y33606210D01*
X6872019Y33606210D02*
X6874269Y33548545D01*
X6874269Y33548545D02*
X6877643Y33510392D01*
X6877643Y33510392D02*
X6882994Y33486996D01*
X6882994Y33486996D02*
X6891176Y33473602D01*
X6891176Y33473602D02*
X6903041Y33465455D01*
X6903041Y33465455D02*
X6910638Y33461856D01*
X6910638Y33461856D02*
X6942898Y33449548D01*
X6942898Y33449548D02*
X6961889Y33445486D01*
X6961889Y33445486D02*
X6968164Y33459052D01*
X6968164Y33459052D02*
X6971994Y33500066D01*
X6971994Y33500066D02*
X6973400Y33569001D01*
X6973400Y33569001D02*
X6972402Y33666331D01*
X6972402Y33666331D02*
X6972092Y33681343D01*
X6972092Y33681343D02*
X6969899Y33770141D01*
X6969899Y33770141D02*
X6967307Y33834981D01*
X6967307Y33834981D02*
X6963618Y33880933D01*
X6963618Y33880933D02*
X6958136Y33913065D01*
X6958136Y33913065D02*
X6950165Y33936447D01*
X6950165Y33936447D02*
X6939007Y33956148D01*
X6939007Y33956148D02*
X6933170Y33964590D01*
X6933170Y33964590D02*
X6899704Y34001943D01*
X6899704Y34001943D02*
X6862273Y34030997D01*
X6862273Y34030997D02*
X6857691Y34033533D01*
X6857691Y34033533D02*
X6790574Y34053557D01*
X6790574Y34053557D02*
X6720074Y34050245D01*
X6720074Y34050245D02*
X6720074Y34050245D01*
G36*
X6857691Y34033533D02*
G01*
X6862273Y34030997D01*
X6899704Y34001943D01*
X6933170Y33964590D01*
X6939007Y33956148D01*
X6950165Y33936447D01*
X6958136Y33913065D01*
X6963618Y33880933D01*
X6967307Y33834981D01*
X6969899Y33770141D01*
X6972092Y33681343D01*
X6972402Y33666331D01*
X6973400Y33569001D01*
X6971994Y33500066D01*
X6968164Y33459052D01*
X6961889Y33445486D01*
X6942898Y33449548D01*
X6910638Y33461856D01*
X6903041Y33465455D01*
X6891176Y33473602D01*
X6882994Y33486996D01*
X6877643Y33510392D01*
X6874269Y33548545D01*
X6872019Y33606210D01*
X6870040Y33688143D01*
X6869498Y33712093D01*
X6867403Y33787734D01*
X6864683Y33840672D01*
X6860515Y33875925D01*
X6854079Y33898513D01*
X6844550Y33913456D01*
X6831106Y33925773D01*
X6791305Y33947366D01*
X6742341Y33951524D01*
X6698529Y33935001D01*
X6667008Y33900790D01*
X6654914Y33851886D01*
X6654578Y33838593D01*
X6647972Y33814528D01*
X6628470Y33810856D01*
X6590283Y33825187D01*
X6581438Y33829783D01*
X6557534Y33856814D01*
X6557061Y33897006D01*
X6579836Y33952591D01*
X6600727Y33982883D01*
X6654142Y34025916D01*
X6720074Y34050245D01*
X6790574Y34053557D01*
X6857691Y34033533D01*
G37*
X6857691Y34033533D02*
X6862273Y34030997D01*
X6899704Y34001943D01*
X6933170Y33964590D01*
X6939007Y33956148D01*
X6950165Y33936447D01*
X6958136Y33913065D01*
X6963618Y33880933D01*
X6967307Y33834981D01*
X6969899Y33770141D01*
X6972092Y33681343D01*
X6972402Y33666331D01*
X6973400Y33569001D01*
X6971994Y33500066D01*
X6968164Y33459052D01*
X6961889Y33445486D01*
X6942898Y33449548D01*
X6910638Y33461856D01*
X6903041Y33465455D01*
X6891176Y33473602D01*
X6882994Y33486996D01*
X6877643Y33510392D01*
X6874269Y33548545D01*
X6872019Y33606210D01*
X6870040Y33688143D01*
X6869498Y33712093D01*
X6867403Y33787734D01*
X6864683Y33840672D01*
X6860515Y33875925D01*
X6854079Y33898513D01*
X6844550Y33913456D01*
X6831106Y33925773D01*
X6791305Y33947366D01*
X6742341Y33951524D01*
X6698529Y33935001D01*
X6667008Y33900790D01*
X6654914Y33851886D01*
X6654578Y33838593D01*
X6647972Y33814528D01*
X6628470Y33810856D01*
X6590283Y33825187D01*
X6581438Y33829783D01*
X6557534Y33856814D01*
X6557061Y33897006D01*
X6579836Y33952591D01*
X6600727Y33982883D01*
X6654142Y34025916D01*
X6720074Y34050245D01*
X6790574Y34053557D01*
X6857691Y34033533D01*
X7210256Y34049032D02*
X7153384Y34027913D01*
X7153384Y34027913D02*
X7152733Y34027507D01*
X7152733Y34027507D02*
X7117560Y34001620D01*
X7117560Y34001620D02*
X7091593Y33971367D01*
X7091593Y33971367D02*
X7073330Y33931942D01*
X7073330Y33931942D02*
X7061268Y33878538D01*
X7061268Y33878538D02*
X7053904Y33806349D01*
X7053904Y33806349D02*
X7049736Y33710568D01*
X7049736Y33710568D02*
X7049371Y33696922D01*
X7049371Y33696922D02*
X7044124Y33491158D01*
X7044124Y33491158D02*
X7088284Y33468322D01*
X7088284Y33468322D02*
X7120237Y33452890D01*
X7120237Y33452890D02*
X7139530Y33445577D01*
X7139530Y33445577D02*
X7140422Y33445486D01*
X7140422Y33445486D02*
X7143761Y33458978D01*
X7143761Y33458978D02*
X7146413Y33495374D01*
X7146413Y33495374D02*
X7148044Y33548548D01*
X7148044Y33548548D02*
X7148400Y33591607D01*
X7148400Y33591607D02*
X7148408Y33661359D01*
X7148408Y33661359D02*
X7151597Y33705163D01*
X7151597Y33705163D02*
X7162712Y33726056D01*
X7162712Y33726056D02*
X7186499Y33727075D01*
X7186499Y33727075D02*
X7227704Y33711259D01*
X7227704Y33711259D02*
X7289914Y33682185D01*
X7289914Y33682185D02*
X7335659Y33658037D01*
X7335659Y33658037D02*
X7359187Y33637087D01*
X7359187Y33637087D02*
X7366104Y33614253D01*
X7366104Y33614253D02*
X7366114Y33613123D01*
X7366114Y33613123D02*
X7354701Y33573788D01*
X7354701Y33573788D02*
X7320908Y33552538D01*
X7320908Y33552538D02*
X7269191Y33549461D01*
X7269191Y33549461D02*
X7231939Y33549994D01*
X7231939Y33549994D02*
X7212297Y33539265D01*
X7212297Y33539265D02*
X7200048Y33513495D01*
X7200048Y33513495D02*
X7192998Y33480663D01*
X7192998Y33480663D02*
X7203158Y33462034D01*
X7203158Y33462034D02*
X7206983Y33459368D01*
X7206983Y33459368D02*
X7242999Y33448660D01*
X7242999Y33448660D02*
X7293434Y33447144D01*
X7293434Y33447144D02*
X7345374Y33454241D01*
X7345374Y33454241D02*
X7382178Y33467212D01*
X7382178Y33467212D02*
X7433062Y33510415D01*
X7433062Y33510415D02*
X7461986Y33570554D01*
X7461986Y33570554D02*
X7467714Y33617538D01*
X7467714Y33617538D02*
X7463343Y33659918D01*
X7463343Y33659918D02*
X7447525Y33694512D01*
X7447525Y33694512D02*
X7416203Y33725237D01*
X7416203Y33725237D02*
X7365322Y33756010D01*
X7365322Y33756010D02*
X7290824Y33790748D01*
X7290824Y33790748D02*
X7286286Y33792712D01*
X7286286Y33792712D02*
X7219179Y33823713D01*
X7219179Y33823713D02*
X7177768Y33849138D01*
X7177768Y33849138D02*
X7160019Y33871986D01*
X7160019Y33871986D02*
X7163893Y33895255D01*
X7163893Y33895255D02*
X7187357Y33921944D01*
X7187357Y33921944D02*
X7194373Y33928086D01*
X7194373Y33928086D02*
X7241370Y33951900D01*
X7241370Y33951900D02*
X7290067Y33950897D01*
X7290067Y33950897D02*
X7332478Y33927549D01*
X7332478Y33927549D02*
X7360616Y33884325D01*
X7360616Y33884325D02*
X7363231Y33875840D01*
X7363231Y33875840D02*
X7388692Y33834692D01*
X7388692Y33834692D02*
X7420999Y33814872D01*
X7420999Y33814872D02*
X7467714Y33795230D01*
X7467714Y33795230D02*
X7467714Y33846050D01*
X7467714Y33846050D02*
X7453504Y33919918D01*
X7453504Y33919918D02*
X7411325Y33987673D01*
X7411325Y33987673D02*
X7389376Y34010339D01*
X7389376Y34010339D02*
X7339483Y34039431D01*
X7339483Y34039431D02*
X7276033Y34052600D01*
X7276033Y34052600D02*
X7210256Y34049032D01*
X7210256Y34049032D02*
X7210256Y34049032D01*
G36*
X7339483Y34039431D02*
G01*
X7389376Y34010339D01*
X7411325Y33987673D01*
X7453504Y33919918D01*
X7467714Y33846050D01*
X7467714Y33795230D01*
X7420999Y33814872D01*
X7388692Y33834692D01*
X7363231Y33875840D01*
X7360616Y33884325D01*
X7332478Y33927549D01*
X7290067Y33950897D01*
X7241370Y33951900D01*
X7194373Y33928086D01*
X7187357Y33921944D01*
X7163893Y33895255D01*
X7160019Y33871986D01*
X7177768Y33849138D01*
X7219179Y33823713D01*
X7286286Y33792712D01*
X7290824Y33790748D01*
X7365322Y33756010D01*
X7416203Y33725237D01*
X7447525Y33694512D01*
X7463343Y33659918D01*
X7467714Y33617538D01*
X7461986Y33570554D01*
X7433062Y33510415D01*
X7382178Y33467212D01*
X7345374Y33454241D01*
X7293434Y33447144D01*
X7242999Y33448660D01*
X7206983Y33459368D01*
X7203158Y33462034D01*
X7192998Y33480663D01*
X7200048Y33513495D01*
X7212297Y33539265D01*
X7231939Y33549994D01*
X7269191Y33549461D01*
X7320908Y33552538D01*
X7354701Y33573788D01*
X7366114Y33613123D01*
X7366104Y33614253D01*
X7359187Y33637087D01*
X7335659Y33658037D01*
X7289914Y33682185D01*
X7227704Y33711259D01*
X7186499Y33727075D01*
X7162712Y33726056D01*
X7151597Y33705163D01*
X7148408Y33661359D01*
X7148400Y33591607D01*
X7148044Y33548548D01*
X7146413Y33495374D01*
X7143761Y33458978D01*
X7140422Y33445486D01*
X7139530Y33445577D01*
X7120237Y33452890D01*
X7088284Y33468322D01*
X7044124Y33491158D01*
X7049371Y33696922D01*
X7049736Y33710568D01*
X7053904Y33806349D01*
X7061268Y33878538D01*
X7073330Y33931942D01*
X7091593Y33971367D01*
X7117560Y34001620D01*
X7152733Y34027507D01*
X7153384Y34027913D01*
X7210256Y34049032D01*
X7276033Y34052600D01*
X7339483Y34039431D01*
G37*
X7339483Y34039431D02*
X7389376Y34010339D01*
X7411325Y33987673D01*
X7453504Y33919918D01*
X7467714Y33846050D01*
X7467714Y33795230D01*
X7420999Y33814872D01*
X7388692Y33834692D01*
X7363231Y33875840D01*
X7360616Y33884325D01*
X7332478Y33927549D01*
X7290067Y33950897D01*
X7241370Y33951900D01*
X7194373Y33928086D01*
X7187357Y33921944D01*
X7163893Y33895255D01*
X7160019Y33871986D01*
X7177768Y33849138D01*
X7219179Y33823713D01*
X7286286Y33792712D01*
X7290824Y33790748D01*
X7365322Y33756010D01*
X7416203Y33725237D01*
X7447525Y33694512D01*
X7463343Y33659918D01*
X7467714Y33617538D01*
X7461986Y33570554D01*
X7433062Y33510415D01*
X7382178Y33467212D01*
X7345374Y33454241D01*
X7293434Y33447144D01*
X7242999Y33448660D01*
X7206983Y33459368D01*
X7203158Y33462034D01*
X7192998Y33480663D01*
X7200048Y33513495D01*
X7212297Y33539265D01*
X7231939Y33549994D01*
X7269191Y33549461D01*
X7320908Y33552538D01*
X7354701Y33573788D01*
X7366114Y33613123D01*
X7366104Y33614253D01*
X7359187Y33637087D01*
X7335659Y33658037D01*
X7289914Y33682185D01*
X7227704Y33711259D01*
X7186499Y33727075D01*
X7162712Y33726056D01*
X7151597Y33705163D01*
X7148408Y33661359D01*
X7148400Y33591607D01*
X7148044Y33548548D01*
X7146413Y33495374D01*
X7143761Y33458978D01*
X7140422Y33445486D01*
X7139530Y33445577D01*
X7120237Y33452890D01*
X7088284Y33468322D01*
X7044124Y33491158D01*
X7049371Y33696922D01*
X7049736Y33710568D01*
X7053904Y33806349D01*
X7061268Y33878538D01*
X7073330Y33931942D01*
X7091593Y33971367D01*
X7117560Y34001620D01*
X7152733Y34027507D01*
X7153384Y34027913D01*
X7210256Y34049032D01*
X7276033Y34052600D01*
X7339483Y34039431D01*
X8533907Y34072220D02*
X8487328Y34045277D01*
X8487328Y34045277D02*
X8454943Y34018534D01*
X8454943Y34018534D02*
X8431258Y33990516D01*
X8431258Y33990516D02*
X8414941Y33956252D01*
X8414941Y33956252D02*
X8404661Y33910773D01*
X8404661Y33910773D02*
X8399086Y33849108D01*
X8399086Y33849108D02*
X8396884Y33766289D01*
X8396884Y33766289D02*
X8396629Y33706754D01*
X8396629Y33706754D02*
X8396629Y33487609D01*
X8396629Y33487609D02*
X8458314Y33459956D01*
X8458314Y33459956D02*
X8520000Y33432303D01*
X8520000Y33432303D02*
X8527257Y33672330D01*
X8527257Y33672330D02*
X8530256Y33761972D01*
X8530256Y33761972D02*
X8533402Y33827038D01*
X8533402Y33827038D02*
X8537299Y33871974D01*
X8537299Y33871974D02*
X8542553Y33901230D01*
X8542553Y33901230D02*
X8549769Y33919252D01*
X8549769Y33919252D02*
X8559550Y33930489D01*
X8559550Y33930489D02*
X8562688Y33932921D01*
X8562688Y33932921D02*
X8610239Y33951917D01*
X8610239Y33951917D02*
X8658303Y33944400D01*
X8658303Y33944400D02*
X8686914Y33924457D01*
X8686914Y33924457D02*
X8698553Y33910325D01*
X8698553Y33910325D02*
X8706609Y33891780D01*
X8706609Y33891780D02*
X8711729Y33863666D01*
X8711729Y33863666D02*
X8714559Y33820827D01*
X8714559Y33820827D02*
X8715744Y33758105D01*
X8715744Y33758105D02*
X8715943Y33692739D01*
X8715943Y33692739D02*
X8715982Y33610732D01*
X8715982Y33610732D02*
X8717386Y33552684D01*
X8717386Y33552684D02*
X8722086Y33513535D01*
X8722086Y33513535D02*
X8732013Y33488220D01*
X8732013Y33488220D02*
X8749097Y33471677D01*
X8749097Y33471677D02*
X8775268Y33458844D01*
X8775268Y33458844D02*
X8810225Y33445509D01*
X8810225Y33445509D02*
X8848404Y33430993D01*
X8848404Y33430993D02*
X8843859Y33688611D01*
X8843859Y33688611D02*
X8842029Y33781481D01*
X8842029Y33781481D02*
X8839888Y33850111D01*
X8839888Y33850111D02*
X8836819Y33899289D01*
X8836819Y33899289D02*
X8832206Y33933802D01*
X8832206Y33933802D02*
X8825432Y33958438D01*
X8825432Y33958438D02*
X8815881Y33977984D01*
X8815881Y33977984D02*
X8804366Y33995230D01*
X8804366Y33995230D02*
X8748810Y34050320D01*
X8748810Y34050320D02*
X8681020Y34082178D01*
X8681020Y34082178D02*
X8607287Y34089809D01*
X8607287Y34089809D02*
X8533907Y34072220D01*
X8533907Y34072220D02*
X8533907Y34072220D01*
G36*
X8681020Y34082178D02*
G01*
X8748810Y34050320D01*
X8804366Y33995230D01*
X8815881Y33977984D01*
X8825432Y33958438D01*
X8832206Y33933802D01*
X8836819Y33899289D01*
X8839888Y33850111D01*
X8842029Y33781481D01*
X8843859Y33688611D01*
X8848404Y33430993D01*
X8810225Y33445509D01*
X8775268Y33458844D01*
X8749097Y33471677D01*
X8732013Y33488220D01*
X8722086Y33513535D01*
X8717386Y33552684D01*
X8715982Y33610732D01*
X8715943Y33692739D01*
X8715744Y33758105D01*
X8714559Y33820827D01*
X8711729Y33863666D01*
X8706609Y33891780D01*
X8698553Y33910325D01*
X8686914Y33924457D01*
X8658303Y33944400D01*
X8610239Y33951917D01*
X8562688Y33932921D01*
X8559550Y33930489D01*
X8549769Y33919252D01*
X8542553Y33901230D01*
X8537299Y33871974D01*
X8533402Y33827038D01*
X8530256Y33761972D01*
X8527257Y33672330D01*
X8520000Y33432303D01*
X8458314Y33459956D01*
X8396629Y33487609D01*
X8396629Y33706754D01*
X8396884Y33766289D01*
X8399086Y33849108D01*
X8404661Y33910773D01*
X8414941Y33956252D01*
X8431258Y33990516D01*
X8454943Y34018534D01*
X8487328Y34045277D01*
X8533907Y34072220D01*
X8607287Y34089809D01*
X8681020Y34082178D01*
G37*
X8681020Y34082178D02*
X8748810Y34050320D01*
X8804366Y33995230D01*
X8815881Y33977984D01*
X8825432Y33958438D01*
X8832206Y33933802D01*
X8836819Y33899289D01*
X8839888Y33850111D01*
X8842029Y33781481D01*
X8843859Y33688611D01*
X8848404Y33430993D01*
X8810225Y33445509D01*
X8775268Y33458844D01*
X8749097Y33471677D01*
X8732013Y33488220D01*
X8722086Y33513535D01*
X8717386Y33552684D01*
X8715982Y33610732D01*
X8715943Y33692739D01*
X8715744Y33758105D01*
X8714559Y33820827D01*
X8711729Y33863666D01*
X8706609Y33891780D01*
X8698553Y33910325D01*
X8686914Y33924457D01*
X8658303Y33944400D01*
X8610239Y33951917D01*
X8562688Y33932921D01*
X8559550Y33930489D01*
X8549769Y33919252D01*
X8542553Y33901230D01*
X8537299Y33871974D01*
X8533402Y33827038D01*
X8530256Y33761972D01*
X8527257Y33672330D01*
X8520000Y33432303D01*
X8458314Y33459956D01*
X8396629Y33487609D01*
X8396629Y33706754D01*
X8396884Y33766289D01*
X8399086Y33849108D01*
X8404661Y33910773D01*
X8414941Y33956252D01*
X8431258Y33990516D01*
X8454943Y34018534D01*
X8487328Y34045277D01*
X8533907Y34072220D01*
X8607287Y34089809D01*
X8681020Y34082178D01*
X7146090Y38757652D02*
X7067546Y38757222D01*
X7067546Y38757222D02*
X7010702Y38756058D01*
X7010702Y38756058D02*
X6971895Y38753793D01*
X6971895Y38753793D02*
X6947462Y38750060D01*
X6947462Y38750060D02*
X6933738Y38744494D01*
X6933738Y38744494D02*
X6927060Y38736727D01*
X6927060Y38736727D02*
X6923764Y38726395D01*
X6923764Y38726395D02*
X6923444Y38725057D01*
X6923444Y38725057D02*
X6918438Y38700921D01*
X6918438Y38700921D02*
X6909171Y38653299D01*
X6909171Y38653299D02*
X6896608Y38587259D01*
X6896608Y38587259D02*
X6881713Y38507872D01*
X6881713Y38507872D02*
X6865449Y38420204D01*
X6865449Y38420204D02*
X6864881Y38417125D01*
X6864881Y38417125D02*
X6848590Y38331211D01*
X6848590Y38331211D02*
X6833348Y38255304D01*
X6833348Y38255304D02*
X6820139Y38193955D01*
X6820139Y38193955D02*
X6809946Y38151718D01*
X6809946Y38151718D02*
X6803752Y38133145D01*
X6803752Y38133145D02*
X6803457Y38132816D01*
X6803457Y38132816D02*
X6785212Y38123747D01*
X6785212Y38123747D02*
X6747595Y38108633D01*
X6747595Y38108633D02*
X6698729Y38090738D01*
X6698729Y38090738D02*
X6698457Y38090642D01*
X6698457Y38090642D02*
X6636907Y38067507D01*
X6636907Y38067507D02*
X6564343Y38038035D01*
X6564343Y38038035D02*
X6495943Y38008403D01*
X6495943Y38008403D02*
X6492706Y38006938D01*
X6492706Y38006938D02*
X6381298Y37956374D01*
X6381298Y37956374D02*
X6134601Y38124840D01*
X6134601Y38124840D02*
X6058923Y38176197D01*
X6058923Y38176197D02*
X5990369Y38222111D01*
X5990369Y38222111D02*
X5932912Y38259970D01*
X5932912Y38259970D02*
X5890524Y38287163D01*
X5890524Y38287163D02*
X5867175Y38301079D01*
X5867175Y38301079D02*
X5864958Y38302111D01*
X5864958Y38302111D02*
X5847990Y38297516D01*
X5847990Y38297516D02*
X5816299Y38275345D01*
X5816299Y38275345D02*
X5768648Y38234553D01*
X5768648Y38234553D02*
X5703802Y38174095D01*
X5703802Y38174095D02*
X5637603Y38109773D01*
X5637603Y38109773D02*
X5573786Y38046388D01*
X5573786Y38046388D02*
X5516671Y37988549D01*
X5516671Y37988549D02*
X5469695Y37939825D01*
X5469695Y37939825D02*
X5436297Y37903790D01*
X5436297Y37903790D02*
X5419915Y37884016D01*
X5419915Y37884016D02*
X5419306Y37882998D01*
X5419306Y37882998D02*
X5417495Y37869428D01*
X5417495Y37869428D02*
X5424317Y37847267D01*
X5424317Y37847267D02*
X5441460Y37813522D01*
X5441460Y37813522D02*
X5470607Y37765200D01*
X5470607Y37765200D02*
X5513445Y37699308D01*
X5513445Y37699308D02*
X5570552Y37614483D01*
X5570552Y37614483D02*
X5621234Y37539823D01*
X5621234Y37539823D02*
X5666539Y37472860D01*
X5666539Y37472860D02*
X5703850Y37417484D01*
X5703850Y37417484D02*
X5730548Y37377580D01*
X5730548Y37377580D02*
X5744015Y37357038D01*
X5744015Y37357038D02*
X5744863Y37355644D01*
X5744863Y37355644D02*
X5743219Y37335962D01*
X5743219Y37335962D02*
X5730755Y37297707D01*
X5730755Y37297707D02*
X5709952Y37248111D01*
X5709952Y37248111D02*
X5702538Y37232272D01*
X5702538Y37232272D02*
X5670186Y37161710D01*
X5670186Y37161710D02*
X5635672Y37081647D01*
X5635672Y37081647D02*
X5607635Y37012371D01*
X5607635Y37012371D02*
X5587432Y36960955D01*
X5587432Y36960955D02*
X5571385Y36921881D01*
X5571385Y36921881D02*
X5562112Y36901459D01*
X5562112Y36901459D02*
X5560959Y36899886D01*
X5560959Y36899886D02*
X5543904Y36897279D01*
X5543904Y36897279D02*
X5503702Y36890137D01*
X5503702Y36890137D02*
X5445698Y36879477D01*
X5445698Y36879477D02*
X5375237Y36866315D01*
X5375237Y36866315D02*
X5297665Y36851667D01*
X5297665Y36851667D02*
X5218328Y36836551D01*
X5218328Y36836551D02*
X5142569Y36821982D01*
X5142569Y36821982D02*
X5075736Y36808978D01*
X5075736Y36808978D02*
X5023172Y36798555D01*
X5023172Y36798555D02*
X4990224Y36791730D01*
X4990224Y36791730D02*
X4982143Y36789801D01*
X4982143Y36789801D02*
X4973795Y36785038D01*
X4973795Y36785038D02*
X4967494Y36774282D01*
X4967494Y36774282D02*
X4962955Y36753902D01*
X4962955Y36753902D02*
X4959896Y36720266D01*
X4959896Y36720266D02*
X4958033Y36669745D01*
X4958033Y36669745D02*
X4957082Y36598708D01*
X4957082Y36598708D02*
X4956760Y36503524D01*
X4956760Y36503524D02*
X4956743Y36464508D01*
X4956743Y36464508D02*
X4956743Y36147201D01*
X4956743Y36147201D02*
X5032943Y36132161D01*
X5032943Y36132161D02*
X5075337Y36124005D01*
X5075337Y36124005D02*
X5138600Y36112101D01*
X5138600Y36112101D02*
X5215038Y36097884D01*
X5215038Y36097884D02*
X5296957Y36082790D01*
X5296957Y36082790D02*
X5319600Y36078645D01*
X5319600Y36078645D02*
X5395194Y36063947D01*
X5395194Y36063947D02*
X5461047Y36049495D01*
X5461047Y36049495D02*
X5511634Y36036625D01*
X5511634Y36036625D02*
X5541426Y36026678D01*
X5541426Y36026678D02*
X5546388Y36023713D01*
X5546388Y36023713D02*
X5558574Y36002717D01*
X5558574Y36002717D02*
X5576047Y35962033D01*
X5576047Y35962033D02*
X5595423Y35909678D01*
X5595423Y35909678D02*
X5599266Y35898400D01*
X5599266Y35898400D02*
X5624661Y35828477D01*
X5624661Y35828477D02*
X5656183Y35749582D01*
X5656183Y35749582D02*
X5687031Y35678734D01*
X5687031Y35678734D02*
X5687183Y35678405D01*
X5687183Y35678405D02*
X5738553Y35567267D01*
X5738553Y35567267D02*
X5569601Y35318747D01*
X5569601Y35318747D02*
X5400648Y35070228D01*
X5400648Y35070228D02*
X5617571Y34852942D01*
X5617571Y34852942D02*
X5683181Y34788274D01*
X5683181Y34788274D02*
X5743021Y34731267D01*
X5743021Y34731267D02*
X5793733Y34684967D01*
X5793733Y34684967D02*
X5831954Y34652416D01*
X5831954Y34652416D02*
X5854325Y34636657D01*
X5854325Y34636657D02*
X5857534Y34635657D01*
X5857534Y34635657D02*
X5876374Y34643531D01*
X5876374Y34643531D02*
X5914820Y34665422D01*
X5914820Y34665422D02*
X5968670Y34698733D01*
X5968670Y34698733D02*
X6033724Y34740869D01*
X6033724Y34740869D02*
X6104060Y34788057D01*
X6104060Y34788057D02*
X6175445Y34836190D01*
X6175445Y34836190D02*
X6239092Y34878072D01*
X6239092Y34878072D02*
X6290959Y34911129D01*
X6290959Y34911129D02*
X6327005Y34932782D01*
X6327005Y34932782D02*
X6343133Y34940457D01*
X6343133Y34940457D02*
X6362811Y34933963D01*
X6362811Y34933963D02*
X6400125Y34916850D01*
X6400125Y34916850D02*
X6447379Y34892674D01*
X6447379Y34892674D02*
X6452388Y34889987D01*
X6452388Y34889987D02*
X6516023Y34858073D01*
X6516023Y34858073D02*
X6559659Y34842421D01*
X6559659Y34842421D02*
X6586798Y34842255D01*
X6586798Y34842255D02*
X6600943Y34856796D01*
X6600943Y34856796D02*
X6601025Y34857000D01*
X6601025Y34857000D02*
X6608095Y34874221D01*
X6608095Y34874221D02*
X6624958Y34915101D01*
X6624958Y34915101D02*
X6650305Y34976475D01*
X6650305Y34976475D02*
X6682829Y35055181D01*
X6682829Y35055181D02*
X6721222Y35148053D01*
X6721222Y35148053D02*
X6764178Y35251928D01*
X6764178Y35251928D02*
X6805778Y35352498D01*
X6805778Y35352498D02*
X6851496Y35463484D01*
X6851496Y35463484D02*
X6893474Y35566297D01*
X6893474Y35566297D02*
X6930452Y35657785D01*
X6930452Y35657785D02*
X6961173Y35734799D01*
X6961173Y35734799D02*
X6984378Y35794185D01*
X6984378Y35794185D02*
X6998810Y35832791D01*
X6998810Y35832791D02*
X7003257Y35847200D01*
X7003257Y35847200D02*
X6992104Y35863728D01*
X6992104Y35863728D02*
X6962931Y35890070D01*
X6962931Y35890070D02*
X6924029Y35919113D01*
X6924029Y35919113D02*
X6813243Y36010961D01*
X6813243Y36010961D02*
X6726649Y36116241D01*
X6726649Y36116241D02*
X6665284Y36232734D01*
X6665284Y36232734D02*
X6630185Y36358224D01*
X6630185Y36358224D02*
X6622392Y36490493D01*
X6622392Y36490493D02*
X6628057Y36551543D01*
X6628057Y36551543D02*
X6658922Y36678205D01*
X6658922Y36678205D02*
X6712080Y36790059D01*
X6712080Y36790059D02*
X6784233Y36885999D01*
X6784233Y36885999D02*
X6872083Y36964924D01*
X6872083Y36964924D02*
X6972335Y37025730D01*
X6972335Y37025730D02*
X7081690Y37067313D01*
X7081690Y37067313D02*
X7196853Y37088572D01*
X7196853Y37088572D02*
X7314525Y37088401D01*
X7314525Y37088401D02*
X7431410Y37065699D01*
X7431410Y37065699D02*
X7544211Y37019362D01*
X7544211Y37019362D02*
X7649631Y36948287D01*
X7649631Y36948287D02*
X7693632Y36908089D01*
X7693632Y36908089D02*
X7778021Y36804871D01*
X7778021Y36804871D02*
X7836778Y36692075D01*
X7836778Y36692075D02*
X7870296Y36572990D01*
X7870296Y36572990D02*
X7878965Y36450905D01*
X7878965Y36450905D02*
X7863177Y36329107D01*
X7863177Y36329107D02*
X7823322Y36210884D01*
X7823322Y36210884D02*
X7759793Y36099525D01*
X7759793Y36099525D02*
X7672979Y35998316D01*
X7672979Y35998316D02*
X7575971Y35919113D01*
X7575971Y35919113D02*
X7535563Y35888838D01*
X7535563Y35888838D02*
X7507018Y35862781D01*
X7507018Y35862781D02*
X7496743Y35847175D01*
X7496743Y35847175D02*
X7502123Y35830157D01*
X7502123Y35830157D02*
X7517425Y35789500D01*
X7517425Y35789500D02*
X7541388Y35728358D01*
X7541388Y35728358D02*
X7572756Y35649881D01*
X7572756Y35649881D02*
X7610268Y35557220D01*
X7610268Y35557220D02*
X7652667Y35453528D01*
X7652667Y35453528D02*
X7694337Y35352474D01*
X7694337Y35352474D02*
X7740310Y35241393D01*
X7740310Y35241393D02*
X7782893Y35138459D01*
X7782893Y35138459D02*
X7820779Y35046835D01*
X7820779Y35046835D02*
X7852660Y34969684D01*
X7852660Y34969684D02*
X7877229Y34910169D01*
X7877229Y34910169D02*
X7893180Y34871456D01*
X7893180Y34871456D02*
X7899090Y34857000D01*
X7899090Y34857000D02*
X7913052Y34842315D01*
X7913052Y34842315D02*
X7940060Y34842358D01*
X7940060Y34842358D02*
X7983587Y34857901D01*
X7983587Y34857901D02*
X8047110Y34889716D01*
X8047110Y34889716D02*
X8047612Y34889987D01*
X8047612Y34889987D02*
X8095440Y34914677D01*
X8095440Y34914677D02*
X8134103Y34932662D01*
X8134103Y34932662D02*
X8155905Y34940386D01*
X8155905Y34940386D02*
X8156867Y34940457D01*
X8156867Y34940457D02*
X8173279Y34932622D01*
X8173279Y34932622D02*
X8209513Y34910835D01*
X8209513Y34910835D02*
X8261526Y34877672D01*
X8261526Y34877672D02*
X8325275Y34835709D01*
X8325275Y34835709D02*
X8395940Y34788057D01*
X8395940Y34788057D02*
X8467884Y34739809D01*
X8467884Y34739809D02*
X8532726Y34697849D01*
X8532726Y34697849D02*
X8586265Y34664773D01*
X8586265Y34664773D02*
X8624303Y34643179D01*
X8624303Y34643179D02*
X8642467Y34635657D01*
X8642467Y34635657D02*
X8659192Y34645543D01*
X8659192Y34645543D02*
X8692820Y34673174D01*
X8692820Y34673174D02*
X8739990Y34715505D01*
X8739990Y34715505D02*
X8797342Y34769495D01*
X8797342Y34769495D02*
X8861516Y34832101D01*
X8861516Y34832101D02*
X8882503Y34853017D01*
X8882503Y34853017D02*
X9099501Y35070377D01*
X9099501Y35070377D02*
X8934332Y35312780D01*
X8934332Y35312780D02*
X8884136Y35387219D01*
X8884136Y35387219D02*
X8840081Y35454028D01*
X8840081Y35454028D02*
X8804638Y35509335D01*
X8804638Y35509335D02*
X8780281Y35549271D01*
X8780281Y35549271D02*
X8769478Y35569964D01*
X8769478Y35569964D02*
X8769162Y35571437D01*
X8769162Y35571437D02*
X8774857Y35590942D01*
X8774857Y35590942D02*
X8790174Y35630178D01*
X8790174Y35630178D02*
X8812463Y35682570D01*
X8812463Y35682570D02*
X8828107Y35717645D01*
X8828107Y35717645D02*
X8857359Y35784799D01*
X8857359Y35784799D02*
X8884906Y35852642D01*
X8884906Y35852642D02*
X8906263Y35909966D01*
X8906263Y35909966D02*
X8912065Y35927428D01*
X8912065Y35927428D02*
X8928548Y35974062D01*
X8928548Y35974062D02*
X8944660Y36010095D01*
X8944660Y36010095D02*
X8953510Y36023713D01*
X8953510Y36023713D02*
X8973040Y36032048D01*
X8973040Y36032048D02*
X9015666Y36043863D01*
X9015666Y36043863D02*
X9075855Y36057819D01*
X9075855Y36057819D02*
X9148078Y36072578D01*
X9148078Y36072578D02*
X9180400Y36078645D01*
X9180400Y36078645D02*
X9262478Y36093727D01*
X9262478Y36093727D02*
X9341205Y36108331D01*
X9341205Y36108331D02*
X9408891Y36121020D01*
X9408891Y36121020D02*
X9457840Y36130358D01*
X9457840Y36130358D02*
X9467057Y36132161D01*
X9467057Y36132161D02*
X9543257Y36147201D01*
X9543257Y36147201D02*
X9543257Y36464508D01*
X9543257Y36464508D02*
X9543086Y36568846D01*
X9543086Y36568846D02*
X9542384Y36647787D01*
X9542384Y36647787D02*
X9540866Y36704962D01*
X9540866Y36704962D02*
X9538251Y36744001D01*
X9538251Y36744001D02*
X9534254Y36768535D01*
X9534254Y36768535D02*
X9528591Y36782195D01*
X9528591Y36782195D02*
X9520980Y36788611D01*
X9520980Y36788611D02*
X9517857Y36789801D01*
X9517857Y36789801D02*
X9499022Y36794020D01*
X9499022Y36794020D02*
X9457412Y36802438D01*
X9457412Y36802438D02*
X9398370Y36814039D01*
X9398370Y36814039D02*
X9327243Y36827805D01*
X9327243Y36827805D02*
X9249375Y36842720D01*
X9249375Y36842720D02*
X9170113Y36857768D01*
X9170113Y36857768D02*
X9094802Y36871931D01*
X9094802Y36871931D02*
X9028787Y36884194D01*
X9028787Y36884194D02*
X8977413Y36893539D01*
X8977413Y36893539D02*
X8946025Y36898950D01*
X8946025Y36898950D02*
X8939041Y36899886D01*
X8939041Y36899886D02*
X8932715Y36912404D01*
X8932715Y36912404D02*
X8918710Y36945754D01*
X8918710Y36945754D02*
X8899645Y36993623D01*
X8899645Y36993623D02*
X8892366Y37012371D01*
X8892366Y37012371D02*
X8863004Y37084805D01*
X8863004Y37084805D02*
X8828429Y37164830D01*
X8828429Y37164830D02*
X8797463Y37232272D01*
X8797463Y37232272D02*
X8774677Y37283841D01*
X8774677Y37283841D02*
X8759518Y37326215D01*
X8759518Y37326215D02*
X8754458Y37352166D01*
X8754458Y37352166D02*
X8755264Y37355644D01*
X8755264Y37355644D02*
X8765959Y37372064D01*
X8765959Y37372064D02*
X8790380Y37408583D01*
X8790380Y37408583D02*
X8825905Y37461313D01*
X8825905Y37461313D02*
X8869913Y37526365D01*
X8869913Y37526365D02*
X8919783Y37599849D01*
X8919783Y37599849D02*
X8929644Y37614355D01*
X8929644Y37614355D02*
X8987508Y37700296D01*
X8987508Y37700296D02*
X9030044Y37765739D01*
X9030044Y37765739D02*
X9058946Y37813696D01*
X9058946Y37813696D02*
X9075910Y37847180D01*
X9075910Y37847180D02*
X9082633Y37869205D01*
X9082633Y37869205D02*
X9080810Y37882783D01*
X9080810Y37882783D02*
X9080764Y37882869D01*
X9080764Y37882869D02*
X9066414Y37900703D01*
X9066414Y37900703D02*
X9034677Y37935183D01*
X9034677Y37935183D02*
X8988990Y37982732D01*
X8988990Y37982732D02*
X8932796Y38039778D01*
X8932796Y38039778D02*
X8869532Y38102745D01*
X8869532Y38102745D02*
X8862398Y38109773D01*
X8862398Y38109773D02*
X8782670Y38186980D01*
X8782670Y38186980D02*
X8721143Y38243670D01*
X8721143Y38243670D02*
X8676579Y38280890D01*
X8676579Y38280890D02*
X8647743Y38299685D01*
X8647743Y38299685D02*
X8635042Y38302111D01*
X8635042Y38302111D02*
X8616506Y38291529D01*
X8616506Y38291529D02*
X8578039Y38267084D01*
X8578039Y38267084D02*
X8523614Y38231388D01*
X8523614Y38231388D02*
X8457202Y38187053D01*
X8457202Y38187053D02*
X8382775Y38136689D01*
X8382775Y38136689D02*
X8365399Y38124840D01*
X8365399Y38124840D02*
X8118703Y37956374D01*
X8118703Y37956374D02*
X8007294Y38006938D01*
X8007294Y38006938D02*
X7939543Y38036405D01*
X7939543Y38036405D02*
X7866817Y38066041D01*
X7866817Y38066041D02*
X7804297Y38089670D01*
X7804297Y38089670D02*
X7801543Y38090642D01*
X7801543Y38090642D02*
X7752640Y38108543D01*
X7752640Y38108543D02*
X7714943Y38123680D01*
X7714943Y38123680D02*
X7696575Y38132790D01*
X7696575Y38132790D02*
X7696544Y38132816D01*
X7696544Y38132816D02*
X7690715Y38149283D01*
X7690715Y38149283D02*
X7680808Y38189781D01*
X7680808Y38189781D02*
X7667805Y38249758D01*
X7667805Y38249758D02*
X7652691Y38324660D01*
X7652691Y38324660D02*
X7636448Y38409936D01*
X7636448Y38409936D02*
X7635119Y38417125D01*
X7635119Y38417125D02*
X7618825Y38504986D01*
X7618825Y38504986D02*
X7603867Y38584740D01*
X7603867Y38584740D02*
X7591209Y38651319D01*
X7591209Y38651319D02*
X7581814Y38699653D01*
X7581814Y38699653D02*
X7576646Y38724675D01*
X7576646Y38724675D02*
X7576556Y38725057D01*
X7576556Y38725057D02*
X7573411Y38735701D01*
X7573411Y38735701D02*
X7567296Y38743738D01*
X7567296Y38743738D02*
X7554547Y38749533D01*
X7554547Y38749533D02*
X7531500Y38753453D01*
X7531500Y38753453D02*
X7494491Y38755865D01*
X7494491Y38755865D02*
X7439856Y38757135D01*
X7439856Y38757135D02*
X7363933Y38757629D01*
X7363933Y38757629D02*
X7263056Y38757714D01*
X7263056Y38757714D02*
X7250000Y38757714D01*
X7250000Y38757714D02*
X7146090Y38757652D01*
X7146090Y38757652D02*
X7146090Y38757652D01*
G36*
X7363933Y38757629D02*
G01*
X7439856Y38757135D01*
X7494491Y38755865D01*
X7531500Y38753453D01*
X7554547Y38749533D01*
X7567296Y38743738D01*
X7573411Y38735701D01*
X7576556Y38725057D01*
X7576646Y38724675D01*
X7581814Y38699653D01*
X7591209Y38651319D01*
X7603867Y38584740D01*
X7618825Y38504986D01*
X7635119Y38417125D01*
X7636448Y38409936D01*
X7652691Y38324660D01*
X7667805Y38249758D01*
X7680808Y38189781D01*
X7690715Y38149283D01*
X7696544Y38132816D01*
X7696575Y38132790D01*
X7714943Y38123680D01*
X7752640Y38108543D01*
X7801543Y38090642D01*
X7804297Y38089670D01*
X7866817Y38066041D01*
X7939543Y38036405D01*
X8007294Y38006938D01*
X8118703Y37956374D01*
X8365399Y38124840D01*
X8382775Y38136689D01*
X8457202Y38187053D01*
X8523614Y38231388D01*
X8578039Y38267084D01*
X8616506Y38291529D01*
X8635042Y38302111D01*
X8647743Y38299685D01*
X8676579Y38280890D01*
X8721143Y38243670D01*
X8782670Y38186980D01*
X8862398Y38109773D01*
X8869532Y38102745D01*
X8932796Y38039778D01*
X8988990Y37982732D01*
X9034677Y37935183D01*
X9066414Y37900703D01*
X9080764Y37882869D01*
X9080810Y37882783D01*
X9082633Y37869205D01*
X9075910Y37847180D01*
X9058946Y37813696D01*
X9030044Y37765739D01*
X8987508Y37700296D01*
X8929644Y37614355D01*
X8919783Y37599849D01*
X8869913Y37526365D01*
X8825905Y37461313D01*
X8790380Y37408583D01*
X8765959Y37372064D01*
X8755264Y37355644D01*
X8754458Y37352166D01*
X8759518Y37326215D01*
X8774677Y37283841D01*
X8797463Y37232272D01*
X8828429Y37164830D01*
X8863004Y37084805D01*
X8892366Y37012371D01*
X8899645Y36993623D01*
X8918710Y36945754D01*
X8932715Y36912404D01*
X8939041Y36899886D01*
X8946025Y36898950D01*
X8977413Y36893539D01*
X9028787Y36884194D01*
X9094802Y36871931D01*
X9170113Y36857768D01*
X9249375Y36842720D01*
X9327243Y36827805D01*
X9398370Y36814039D01*
X9457412Y36802438D01*
X9499022Y36794020D01*
X9517857Y36789801D01*
X9520980Y36788611D01*
X9528591Y36782195D01*
X9534254Y36768535D01*
X9538251Y36744001D01*
X9540866Y36704962D01*
X9542384Y36647787D01*
X9543086Y36568846D01*
X9543257Y36464508D01*
X9543257Y36147201D01*
X9467057Y36132161D01*
X9457840Y36130358D01*
X9408891Y36121020D01*
X9341205Y36108331D01*
X9262478Y36093727D01*
X9180400Y36078645D01*
X9148078Y36072578D01*
X9075855Y36057819D01*
X9015666Y36043863D01*
X8973040Y36032048D01*
X8953510Y36023713D01*
X8944660Y36010095D01*
X8928548Y35974062D01*
X8912065Y35927428D01*
X8906263Y35909966D01*
X8884906Y35852642D01*
X8857359Y35784799D01*
X8828107Y35717645D01*
X8812463Y35682570D01*
X8790174Y35630178D01*
X8774857Y35590942D01*
X8769162Y35571437D01*
X8769478Y35569964D01*
X8780281Y35549271D01*
X8804638Y35509335D01*
X8840081Y35454028D01*
X8884136Y35387219D01*
X8934332Y35312780D01*
X9099501Y35070377D01*
X8882503Y34853017D01*
X8861516Y34832101D01*
X8797342Y34769495D01*
X8739990Y34715505D01*
X8692820Y34673174D01*
X8659192Y34645543D01*
X8642467Y34635657D01*
X8624303Y34643179D01*
X8586265Y34664773D01*
X8532726Y34697849D01*
X8467884Y34739809D01*
X8395940Y34788057D01*
X8325275Y34835709D01*
X8261526Y34877672D01*
X8209513Y34910835D01*
X8173279Y34932622D01*
X8156867Y34940457D01*
X8155905Y34940386D01*
X8134103Y34932662D01*
X8095440Y34914677D01*
X8047612Y34889987D01*
X8047110Y34889716D01*
X7983587Y34857901D01*
X7940060Y34842358D01*
X7913052Y34842315D01*
X7899090Y34857000D01*
X7893180Y34871456D01*
X7877229Y34910169D01*
X7852660Y34969684D01*
X7820779Y35046835D01*
X7782893Y35138459D01*
X7740310Y35241393D01*
X7694337Y35352474D01*
X7652667Y35453528D01*
X7610268Y35557220D01*
X7572756Y35649881D01*
X7541388Y35728358D01*
X7517425Y35789500D01*
X7502123Y35830157D01*
X7496743Y35847175D01*
X7507018Y35862781D01*
X7535563Y35888838D01*
X7575971Y35919113D01*
X7672979Y35998316D01*
X7759793Y36099525D01*
X7823322Y36210884D01*
X7863177Y36329107D01*
X7878965Y36450905D01*
X7870296Y36572990D01*
X7836778Y36692075D01*
X7778021Y36804871D01*
X7693632Y36908089D01*
X7649631Y36948287D01*
X7544211Y37019362D01*
X7431410Y37065699D01*
X7314525Y37088401D01*
X7196853Y37088572D01*
X7081690Y37067313D01*
X6972335Y37025730D01*
X6872083Y36964924D01*
X6784233Y36885999D01*
X6712080Y36790059D01*
X6658922Y36678205D01*
X6628057Y36551543D01*
X6622392Y36490493D01*
X6630185Y36358224D01*
X6665284Y36232734D01*
X6726649Y36116241D01*
X6813243Y36010961D01*
X6924029Y35919113D01*
X6962931Y35890070D01*
X6992104Y35863728D01*
X7003257Y35847200D01*
X6998810Y35832791D01*
X6984378Y35794185D01*
X6961173Y35734799D01*
X6930452Y35657785D01*
X6893474Y35566297D01*
X6851496Y35463484D01*
X6805778Y35352498D01*
X6764178Y35251928D01*
X6721222Y35148053D01*
X6682829Y35055181D01*
X6650305Y34976475D01*
X6624958Y34915101D01*
X6608095Y34874221D01*
X6601025Y34857000D01*
X6600943Y34856796D01*
X6586798Y34842255D01*
X6559659Y34842421D01*
X6516023Y34858073D01*
X6452388Y34889987D01*
X6447379Y34892674D01*
X6400125Y34916850D01*
X6362811Y34933963D01*
X6343133Y34940457D01*
X6327005Y34932782D01*
X6290959Y34911129D01*
X6239092Y34878072D01*
X6175445Y34836190D01*
X6104060Y34788057D01*
X6033724Y34740869D01*
X5968670Y34698733D01*
X5914820Y34665422D01*
X5876374Y34643531D01*
X5857534Y34635657D01*
X5854325Y34636657D01*
X5831954Y34652416D01*
X5793733Y34684967D01*
X5743021Y34731267D01*
X5683181Y34788274D01*
X5617571Y34852942D01*
X5400648Y35070228D01*
X5569601Y35318747D01*
X5738553Y35567267D01*
X5687183Y35678405D01*
X5687031Y35678734D01*
X5656183Y35749582D01*
X5624661Y35828477D01*
X5599266Y35898400D01*
X5595423Y35909678D01*
X5576047Y35962033D01*
X5558574Y36002717D01*
X5546388Y36023713D01*
X5541426Y36026678D01*
X5511634Y36036625D01*
X5461047Y36049495D01*
X5395194Y36063947D01*
X5319600Y36078645D01*
X5296957Y36082790D01*
X5215038Y36097884D01*
X5138600Y36112101D01*
X5075337Y36124005D01*
X5032943Y36132161D01*
X4956743Y36147201D01*
X4956743Y36464508D01*
X4956760Y36503524D01*
X4957082Y36598708D01*
X4958033Y36669745D01*
X4959896Y36720266D01*
X4962955Y36753902D01*
X4967494Y36774282D01*
X4973795Y36785038D01*
X4982143Y36789801D01*
X4990224Y36791730D01*
X5023172Y36798555D01*
X5075736Y36808978D01*
X5142569Y36821982D01*
X5218328Y36836551D01*
X5297665Y36851667D01*
X5375237Y36866315D01*
X5445698Y36879477D01*
X5503702Y36890137D01*
X5543904Y36897279D01*
X5560959Y36899886D01*
X5562112Y36901459D01*
X5571385Y36921881D01*
X5587432Y36960955D01*
X5607635Y37012371D01*
X5635672Y37081647D01*
X5670186Y37161710D01*
X5702538Y37232272D01*
X5709952Y37248111D01*
X5730755Y37297707D01*
X5743219Y37335962D01*
X5744863Y37355644D01*
X5744015Y37357038D01*
X5730548Y37377580D01*
X5703850Y37417484D01*
X5666539Y37472860D01*
X5621234Y37539823D01*
X5570552Y37614483D01*
X5513445Y37699308D01*
X5470607Y37765200D01*
X5441460Y37813522D01*
X5424317Y37847267D01*
X5417495Y37869428D01*
X5419306Y37882998D01*
X5419915Y37884016D01*
X5436297Y37903790D01*
X5469695Y37939825D01*
X5516671Y37988549D01*
X5573786Y38046388D01*
X5637603Y38109773D01*
X5703802Y38174095D01*
X5768648Y38234553D01*
X5816299Y38275345D01*
X5847990Y38297516D01*
X5864958Y38302111D01*
X5867175Y38301079D01*
X5890524Y38287163D01*
X5932912Y38259970D01*
X5990369Y38222111D01*
X6058923Y38176197D01*
X6134601Y38124840D01*
X6381298Y37956374D01*
X6492706Y38006938D01*
X6495943Y38008403D01*
X6564343Y38038035D01*
X6636907Y38067507D01*
X6698457Y38090642D01*
X6698729Y38090738D01*
X6747595Y38108633D01*
X6785212Y38123747D01*
X6803457Y38132816D01*
X6803752Y38133145D01*
X6809946Y38151718D01*
X6820139Y38193955D01*
X6833348Y38255304D01*
X6848590Y38331211D01*
X6864881Y38417125D01*
X6865449Y38420204D01*
X6881713Y38507872D01*
X6896608Y38587259D01*
X6909171Y38653299D01*
X6918438Y38700921D01*
X6923444Y38725057D01*
X6923764Y38726395D01*
X6927060Y38736727D01*
X6933738Y38744494D01*
X6947462Y38750060D01*
X6971895Y38753793D01*
X7010702Y38756058D01*
X7067546Y38757222D01*
X7146090Y38757652D01*
X7250000Y38757714D01*
X7263056Y38757714D01*
X7363933Y38757629D01*
G37*
X7363933Y38757629D02*
X7439856Y38757135D01*
X7494491Y38755865D01*
X7531500Y38753453D01*
X7554547Y38749533D01*
X7567296Y38743738D01*
X7573411Y38735701D01*
X7576556Y38725057D01*
X7576646Y38724675D01*
X7581814Y38699653D01*
X7591209Y38651319D01*
X7603867Y38584740D01*
X7618825Y38504986D01*
X7635119Y38417125D01*
X7636448Y38409936D01*
X7652691Y38324660D01*
X7667805Y38249758D01*
X7680808Y38189781D01*
X7690715Y38149283D01*
X7696544Y38132816D01*
X7696575Y38132790D01*
X7714943Y38123680D01*
X7752640Y38108543D01*
X7801543Y38090642D01*
X7804297Y38089670D01*
X7866817Y38066041D01*
X7939543Y38036405D01*
X8007294Y38006938D01*
X8118703Y37956374D01*
X8365399Y38124840D01*
X8382775Y38136689D01*
X8457202Y38187053D01*
X8523614Y38231388D01*
X8578039Y38267084D01*
X8616506Y38291529D01*
X8635042Y38302111D01*
X8647743Y38299685D01*
X8676579Y38280890D01*
X8721143Y38243670D01*
X8782670Y38186980D01*
X8862398Y38109773D01*
X8869532Y38102745D01*
X8932796Y38039778D01*
X8988990Y37982732D01*
X9034677Y37935183D01*
X9066414Y37900703D01*
X9080764Y37882869D01*
X9080810Y37882783D01*
X9082633Y37869205D01*
X9075910Y37847180D01*
X9058946Y37813696D01*
X9030044Y37765739D01*
X8987508Y37700296D01*
X8929644Y37614355D01*
X8919783Y37599849D01*
X8869913Y37526365D01*
X8825905Y37461313D01*
X8790380Y37408583D01*
X8765959Y37372064D01*
X8755264Y37355644D01*
X8754458Y37352166D01*
X8759518Y37326215D01*
X8774677Y37283841D01*
X8797463Y37232272D01*
X8828429Y37164830D01*
X8863004Y37084805D01*
X8892366Y37012371D01*
X8899645Y36993623D01*
X8918710Y36945754D01*
X8932715Y36912404D01*
X8939041Y36899886D01*
X8946025Y36898950D01*
X8977413Y36893539D01*
X9028787Y36884194D01*
X9094802Y36871931D01*
X9170113Y36857768D01*
X9249375Y36842720D01*
X9327243Y36827805D01*
X9398370Y36814039D01*
X9457412Y36802438D01*
X9499022Y36794020D01*
X9517857Y36789801D01*
X9520980Y36788611D01*
X9528591Y36782195D01*
X9534254Y36768535D01*
X9538251Y36744001D01*
X9540866Y36704962D01*
X9542384Y36647787D01*
X9543086Y36568846D01*
X9543257Y36464508D01*
X9543257Y36147201D01*
X9467057Y36132161D01*
X9457840Y36130358D01*
X9408891Y36121020D01*
X9341205Y36108331D01*
X9262478Y36093727D01*
X9180400Y36078645D01*
X9148078Y36072578D01*
X9075855Y36057819D01*
X9015666Y36043863D01*
X8973040Y36032048D01*
X8953510Y36023713D01*
X8944660Y36010095D01*
X8928548Y35974062D01*
X8912065Y35927428D01*
X8906263Y35909966D01*
X8884906Y35852642D01*
X8857359Y35784799D01*
X8828107Y35717645D01*
X8812463Y35682570D01*
X8790174Y35630178D01*
X8774857Y35590942D01*
X8769162Y35571437D01*
X8769478Y35569964D01*
X8780281Y35549271D01*
X8804638Y35509335D01*
X8840081Y35454028D01*
X8884136Y35387219D01*
X8934332Y35312780D01*
X9099501Y35070377D01*
X8882503Y34853017D01*
X8861516Y34832101D01*
X8797342Y34769495D01*
X8739990Y34715505D01*
X8692820Y34673174D01*
X8659192Y34645543D01*
X8642467Y34635657D01*
X8624303Y34643179D01*
X8586265Y34664773D01*
X8532726Y34697849D01*
X8467884Y34739809D01*
X8395940Y34788057D01*
X8325275Y34835709D01*
X8261526Y34877672D01*
X8209513Y34910835D01*
X8173279Y34932622D01*
X8156867Y34940457D01*
X8155905Y34940386D01*
X8134103Y34932662D01*
X8095440Y34914677D01*
X8047612Y34889987D01*
X8047110Y34889716D01*
X7983587Y34857901D01*
X7940060Y34842358D01*
X7913052Y34842315D01*
X7899090Y34857000D01*
X7893180Y34871456D01*
X7877229Y34910169D01*
X7852660Y34969684D01*
X7820779Y35046835D01*
X7782893Y35138459D01*
X7740310Y35241393D01*
X7694337Y35352474D01*
X7652667Y35453528D01*
X7610268Y35557220D01*
X7572756Y35649881D01*
X7541388Y35728358D01*
X7517425Y35789500D01*
X7502123Y35830157D01*
X7496743Y35847175D01*
X7507018Y35862781D01*
X7535563Y35888838D01*
X7575971Y35919113D01*
X7672979Y35998316D01*
X7759793Y36099525D01*
X7823322Y36210884D01*
X7863177Y36329107D01*
X7878965Y36450905D01*
X7870296Y36572990D01*
X7836778Y36692075D01*
X7778021Y36804871D01*
X7693632Y36908089D01*
X7649631Y36948287D01*
X7544211Y37019362D01*
X7431410Y37065699D01*
X7314525Y37088401D01*
X7196853Y37088572D01*
X7081690Y37067313D01*
X6972335Y37025730D01*
X6872083Y36964924D01*
X6784233Y36885999D01*
X6712080Y36790059D01*
X6658922Y36678205D01*
X6628057Y36551543D01*
X6622392Y36490493D01*
X6630185Y36358224D01*
X6665284Y36232734D01*
X6726649Y36116241D01*
X6813243Y36010961D01*
X6924029Y35919113D01*
X6962931Y35890070D01*
X6992104Y35863728D01*
X7003257Y35847200D01*
X6998810Y35832791D01*
X6984378Y35794185D01*
X6961173Y35734799D01*
X6930452Y35657785D01*
X6893474Y35566297D01*
X6851496Y35463484D01*
X6805778Y35352498D01*
X6764178Y35251928D01*
X6721222Y35148053D01*
X6682829Y35055181D01*
X6650305Y34976475D01*
X6624958Y34915101D01*
X6608095Y34874221D01*
X6601025Y34857000D01*
X6600943Y34856796D01*
X6586798Y34842255D01*
X6559659Y34842421D01*
X6516023Y34858073D01*
X6452388Y34889987D01*
X6447379Y34892674D01*
X6400125Y34916850D01*
X6362811Y34933963D01*
X6343133Y34940457D01*
X6327005Y34932782D01*
X6290959Y34911129D01*
X6239092Y34878072D01*
X6175445Y34836190D01*
X6104060Y34788057D01*
X6033724Y34740869D01*
X5968670Y34698733D01*
X5914820Y34665422D01*
X5876374Y34643531D01*
X5857534Y34635657D01*
X5854325Y34636657D01*
X5831954Y34652416D01*
X5793733Y34684967D01*
X5743021Y34731267D01*
X5683181Y34788274D01*
X5617571Y34852942D01*
X5400648Y35070228D01*
X5569601Y35318747D01*
X5738553Y35567267D01*
X5687183Y35678405D01*
X5687031Y35678734D01*
X5656183Y35749582D01*
X5624661Y35828477D01*
X5599266Y35898400D01*
X5595423Y35909678D01*
X5576047Y35962033D01*
X5558574Y36002717D01*
X5546388Y36023713D01*
X5541426Y36026678D01*
X5511634Y36036625D01*
X5461047Y36049495D01*
X5395194Y36063947D01*
X5319600Y36078645D01*
X5296957Y36082790D01*
X5215038Y36097884D01*
X5138600Y36112101D01*
X5075337Y36124005D01*
X5032943Y36132161D01*
X4956743Y36147201D01*
X4956743Y36464508D01*
X4956760Y36503524D01*
X4957082Y36598708D01*
X4958033Y36669745D01*
X4959896Y36720266D01*
X4962955Y36753902D01*
X4967494Y36774282D01*
X4973795Y36785038D01*
X4982143Y36789801D01*
X4990224Y36791730D01*
X5023172Y36798555D01*
X5075736Y36808978D01*
X5142569Y36821982D01*
X5218328Y36836551D01*
X5297665Y36851667D01*
X5375237Y36866315D01*
X5445698Y36879477D01*
X5503702Y36890137D01*
X5543904Y36897279D01*
X5560959Y36899886D01*
X5562112Y36901459D01*
X5571385Y36921881D01*
X5587432Y36960955D01*
X5607635Y37012371D01*
X5635672Y37081647D01*
X5670186Y37161710D01*
X5702538Y37232272D01*
X5709952Y37248111D01*
X5730755Y37297707D01*
X5743219Y37335962D01*
X5744863Y37355644D01*
X5744015Y37357038D01*
X5730548Y37377580D01*
X5703850Y37417484D01*
X5666539Y37472860D01*
X5621234Y37539823D01*
X5570552Y37614483D01*
X5513445Y37699308D01*
X5470607Y37765200D01*
X5441460Y37813522D01*
X5424317Y37847267D01*
X5417495Y37869428D01*
X5419306Y37882998D01*
X5419915Y37884016D01*
X5436297Y37903790D01*
X5469695Y37939825D01*
X5516671Y37988549D01*
X5573786Y38046388D01*
X5637603Y38109773D01*
X5703802Y38174095D01*
X5768648Y38234553D01*
X5816299Y38275345D01*
X5847990Y38297516D01*
X5864958Y38302111D01*
X5867175Y38301079D01*
X5890524Y38287163D01*
X5932912Y38259970D01*
X5990369Y38222111D01*
X6058923Y38176197D01*
X6134601Y38124840D01*
X6381298Y37956374D01*
X6492706Y38006938D01*
X6495943Y38008403D01*
X6564343Y38038035D01*
X6636907Y38067507D01*
X6698457Y38090642D01*
X6698729Y38090738D01*
X6747595Y38108633D01*
X6785212Y38123747D01*
X6803457Y38132816D01*
X6803752Y38133145D01*
X6809946Y38151718D01*
X6820139Y38193955D01*
X6833348Y38255304D01*
X6848590Y38331211D01*
X6864881Y38417125D01*
X6865449Y38420204D01*
X6881713Y38507872D01*
X6896608Y38587259D01*
X6909171Y38653299D01*
X6918438Y38700921D01*
X6923444Y38725057D01*
X6923764Y38726395D01*
X6927060Y38736727D01*
X6933738Y38744494D01*
X6947462Y38750060D01*
X6971895Y38753793D01*
X7010702Y38756058D01*
X7067546Y38757222D01*
X7146090Y38757652D01*
X7250000Y38757714D01*
X7263056Y38757714D01*
X7363933Y38757629D01*
X9650256Y34080082D02*
X9594799Y34052432D01*
X9594799Y34052432D02*
X9545852Y34001520D01*
X9545852Y34001520D02*
X9532371Y33982662D01*
X9532371Y33982662D02*
X9517686Y33957985D01*
X9517686Y33957985D02*
X9508158Y33931184D01*
X9508158Y33931184D02*
X9502707Y33895413D01*
X9502707Y33895413D02*
X9500253Y33843831D01*
X9500253Y33843831D02*
X9499714Y33775733D01*
X9499714Y33775733D02*
X9502148Y33682412D01*
X9502148Y33682412D02*
X9510606Y33612343D01*
X9510606Y33612343D02*
X9526826Y33560069D01*
X9526826Y33560069D02*
X9552546Y33520131D01*
X9552546Y33520131D02*
X9589503Y33487071D01*
X9589503Y33487071D02*
X9592218Y33485114D01*
X9592218Y33485114D02*
X9628640Y33465092D01*
X9628640Y33465092D02*
X9672498Y33455185D01*
X9672498Y33455185D02*
X9728276Y33452743D01*
X9728276Y33452743D02*
X9818952Y33452743D01*
X9818952Y33452743D02*
X9818990Y33364717D01*
X9818990Y33364717D02*
X9819834Y33315692D01*
X9819834Y33315692D02*
X9824976Y33286935D01*
X9824976Y33286935D02*
X9838413Y33269689D01*
X9838413Y33269689D02*
X9864142Y33255192D01*
X9864142Y33255192D02*
X9870321Y33252231D01*
X9870321Y33252231D02*
X9899236Y33238352D01*
X9899236Y33238352D02*
X9921624Y33229586D01*
X9921624Y33229586D02*
X9938271Y33228829D01*
X9938271Y33228829D02*
X9949964Y33238977D01*
X9949964Y33238977D02*
X9957490Y33262927D01*
X9957490Y33262927D02*
X9961634Y33303574D01*
X9961634Y33303574D02*
X9963185Y33363814D01*
X9963185Y33363814D02*
X9962929Y33446545D01*
X9962929Y33446545D02*
X9961651Y33554661D01*
X9961651Y33554661D02*
X9961252Y33587000D01*
X9961252Y33587000D02*
X9959815Y33698476D01*
X9959815Y33698476D02*
X9958528Y33771397D01*
X9958528Y33771397D02*
X9819029Y33771397D01*
X9819029Y33771397D02*
X9818245Y33709501D01*
X9818245Y33709501D02*
X9814760Y33669003D01*
X9814760Y33669003D02*
X9806876Y33642292D01*
X9806876Y33642292D02*
X9792895Y33621756D01*
X9792895Y33621756D02*
X9783403Y33611740D01*
X9783403Y33611740D02*
X9744596Y33582433D01*
X9744596Y33582433D02*
X9710237Y33580048D01*
X9710237Y33580048D02*
X9674784Y33604250D01*
X9674784Y33604250D02*
X9673886Y33605143D01*
X9673886Y33605143D02*
X9659461Y33623847D01*
X9659461Y33623847D02*
X9650687Y33649268D01*
X9650687Y33649268D02*
X9646261Y33688416D01*
X9646261Y33688416D02*
X9644882Y33748303D01*
X9644882Y33748303D02*
X9644857Y33761570D01*
X9644857Y33761570D02*
X9648188Y33844099D01*
X9648188Y33844099D02*
X9659031Y33901309D01*
X9659031Y33901309D02*
X9678660Y33936234D01*
X9678660Y33936234D02*
X9708350Y33951906D01*
X9708350Y33951906D02*
X9725509Y33953486D01*
X9725509Y33953486D02*
X9766234Y33946074D01*
X9766234Y33946074D02*
X9794168Y33921670D01*
X9794168Y33921670D02*
X9810983Y33877020D01*
X9810983Y33877020D02*
X9818350Y33808870D01*
X9818350Y33808870D02*
X9819029Y33771397D01*
X9819029Y33771397D02*
X9958528Y33771397D01*
X9958528Y33771397D02*
X9958292Y33784755D01*
X9958292Y33784755D02*
X9956323Y33849667D01*
X9956323Y33849667D02*
X9953550Y33897042D01*
X9953550Y33897042D02*
X9949612Y33930710D01*
X9949612Y33930710D02*
X9944151Y33954502D01*
X9944151Y33954502D02*
X9936808Y33972247D01*
X9936808Y33972247D02*
X9927223Y33987776D01*
X9927223Y33987776D02*
X9923113Y33993619D01*
X9923113Y33993619D02*
X9868595Y34048815D01*
X9868595Y34048815D02*
X9799664Y34080110D01*
X9799664Y34080110D02*
X9719928Y34088835D01*
X9719928Y34088835D02*
X9650256Y34080082D01*
X9650256Y34080082D02*
X9650256Y34080082D01*
G36*
X9961252Y33587000D02*
G01*
X9961651Y33554661D01*
X9962929Y33446545D01*
X9963185Y33363814D01*
X9961634Y33303574D01*
X9957490Y33262927D01*
X9949964Y33238977D01*
X9938271Y33228829D01*
X9921624Y33229586D01*
X9899236Y33238352D01*
X9870321Y33252231D01*
X9864142Y33255192D01*
X9838413Y33269689D01*
X9824976Y33286935D01*
X9819834Y33315692D01*
X9818990Y33364717D01*
X9818952Y33452743D01*
X9728276Y33452743D01*
X9672498Y33455185D01*
X9628640Y33465092D01*
X9592218Y33485114D01*
X9589503Y33487071D01*
X9552546Y33520131D01*
X9526826Y33560069D01*
X9510606Y33612343D01*
X9502148Y33682412D01*
X9500083Y33761570D01*
X9644857Y33761570D01*
X9644882Y33748303D01*
X9646261Y33688416D01*
X9650687Y33649268D01*
X9659461Y33623847D01*
X9673886Y33605143D01*
X9674784Y33604250D01*
X9710237Y33580048D01*
X9744596Y33582433D01*
X9783403Y33611740D01*
X9792895Y33621756D01*
X9806876Y33642292D01*
X9814760Y33669003D01*
X9818245Y33709501D01*
X9819029Y33771397D01*
X9818350Y33808870D01*
X9810983Y33877020D01*
X9794168Y33921670D01*
X9766234Y33946074D01*
X9725509Y33953486D01*
X9708350Y33951906D01*
X9678660Y33936234D01*
X9659031Y33901309D01*
X9648188Y33844099D01*
X9644857Y33761570D01*
X9500083Y33761570D01*
X9499714Y33775733D01*
X9500253Y33843831D01*
X9502707Y33895413D01*
X9508158Y33931184D01*
X9517686Y33957985D01*
X9532371Y33982662D01*
X9545852Y34001520D01*
X9594799Y34052432D01*
X9650256Y34080082D01*
X9719928Y34088835D01*
X9799664Y34080110D01*
X9868595Y34048815D01*
X9923113Y33993619D01*
X9927223Y33987776D01*
X9936808Y33972247D01*
X9944151Y33954502D01*
X9949612Y33930710D01*
X9953550Y33897042D01*
X9956323Y33849667D01*
X9958292Y33784755D01*
X9958528Y33771397D01*
X9959815Y33698476D01*
X9961252Y33587000D01*
G37*
X9961252Y33587000D02*
X9961651Y33554661D01*
X9962929Y33446545D01*
X9963185Y33363814D01*
X9961634Y33303574D01*
X9957490Y33262927D01*
X9949964Y33238977D01*
X9938271Y33228829D01*
X9921624Y33229586D01*
X9899236Y33238352D01*
X9870321Y33252231D01*
X9864142Y33255192D01*
X9838413Y33269689D01*
X9824976Y33286935D01*
X9819834Y33315692D01*
X9818990Y33364717D01*
X9818952Y33452743D01*
X9728276Y33452743D01*
X9672498Y33455185D01*
X9628640Y33465092D01*
X9592218Y33485114D01*
X9589503Y33487071D01*
X9552546Y33520131D01*
X9526826Y33560069D01*
X9510606Y33612343D01*
X9502148Y33682412D01*
X9500083Y33761570D01*
X9644857Y33761570D01*
X9644882Y33748303D01*
X9646261Y33688416D01*
X9650687Y33649268D01*
X9659461Y33623847D01*
X9673886Y33605143D01*
X9674784Y33604250D01*
X9710237Y33580048D01*
X9744596Y33582433D01*
X9783403Y33611740D01*
X9792895Y33621756D01*
X9806876Y33642292D01*
X9814760Y33669003D01*
X9818245Y33709501D01*
X9819029Y33771397D01*
X9818350Y33808870D01*
X9810983Y33877020D01*
X9794168Y33921670D01*
X9766234Y33946074D01*
X9725509Y33953486D01*
X9708350Y33951906D01*
X9678660Y33936234D01*
X9659031Y33901309D01*
X9648188Y33844099D01*
X9644857Y33761570D01*
X9500083Y33761570D01*
X9499714Y33775733D01*
X9500253Y33843831D01*
X9502707Y33895413D01*
X9508158Y33931184D01*
X9517686Y33957985D01*
X9532371Y33982662D01*
X9545852Y34001520D01*
X9594799Y34052432D01*
X9650256Y34080082D01*
X9719928Y34088835D01*
X9799664Y34080110D01*
X9868595Y34048815D01*
X9923113Y33993619D01*
X9927223Y33987776D01*
X9936808Y33972247D01*
X9944151Y33954502D01*
X9949612Y33930710D01*
X9953550Y33897042D01*
X9956323Y33849667D01*
X9958292Y33784755D01*
X9958528Y33771397D01*
X9959815Y33698476D01*
X9961252Y33587000D01*
X10208885Y34078038D02*
X10140855Y34042267D01*
X10140855Y34042267D02*
X10090649Y33984699D01*
X10090649Y33984699D02*
X10072815Y33947688D01*
X10072815Y33947688D02*
X10058937Y33892118D01*
X10058937Y33892118D02*
X10051833Y33821904D01*
X10051833Y33821904D02*
X10051160Y33745273D01*
X10051160Y33745273D02*
X10056573Y33670448D01*
X10056573Y33670448D02*
X10067730Y33605658D01*
X10067730Y33605658D02*
X10084286Y33559127D01*
X10084286Y33559127D02*
X10089374Y33551113D01*
X10089374Y33551113D02*
X10149645Y33491293D01*
X10149645Y33491293D02*
X10221231Y33455465D01*
X10221231Y33455465D02*
X10298908Y33444980D01*
X10298908Y33444980D02*
X10377452Y33461190D01*
X10377452Y33461190D02*
X10399311Y33470908D01*
X10399311Y33470908D02*
X10441878Y33500857D01*
X10441878Y33500857D02*
X10479237Y33540567D01*
X10479237Y33540567D02*
X10482768Y33545603D01*
X10482768Y33545603D02*
X10497119Y33569876D01*
X10497119Y33569876D02*
X10506606Y33595822D01*
X10506606Y33595822D02*
X10512210Y33629978D01*
X10512210Y33629978D02*
X10514914Y33678881D01*
X10514914Y33678881D02*
X10515701Y33749065D01*
X10515701Y33749065D02*
X10515714Y33764800D01*
X10515714Y33764800D02*
X10515678Y33769808D01*
X10515678Y33769808D02*
X10370571Y33769808D01*
X10370571Y33769808D02*
X10369727Y33703570D01*
X10369727Y33703570D02*
X10366404Y33659614D01*
X10366404Y33659614D02*
X10359417Y33631221D01*
X10359417Y33631221D02*
X10347584Y33611675D01*
X10347584Y33611675D02*
X10341543Y33605143D01*
X10341543Y33605143D02*
X10306814Y33580320D01*
X10306814Y33580320D02*
X10273097Y33581452D01*
X10273097Y33581452D02*
X10239005Y33602984D01*
X10239005Y33602984D02*
X10218671Y33625971D01*
X10218671Y33625971D02*
X10206629Y33659522D01*
X10206629Y33659522D02*
X10199866Y33712431D01*
X10199866Y33712431D02*
X10199402Y33718601D01*
X10199402Y33718601D02*
X10198248Y33814487D01*
X10198248Y33814487D02*
X10210312Y33885701D01*
X10210312Y33885701D02*
X10235430Y33931806D01*
X10235430Y33931806D02*
X10273440Y33952365D01*
X10273440Y33952365D02*
X10287008Y33953486D01*
X10287008Y33953486D02*
X10322636Y33947848D01*
X10322636Y33947848D02*
X10347006Y33928314D01*
X10347006Y33928314D02*
X10361907Y33890958D01*
X10361907Y33890958D02*
X10369125Y33831850D01*
X10369125Y33831850D02*
X10370571Y33769808D01*
X10370571Y33769808D02*
X10515678Y33769808D01*
X10515678Y33769808D02*
X10515174Y33839587D01*
X10515174Y33839587D02*
X10512904Y33891841D01*
X10512904Y33891841D02*
X10507932Y33928051D01*
X10507932Y33928051D02*
X10499287Y33954701D01*
X10499287Y33954701D02*
X10485995Y33978278D01*
X10485995Y33978278D02*
X10483057Y33982662D01*
X10483057Y33982662D02*
X10433687Y34041751D01*
X10433687Y34041751D02*
X10379891Y34076053D01*
X10379891Y34076053D02*
X10314398Y34089669D01*
X10314398Y34089669D02*
X10292158Y34090335D01*
X10292158Y34090335D02*
X10208885Y34078038D01*
X10208885Y34078038D02*
X10208885Y34078038D01*
G36*
X10515701Y33749065D02*
G01*
X10514914Y33678881D01*
X10512210Y33629978D01*
X10506606Y33595822D01*
X10497119Y33569876D01*
X10482768Y33545603D01*
X10479237Y33540567D01*
X10441878Y33500857D01*
X10399311Y33470908D01*
X10377452Y33461190D01*
X10298908Y33444980D01*
X10221231Y33455465D01*
X10149645Y33491293D01*
X10089374Y33551113D01*
X10084286Y33559127D01*
X10067730Y33605658D01*
X10056573Y33670448D01*
X10051160Y33745273D01*
X10051768Y33814487D01*
X10198248Y33814487D01*
X10199402Y33718601D01*
X10199866Y33712431D01*
X10206629Y33659522D01*
X10218671Y33625971D01*
X10239005Y33602984D01*
X10273097Y33581452D01*
X10306814Y33580320D01*
X10341543Y33605143D01*
X10347584Y33611675D01*
X10359417Y33631221D01*
X10366404Y33659614D01*
X10369727Y33703570D01*
X10370571Y33769808D01*
X10369125Y33831850D01*
X10361907Y33890958D01*
X10347006Y33928314D01*
X10322636Y33947848D01*
X10287008Y33953486D01*
X10273440Y33952365D01*
X10235430Y33931806D01*
X10210312Y33885701D01*
X10198248Y33814487D01*
X10051768Y33814487D01*
X10051833Y33821904D01*
X10058937Y33892118D01*
X10072815Y33947688D01*
X10090649Y33984699D01*
X10140855Y34042267D01*
X10208885Y34078038D01*
X10292158Y34090335D01*
X10314398Y34089669D01*
X10379891Y34076053D01*
X10433687Y34041751D01*
X10483057Y33982662D01*
X10485995Y33978278D01*
X10499287Y33954701D01*
X10507932Y33928051D01*
X10512904Y33891841D01*
X10515174Y33839587D01*
X10515678Y33769808D01*
X10515714Y33764800D01*
X10515701Y33749065D01*
G37*
X10515701Y33749065D02*
X10514914Y33678881D01*
X10512210Y33629978D01*
X10506606Y33595822D01*
X10497119Y33569876D01*
X10482768Y33545603D01*
X10479237Y33540567D01*
X10441878Y33500857D01*
X10399311Y33470908D01*
X10377452Y33461190D01*
X10298908Y33444980D01*
X10221231Y33455465D01*
X10149645Y33491293D01*
X10089374Y33551113D01*
X10084286Y33559127D01*
X10067730Y33605658D01*
X10056573Y33670448D01*
X10051160Y33745273D01*
X10051768Y33814487D01*
X10198248Y33814487D01*
X10199402Y33718601D01*
X10199866Y33712431D01*
X10206629Y33659522D01*
X10218671Y33625971D01*
X10239005Y33602984D01*
X10273097Y33581452D01*
X10306814Y33580320D01*
X10341543Y33605143D01*
X10347584Y33611675D01*
X10359417Y33631221D01*
X10366404Y33659614D01*
X10369727Y33703570D01*
X10370571Y33769808D01*
X10369125Y33831850D01*
X10361907Y33890958D01*
X10347006Y33928314D01*
X10322636Y33947848D01*
X10287008Y33953486D01*
X10273440Y33952365D01*
X10235430Y33931806D01*
X10210312Y33885701D01*
X10198248Y33814487D01*
X10051768Y33814487D01*
X10051833Y33821904D01*
X10058937Y33892118D01*
X10072815Y33947688D01*
X10090649Y33984699D01*
X10140855Y34042267D01*
X10208885Y34078038D01*
X10292158Y34090335D01*
X10314398Y34089669D01*
X10379891Y34076053D01*
X10433687Y34041751D01*
X10483057Y33982662D01*
X10485995Y33978278D01*
X10499287Y33954701D01*
X10507932Y33928051D01*
X10512904Y33891841D01*
X10515174Y33839587D01*
X10515678Y33769808D01*
X10515714Y33764800D01*
X10515701Y33749065D01*
X9081697Y34068761D02*
X9024473Y34030265D01*
X9024473Y34030265D02*
X8980251Y33974665D01*
X8980251Y33974665D02*
X8953833Y33903914D01*
X8953833Y33903914D02*
X8948490Y33851838D01*
X8948490Y33851838D02*
X8949097Y33830107D01*
X8949097Y33830107D02*
X8954178Y33813469D01*
X8954178Y33813469D02*
X8968145Y33798563D01*
X8968145Y33798563D02*
X8995411Y33782027D01*
X8995411Y33782027D02*
X9040388Y33760502D01*
X9040388Y33760502D02*
X9107489Y33730626D01*
X9107489Y33730626D02*
X9107829Y33730476D01*
X9107829Y33730476D02*
X9169593Y33702187D01*
X9169593Y33702187D02*
X9220241Y33677067D01*
X9220241Y33677067D02*
X9254596Y33657821D01*
X9254596Y33657821D02*
X9267482Y33647152D01*
X9267482Y33647152D02*
X9267486Y33647066D01*
X9267486Y33647066D02*
X9256128Y33623834D01*
X9256128Y33623834D02*
X9229569Y33598226D01*
X9229569Y33598226D02*
X9199077Y33579779D01*
X9199077Y33579779D02*
X9183630Y33576114D01*
X9183630Y33576114D02*
X9141485Y33588788D01*
X9141485Y33588788D02*
X9105192Y33620529D01*
X9105192Y33620529D02*
X9087483Y33655428D01*
X9087483Y33655428D02*
X9070448Y33681155D01*
X9070448Y33681155D02*
X9037078Y33710454D01*
X9037078Y33710454D02*
X8997851Y33735765D01*
X8997851Y33735765D02*
X8963244Y33749529D01*
X8963244Y33749529D02*
X8956007Y33750286D01*
X8956007Y33750286D02*
X8947861Y33737840D01*
X8947861Y33737840D02*
X8947370Y33706028D01*
X8947370Y33706028D02*
X8953357Y33663134D01*
X8953357Y33663134D02*
X8964643Y33617442D01*
X8964643Y33617442D02*
X8980050Y33577239D01*
X8980050Y33577239D02*
X8980829Y33575678D01*
X8980829Y33575678D02*
X9027196Y33510938D01*
X9027196Y33510938D02*
X9087289Y33466903D01*
X9087289Y33466903D02*
X9155535Y33445289D01*
X9155535Y33445289D02*
X9226362Y33447815D01*
X9226362Y33447815D02*
X9294196Y33476196D01*
X9294196Y33476196D02*
X9297212Y33478192D01*
X9297212Y33478192D02*
X9350573Y33526552D01*
X9350573Y33526552D02*
X9385660Y33589648D01*
X9385660Y33589648D02*
X9405078Y33672613D01*
X9405078Y33672613D02*
X9407684Y33695922D01*
X9407684Y33695922D02*
X9412299Y33805945D01*
X9412299Y33805945D02*
X9406767Y33857252D01*
X9406767Y33857252D02*
X9267486Y33857252D01*
X9267486Y33857252D02*
X9265676Y33825247D01*
X9265676Y33825247D02*
X9255778Y33815907D01*
X9255778Y33815907D02*
X9231102Y33822895D01*
X9231102Y33822895D02*
X9192205Y33839413D01*
X9192205Y33839413D02*
X9148725Y33860119D01*
X9148725Y33860119D02*
X9147644Y33860667D01*
X9147644Y33860667D02*
X9110791Y33880051D01*
X9110791Y33880051D02*
X9096000Y33892987D01*
X9096000Y33892987D02*
X9099647Y33906549D01*
X9099647Y33906549D02*
X9115005Y33924368D01*
X9115005Y33924368D02*
X9154077Y33950155D01*
X9154077Y33950155D02*
X9196154Y33952050D01*
X9196154Y33952050D02*
X9233897Y33933283D01*
X9233897Y33933283D02*
X9259966Y33897085D01*
X9259966Y33897085D02*
X9267486Y33857252D01*
X9267486Y33857252D02*
X9406767Y33857252D01*
X9406767Y33857252D02*
X9402806Y33893973D01*
X9402806Y33893973D02*
X9378450Y33963788D01*
X9378450Y33963788D02*
X9344544Y34012698D01*
X9344544Y34012698D02*
X9283347Y34062122D01*
X9283347Y34062122D02*
X9215937Y34086641D01*
X9215937Y34086641D02*
X9147120Y34088203D01*
X9147120Y34088203D02*
X9081697Y34068761D01*
X9081697Y34068761D02*
X9081697Y34068761D01*
G36*
X9407684Y33695922D02*
G01*
X9405078Y33672613D01*
X9385660Y33589648D01*
X9350573Y33526552D01*
X9297212Y33478192D01*
X9294196Y33476196D01*
X9226362Y33447815D01*
X9155535Y33445289D01*
X9087289Y33466903D01*
X9027196Y33510938D01*
X8980829Y33575678D01*
X8980050Y33577239D01*
X8964643Y33617442D01*
X8953357Y33663134D01*
X8947370Y33706028D01*
X8947861Y33737840D01*
X8956007Y33750286D01*
X8963244Y33749529D01*
X8997851Y33735765D01*
X9037078Y33710454D01*
X9070448Y33681155D01*
X9087483Y33655428D01*
X9105192Y33620529D01*
X9141485Y33588788D01*
X9183630Y33576114D01*
X9199077Y33579779D01*
X9229569Y33598226D01*
X9256128Y33623834D01*
X9267486Y33647066D01*
X9267482Y33647152D01*
X9254596Y33657821D01*
X9220241Y33677067D01*
X9169593Y33702187D01*
X9107829Y33730476D01*
X9107489Y33730626D01*
X9040388Y33760502D01*
X8995411Y33782027D01*
X8968145Y33798563D01*
X8954178Y33813469D01*
X8949097Y33830107D01*
X8948490Y33851838D01*
X8952712Y33892987D01*
X9096000Y33892987D01*
X9110791Y33880051D01*
X9147644Y33860667D01*
X9148725Y33860119D01*
X9192205Y33839413D01*
X9231102Y33822895D01*
X9255778Y33815907D01*
X9265676Y33825247D01*
X9267486Y33857252D01*
X9259966Y33897085D01*
X9233897Y33933283D01*
X9196154Y33952050D01*
X9154077Y33950155D01*
X9115005Y33924368D01*
X9099647Y33906549D01*
X9096000Y33892987D01*
X8952712Y33892987D01*
X8953833Y33903914D01*
X8980251Y33974665D01*
X9024473Y34030265D01*
X9081697Y34068761D01*
X9147120Y34088203D01*
X9215937Y34086641D01*
X9283347Y34062122D01*
X9344544Y34012698D01*
X9378450Y33963788D01*
X9402806Y33893973D01*
X9406767Y33857252D01*
X9412299Y33805945D01*
X9407684Y33695922D01*
G37*
X9407684Y33695922D02*
X9405078Y33672613D01*
X9385660Y33589648D01*
X9350573Y33526552D01*
X9297212Y33478192D01*
X9294196Y33476196D01*
X9226362Y33447815D01*
X9155535Y33445289D01*
X9087289Y33466903D01*
X9027196Y33510938D01*
X8980829Y33575678D01*
X8980050Y33577239D01*
X8964643Y33617442D01*
X8953357Y33663134D01*
X8947370Y33706028D01*
X8947861Y33737840D01*
X8956007Y33750286D01*
X8963244Y33749529D01*
X8997851Y33735765D01*
X9037078Y33710454D01*
X9070448Y33681155D01*
X9087483Y33655428D01*
X9105192Y33620529D01*
X9141485Y33588788D01*
X9183630Y33576114D01*
X9199077Y33579779D01*
X9229569Y33598226D01*
X9256128Y33623834D01*
X9267486Y33647066D01*
X9267482Y33647152D01*
X9254596Y33657821D01*
X9220241Y33677067D01*
X9169593Y33702187D01*
X9107829Y33730476D01*
X9107489Y33730626D01*
X9040388Y33760502D01*
X8995411Y33782027D01*
X8968145Y33798563D01*
X8954178Y33813469D01*
X8949097Y33830107D01*
X8948490Y33851838D01*
X8952712Y33892987D01*
X9096000Y33892987D01*
X9110791Y33880051D01*
X9147644Y33860667D01*
X9148725Y33860119D01*
X9192205Y33839413D01*
X9231102Y33822895D01*
X9255778Y33815907D01*
X9265676Y33825247D01*
X9267486Y33857252D01*
X9259966Y33897085D01*
X9233897Y33933283D01*
X9196154Y33952050D01*
X9154077Y33950155D01*
X9115005Y33924368D01*
X9099647Y33906549D01*
X9096000Y33892987D01*
X8952712Y33892987D01*
X8953833Y33903914D01*
X8980251Y33974665D01*
X9024473Y34030265D01*
X9081697Y34068761D01*
X9147120Y34088203D01*
X9215937Y34086641D01*
X9283347Y34062122D01*
X9344544Y34012698D01*
X9378450Y33963788D01*
X9402806Y33893973D01*
X9406767Y33857252D01*
X9412299Y33805945D01*
X9407684Y33695922D01*
X6059883Y33934642D02*
X6060067Y33826163D01*
X6060067Y33826163D02*
X6060781Y33742713D01*
X6060781Y33742713D02*
X6062325Y33680296D01*
X6062325Y33680296D02*
X6064999Y33634915D01*
X6064999Y33634915D02*
X6069106Y33602571D01*
X6069106Y33602571D02*
X6074945Y33579267D01*
X6074945Y33579267D02*
X6082818Y33561005D01*
X6082818Y33561005D02*
X6088779Y33550582D01*
X6088779Y33550582D02*
X6138145Y33494055D01*
X6138145Y33494055D02*
X6200736Y33458623D01*
X6200736Y33458623D02*
X6269987Y33445910D01*
X6269987Y33445910D02*
X6339332Y33457537D01*
X6339332Y33457537D02*
X6380625Y33478432D01*
X6380625Y33478432D02*
X6423975Y33514578D01*
X6423975Y33514578D02*
X6453519Y33558724D01*
X6453519Y33558724D02*
X6471345Y33616538D01*
X6471345Y33616538D02*
X6479537Y33693687D01*
X6479537Y33693687D02*
X6480698Y33750286D01*
X6480698Y33750286D02*
X6480542Y33754353D01*
X6480542Y33754353D02*
X6379143Y33754353D01*
X6379143Y33754353D02*
X6378524Y33689450D01*
X6378524Y33689450D02*
X6375686Y33646486D01*
X6375686Y33646486D02*
X6369160Y33618378D01*
X6369160Y33618378D02*
X6357477Y33598047D01*
X6357477Y33598047D02*
X6343517Y33582712D01*
X6343517Y33582712D02*
X6296635Y33553110D01*
X6296635Y33553110D02*
X6246299Y33550581D01*
X6246299Y33550581D02*
X6198724Y33575295D01*
X6198724Y33575295D02*
X6195021Y33578644D01*
X6195021Y33578644D02*
X6179217Y33596065D01*
X6179217Y33596065D02*
X6169307Y33616791D01*
X6169307Y33616791D02*
X6163942Y33647638D01*
X6163942Y33647638D02*
X6161772Y33695423D01*
X6161772Y33695423D02*
X6161429Y33748252D01*
X6161429Y33748252D02*
X6162173Y33814619D01*
X6162173Y33814619D02*
X6165252Y33858894D01*
X6165252Y33858894D02*
X6171939Y33887991D01*
X6171939Y33887991D02*
X6183504Y33908827D01*
X6183504Y33908827D02*
X6192987Y33919893D01*
X6192987Y33919893D02*
X6237040Y33947802D01*
X6237040Y33947802D02*
X6287776Y33951157D01*
X6287776Y33951157D02*
X6336204Y33929841D01*
X6336204Y33929841D02*
X6345550Y33921927D01*
X6345550Y33921927D02*
X6361460Y33904353D01*
X6361460Y33904353D02*
X6371390Y33883413D01*
X6371390Y33883413D02*
X6376722Y33852218D01*
X6376722Y33852218D02*
X6378837Y33803878D01*
X6378837Y33803878D02*
X6379143Y33754353D01*
X6379143Y33754353D02*
X6480542Y33754353D01*
X6480542Y33754353D02*
X6477190Y33841432D01*
X6477190Y33841432D02*
X6465274Y33909914D01*
X6465274Y33909914D02*
X6442865Y33961400D01*
X6442865Y33961400D02*
X6407876Y34001557D01*
X6407876Y34001557D02*
X6380625Y34022139D01*
X6380625Y34022139D02*
X6331093Y34044375D01*
X6331093Y34044375D02*
X6273684Y34054696D01*
X6273684Y34054696D02*
X6220318Y34051933D01*
X6220318Y34051933D02*
X6190457Y34040788D01*
X6190457Y34040788D02*
X6178739Y34037617D01*
X6178739Y34037617D02*
X6170963Y34049443D01*
X6170963Y34049443D02*
X6165535Y34081134D01*
X6165535Y34081134D02*
X6161429Y34129407D01*
X6161429Y34129407D02*
X6156933Y34183171D01*
X6156933Y34183171D02*
X6150687Y34215518D01*
X6150687Y34215518D02*
X6139324Y34234015D01*
X6139324Y34234015D02*
X6119472Y34246230D01*
X6119472Y34246230D02*
X6107000Y34251638D01*
X6107000Y34251638D02*
X6059829Y34271399D01*
X6059829Y34271399D02*
X6059883Y33934642D01*
X6059883Y33934642D02*
X6059883Y33934642D01*
G36*
X6479537Y33693687D02*
G01*
X6471345Y33616538D01*
X6453519Y33558724D01*
X6423975Y33514578D01*
X6380625Y33478432D01*
X6339332Y33457537D01*
X6269987Y33445910D01*
X6200736Y33458623D01*
X6138145Y33494055D01*
X6088779Y33550582D01*
X6082818Y33561005D01*
X6074945Y33579267D01*
X6069106Y33602571D01*
X6064999Y33634915D01*
X6062325Y33680296D01*
X6060781Y33742713D01*
X6060734Y33748252D01*
X6161429Y33748252D01*
X6161772Y33695423D01*
X6163942Y33647638D01*
X6169307Y33616791D01*
X6179217Y33596065D01*
X6195021Y33578644D01*
X6198724Y33575295D01*
X6246299Y33550581D01*
X6296635Y33553110D01*
X6343517Y33582712D01*
X6357477Y33598047D01*
X6369160Y33618378D01*
X6375686Y33646486D01*
X6378524Y33689450D01*
X6379143Y33754353D01*
X6378837Y33803878D01*
X6376722Y33852218D01*
X6371390Y33883413D01*
X6361460Y33904353D01*
X6345550Y33921927D01*
X6336204Y33929841D01*
X6287776Y33951157D01*
X6237040Y33947802D01*
X6192987Y33919893D01*
X6183504Y33908827D01*
X6171939Y33887991D01*
X6165252Y33858894D01*
X6162173Y33814619D01*
X6161429Y33748252D01*
X6060734Y33748252D01*
X6060067Y33826163D01*
X6059883Y33934642D01*
X6059829Y34271399D01*
X6107000Y34251638D01*
X6119472Y34246230D01*
X6139324Y34234015D01*
X6150687Y34215518D01*
X6156933Y34183171D01*
X6161429Y34129407D01*
X6165535Y34081134D01*
X6170963Y34049443D01*
X6178739Y34037617D01*
X6190457Y34040788D01*
X6220318Y34051933D01*
X6273684Y34054696D01*
X6331093Y34044375D01*
X6380625Y34022139D01*
X6407876Y34001557D01*
X6442865Y33961400D01*
X6465274Y33909914D01*
X6477190Y33841432D01*
X6480542Y33754353D01*
X6480698Y33750286D01*
X6479537Y33693687D01*
G37*
X6479537Y33693687D02*
X6471345Y33616538D01*
X6453519Y33558724D01*
X6423975Y33514578D01*
X6380625Y33478432D01*
X6339332Y33457537D01*
X6269987Y33445910D01*
X6200736Y33458623D01*
X6138145Y33494055D01*
X6088779Y33550582D01*
X6082818Y33561005D01*
X6074945Y33579267D01*
X6069106Y33602571D01*
X6064999Y33634915D01*
X6062325Y33680296D01*
X6060781Y33742713D01*
X6060734Y33748252D01*
X6161429Y33748252D01*
X6161772Y33695423D01*
X6163942Y33647638D01*
X6169307Y33616791D01*
X6179217Y33596065D01*
X6195021Y33578644D01*
X6198724Y33575295D01*
X6246299Y33550581D01*
X6296635Y33553110D01*
X6343517Y33582712D01*
X6357477Y33598047D01*
X6369160Y33618378D01*
X6375686Y33646486D01*
X6378524Y33689450D01*
X6379143Y33754353D01*
X6378837Y33803878D01*
X6376722Y33852218D01*
X6371390Y33883413D01*
X6361460Y33904353D01*
X6345550Y33921927D01*
X6336204Y33929841D01*
X6287776Y33951157D01*
X6237040Y33947802D01*
X6192987Y33919893D01*
X6183504Y33908827D01*
X6171939Y33887991D01*
X6165252Y33858894D01*
X6162173Y33814619D01*
X6161429Y33748252D01*
X6060734Y33748252D01*
X6060067Y33826163D01*
X6059883Y33934642D01*
X6059829Y34271399D01*
X6107000Y34251638D01*
X6119472Y34246230D01*
X6139324Y34234015D01*
X6150687Y34215518D01*
X6156933Y34183171D01*
X6161429Y34129407D01*
X6165535Y34081134D01*
X6170963Y34049443D01*
X6178739Y34037617D01*
X6190457Y34040788D01*
X6220318Y34051933D01*
X6273684Y34054696D01*
X6331093Y34044375D01*
X6380625Y34022139D01*
X6407876Y34001557D01*
X6442865Y33961400D01*
X6465274Y33909914D01*
X6477190Y33841432D01*
X6480542Y33754353D01*
X6480698Y33750286D01*
X6479537Y33693687D01*
X5105124Y34043665D02*
X5063333Y34024656D01*
X5063333Y34024656D02*
X5030531Y34001622D01*
X5030531Y34001622D02*
X5006497Y33975867D01*
X5006497Y33975867D02*
X4989903Y33942642D01*
X4989903Y33942642D02*
X4979423Y33897200D01*
X4979423Y33897200D02*
X4973729Y33834793D01*
X4973729Y33834793D02*
X4971493Y33750673D01*
X4971493Y33750673D02*
X4971257Y33695279D01*
X4971257Y33695279D02*
X4971257Y33479174D01*
X4971257Y33479174D02*
X5008226Y33462330D01*
X5008226Y33462330D02*
X5037344Y33450019D01*
X5037344Y33450019D02*
X5051769Y33445486D01*
X5051769Y33445486D02*
X5054528Y33458975D01*
X5054528Y33458975D02*
X5056718Y33495347D01*
X5056718Y33495347D02*
X5058058Y33548458D01*
X5058058Y33548458D02*
X5058343Y33590628D01*
X5058343Y33590628D02*
X5059566Y33651553D01*
X5059566Y33651553D02*
X5062864Y33699885D01*
X5062864Y33699885D02*
X5067679Y33729482D01*
X5067679Y33729482D02*
X5071504Y33735771D01*
X5071504Y33735771D02*
X5097217Y33729348D01*
X5097217Y33729348D02*
X5137582Y33712875D01*
X5137582Y33712875D02*
X5184321Y33690542D01*
X5184321Y33690542D02*
X5229155Y33666543D01*
X5229155Y33666543D02*
X5263807Y33645070D01*
X5263807Y33645070D02*
X5279998Y33630315D01*
X5279998Y33630315D02*
X5280062Y33630155D01*
X5280062Y33630155D02*
X5278670Y33602848D01*
X5278670Y33602848D02*
X5266182Y33576781D01*
X5266182Y33576781D02*
X5244257Y33555608D01*
X5244257Y33555608D02*
X5212257Y33548526D01*
X5212257Y33548526D02*
X5184908Y33549351D01*
X5184908Y33549351D02*
X5146174Y33549958D01*
X5146174Y33549958D02*
X5125842Y33540884D01*
X5125842Y33540884D02*
X5113631Y33516908D01*
X5113631Y33516908D02*
X5112091Y33512387D01*
X5112091Y33512387D02*
X5106797Y33478194D01*
X5106797Y33478194D02*
X5120953Y33457432D01*
X5120953Y33457432D02*
X5157852Y33447538D01*
X5157852Y33447538D02*
X5197711Y33445708D01*
X5197711Y33445708D02*
X5269438Y33459273D01*
X5269438Y33459273D02*
X5306568Y33478645D01*
X5306568Y33478645D02*
X5352424Y33524155D01*
X5352424Y33524155D02*
X5376744Y33580017D01*
X5376744Y33580017D02*
X5378927Y33639043D01*
X5378927Y33639043D02*
X5358371Y33694047D01*
X5358371Y33694047D02*
X5327451Y33728514D01*
X5327451Y33728514D02*
X5296580Y33747811D01*
X5296580Y33747811D02*
X5248058Y33772241D01*
X5248058Y33772241D02*
X5191515Y33797015D01*
X5191515Y33797015D02*
X5182090Y33800801D01*
X5182090Y33800801D02*
X5119981Y33828209D01*
X5119981Y33828209D02*
X5084178Y33852366D01*
X5084178Y33852366D02*
X5072663Y33876381D01*
X5072663Y33876381D02*
X5083420Y33903365D01*
X5083420Y33903365D02*
X5101886Y33924457D01*
X5101886Y33924457D02*
X5145531Y33950428D01*
X5145531Y33950428D02*
X5193554Y33952376D01*
X5193554Y33952376D02*
X5237594Y33932363D01*
X5237594Y33932363D02*
X5269291Y33892449D01*
X5269291Y33892449D02*
X5273451Y33882152D01*
X5273451Y33882152D02*
X5297673Y33844276D01*
X5297673Y33844276D02*
X5333035Y33816158D01*
X5333035Y33816158D02*
X5377657Y33793083D01*
X5377657Y33793083D02*
X5377657Y33858515D01*
X5377657Y33858515D02*
X5375031Y33898494D01*
X5375031Y33898494D02*
X5363770Y33930003D01*
X5363770Y33930003D02*
X5338801Y33963622D01*
X5338801Y33963622D02*
X5314831Y33989516D01*
X5314831Y33989516D02*
X5277559Y34026183D01*
X5277559Y34026183D02*
X5248599Y34045879D01*
X5248599Y34045879D02*
X5217495Y34053780D01*
X5217495Y34053780D02*
X5182287Y34055086D01*
X5182287Y34055086D02*
X5105124Y34043665D01*
X5105124Y34043665D02*
X5105124Y34043665D01*
G36*
X5217495Y34053780D02*
G01*
X5248599Y34045879D01*
X5277559Y34026183D01*
X5314831Y33989516D01*
X5338801Y33963622D01*
X5363770Y33930003D01*
X5375031Y33898494D01*
X5377657Y33858515D01*
X5377657Y33793083D01*
X5333035Y33816158D01*
X5297673Y33844276D01*
X5273451Y33882152D01*
X5269291Y33892449D01*
X5237594Y33932363D01*
X5193554Y33952376D01*
X5145531Y33950428D01*
X5101886Y33924457D01*
X5083420Y33903365D01*
X5072663Y33876381D01*
X5084178Y33852366D01*
X5119981Y33828209D01*
X5182090Y33800801D01*
X5191515Y33797015D01*
X5248058Y33772241D01*
X5296580Y33747811D01*
X5327451Y33728514D01*
X5358371Y33694047D01*
X5378927Y33639043D01*
X5376744Y33580017D01*
X5352424Y33524155D01*
X5306568Y33478645D01*
X5269438Y33459273D01*
X5197711Y33445708D01*
X5157852Y33447538D01*
X5120953Y33457432D01*
X5106797Y33478194D01*
X5112091Y33512387D01*
X5113631Y33516908D01*
X5125842Y33540884D01*
X5146174Y33549958D01*
X5184908Y33549351D01*
X5212257Y33548526D01*
X5244257Y33555608D01*
X5266182Y33576781D01*
X5278670Y33602848D01*
X5280062Y33630155D01*
X5279998Y33630315D01*
X5263807Y33645070D01*
X5229155Y33666543D01*
X5184321Y33690542D01*
X5137582Y33712875D01*
X5097217Y33729348D01*
X5071504Y33735771D01*
X5067679Y33729482D01*
X5062864Y33699885D01*
X5059566Y33651553D01*
X5058343Y33590628D01*
X5058058Y33548458D01*
X5056718Y33495347D01*
X5054528Y33458975D01*
X5051769Y33445486D01*
X5037344Y33450019D01*
X5008226Y33462330D01*
X4971257Y33479174D01*
X4971257Y33695279D01*
X4971493Y33750673D01*
X4973729Y33834793D01*
X4979423Y33897200D01*
X4989903Y33942642D01*
X5006497Y33975867D01*
X5030531Y34001622D01*
X5063333Y34024656D01*
X5105124Y34043665D01*
X5182287Y34055086D01*
X5217495Y34053780D01*
G37*
X5217495Y34053780D02*
X5248599Y34045879D01*
X5277559Y34026183D01*
X5314831Y33989516D01*
X5338801Y33963622D01*
X5363770Y33930003D01*
X5375031Y33898494D01*
X5377657Y33858515D01*
X5377657Y33793083D01*
X5333035Y33816158D01*
X5297673Y33844276D01*
X5273451Y33882152D01*
X5269291Y33892449D01*
X5237594Y33932363D01*
X5193554Y33952376D01*
X5145531Y33950428D01*
X5101886Y33924457D01*
X5083420Y33903365D01*
X5072663Y33876381D01*
X5084178Y33852366D01*
X5119981Y33828209D01*
X5182090Y33800801D01*
X5191515Y33797015D01*
X5248058Y33772241D01*
X5296580Y33747811D01*
X5327451Y33728514D01*
X5358371Y33694047D01*
X5378927Y33639043D01*
X5376744Y33580017D01*
X5352424Y33524155D01*
X5306568Y33478645D01*
X5269438Y33459273D01*
X5197711Y33445708D01*
X5157852Y33447538D01*
X5120953Y33457432D01*
X5106797Y33478194D01*
X5112091Y33512387D01*
X5113631Y33516908D01*
X5125842Y33540884D01*
X5146174Y33549958D01*
X5184908Y33549351D01*
X5212257Y33548526D01*
X5244257Y33555608D01*
X5266182Y33576781D01*
X5278670Y33602848D01*
X5280062Y33630155D01*
X5279998Y33630315D01*
X5263807Y33645070D01*
X5229155Y33666543D01*
X5184321Y33690542D01*
X5137582Y33712875D01*
X5097217Y33729348D01*
X5071504Y33735771D01*
X5067679Y33729482D01*
X5062864Y33699885D01*
X5059566Y33651553D01*
X5058343Y33590628D01*
X5058058Y33548458D01*
X5056718Y33495347D01*
X5054528Y33458975D01*
X5051769Y33445486D01*
X5037344Y33450019D01*
X5008226Y33462330D01*
X4971257Y33479174D01*
X4971257Y33695279D01*
X4971493Y33750673D01*
X4973729Y33834793D01*
X4979423Y33897200D01*
X4989903Y33942642D01*
X5006497Y33975867D01*
X5030531Y34001622D01*
X5063333Y34024656D01*
X5105124Y34043665D01*
X5182287Y34055086D01*
X5217495Y34053780D01*
M02*
