G04 #@! TF.GenerationSoftware,KiCad,Pcbnew,(5.99.0-8491-gb8dfcb34c4)*
G04 #@! TF.CreationDate,2021-01-20T09:42:39+01:00*
G04 #@! TF.ProjectId,TMC2130_Driver,544d4332-3133-4305-9f44-72697665722e,rev?*
G04 #@! TF.SameCoordinates,PX67f3540PY6cb8080*
G04 #@! TF.FileFunction,Copper,L2,Bot*
G04 #@! TF.FilePolarity,Positive*
%FSLAX46Y46*%
G04 Gerber Fmt 4.6, Leading zero omitted, Abs format (unit mm)*
G04 Created by KiCad (PCBNEW (5.99.0-8491-gb8dfcb34c4)) date 2021-01-20 09:42:39*
%MOMM*%
%LPD*%
G01*
G04 APERTURE LIST*
G04 #@! TA.AperFunction,ConnectorPad*
%ADD10O,0.650000X0.650000*%
G04 #@! TD*
G04 #@! TA.AperFunction,ConnectorPad*
%ADD11R,0.650000X3.600000*%
G04 #@! TD*
G04 #@! TA.AperFunction,ConnectorPad*
%ADD12R,0.650000X4.600000*%
G04 #@! TD*
G04 #@! TA.AperFunction,ComponentPad*
%ADD13R,1.778000X1.778000*%
G04 #@! TD*
G04 #@! TA.AperFunction,ComponentPad*
%ADD14C,1.778000*%
G04 #@! TD*
G04 #@! TA.AperFunction,ComponentPad*
%ADD15R,2.400000X2.400000*%
G04 #@! TD*
G04 #@! TA.AperFunction,ComponentPad*
%ADD16C,2.400000*%
G04 #@! TD*
G04 #@! TA.AperFunction,ViaPad*
%ADD17C,0.800000*%
G04 #@! TD*
G04 #@! TA.AperFunction,ViaPad*
%ADD18C,0.700000*%
G04 #@! TD*
G04 #@! TA.AperFunction,Conductor*
%ADD19C,1.000000*%
G04 #@! TD*
G04 #@! TA.AperFunction,Conductor*
%ADD20C,0.152400*%
G04 #@! TD*
G04 #@! TA.AperFunction,Conductor*
%ADD21C,0.650000*%
G04 #@! TD*
G04 #@! TA.AperFunction,Conductor*
%ADD22C,0.203200*%
G04 #@! TD*
G04 APERTURE END LIST*
D10*
X12652800Y1014800D03*
X22652800Y1014800D03*
X17652800Y1014800D03*
X13652800Y1014800D03*
X15652800Y1014800D03*
X10652800Y1014800D03*
X25652800Y1014800D03*
X26652800Y1014800D03*
X21652800Y1014800D03*
X18652800Y1014800D03*
X24652800Y1014800D03*
X27652800Y1014800D03*
X9652800Y1014800D03*
X23652800Y1014800D03*
X11652800Y1014800D03*
X16652800Y1014800D03*
X14652800Y1014800D03*
D11*
X8652800Y3814800D03*
D12*
X9652800Y3314800D03*
X10652800Y3314800D03*
X11652800Y3314800D03*
X12652800Y3314800D03*
X13652800Y3314800D03*
X14652800Y3314800D03*
X15652800Y3314800D03*
X16652800Y3314800D03*
X17652800Y3314800D03*
X18652800Y3314800D03*
X21652800Y3314800D03*
X22652800Y3314800D03*
X23652800Y3314800D03*
X24652800Y3314800D03*
X25652800Y3314800D03*
X26652800Y3314800D03*
X27652800Y3314800D03*
D13*
X32540000Y30820000D03*
D14*
X32540000Y28280000D03*
X32540000Y25740000D03*
X32540000Y23200000D03*
D15*
X32540000Y13010000D03*
D16*
X32540000Y16510000D03*
D17*
X29300000Y34220000D03*
X27840000Y34230000D03*
X15000000Y22000000D03*
X22040000Y27010000D03*
X22040000Y28260000D03*
X22040000Y29510000D03*
X22040000Y25760000D03*
X20790000Y25760000D03*
X20790000Y29510000D03*
X20790000Y28260000D03*
X20790000Y27010000D03*
X30540000Y27260000D03*
X3000000Y26000000D03*
X17000000Y16000000D03*
X1000000Y16000000D03*
X8000000Y21000000D03*
X33040000Y21260000D03*
D18*
X16790000Y32760000D03*
D17*
X8000000Y23000000D03*
D18*
X25421300Y27841400D03*
D17*
X15000000Y16000000D03*
X17000000Y18000000D03*
D18*
X16790000Y22510000D03*
X30790000Y34260000D03*
X16790000Y23260000D03*
D17*
X15000000Y18000000D03*
X1000000Y8000000D03*
X1000000Y18000000D03*
X3000000Y20000000D03*
D18*
X16840000Y31010000D03*
D17*
X3000000Y18000000D03*
D18*
X28840000Y30010000D03*
D17*
X3000000Y16000000D03*
X30540000Y20760000D03*
X3000000Y14000000D03*
X1000000Y26000000D03*
X1000000Y20000000D03*
X13000000Y16000000D03*
X29000000Y29000000D03*
X3000000Y22000000D03*
D18*
X17040000Y27760000D03*
D17*
X3000000Y12000000D03*
X19000000Y16000000D03*
X3000000Y8000000D03*
D18*
X28540000Y26010000D03*
D17*
X18100000Y8870000D03*
X3000000Y24000000D03*
X1000000Y14000000D03*
X35820000Y8830000D03*
X1000000Y24000000D03*
D18*
X27540000Y25260000D03*
X15790000Y31010000D03*
D17*
X28000000Y28000000D03*
X1000000Y22000000D03*
X1000000Y10000000D03*
X1000000Y12000000D03*
X3000000Y10000000D03*
X25000000Y18000000D03*
X23000000Y17000000D03*
X10000000Y23000000D03*
D18*
X18040000Y33260000D03*
X18040000Y34010000D03*
X20540000Y33260000D03*
X20540000Y34010000D03*
X18040000Y21010000D03*
X18040000Y21760000D03*
X20540000Y21860000D03*
X20540000Y21060000D03*
D17*
X11098519Y7521423D03*
D18*
X30540000Y19010000D03*
D17*
X7775421Y26124579D03*
X9350505Y7049495D03*
X8380000Y26940000D03*
X8814495Y7844495D03*
X8575954Y18717787D03*
X11460000Y6630000D03*
X16660000Y11280000D03*
X16280000Y7230000D03*
X9030000Y13800000D03*
X8369555Y13108568D03*
X15630000Y6480000D03*
X12110000Y18201390D03*
X11939516Y20656084D03*
X10940000Y28990000D03*
X10699388Y27193421D03*
X9730000Y27680000D03*
X8960000Y29330000D03*
D18*
X28761400Y18164000D03*
D17*
X10434767Y18964380D03*
X9380539Y19298855D03*
D18*
X29540000Y18705990D03*
D17*
X26540000Y34210000D03*
X15850000Y8330000D03*
X4300000Y10850000D03*
X11400000Y17520000D03*
X10960000Y20960000D03*
X9740000Y29930000D03*
D19*
X29040000Y23260000D02*
X18790000Y23260000D01*
X18790000Y23260000D02*
X18040000Y22510000D01*
X30631001Y24851001D02*
X29040000Y23260000D01*
X18040000Y22510000D02*
X18040000Y21010000D01*
X32540000Y25740000D02*
X31651001Y24851001D01*
X31651001Y24851001D02*
X30631001Y24851001D01*
X32127678Y28280000D02*
X32540000Y28280000D01*
X28647678Y31760000D02*
X32127678Y28280000D01*
D20*
X18030000Y11280000D02*
X17280000Y11280000D01*
X21652800Y3314800D02*
X21652800Y7657200D01*
X21652800Y7657200D02*
X18030000Y11280000D01*
X18030000Y11280000D02*
X16660000Y11280000D01*
D21*
X26652800Y3314800D02*
X26652800Y6902800D01*
X25652800Y3314800D02*
X25652800Y6264800D01*
X27652800Y3314800D02*
X27652800Y6264800D01*
X24652800Y3314800D02*
X24652800Y6402800D01*
X25652800Y6264800D02*
X25750000Y6362000D01*
X23652800Y3314800D02*
X23652800Y6264800D01*
X27652800Y6264800D02*
X27500000Y6417600D01*
X27500000Y6417600D02*
X27500000Y7000000D01*
D19*
X28647678Y31760000D02*
X19540000Y31760000D01*
X28647678Y31760000D02*
X28090000Y31760000D01*
X19540000Y31760000D02*
X18040000Y33260000D01*
X18040000Y34010000D02*
X18040000Y33260000D01*
X32540000Y30820000D02*
X30202401Y33157599D01*
X20540000Y34010000D02*
X20540000Y33260000D01*
X20642401Y33157599D02*
X20540000Y33260000D01*
X30202401Y33157599D02*
X20642401Y33157599D01*
X32540000Y23200000D02*
X30680000Y23200000D01*
X20540000Y21860000D02*
X20540000Y21060000D01*
X30680000Y23200000D02*
X29340000Y21860000D01*
X29340000Y21860000D02*
X20540000Y21860000D01*
D20*
X6710168Y17781235D02*
X6710168Y12367696D01*
X8877533Y19948601D02*
X6710168Y17781235D01*
X29601399Y19948601D02*
X30540000Y19010000D01*
X6710168Y12367696D02*
X11098519Y7979345D01*
X8877533Y19948601D02*
X8534466Y19605534D01*
X11098519Y7979345D02*
X11098519Y7521423D01*
X8877533Y19948601D02*
X29601399Y19948601D01*
X9521399Y8028271D02*
X9521399Y7220389D01*
X5795736Y23085736D02*
X5795736Y24144894D01*
X5795736Y11753934D02*
X9521399Y8028271D01*
X5795736Y23085736D02*
X5795736Y11753934D01*
X5795736Y23765736D02*
X5795736Y23085736D01*
X9521399Y7220389D02*
X9350505Y7049495D01*
X5795736Y24144894D02*
X7775421Y26124579D01*
X5490926Y11168064D02*
X5490926Y24729074D01*
X5490926Y24729074D02*
X7701852Y26940000D01*
X7701852Y26940000D02*
X8380000Y26940000D01*
X8814495Y7844495D02*
X5490926Y11168064D01*
X11764979Y7886965D02*
X7014980Y12636964D01*
X11460000Y6630000D02*
X11764979Y6934979D01*
X11764979Y6934979D02*
X11764979Y7886965D01*
X7014980Y12636964D02*
X7014980Y17156813D01*
X7014980Y17156813D02*
X8575954Y18717787D01*
X9030000Y12429671D02*
X14229671Y7230000D01*
X9030000Y13800000D02*
X9030000Y12429671D01*
X14229671Y7230000D02*
X16280000Y7230000D01*
X14548603Y6480000D02*
X8369555Y12659048D01*
X8369555Y12659048D02*
X8369555Y13108568D01*
X15630000Y6480000D02*
X14548603Y6480000D01*
X11741146Y20854454D02*
X11741146Y26698854D01*
X8934402Y18201390D02*
X12110000Y18201390D01*
X7319790Y12763222D02*
X7319790Y16586778D01*
X12109790Y7973222D02*
X7319790Y12763222D01*
X11652800Y3314800D02*
X11652800Y5892470D01*
X11741146Y26698854D02*
X11741146Y28188854D01*
X7319790Y16586778D02*
X8934402Y18201390D01*
X11652800Y5892470D02*
X12109790Y6349460D01*
X11939516Y20656084D02*
X11741146Y20854454D01*
X12109790Y6349460D02*
X12109790Y7973222D01*
X11741146Y28188854D02*
X10940000Y28990000D01*
X10325568Y8321228D02*
X6405358Y12241438D01*
X10325568Y3642032D02*
X10325568Y8321228D01*
X6405358Y12241438D02*
X6405358Y22899391D01*
X6405358Y22899391D02*
X10699388Y27193421D01*
X10652800Y3314800D02*
X10325568Y3642032D01*
X6100548Y12115180D02*
X6100548Y23052684D01*
X9979116Y3641116D02*
X9979116Y8236612D01*
X9652800Y3314800D02*
X9979116Y3641116D01*
X6100548Y23052684D02*
X9730000Y26682136D01*
X9730000Y26682136D02*
X9730000Y27680000D01*
X9979116Y8236612D02*
X6100548Y12115180D01*
X5186116Y10583884D02*
X5186116Y25556116D01*
X8652800Y3814800D02*
X8652800Y7117200D01*
X5186116Y25556116D02*
X8960000Y29330000D01*
X8652800Y7117200D02*
X5186116Y10583884D01*
X27961020Y18964380D02*
X28761400Y18164000D01*
X10434767Y18964380D02*
X27961020Y18964380D01*
X28627599Y19618391D02*
X29540000Y18705990D01*
X9700074Y19618390D02*
X28627599Y19618391D01*
D22*
X9700074Y19618390D02*
X9380539Y19298855D01*
D21*
X12980000Y35010000D02*
X25740000Y35010000D01*
X16970000Y8330000D02*
X18652800Y6647200D01*
X25740000Y35010000D02*
X26540000Y34210000D01*
X18652800Y6647200D02*
X18652800Y3314800D01*
X4300000Y26330000D02*
X12980000Y35010000D01*
X4300000Y10850000D02*
X4300000Y26330000D01*
X15850000Y8330000D02*
X16970000Y8330000D01*
D22*
X14652800Y5377200D02*
X14652800Y3314800D01*
X7670000Y15040000D02*
X7650000Y15060000D01*
X11353389Y27586611D02*
X11353389Y21353389D01*
X14652800Y5897200D02*
X7670000Y12880000D01*
X8720000Y17520000D02*
X11400000Y17520000D01*
X7650000Y16450000D02*
X8510000Y17310000D01*
X7650000Y15060000D02*
X7650000Y16450000D01*
X9740000Y29200000D02*
X11353389Y27586611D01*
X9740000Y29930000D02*
X9740000Y29200000D01*
X11353389Y21353389D02*
X10960000Y20960000D01*
X7670000Y12880000D02*
X7670000Y15040000D01*
X8510000Y17310000D02*
X8720000Y17520000D01*
X14652800Y3314800D02*
X14652800Y5897200D01*
G04 #@! TA.AperFunction,Conductor*
G36*
X35665296Y39256097D02*
G01*
X35669694Y39255412D01*
X35677618Y39253086D01*
X35752889Y39251303D01*
X35762253Y39250731D01*
X35792148Y39247787D01*
X35804373Y39245973D01*
X35923471Y39222284D01*
X35935463Y39219280D01*
X35953834Y39213707D01*
X35965475Y39209542D01*
X36077658Y39163073D01*
X36088832Y39157789D01*
X36105740Y39148751D01*
X36116335Y39142401D01*
X36217334Y39074917D01*
X36227242Y39067568D01*
X36242067Y39055401D01*
X36251223Y39047103D01*
X36337100Y38961225D01*
X36345401Y38952067D01*
X36357568Y38937241D01*
X36364930Y38927314D01*
X36432398Y38826338D01*
X36438753Y38815736D01*
X36447786Y38798837D01*
X36453073Y38787658D01*
X36499542Y38675475D01*
X36503709Y38663830D01*
X36509280Y38645464D01*
X36512284Y38633472D01*
X36530881Y38539978D01*
X36535973Y38514376D01*
X36537787Y38502145D01*
X36540731Y38472254D01*
X36541303Y38462889D01*
X36543086Y38387617D01*
X36545412Y38379693D01*
X36546097Y38375295D01*
X36547600Y38355893D01*
X36547600Y1054107D01*
X36546097Y1034705D01*
X36545412Y1030307D01*
X36543086Y1022383D01*
X36542627Y1003002D01*
X36541303Y947112D01*
X36540731Y937746D01*
X36537787Y907855D01*
X36535973Y895627D01*
X36530475Y867982D01*
X36512284Y776529D01*
X36509280Y764536D01*
X36503709Y746170D01*
X36499542Y734525D01*
X36453073Y622342D01*
X36447786Y611163D01*
X36438753Y594264D01*
X36432398Y583662D01*
X36364930Y482686D01*
X36357568Y472759D01*
X36357554Y472741D01*
X36345401Y457933D01*
X36337100Y448775D01*
X36251223Y362897D01*
X36242070Y354601D01*
X36227242Y342432D01*
X36217334Y335083D01*
X36126043Y274085D01*
X36116339Y267601D01*
X36105740Y261249D01*
X36089779Y252718D01*
X36088831Y252211D01*
X36077658Y246927D01*
X35965475Y200458D01*
X35953834Y196293D01*
X35935464Y190720D01*
X35923472Y187716D01*
X35804373Y164027D01*
X35792148Y162213D01*
X35762254Y159269D01*
X35752889Y158697D01*
X35677618Y156914D01*
X35669694Y154588D01*
X35665296Y153903D01*
X35645894Y152400D01*
X31854107Y152400D01*
X31834705Y153903D01*
X31830307Y154588D01*
X31822383Y156914D01*
X31747111Y158697D01*
X31737746Y159269D01*
X31707852Y162213D01*
X31695627Y164027D01*
X31576528Y187716D01*
X31564536Y190720D01*
X31546166Y196293D01*
X31534525Y200458D01*
X31422342Y246927D01*
X31411163Y252214D01*
X31394264Y261247D01*
X31383662Y267602D01*
X31303136Y321406D01*
X31282678Y335076D01*
X31272759Y342432D01*
X31257933Y354599D01*
X31248775Y362900D01*
X31162897Y448777D01*
X31154599Y457933D01*
X31142432Y472758D01*
X31135083Y482666D01*
X31067599Y583665D01*
X31061247Y594264D01*
X31052211Y611169D01*
X31046927Y622342D01*
X31000458Y734525D01*
X30996291Y746170D01*
X30990720Y764536D01*
X30987716Y776529D01*
X30969525Y867982D01*
X30964027Y895627D01*
X30962213Y907855D01*
X30959269Y937746D01*
X30958697Y947112D01*
X30957373Y1003002D01*
X30956914Y1022382D01*
X30954588Y1030306D01*
X30953903Y1034704D01*
X30952400Y1054106D01*
X30952400Y3150814D01*
X32245773Y3150814D01*
X32281940Y2911670D01*
X32355877Y2681384D01*
X32465681Y2465882D01*
X32608527Y2270707D01*
X32780741Y2100882D01*
X32784863Y2097952D01*
X32784865Y2097951D01*
X32973769Y1963703D01*
X32973772Y1963701D01*
X32977891Y1960774D01*
X32982427Y1958542D01*
X33190364Y1856224D01*
X33190369Y1856222D01*
X33194905Y1853990D01*
X33199748Y1852509D01*
X33199749Y1852509D01*
X33421353Y1784758D01*
X33421355Y1784758D01*
X33426201Y1783276D01*
X33665827Y1750451D01*
X33735069Y1752143D01*
X33902557Y1756236D01*
X33902561Y1756236D01*
X33907618Y1756360D01*
X34145355Y1800852D01*
X34372920Y1882780D01*
X34584459Y2000038D01*
X34588437Y2003168D01*
X34588441Y2003171D01*
X34770554Y2146480D01*
X34770555Y2146481D01*
X34774530Y2149609D01*
X34885885Y2270707D01*
X34934817Y2323920D01*
X34934819Y2323923D01*
X34938241Y2327644D01*
X35071383Y2529564D01*
X35073457Y2534178D01*
X35168454Y2745557D01*
X35168456Y2745562D01*
X35170528Y2750173D01*
X35233127Y2983795D01*
X35257569Y3224421D01*
X35257900Y3256000D01*
X35257671Y3258848D01*
X35238909Y3492044D01*
X35238908Y3492049D01*
X35238503Y3497085D01*
X35206837Y3626007D01*
X35182017Y3727053D01*
X35180810Y3731967D01*
X35126597Y3859686D01*
X35088283Y3949947D01*
X35088282Y3949949D01*
X35086306Y3954604D01*
X34957423Y4159268D01*
X34797475Y4340692D01*
X34610579Y4494211D01*
X34401542Y4615873D01*
X34396819Y4617686D01*
X34396817Y4617687D01*
X34180463Y4700738D01*
X34180465Y4700738D01*
X34175743Y4702550D01*
X34170797Y4703583D01*
X34170791Y4703585D01*
X34025746Y4733886D01*
X33938990Y4752010D01*
X33933942Y4752239D01*
X33933936Y4752240D01*
X33818183Y4757495D01*
X33697375Y4762981D01*
X33692355Y4762400D01*
X33692351Y4762400D01*
X33462141Y4735764D01*
X33462137Y4735763D01*
X33457114Y4735182D01*
X33452249Y4733805D01*
X33452247Y4733805D01*
X33335390Y4700738D01*
X33224388Y4669328D01*
X33005185Y4567111D01*
X33001005Y4564270D01*
X33001001Y4564268D01*
X32916629Y4506929D01*
X32805144Y4431164D01*
X32629412Y4264982D01*
X32626334Y4260956D01*
X32626333Y4260955D01*
X32485583Y4076862D01*
X32485580Y4076858D01*
X32482510Y4072842D01*
X32368217Y3859686D01*
X32366571Y3854905D01*
X32366569Y3854901D01*
X32324239Y3731967D01*
X32289473Y3630999D01*
X32248306Y3392665D01*
X32245773Y3150814D01*
X30952400Y3150814D01*
X30952400Y6847756D01*
X30955380Y6872666D01*
X30955852Y6877054D01*
X30957798Y6885070D01*
X30957603Y6893325D01*
X30955186Y6995353D01*
X30955289Y7000280D01*
X30955149Y7002422D01*
X30955689Y7010667D01*
X30954706Y7015607D01*
X30954587Y7020644D01*
X30952259Y7028573D01*
X30951929Y7030694D01*
X30950752Y7035487D01*
X30913928Y7220614D01*
X30913228Y7224858D01*
X30912971Y7225816D01*
X30911893Y7234004D01*
X30910684Y7236922D01*
X30910068Y7240020D01*
X30906414Y7247430D01*
X30906096Y7248367D01*
X30904324Y7252277D01*
X30829972Y7431780D01*
X30828459Y7435800D01*
X30828021Y7436687D01*
X30825367Y7444505D01*
X30823612Y7447132D01*
X30822403Y7450050D01*
X30817378Y7456598D01*
X30816883Y7457456D01*
X30814373Y7460959D01*
X30706443Y7622488D01*
X30704170Y7626142D01*
X30703572Y7626922D01*
X30699437Y7634084D01*
X30697201Y7636320D01*
X30695449Y7638942D01*
X30689246Y7644382D01*
X30688591Y7645129D01*
X30685458Y7648063D01*
X30548071Y7785449D01*
X30545127Y7788592D01*
X30544385Y7789243D01*
X30538942Y7795449D01*
X30536317Y7797203D01*
X30534083Y7799437D01*
X30526932Y7803566D01*
X30526153Y7804164D01*
X30522499Y7806436D01*
X30360937Y7914388D01*
X30357450Y7916887D01*
X30356596Y7917380D01*
X30350050Y7922403D01*
X30347132Y7923612D01*
X30344505Y7925367D01*
X30336687Y7928021D01*
X30335800Y7928459D01*
X30331780Y7929972D01*
X30152277Y8004324D01*
X30148367Y8006096D01*
X30147430Y8006414D01*
X30140020Y8010068D01*
X30136922Y8010684D01*
X30134004Y8011893D01*
X30125812Y8012972D01*
X30124859Y8013227D01*
X30120615Y8013928D01*
X30119303Y8014189D01*
X29935478Y8050754D01*
X29930682Y8051932D01*
X29928571Y8052261D01*
X29920645Y8054587D01*
X29915607Y8054706D01*
X29910667Y8055689D01*
X29902421Y8055149D01*
X29900279Y8055289D01*
X29895353Y8055186D01*
X29793321Y8057603D01*
X29793318Y8057603D01*
X29785071Y8057798D01*
X29777055Y8055852D01*
X29772667Y8055380D01*
X29747757Y8052400D01*
X29352244Y8052400D01*
X29327334Y8055380D01*
X29322946Y8055852D01*
X29314930Y8057798D01*
X29306683Y8057603D01*
X29306680Y8057603D01*
X29204647Y8055186D01*
X29199720Y8055289D01*
X29197578Y8055149D01*
X29189333Y8055689D01*
X29184393Y8054706D01*
X29179356Y8054587D01*
X29171427Y8052259D01*
X29169306Y8051929D01*
X29164513Y8050752D01*
X29039028Y8025792D01*
X28979381Y8013927D01*
X28975142Y8013228D01*
X28974184Y8012971D01*
X28965996Y8011893D01*
X28963078Y8010684D01*
X28959980Y8010068D01*
X28952570Y8006414D01*
X28951633Y8006096D01*
X28947723Y8004324D01*
X28768220Y7929972D01*
X28764200Y7928459D01*
X28763313Y7928021D01*
X28755495Y7925367D01*
X28752868Y7923612D01*
X28749950Y7922403D01*
X28743402Y7917378D01*
X28742544Y7916883D01*
X28739041Y7914373D01*
X28577512Y7806443D01*
X28573858Y7804170D01*
X28573078Y7803572D01*
X28565916Y7799437D01*
X28563680Y7797201D01*
X28561058Y7795449D01*
X28555618Y7789246D01*
X28554871Y7788591D01*
X28551937Y7785458D01*
X28414551Y7648071D01*
X28411408Y7645127D01*
X28410757Y7644385D01*
X28404551Y7638942D01*
X28402797Y7636317D01*
X28400563Y7634083D01*
X28396434Y7626932D01*
X28395836Y7626153D01*
X28393564Y7622499D01*
X28285612Y7460937D01*
X28283113Y7457450D01*
X28282620Y7456596D01*
X28277597Y7450050D01*
X28276388Y7447132D01*
X28274633Y7444505D01*
X28271979Y7436687D01*
X28271541Y7435800D01*
X28270028Y7431780D01*
X28195676Y7252277D01*
X28193904Y7248367D01*
X28193586Y7247430D01*
X28189932Y7240020D01*
X28189316Y7236922D01*
X28188107Y7234004D01*
X28187028Y7225812D01*
X28186773Y7224859D01*
X28186072Y7220615D01*
X28153967Y7059208D01*
X28149248Y7035486D01*
X28148068Y7030682D01*
X28147739Y7028571D01*
X28145413Y7020645D01*
X28145294Y7015607D01*
X28144311Y7010667D01*
X28144851Y7002421D01*
X28144711Y7000279D01*
X28144814Y6995353D01*
X28142398Y6893325D01*
X28142202Y6885071D01*
X28144148Y6877055D01*
X28144620Y6872667D01*
X28147600Y6847757D01*
X28147600Y6248799D01*
X28127598Y6180678D01*
X28073942Y6134185D01*
X28003670Y6124081D01*
X27982250Y6127160D01*
X27973305Y6127800D01*
X27924915Y6127800D01*
X27909676Y6123325D01*
X27908471Y6121935D01*
X27906800Y6114252D01*
X27906800Y6000000D01*
X27398800Y6000000D01*
X27398800Y6109685D01*
X27394325Y6124924D01*
X27392935Y6126129D01*
X27385252Y6127800D01*
X27330057Y6127800D01*
X27325550Y6127639D01*
X27261531Y6123060D01*
X27248309Y6120674D01*
X27195290Y6105107D01*
X27124293Y6105107D01*
X27113412Y6108302D01*
X26982246Y6127161D01*
X26973305Y6127800D01*
X26924915Y6127800D01*
X26909676Y6123325D01*
X26908471Y6121935D01*
X26906800Y6114252D01*
X26906800Y6000000D01*
X26398800Y6000000D01*
X26398800Y6109685D01*
X26394325Y6124924D01*
X26392935Y6126129D01*
X26385252Y6127800D01*
X26330057Y6127800D01*
X26325550Y6127639D01*
X26261531Y6123060D01*
X26248309Y6120674D01*
X26195290Y6105107D01*
X26124293Y6105107D01*
X26113412Y6108302D01*
X25982246Y6127161D01*
X25973305Y6127800D01*
X25924915Y6127800D01*
X25909676Y6123325D01*
X25908471Y6121935D01*
X25906800Y6114252D01*
X25906800Y6000000D01*
X25398800Y6000000D01*
X25398800Y6109685D01*
X25394325Y6124924D01*
X25392935Y6126129D01*
X25385252Y6127800D01*
X25330057Y6127800D01*
X25325550Y6127639D01*
X25261531Y6123060D01*
X25248309Y6120674D01*
X25195290Y6105107D01*
X25124293Y6105107D01*
X25113412Y6108302D01*
X24982246Y6127161D01*
X24973305Y6127800D01*
X24924915Y6127800D01*
X24909676Y6123325D01*
X24908471Y6121935D01*
X24906800Y6114252D01*
X24906800Y6000000D01*
X24398800Y6000000D01*
X24398800Y6109685D01*
X24394325Y6124924D01*
X24392935Y6126129D01*
X24385252Y6127800D01*
X24330057Y6127800D01*
X24325550Y6127639D01*
X24261531Y6123060D01*
X24248309Y6120674D01*
X24195290Y6105107D01*
X24124293Y6105107D01*
X24113412Y6108302D01*
X23982246Y6127161D01*
X23973305Y6127800D01*
X23924915Y6127800D01*
X23909676Y6123325D01*
X23908471Y6121935D01*
X23906800Y6114252D01*
X23906800Y6000000D01*
X23398800Y6000000D01*
X23398800Y6109685D01*
X23394325Y6124924D01*
X23392935Y6126129D01*
X23385252Y6127800D01*
X23330057Y6127800D01*
X23325550Y6127639D01*
X23261531Y6123060D01*
X23248309Y6120674D01*
X23123342Y6083981D01*
X23107108Y6076567D01*
X23019090Y6020002D01*
X22950970Y6000000D01*
X22007900Y6000000D01*
X21939779Y6020002D01*
X21893286Y6073658D01*
X21881900Y6126000D01*
X21881900Y7650110D01*
X21882073Y7656703D01*
X21883325Y7680595D01*
X21884018Y7693821D01*
X21876586Y7713182D01*
X21870972Y7732134D01*
X21866661Y7752417D01*
X21858875Y7763133D01*
X21855783Y7770078D01*
X21852692Y7775427D01*
X21849133Y7784700D01*
X21848434Y7785562D01*
X21834038Y7799958D01*
X21821197Y7814992D01*
X21817226Y7820458D01*
X21817225Y7820459D01*
X21809443Y7831170D01*
X21797976Y7837790D01*
X21788133Y7846653D01*
X21788465Y7847022D01*
X21782056Y7851940D01*
X18197021Y11436975D01*
X18192480Y11441760D01*
X18176464Y11459548D01*
X18176463Y11459549D01*
X18167601Y11469391D01*
X18148652Y11477827D01*
X18131286Y11487256D01*
X18113894Y11498551D01*
X18100817Y11500622D01*
X18093716Y11503348D01*
X18087727Y11504953D01*
X18078672Y11508984D01*
X18077568Y11509100D01*
X18057208Y11509100D01*
X18037497Y11510651D01*
X18030825Y11511708D01*
X18030824Y11511708D01*
X18017748Y11513779D01*
X18004960Y11510352D01*
X17991730Y11509659D01*
X17991704Y11510154D01*
X17983695Y11509100D01*
X17243124Y11509100D01*
X17175003Y11529102D01*
X17138056Y11567046D01*
X17137208Y11569007D01*
X17078557Y11641436D01*
X17047315Y11680016D01*
X17041909Y11686692D01*
X17025508Y11698348D01*
X16925475Y11769437D01*
X16918473Y11774413D01*
X16775994Y11825709D01*
X16767434Y11826338D01*
X16767432Y11826338D01*
X16676574Y11833010D01*
X16624969Y11836799D01*
X16476525Y11806868D01*
X16468873Y11802969D01*
X16349250Y11742018D01*
X16349247Y11742016D01*
X16341599Y11738119D01*
X16335277Y11732306D01*
X16335276Y11732305D01*
X16236456Y11641436D01*
X16236453Y11641432D01*
X16230131Y11635619D01*
X16225603Y11628317D01*
X16225602Y11628315D01*
X16154862Y11514223D01*
X16150333Y11506918D01*
X16108085Y11361500D01*
X16106499Y11210077D01*
X16108722Y11201781D01*
X16108722Y11201780D01*
X16136625Y11097648D01*
X16145693Y11063805D01*
X16222777Y10933462D01*
X16332075Y10828649D01*
X16339641Y10824592D01*
X16339644Y10824590D01*
X16457957Y10761151D01*
X16457961Y10761149D01*
X16465532Y10757090D01*
X16613316Y10724057D01*
X16621889Y10724506D01*
X16621893Y10724506D01*
X16755957Y10731532D01*
X16755958Y10731532D01*
X16764540Y10731982D01*
X16882799Y10771780D01*
X16899927Y10777544D01*
X16899929Y10777545D01*
X16908062Y10780282D01*
X16920402Y10788668D01*
X16943427Y10804317D01*
X17033308Y10865400D01*
X17089167Y10931500D01*
X17125506Y10974500D01*
X17125507Y10974502D01*
X17131051Y10981062D01*
X17134627Y10988872D01*
X17136875Y10992415D01*
X17190264Y11039213D01*
X17243260Y11050900D01*
X17882913Y11050900D01*
X17951034Y11030898D01*
X17972008Y11013995D01*
X21386795Y7599208D01*
X21420821Y7536896D01*
X21423700Y7510113D01*
X21423700Y7347967D01*
X21403698Y7279846D01*
X21350042Y7233353D01*
X21279768Y7223249D01*
X21215188Y7252743D01*
X21182593Y7296718D01*
X21182416Y7297116D01*
X21117547Y7442814D01*
X21116525Y7445282D01*
X21116151Y7445971D01*
X21115848Y7446760D01*
X21115778Y7447086D01*
X21115110Y7448699D01*
X21115093Y7448726D01*
X21113196Y7453669D01*
X21111952Y7455382D01*
X21111090Y7457317D01*
X21107756Y7461434D01*
X21107742Y7461460D01*
X21106773Y7462722D01*
X21106498Y7462988D01*
X21105894Y7463733D01*
X21105482Y7464406D01*
X21103846Y7466538D01*
X20983560Y7632099D01*
X20982049Y7634297D01*
X20981536Y7634897D01*
X20981118Y7635541D01*
X20980977Y7635856D01*
X20979950Y7637351D01*
X20979927Y7637375D01*
X20977034Y7641830D01*
X20975461Y7643246D01*
X20974216Y7644960D01*
X20970082Y7648308D01*
X20970057Y7648337D01*
X20968802Y7649408D01*
X20968459Y7649622D01*
X20967792Y7650162D01*
X20967251Y7650732D01*
X20965227Y7652461D01*
X20947469Y7668451D01*
X20813117Y7789422D01*
X20811191Y7791250D01*
X20810567Y7791729D01*
X20809986Y7792310D01*
X20809786Y7792584D01*
X20808507Y7793798D01*
X20808478Y7793818D01*
X20804726Y7797570D01*
X20802892Y7798629D01*
X20801318Y7800046D01*
X20796588Y7802456D01*
X20796562Y7802476D01*
X20795148Y7803244D01*
X20794779Y7803378D01*
X20793969Y7803791D01*
X20793321Y7804236D01*
X20790972Y7805511D01*
X20613719Y7907848D01*
X20611439Y7909245D01*
X20610723Y7909586D01*
X20610011Y7910049D01*
X20609763Y7910271D01*
X20608280Y7911180D01*
X20608252Y7911192D01*
X20603803Y7914081D01*
X20601788Y7914736D01*
X20599955Y7915794D01*
X20594832Y7917167D01*
X20594804Y7917180D01*
X20593269Y7917635D01*
X20592883Y7917689D01*
X20591983Y7917930D01*
X20591255Y7918232D01*
X20588705Y7918987D01*
X20394030Y7982241D01*
X20391521Y7983129D01*
X20390754Y7983313D01*
X20390011Y7983599D01*
X20389714Y7983769D01*
X20388033Y7984365D01*
X20387997Y7984372D01*
X20383047Y7986272D01*
X20380944Y7986493D01*
X20378928Y7987148D01*
X20373622Y7987426D01*
X20373590Y7987434D01*
X20371977Y7987561D01*
X20371584Y7987533D01*
X20370681Y7987580D01*
X20369911Y7987723D01*
X20367248Y7987933D01*
X20308863Y7994069D01*
X20163703Y8009326D01*
X20161033Y8009677D01*
X20160248Y8009698D01*
X20159431Y8009827D01*
X20159110Y8009931D01*
X20157372Y8010159D01*
X20157341Y8010158D01*
X20152107Y8010987D01*
X20150000Y8010766D01*
X20147894Y8010987D01*
X20142666Y8010159D01*
X20142634Y8010160D01*
X20141054Y8009952D01*
X20140680Y8009845D01*
X20139753Y8009698D01*
X20138967Y8009677D01*
X20136298Y8009326D01*
X19990747Y7994028D01*
X19932752Y7987933D01*
X19930089Y7987723D01*
X19929319Y7987580D01*
X19928513Y7987538D01*
X19928176Y7987573D01*
X19926410Y7987434D01*
X19926378Y7987426D01*
X19921072Y7987148D01*
X19919056Y7986493D01*
X19916953Y7986272D01*
X19911998Y7984370D01*
X19911967Y7984364D01*
X19910434Y7983822D01*
X19910079Y7983633D01*
X19909247Y7983314D01*
X19908477Y7983129D01*
X19905967Y7982240D01*
X19711304Y7918990D01*
X19708742Y7918231D01*
X19708017Y7917930D01*
X19707227Y7917719D01*
X19706892Y7917683D01*
X19705190Y7917178D01*
X19705166Y7917166D01*
X19700045Y7915794D01*
X19698212Y7914736D01*
X19696197Y7914081D01*
X19691753Y7911195D01*
X19691720Y7911181D01*
X19690374Y7910356D01*
X19690075Y7910105D01*
X19689277Y7909586D01*
X19688561Y7909245D01*
X19686275Y7907844D01*
X19593946Y7854538D01*
X19509022Y7805508D01*
X19506675Y7804233D01*
X19506032Y7803791D01*
X19505309Y7803422D01*
X19504989Y7803318D01*
X19503434Y7802473D01*
X19503412Y7802456D01*
X19498682Y7800046D01*
X19497108Y7798629D01*
X19495274Y7797570D01*
X19491522Y7793818D01*
X19491493Y7793798D01*
X19490328Y7792692D01*
X19490086Y7792382D01*
X19489433Y7791729D01*
X19488809Y7791250D01*
X19486883Y7789422D01*
X19352532Y7668451D01*
X19334773Y7652461D01*
X19332749Y7650732D01*
X19332208Y7650162D01*
X19331614Y7649681D01*
X19331312Y7649506D01*
X19329943Y7648337D01*
X19329918Y7648308D01*
X19325784Y7644960D01*
X19324539Y7643246D01*
X19322966Y7641830D01*
X19320073Y7637375D01*
X19320050Y7637351D01*
X19319107Y7635978D01*
X19318931Y7635617D01*
X19318463Y7634897D01*
X19317954Y7634300D01*
X19316454Y7632118D01*
X19234275Y7519007D01*
X19196140Y7466519D01*
X19194513Y7464399D01*
X19194103Y7463730D01*
X19193567Y7463068D01*
X19193323Y7462847D01*
X19192258Y7461459D01*
X19192246Y7461436D01*
X19188910Y7457317D01*
X19188048Y7455382D01*
X19186804Y7453669D01*
X19184906Y7448725D01*
X19184891Y7448700D01*
X19184282Y7447230D01*
X19184189Y7446857D01*
X19183849Y7445971D01*
X19183475Y7445282D01*
X19182453Y7442814D01*
X19177391Y7431445D01*
X19099198Y7255821D01*
X19098057Y7253429D01*
X19097793Y7252683D01*
X19097447Y7252005D01*
X19097242Y7251721D01*
X19096468Y7250099D01*
X19096457Y7250061D01*
X19094039Y7245316D01*
X19093599Y7243244D01*
X19092738Y7241311D01*
X19091905Y7236050D01*
X19091892Y7236014D01*
X19091589Y7234382D01*
X19091575Y7233966D01*
X19091446Y7233154D01*
X19091221Y7232393D01*
X19090737Y7229785D01*
X19078566Y7172526D01*
X19044838Y7110052D01*
X18982689Y7075731D01*
X18911850Y7080459D01*
X18866225Y7109628D01*
X17356033Y8619820D01*
X17348774Y8628904D01*
X17348356Y8628548D01*
X17342537Y8635385D01*
X17337747Y8642977D01*
X17331020Y8648918D01*
X17331014Y8648925D01*
X17298975Y8677220D01*
X17293287Y8682566D01*
X17283239Y8692614D01*
X17279643Y8695309D01*
X17276088Y8697974D01*
X17268247Y8704357D01*
X17241850Y8727670D01*
X17235123Y8733611D01*
X17226995Y8737427D01*
X17221881Y8740786D01*
X17214436Y8745260D01*
X17209083Y8748190D01*
X17201900Y8753574D01*
X17160497Y8769095D01*
X17151211Y8773008D01*
X17111186Y8791800D01*
X17102317Y8793181D01*
X17096484Y8794964D01*
X17088064Y8797173D01*
X17082101Y8798484D01*
X17073696Y8801635D01*
X17064744Y8802300D01*
X17064741Y8802301D01*
X17041441Y8804032D01*
X17029625Y8804911D01*
X17019584Y8806063D01*
X17012594Y8807151D01*
X17012593Y8807151D01*
X17007782Y8807900D01*
X16994075Y8807900D01*
X16984737Y8808247D01*
X16946110Y8811118D01*
X16946100Y8811117D01*
X16937156Y8811782D01*
X16928383Y8809909D01*
X16919421Y8809298D01*
X16919417Y8809351D01*
X16905670Y8807900D01*
X16168492Y8807900D01*
X16112282Y8821706D01*
X16108473Y8824413D01*
X15965994Y8875709D01*
X15957434Y8876338D01*
X15957432Y8876338D01*
X15866574Y8883010D01*
X15814969Y8886799D01*
X15666525Y8856868D01*
X15658873Y8852969D01*
X15539250Y8792018D01*
X15539247Y8792016D01*
X15531599Y8788119D01*
X15525277Y8782306D01*
X15525276Y8782305D01*
X15426456Y8691436D01*
X15426453Y8691432D01*
X15420131Y8685619D01*
X15415603Y8678317D01*
X15415602Y8678315D01*
X15393692Y8642977D01*
X15340333Y8556918D01*
X15298085Y8411500D01*
X15296499Y8260077D01*
X15298722Y8251781D01*
X15298722Y8251780D01*
X15324217Y8156634D01*
X15335693Y8113805D01*
X15412777Y7983462D01*
X15522075Y7878649D01*
X15529641Y7874592D01*
X15529644Y7874590D01*
X15647957Y7811151D01*
X15647961Y7811149D01*
X15655532Y7807090D01*
X15751845Y7785562D01*
X15775001Y7780386D01*
X15837118Y7746005D01*
X15870786Y7683500D01*
X15865317Y7612714D01*
X15849707Y7585882D01*
X15850131Y7585619D01*
X15819922Y7536896D01*
X15808642Y7518704D01*
X15755745Y7471348D01*
X15701555Y7459100D01*
X14376758Y7459100D01*
X14308637Y7479102D01*
X14287663Y7496005D01*
X9296005Y12487662D01*
X9261979Y12549974D01*
X9259100Y12576757D01*
X9259100Y13220682D01*
X9279102Y13288803D01*
X9314277Y13324894D01*
X9403308Y13385400D01*
X9501051Y13501062D01*
X9504626Y13508870D01*
X9560514Y13630940D01*
X9560514Y13630942D01*
X9564089Y13638749D01*
X9587778Y13788316D01*
X9587900Y13800000D01*
X9567348Y13950030D01*
X9507208Y14089007D01*
X9411909Y14206692D01*
X9407254Y14210000D01*
X31182100Y14210000D01*
X31182100Y11810000D01*
X31194119Y11749574D01*
X31228348Y11698348D01*
X31279574Y11664119D01*
X31291749Y11661697D01*
X31291750Y11661697D01*
X31333930Y11653307D01*
X31333933Y11653307D01*
X31340000Y11652100D01*
X33740000Y11652100D01*
X33746067Y11653307D01*
X33746070Y11653307D01*
X33788250Y11661697D01*
X33788251Y11661697D01*
X33800426Y11664119D01*
X33851652Y11698348D01*
X33885881Y11749574D01*
X33897900Y11810000D01*
X33897900Y14210000D01*
X33889486Y14252305D01*
X33888303Y14258250D01*
X33888303Y14258251D01*
X33885881Y14270426D01*
X33851652Y14321652D01*
X33800426Y14355881D01*
X33788251Y14358303D01*
X33788250Y14358303D01*
X33746070Y14366693D01*
X33746067Y14366693D01*
X33740000Y14367900D01*
X31340000Y14367900D01*
X31333933Y14366693D01*
X31333930Y14366693D01*
X31291750Y14358303D01*
X31291749Y14358303D01*
X31279574Y14355881D01*
X31228348Y14321652D01*
X31194119Y14270426D01*
X31191697Y14258251D01*
X31191697Y14258250D01*
X31190515Y14252305D01*
X31182100Y14210000D01*
X9407254Y14210000D01*
X9334058Y14262018D01*
X9295475Y14289437D01*
X9288473Y14294413D01*
X9145994Y14345709D01*
X9137434Y14346338D01*
X9137432Y14346338D01*
X9046574Y14353010D01*
X8994969Y14356799D01*
X8846525Y14326868D01*
X8838873Y14322969D01*
X8719250Y14262018D01*
X8719247Y14262016D01*
X8711599Y14258119D01*
X8705277Y14252306D01*
X8705276Y14252305D01*
X8606456Y14161436D01*
X8606453Y14161432D01*
X8600131Y14155619D01*
X8520333Y14026918D01*
X8478085Y13881500D01*
X8477995Y13872913D01*
X8477118Y13789168D01*
X8456404Y13721261D01*
X8402264Y13675332D01*
X8351588Y13666512D01*
X8351666Y13665278D01*
X8343089Y13664738D01*
X8334524Y13665367D01*
X8186080Y13635436D01*
X8178426Y13631536D01*
X8107704Y13595501D01*
X8037927Y13582396D01*
X7972142Y13609095D01*
X7931235Y13667123D01*
X7924500Y13707767D01*
X7924500Y15002453D01*
X7926921Y15027035D01*
X7927079Y15027829D01*
X7929500Y15040000D01*
X7924500Y15065137D01*
X7910808Y15133971D01*
X31529180Y15133971D01*
X31536436Y15123799D01*
X31551323Y15111548D01*
X31559125Y15106066D01*
X31774223Y14978095D01*
X31782780Y14973848D01*
X32014751Y14879889D01*
X32023853Y14876985D01*
X32267365Y14819197D01*
X32276805Y14817701D01*
X32526261Y14797411D01*
X32535805Y14797361D01*
X32785457Y14815037D01*
X32794915Y14816434D01*
X33039030Y14871672D01*
X33048137Y14874474D01*
X33281101Y14966006D01*
X33289687Y14970156D01*
X33506117Y15095869D01*
X33513977Y15101271D01*
X33541711Y15123609D01*
X33550177Y15135797D01*
X33543813Y15146977D01*
X32552812Y16137978D01*
X32538868Y16145592D01*
X32537035Y16145461D01*
X32530420Y16141210D01*
X31536396Y15147186D01*
X31529180Y15133971D01*
X7910808Y15133971D01*
X7909747Y15139306D01*
X7910708Y15139497D01*
X7904500Y15170710D01*
X7904500Y16292393D01*
X7924502Y16360514D01*
X7941405Y16381488D01*
X7994008Y16434091D01*
X30829040Y16434091D01*
X30829490Y16424553D01*
X30860208Y16176161D01*
X30862093Y16166810D01*
X30930032Y15925922D01*
X30933314Y15916952D01*
X31036906Y15689112D01*
X31041506Y15680747D01*
X31154090Y15508373D01*
X31164815Y15499217D01*
X31174531Y15503741D01*
X32167978Y16497188D01*
X32174356Y16508868D01*
X32904408Y16508868D01*
X32904539Y16507035D01*
X32908790Y16500420D01*
X33902514Y15506696D01*
X33913860Y15500500D01*
X33926349Y15510382D01*
X34029729Y15665101D01*
X34034416Y15673419D01*
X34140392Y15900168D01*
X34143760Y15909080D01*
X34214221Y16149259D01*
X34216204Y16158587D01*
X34249723Y16408139D01*
X34250255Y16414677D01*
X34252905Y16506705D01*
X34252750Y16513290D01*
X34233653Y16764343D01*
X34232211Y16773766D01*
X34175695Y17017593D01*
X34172839Y17026705D01*
X34080096Y17259166D01*
X34075893Y17267746D01*
X33949059Y17483499D01*
X33943600Y17491352D01*
X33926750Y17512050D01*
X33914427Y17520516D01*
X33903423Y17514213D01*
X32912022Y16522812D01*
X32904408Y16508868D01*
X32174356Y16508868D01*
X32175592Y16511132D01*
X32175461Y16512965D01*
X32171210Y16519580D01*
X31178851Y17511939D01*
X31166592Y17518633D01*
X31155152Y17510011D01*
X31091726Y17424139D01*
X31086649Y17416046D01*
X30970114Y17194550D01*
X30966325Y17185792D01*
X30884634Y16949215D01*
X30882210Y16939977D01*
X30837244Y16693766D01*
X30836246Y16684273D01*
X30829040Y16434091D01*
X7994008Y16434091D01*
X8788512Y17228595D01*
X8850824Y17262621D01*
X8877607Y17265500D01*
X10836476Y17265500D01*
X10904597Y17245498D01*
X10944929Y17203640D01*
X10955485Y17185792D01*
X10962777Y17173462D01*
X11072075Y17068649D01*
X11079641Y17064592D01*
X11079644Y17064590D01*
X11197957Y17001151D01*
X11197961Y17001149D01*
X11205532Y16997090D01*
X11353316Y16964057D01*
X11361889Y16964506D01*
X11361893Y16964506D01*
X11495957Y16971532D01*
X11495958Y16971532D01*
X11504540Y16971982D01*
X11591215Y17001151D01*
X11639927Y17017544D01*
X11639929Y17017545D01*
X11648062Y17020282D01*
X11773308Y17105400D01*
X11871051Y17221062D01*
X11882239Y17245498D01*
X11930514Y17350940D01*
X11930514Y17350942D01*
X11934089Y17358749D01*
X11957778Y17508316D01*
X11957900Y17520000D01*
X11959752Y17519981D01*
X11973708Y17581653D01*
X12024328Y17631435D01*
X12077194Y17646174D01*
X12205957Y17652922D01*
X12205958Y17652922D01*
X12214540Y17653372D01*
X12283072Y17676435D01*
X12349927Y17698934D01*
X12349929Y17698935D01*
X12358062Y17701672D01*
X12483308Y17786790D01*
X12581051Y17902452D01*
X12611093Y17968069D01*
X12640514Y18032330D01*
X12640514Y18032332D01*
X12644089Y18040139D01*
X12667778Y18189706D01*
X12667900Y18201390D01*
X12659775Y18260700D01*
X12648514Y18342910D01*
X12648514Y18342912D01*
X12647348Y18351420D01*
X12587208Y18490397D01*
X12555150Y18529986D01*
X12527825Y18595514D01*
X12540265Y18665412D01*
X12588520Y18717489D01*
X12653071Y18735280D01*
X27813932Y18735280D01*
X27882053Y18715278D01*
X27903027Y18698376D01*
X28071418Y18529986D01*
X28232223Y18369181D01*
X28266248Y18306868D01*
X28267628Y18260700D01*
X28254919Y18179078D01*
X28254919Y18179074D01*
X28253538Y18170205D01*
X28254702Y18161303D01*
X28254702Y18161300D01*
X28262874Y18098811D01*
X28272210Y18027416D01*
X28275824Y18019202D01*
X28275825Y18019199D01*
X28323759Y17910260D01*
X28330207Y17895606D01*
X28422868Y17785373D01*
X28430339Y17780400D01*
X28430340Y17780399D01*
X28535270Y17710551D01*
X28535273Y17710550D01*
X28542743Y17705577D01*
X28551307Y17702901D01*
X28551310Y17702900D01*
X28671629Y17665309D01*
X28671633Y17665308D01*
X28680196Y17662633D01*
X28745739Y17661432D01*
X28815199Y17660159D01*
X28815202Y17660159D01*
X28824177Y17659995D01*
X28832840Y17662357D01*
X28832842Y17662357D01*
X28954447Y17695510D01*
X28963111Y17697872D01*
X29085830Y17773222D01*
X29182468Y17879986D01*
X29184254Y17883673D01*
X31531431Y17883673D01*
X31538308Y17870902D01*
X32527188Y16882022D01*
X32541132Y16874408D01*
X32542965Y16874539D01*
X32549580Y16878790D01*
X33543626Y17872836D01*
X33550386Y17885216D01*
X33543825Y17893981D01*
X33377085Y18004135D01*
X33368747Y18008776D01*
X33141456Y18113558D01*
X33132502Y18116888D01*
X32891968Y18186088D01*
X32882635Y18188020D01*
X32634388Y18220041D01*
X32624874Y18220539D01*
X32374644Y18214643D01*
X32365161Y18213696D01*
X32118703Y18170018D01*
X32109463Y18167645D01*
X31872455Y18087191D01*
X31863684Y18083450D01*
X31641567Y17968069D01*
X31633467Y17963047D01*
X31539859Y17894662D01*
X31531431Y17883673D01*
X29184254Y17883673D01*
X29189579Y17894662D01*
X29241343Y18001503D01*
X29241344Y18001505D01*
X29245257Y18009582D01*
X29258314Y18087191D01*
X29263132Y18115831D01*
X29294159Y18179689D01*
X29354784Y18216636D01*
X29424961Y18215194D01*
X29450229Y18207299D01*
X29450233Y18207298D01*
X29458796Y18204623D01*
X29524339Y18203422D01*
X29593799Y18202149D01*
X29593802Y18202149D01*
X29602777Y18201985D01*
X29611440Y18204347D01*
X29611442Y18204347D01*
X29733047Y18237500D01*
X29741711Y18239862D01*
X29864430Y18315212D01*
X29873039Y18324723D01*
X29955040Y18415316D01*
X29955041Y18415317D01*
X29961068Y18421976D01*
X29969807Y18440012D01*
X30009532Y18522006D01*
X30023857Y18551572D01*
X30024881Y18557661D01*
X30063859Y18615305D01*
X30129110Y18643283D01*
X30199129Y18631542D01*
X30213940Y18623071D01*
X30321343Y18551577D01*
X30329907Y18548901D01*
X30329910Y18548900D01*
X30450229Y18511309D01*
X30450233Y18511308D01*
X30458796Y18508633D01*
X30524339Y18507432D01*
X30593799Y18506159D01*
X30593802Y18506159D01*
X30602777Y18505995D01*
X30611440Y18508357D01*
X30611442Y18508357D01*
X30733047Y18541510D01*
X30741711Y18543872D01*
X30864430Y18619222D01*
X30875582Y18631542D01*
X30955040Y18719326D01*
X30955041Y18719327D01*
X30961068Y18725986D01*
X30968244Y18740796D01*
X31019943Y18847503D01*
X31019944Y18847505D01*
X31023857Y18855582D01*
X31047748Y18997591D01*
X31047900Y19010000D01*
X31031953Y19121355D01*
X31028758Y19143665D01*
X31028757Y19143668D01*
X31027485Y19152551D01*
X31016639Y19176407D01*
X31003380Y19205568D01*
X30967882Y19283642D01*
X30873881Y19392735D01*
X30753040Y19471060D01*
X30615072Y19512321D01*
X30606096Y19512376D01*
X30606095Y19512376D01*
X30546909Y19512738D01*
X30471070Y19513201D01*
X30462441Y19510735D01*
X30462436Y19510734D01*
X30456596Y19509065D01*
X30385601Y19509578D01*
X30332877Y19541119D01*
X29768420Y20105576D01*
X29763879Y20110361D01*
X29747863Y20128149D01*
X29747862Y20128150D01*
X29739000Y20137992D01*
X29720051Y20146428D01*
X29702685Y20155857D01*
X29685293Y20167152D01*
X29672216Y20169223D01*
X29665115Y20171949D01*
X29659126Y20173554D01*
X29650071Y20177585D01*
X29648967Y20177701D01*
X29628607Y20177701D01*
X29608896Y20179252D01*
X29602224Y20180309D01*
X29602223Y20180309D01*
X29589147Y20182380D01*
X29576359Y20178953D01*
X29563129Y20178260D01*
X29563103Y20178755D01*
X29555094Y20177701D01*
X20732317Y20177701D01*
X20664196Y20197703D01*
X20617703Y20251359D01*
X20607599Y20321633D01*
X20637093Y20386213D01*
X20693381Y20423534D01*
X20812578Y20462263D01*
X20812581Y20462264D01*
X20820120Y20464714D01*
X20959361Y20553079D01*
X20965519Y20559636D01*
X21066827Y20667519D01*
X21072252Y20673296D01*
X21076069Y20680239D01*
X21147882Y20810865D01*
X21147884Y20810869D01*
X21151700Y20817811D01*
X21192712Y20977543D01*
X21192900Y20980531D01*
X21192900Y21081100D01*
X21212902Y21149221D01*
X21266558Y21195714D01*
X21318900Y21207100D01*
X29260695Y21207100D01*
X29270941Y21206617D01*
X29278086Y21205020D01*
X29286009Y21205269D01*
X29342300Y21207038D01*
X29346258Y21207100D01*
X29379579Y21207100D01*
X29385383Y21207833D01*
X29397203Y21208763D01*
X29434994Y21209951D01*
X29442918Y21210200D01*
X29463246Y21216106D01*
X29482610Y21220116D01*
X29495748Y21221775D01*
X29495752Y21221776D01*
X29503613Y21222769D01*
X29510983Y21225687D01*
X29510987Y21225688D01*
X29546140Y21239606D01*
X29557370Y21243451D01*
X29593673Y21253998D01*
X29593672Y21253998D01*
X29601284Y21256209D01*
X29619506Y21266986D01*
X29637262Y21275684D01*
X29649573Y21280558D01*
X29649579Y21280561D01*
X29656946Y21283478D01*
X29693946Y21310360D01*
X29703866Y21316876D01*
X29738116Y21337132D01*
X29743231Y21340157D01*
X29745477Y21342137D01*
X29759170Y21355830D01*
X29774204Y21368671D01*
X29783950Y21375752D01*
X29790364Y21380412D01*
X29818247Y21414117D01*
X29826237Y21422897D01*
X30913535Y22510195D01*
X30975847Y22544221D01*
X31002630Y22547100D01*
X31667093Y22547100D01*
X31735214Y22527098D01*
X31765838Y22499365D01*
X31786923Y22472762D01*
X31942520Y22340339D01*
X32120875Y22240660D01*
X32315194Y22177522D01*
X32518075Y22153330D01*
X32524210Y22153802D01*
X32524212Y22153802D01*
X32586120Y22158566D01*
X32721792Y22169005D01*
X32918585Y22223950D01*
X32927619Y22228513D01*
X33047310Y22288974D01*
X33100957Y22316073D01*
X33123239Y22333481D01*
X33208525Y22400114D01*
X33261963Y22441864D01*
X33273549Y22455286D01*
X33391445Y22591871D01*
X33391445Y22591872D01*
X33395469Y22596533D01*
X33399837Y22604221D01*
X33466788Y22722077D01*
X33496391Y22774187D01*
X33560884Y22968061D01*
X33586492Y23170769D01*
X33586900Y23200000D01*
X33566962Y23403344D01*
X33507907Y23598943D01*
X33411985Y23779346D01*
X33282850Y23937682D01*
X33125419Y24067919D01*
X32980552Y24146249D01*
X32951115Y24162166D01*
X32951112Y24162167D01*
X32945690Y24165099D01*
X32840882Y24197542D01*
X32756395Y24223695D01*
X32756392Y24223696D01*
X32750508Y24225517D01*
X32744383Y24226161D01*
X32744382Y24226161D01*
X32553437Y24246230D01*
X32553436Y24246230D01*
X32547309Y24246874D01*
X32471473Y24239973D01*
X32349969Y24228916D01*
X32349965Y24228915D01*
X32343831Y24228357D01*
X32337923Y24226618D01*
X32337922Y24226618D01*
X32262357Y24204378D01*
X32191360Y24204333D01*
X32131610Y24242679D01*
X32102076Y24307241D01*
X32112135Y24377522D01*
X32137687Y24414347D01*
X32384210Y24660870D01*
X32446522Y24694896D01*
X32488222Y24696889D01*
X32511959Y24694059D01*
X32511962Y24694059D01*
X32518075Y24693330D01*
X32524210Y24693802D01*
X32524212Y24693802D01*
X32586120Y24698566D01*
X32721792Y24709005D01*
X32918585Y24763950D01*
X33100957Y24856073D01*
X33261963Y24981864D01*
X33395469Y25136533D01*
X33496391Y25314187D01*
X33560884Y25508061D01*
X33586492Y25710769D01*
X33586900Y25740000D01*
X33566962Y25943344D01*
X33507907Y26138943D01*
X33411985Y26319346D01*
X33282850Y26477682D01*
X33125419Y26607919D01*
X33049682Y26648870D01*
X32951115Y26702166D01*
X32951112Y26702167D01*
X32945690Y26705099D01*
X32832528Y26740128D01*
X32756395Y26763695D01*
X32756392Y26763696D01*
X32750508Y26765517D01*
X32744383Y26766161D01*
X32744382Y26766161D01*
X32553437Y26786230D01*
X32553436Y26786230D01*
X32547309Y26786874D01*
X32471473Y26779973D01*
X32349969Y26768916D01*
X32349965Y26768915D01*
X32343831Y26768357D01*
X32147824Y26710669D01*
X32071009Y26670511D01*
X32005164Y26636088D01*
X31966756Y26616009D01*
X31807522Y26487981D01*
X31803564Y26483264D01*
X31803561Y26483261D01*
X31754457Y26424741D01*
X31676189Y26331464D01*
X31673223Y26326069D01*
X31673219Y26326063D01*
X31580729Y26157825D01*
X31580727Y26157821D01*
X31577757Y26152418D01*
X31575893Y26146543D01*
X31575892Y26146540D01*
X31546745Y26054656D01*
X31515977Y25957663D01*
X31493202Y25754617D01*
X31493718Y25748473D01*
X31499004Y25685519D01*
X31484772Y25615963D01*
X31462541Y25585881D01*
X31417466Y25540806D01*
X31355154Y25506780D01*
X31328371Y25503901D01*
X30710301Y25503901D01*
X30700061Y25504384D01*
X30692915Y25505981D01*
X30684989Y25505732D01*
X30684988Y25505732D01*
X30628701Y25503963D01*
X30624743Y25503901D01*
X30591422Y25503901D01*
X30585618Y25503168D01*
X30573798Y25502238D01*
X30536499Y25501065D01*
X30528083Y25500801D01*
X30518869Y25498124D01*
X30507755Y25494895D01*
X30488391Y25490885D01*
X30475253Y25489226D01*
X30475249Y25489225D01*
X30467388Y25488232D01*
X30460018Y25485314D01*
X30460014Y25485313D01*
X30424861Y25471395D01*
X30413631Y25467550D01*
X30394605Y25462022D01*
X30369717Y25454792D01*
X30351497Y25444016D01*
X30333739Y25435317D01*
X30321428Y25430443D01*
X30321422Y25430440D01*
X30314055Y25427523D01*
X30289909Y25409980D01*
X30277055Y25400641D01*
X30267135Y25394125D01*
X30234734Y25374963D01*
X30227770Y25370844D01*
X30225524Y25368864D01*
X30211831Y25355171D01*
X30196797Y25342330D01*
X30180637Y25330589D01*
X30175584Y25324481D01*
X30152754Y25296884D01*
X30144764Y25288104D01*
X28806465Y23949805D01*
X28744153Y23915779D01*
X28717370Y23912900D01*
X18869300Y23912900D01*
X18859060Y23913383D01*
X18851914Y23914980D01*
X18843988Y23914731D01*
X18843987Y23914731D01*
X18787700Y23912962D01*
X18783742Y23912900D01*
X18750421Y23912900D01*
X18744617Y23912167D01*
X18732797Y23911237D01*
X18695498Y23910064D01*
X18687082Y23909800D01*
X18666754Y23903894D01*
X18647390Y23899884D01*
X18634252Y23898225D01*
X18634248Y23898224D01*
X18626387Y23897231D01*
X18619017Y23894313D01*
X18619013Y23894312D01*
X18583860Y23880394D01*
X18572630Y23876549D01*
X18560077Y23872902D01*
X18528716Y23863791D01*
X18510496Y23853015D01*
X18492738Y23844316D01*
X18480427Y23839442D01*
X18480421Y23839439D01*
X18473054Y23836522D01*
X18447121Y23817680D01*
X18436054Y23809640D01*
X18426134Y23803124D01*
X18394018Y23784130D01*
X18386769Y23779843D01*
X18384523Y23777863D01*
X18370830Y23764170D01*
X18355796Y23751329D01*
X18339636Y23739588D01*
X18334583Y23733480D01*
X18311753Y23705883D01*
X18303763Y23697103D01*
X17634414Y23027754D01*
X17626821Y23020844D01*
X17620639Y23016921D01*
X17615214Y23011144D01*
X17576645Y22970072D01*
X17573890Y22967230D01*
X17550343Y22943683D01*
X17547916Y22940554D01*
X17547909Y22940546D01*
X17546764Y22939069D01*
X17539052Y22930039D01*
X17507748Y22896704D01*
X17503928Y22889755D01*
X17503927Y22889754D01*
X17497548Y22878151D01*
X17486692Y22861624D01*
X17473718Y22844898D01*
X17470569Y22837621D01*
X17455557Y22802931D01*
X17450335Y22792272D01*
X17432121Y22759141D01*
X17432119Y22759135D01*
X17428300Y22752189D01*
X17426328Y22744509D01*
X17426327Y22744506D01*
X17423035Y22731682D01*
X17416631Y22712978D01*
X17408223Y22693548D01*
X17406983Y22685720D01*
X17406983Y22685719D01*
X17401069Y22648377D01*
X17398661Y22636751D01*
X17390309Y22604221D01*
X17387288Y22592457D01*
X17387100Y22589469D01*
X17387100Y22570099D01*
X17385549Y22550389D01*
X17382425Y22530664D01*
X17383171Y22522772D01*
X17386541Y22487122D01*
X17387100Y22475264D01*
X17387100Y20970421D01*
X17392139Y20930531D01*
X17396453Y20896387D01*
X17402769Y20846387D01*
X17405686Y20839020D01*
X17405686Y20839019D01*
X17414083Y20817811D01*
X17463478Y20693054D01*
X17468136Y20686643D01*
X17468137Y20686641D01*
X17509116Y20630239D01*
X17560412Y20559636D01*
X17687480Y20454517D01*
X17694653Y20451142D01*
X17694654Y20451141D01*
X17765701Y20417709D01*
X17818822Y20370606D01*
X17838045Y20302262D01*
X17817266Y20234374D01*
X17763083Y20188497D01*
X17712053Y20177701D01*
X12524500Y20177701D01*
X12456379Y20197703D01*
X12409886Y20251359D01*
X12399782Y20321633D01*
X12412575Y20356226D01*
X12410567Y20357146D01*
X12470030Y20487024D01*
X12470030Y20487026D01*
X12473605Y20494833D01*
X12497294Y20644400D01*
X12497416Y20656084D01*
X12485502Y20743054D01*
X12478030Y20797604D01*
X12478030Y20797606D01*
X12476864Y20806114D01*
X12416724Y20945091D01*
X12321425Y21062776D01*
X12197989Y21150497D01*
X12055510Y21201793D01*
X12056587Y21204783D01*
X12007594Y21231220D01*
X11973260Y21293362D01*
X11970246Y21320757D01*
X11970246Y28181751D01*
X11970419Y28188346D01*
X11971672Y28212248D01*
X11971672Y28212249D01*
X11972365Y28225475D01*
X11964928Y28244849D01*
X11959320Y28263782D01*
X11955007Y28284071D01*
X11947221Y28294788D01*
X11944133Y28301723D01*
X11941041Y28307074D01*
X11937479Y28316354D01*
X11936780Y28317216D01*
X11922384Y28331612D01*
X11909543Y28346646D01*
X11905572Y28352112D01*
X11905571Y28352113D01*
X11897789Y28362824D01*
X11886322Y28369444D01*
X11876479Y28378307D01*
X11876811Y28378676D01*
X11870402Y28383594D01*
X11512808Y28741188D01*
X11478782Y28803500D01*
X11477454Y28849994D01*
X11488852Y28921962D01*
X11497778Y28978316D01*
X11497900Y28990000D01*
X11490164Y29046472D01*
X11478514Y29131520D01*
X11478514Y29131522D01*
X11477348Y29140030D01*
X11417208Y29279007D01*
X11321909Y29396692D01*
X11313156Y29402913D01*
X11205475Y29479437D01*
X11198473Y29484413D01*
X11055994Y29535709D01*
X11047434Y29536338D01*
X11047432Y29536338D01*
X10956574Y29543010D01*
X10904969Y29546799D01*
X10756525Y29516868D01*
X10748873Y29512969D01*
X10629250Y29452018D01*
X10629247Y29452016D01*
X10621599Y29448119D01*
X10615277Y29442306D01*
X10615276Y29442305D01*
X10516456Y29351436D01*
X10516453Y29351432D01*
X10510131Y29345619D01*
X10505603Y29338317D01*
X10505602Y29338315D01*
X10434862Y29224223D01*
X10430333Y29216918D01*
X10413077Y29157523D01*
X10411580Y29152370D01*
X10373367Y29092535D01*
X10308870Y29062858D01*
X10238568Y29072762D01*
X10201488Y29098429D01*
X10031405Y29268512D01*
X9997379Y29330824D01*
X9994500Y29357607D01*
X9994500Y29367944D01*
X10014502Y29436065D01*
X10049677Y29472156D01*
X10113308Y29515400D01*
X10211051Y29631062D01*
X10274089Y29768749D01*
X10297778Y29918316D01*
X10297900Y29930000D01*
X10277348Y30080030D01*
X10217208Y30219007D01*
X10121909Y30336692D01*
X10044058Y30392018D01*
X10005475Y30419437D01*
X9998473Y30424413D01*
X9855994Y30475709D01*
X9847434Y30476338D01*
X9847432Y30476338D01*
X9756574Y30483010D01*
X9704969Y30486799D01*
X9556525Y30456868D01*
X9548873Y30452969D01*
X9429250Y30392018D01*
X9429247Y30392016D01*
X9421599Y30388119D01*
X9415277Y30382306D01*
X9415276Y30382305D01*
X9316456Y30291436D01*
X9316453Y30291432D01*
X9310131Y30285619D01*
X9230333Y30156918D01*
X9188085Y30011500D01*
X9187995Y30002915D01*
X9187995Y30002914D01*
X9187983Y30001758D01*
X9187676Y30000751D01*
X9186740Y29994414D01*
X9185786Y29994555D01*
X9167269Y29933850D01*
X9113130Y29887922D01*
X9052763Y29877415D01*
X8998175Y29881423D01*
X8924969Y29886799D01*
X8881363Y29878007D01*
X8842664Y29870204D01*
X8771934Y29876347D01*
X8715753Y29919755D01*
X8691959Y29986645D01*
X8708105Y30055782D01*
X8728665Y30082813D01*
X8982545Y30336692D01*
X13141048Y34495195D01*
X13203360Y34529221D01*
X13230143Y34532100D01*
X17369128Y34532100D01*
X17437249Y34512098D01*
X17483742Y34458442D01*
X17493846Y34388168D01*
X17479542Y34345399D01*
X17432121Y34259141D01*
X17432119Y34259135D01*
X17428300Y34252189D01*
X17387288Y34092457D01*
X17387100Y34089469D01*
X17387100Y33339305D01*
X17386617Y33329059D01*
X17385020Y33321914D01*
X17385269Y33313991D01*
X17387038Y33257700D01*
X17387100Y33253742D01*
X17387100Y33220421D01*
X17387596Y33216495D01*
X17387833Y33214620D01*
X17388763Y33202797D01*
X17390200Y33157082D01*
X17392412Y33149469D01*
X17396106Y33136754D01*
X17400116Y33117390D01*
X17401775Y33104252D01*
X17401776Y33104248D01*
X17402769Y33096387D01*
X17405687Y33089017D01*
X17405688Y33089013D01*
X17419606Y33053860D01*
X17423451Y33042630D01*
X17436209Y32998716D01*
X17440243Y32991896D01*
X17446985Y32980496D01*
X17455684Y32962738D01*
X17460558Y32950427D01*
X17460561Y32950421D01*
X17463478Y32943054D01*
X17468137Y32936642D01*
X17490360Y32906054D01*
X17496876Y32896134D01*
X17520157Y32856769D01*
X17522137Y32854523D01*
X17535830Y32840830D01*
X17548671Y32825796D01*
X17560412Y32809636D01*
X17566520Y32804583D01*
X17594117Y32781753D01*
X17602897Y32773763D01*
X19022246Y31354414D01*
X19029156Y31346821D01*
X19033079Y31340639D01*
X19038856Y31335214D01*
X19079928Y31296645D01*
X19082770Y31293890D01*
X19106316Y31270344D01*
X19109438Y31267922D01*
X19109445Y31267916D01*
X19110927Y31266767D01*
X19119952Y31259060D01*
X19153296Y31227748D01*
X19160237Y31223932D01*
X19160240Y31223930D01*
X19171846Y31217550D01*
X19188370Y31206696D01*
X19205101Y31193718D01*
X19212373Y31190571D01*
X19212375Y31190570D01*
X19247081Y31175551D01*
X19257741Y31170329D01*
X19297811Y31148300D01*
X19305488Y31146329D01*
X19305493Y31146327D01*
X19318318Y31143035D01*
X19337022Y31136631D01*
X19356452Y31128223D01*
X19364280Y31126983D01*
X19364281Y31126983D01*
X19401623Y31121069D01*
X19413249Y31118661D01*
X19451782Y31108767D01*
X19451784Y31108767D01*
X19457543Y31107288D01*
X19460531Y31107100D01*
X19479900Y31107100D01*
X19499610Y31105549D01*
X19519335Y31102425D01*
X19527227Y31103171D01*
X19562877Y31106541D01*
X19574735Y31107100D01*
X28325048Y31107100D01*
X28393169Y31087098D01*
X28414143Y31070195D01*
X31534283Y27950055D01*
X31560572Y27905441D01*
X31562650Y27906264D01*
X31564917Y27900538D01*
X31566617Y27894610D01*
X31569436Y27889125D01*
X31650422Y27731545D01*
X31660011Y27712886D01*
X31663837Y27708059D01*
X31783094Y27557592D01*
X31783099Y27557587D01*
X31786923Y27552762D01*
X31942520Y27420339D01*
X31947898Y27417333D01*
X31947900Y27417332D01*
X31979159Y27399862D01*
X32120875Y27320660D01*
X32315194Y27257522D01*
X32518075Y27233330D01*
X32524210Y27233802D01*
X32524212Y27233802D01*
X32586120Y27238566D01*
X32721792Y27249005D01*
X32918585Y27303950D01*
X33100957Y27396073D01*
X33108567Y27402018D01*
X33193744Y27468566D01*
X33261963Y27521864D01*
X33288634Y27552762D01*
X33391445Y27671871D01*
X33391445Y27671872D01*
X33395469Y27676533D01*
X33416121Y27712886D01*
X33458718Y27787871D01*
X33496391Y27854187D01*
X33560884Y28048061D01*
X33586492Y28250769D01*
X33586900Y28280000D01*
X33566962Y28483344D01*
X33507907Y28678943D01*
X33411985Y28859346D01*
X33282850Y29017682D01*
X33125419Y29147919D01*
X33065175Y29180493D01*
X32951115Y29242166D01*
X32951112Y29242167D01*
X32945690Y29245099D01*
X32860332Y29271521D01*
X32756395Y29303695D01*
X32756392Y29303696D01*
X32750508Y29305517D01*
X32744383Y29306161D01*
X32744382Y29306161D01*
X32553437Y29326230D01*
X32553436Y29326230D01*
X32547309Y29326874D01*
X32471473Y29319973D01*
X32349969Y29308916D01*
X32349965Y29308915D01*
X32343831Y29308357D01*
X32337920Y29306617D01*
X32337913Y29306616D01*
X32167461Y29256449D01*
X32096465Y29256403D01*
X32042791Y29288227D01*
X31773013Y29558005D01*
X31738987Y29620317D01*
X31744052Y29691132D01*
X31786599Y29747968D01*
X31853119Y29772779D01*
X31862108Y29773100D01*
X33429000Y29773100D01*
X33435067Y29774307D01*
X33435070Y29774307D01*
X33477250Y29782697D01*
X33477251Y29782697D01*
X33489426Y29785119D01*
X33540652Y29819348D01*
X33574881Y29870574D01*
X33577303Y29882750D01*
X33585693Y29924930D01*
X33585693Y29924933D01*
X33586900Y29931000D01*
X33586900Y31709000D01*
X33574881Y31769426D01*
X33540652Y31820652D01*
X33489426Y31854881D01*
X33477251Y31857303D01*
X33477250Y31857303D01*
X33435070Y31865693D01*
X33435067Y31865693D01*
X33429000Y31866900D01*
X32468630Y31866900D01*
X32400509Y31886902D01*
X32379535Y31903805D01*
X30720155Y33563185D01*
X30713245Y33570778D01*
X30709322Y33576960D01*
X30662472Y33620955D01*
X30659631Y33623709D01*
X30636084Y33647256D01*
X30632955Y33649683D01*
X30632947Y33649690D01*
X30631470Y33650835D01*
X30622440Y33658547D01*
X30594885Y33684423D01*
X30589105Y33689851D01*
X30582155Y33693672D01*
X30570552Y33700051D01*
X30554025Y33710907D01*
X30543564Y33719021D01*
X30537299Y33723881D01*
X30495333Y33742042D01*
X30484673Y33747264D01*
X30451542Y33765478D01*
X30451536Y33765480D01*
X30444590Y33769299D01*
X30436910Y33771271D01*
X30436907Y33771272D01*
X30424083Y33774564D01*
X30405379Y33780968D01*
X30385949Y33789376D01*
X30378121Y33790616D01*
X30378120Y33790616D01*
X30340778Y33796530D01*
X30329152Y33798938D01*
X30290619Y33808832D01*
X30290617Y33808832D01*
X30284858Y33810311D01*
X30281870Y33810499D01*
X30262500Y33810499D01*
X30242789Y33812050D01*
X30230894Y33813934D01*
X30223065Y33815174D01*
X30215173Y33814428D01*
X30179523Y33811058D01*
X30167665Y33810499D01*
X27161275Y33810499D01*
X27093154Y33830501D01*
X27046661Y33884157D01*
X27036557Y33954431D01*
X27046711Y33988950D01*
X27070514Y34040940D01*
X27070514Y34040942D01*
X27074089Y34048749D01*
X27097778Y34198316D01*
X27097900Y34210000D01*
X27090164Y34266472D01*
X27078514Y34351520D01*
X27078514Y34351522D01*
X27077348Y34360030D01*
X27017208Y34499007D01*
X26921909Y34616692D01*
X26798473Y34704413D01*
X26740998Y34725105D01*
X26704602Y34738209D01*
X26658187Y34767665D01*
X26126030Y35299823D01*
X26118775Y35308904D01*
X26118356Y35308548D01*
X26112537Y35315385D01*
X26107747Y35322977D01*
X26101020Y35328918D01*
X26101014Y35328925D01*
X26068975Y35357220D01*
X26063287Y35362566D01*
X26053239Y35372614D01*
X26049643Y35375309D01*
X26046088Y35377974D01*
X26038247Y35384357D01*
X26011850Y35407670D01*
X26005123Y35413611D01*
X25996995Y35417427D01*
X25991881Y35420786D01*
X25984436Y35425260D01*
X25979083Y35428190D01*
X25971900Y35433574D01*
X25930497Y35449095D01*
X25921211Y35453008D01*
X25881186Y35471800D01*
X25872317Y35473181D01*
X25866484Y35474964D01*
X25858064Y35477173D01*
X25852101Y35478484D01*
X25843696Y35481635D01*
X25834744Y35482300D01*
X25834741Y35482301D01*
X25811441Y35484032D01*
X25799625Y35484911D01*
X25789584Y35486063D01*
X25782594Y35487151D01*
X25782593Y35487151D01*
X25777782Y35487900D01*
X25764075Y35487900D01*
X25754737Y35488247D01*
X25716110Y35491118D01*
X25716100Y35491117D01*
X25707156Y35491782D01*
X25698383Y35489909D01*
X25689421Y35489298D01*
X25689417Y35489351D01*
X25675670Y35487900D01*
X13048029Y35487900D01*
X13036474Y35489191D01*
X13036430Y35488644D01*
X13027484Y35489364D01*
X13018728Y35491345D01*
X12967100Y35488142D01*
X12959298Y35487900D01*
X12945087Y35487900D01*
X12936245Y35486633D01*
X12926185Y35485603D01*
X12917732Y35485079D01*
X12891034Y35483423D01*
X12891033Y35483423D01*
X12882074Y35482867D01*
X12873631Y35479819D01*
X12867676Y35478586D01*
X12859212Y35476476D01*
X12853355Y35474763D01*
X12844466Y35473490D01*
X12804228Y35455194D01*
X12794877Y35451389D01*
X12753292Y35436376D01*
X12746042Y35431079D01*
X12740656Y35428216D01*
X12733130Y35423818D01*
X12727994Y35420533D01*
X12719828Y35416820D01*
X12713032Y35410964D01*
X12713027Y35410961D01*
X12686337Y35387964D01*
X12678422Y35381679D01*
X12672726Y35377518D01*
X12672722Y35377514D01*
X12668790Y35374642D01*
X12659105Y35364957D01*
X12652257Y35358598D01*
X12622902Y35333305D01*
X12622900Y35333303D01*
X12616104Y35327447D01*
X12611224Y35319918D01*
X12605320Y35313150D01*
X12605280Y35313185D01*
X12596582Y35302434D01*
X4010180Y26716033D01*
X4001096Y26708774D01*
X4001452Y26708356D01*
X3994615Y26702537D01*
X3987023Y26697747D01*
X3981082Y26691020D01*
X3981075Y26691014D01*
X3952780Y26658975D01*
X3947434Y26653287D01*
X3937386Y26643239D01*
X3934691Y26639643D01*
X3932026Y26636088D01*
X3925643Y26628247D01*
X3896389Y26595123D01*
X3892573Y26586995D01*
X3889214Y26581881D01*
X3884740Y26574436D01*
X3881810Y26569083D01*
X3876426Y26561900D01*
X3860905Y26520497D01*
X3856992Y26511211D01*
X3838200Y26471186D01*
X3836819Y26462317D01*
X3835036Y26456484D01*
X3832827Y26448064D01*
X3831516Y26442101D01*
X3828365Y26433696D01*
X3827700Y26424744D01*
X3827699Y26424741D01*
X3825090Y26389630D01*
X3823937Y26379584D01*
X3822100Y26367782D01*
X3822100Y26354075D01*
X3821753Y26344737D01*
X3818882Y26306110D01*
X3818883Y26306100D01*
X3818218Y26297156D01*
X3820091Y26288383D01*
X3820702Y26279421D01*
X3820649Y26279417D01*
X3822100Y26265670D01*
X3822100Y11164045D01*
X3803186Y11097648D01*
X3790333Y11076918D01*
X3748085Y10931500D01*
X3746499Y10780077D01*
X3748722Y10771781D01*
X3748722Y10771780D01*
X3773642Y10678780D01*
X3785693Y10633805D01*
X3862777Y10503462D01*
X3972075Y10398649D01*
X3979641Y10394592D01*
X3979644Y10394590D01*
X4097957Y10331151D01*
X4097961Y10331149D01*
X4105532Y10327090D01*
X4253316Y10294057D01*
X4261889Y10294506D01*
X4261893Y10294506D01*
X4395957Y10301532D01*
X4395958Y10301532D01*
X4404540Y10301982D01*
X4491215Y10331151D01*
X4539927Y10347544D01*
X4539929Y10347545D01*
X4548062Y10350282D01*
X4673308Y10435400D01*
X4756961Y10534388D01*
X4816207Y10573508D01*
X4887198Y10574386D01*
X4947394Y10536744D01*
X4968305Y10504308D01*
X4969502Y10501620D01*
X4972255Y10488667D01*
X4980038Y10477955D01*
X4983132Y10471005D01*
X4986237Y10465623D01*
X4989784Y10456384D01*
X4990482Y10455521D01*
X5004877Y10441126D01*
X5017717Y10426093D01*
X5021687Y10420629D01*
X5021690Y10420626D01*
X5029473Y10409914D01*
X5040941Y10403293D01*
X5050782Y10394432D01*
X5050449Y10394063D01*
X5056859Y10389144D01*
X7175474Y8270529D01*
X7209500Y8208217D01*
X7204435Y8137402D01*
X7161888Y8080566D01*
X7095368Y8055755D01*
X7083398Y8055469D01*
X7061188Y8055995D01*
X6993321Y8057603D01*
X6993318Y8057603D01*
X6985071Y8057798D01*
X6977055Y8055852D01*
X6972667Y8055380D01*
X6947757Y8052400D01*
X6652244Y8052400D01*
X6627334Y8055380D01*
X6622946Y8055852D01*
X6614930Y8057798D01*
X6606683Y8057603D01*
X6606680Y8057603D01*
X6504647Y8055186D01*
X6499720Y8055289D01*
X6497578Y8055149D01*
X6489333Y8055689D01*
X6484393Y8054706D01*
X6479356Y8054587D01*
X6471427Y8052259D01*
X6469306Y8051929D01*
X6464513Y8050752D01*
X6339028Y8025792D01*
X6279381Y8013927D01*
X6275142Y8013228D01*
X6274184Y8012971D01*
X6265996Y8011893D01*
X6263078Y8010684D01*
X6259980Y8010068D01*
X6252570Y8006414D01*
X6251633Y8006096D01*
X6247723Y8004324D01*
X6068220Y7929972D01*
X6064200Y7928459D01*
X6063313Y7928021D01*
X6055495Y7925367D01*
X6052868Y7923612D01*
X6049950Y7922403D01*
X6043402Y7917378D01*
X6042544Y7916883D01*
X6039041Y7914373D01*
X5877512Y7806443D01*
X5873858Y7804170D01*
X5873078Y7803572D01*
X5865916Y7799437D01*
X5863680Y7797201D01*
X5861058Y7795449D01*
X5855618Y7789246D01*
X5854871Y7788591D01*
X5851937Y7785458D01*
X5714551Y7648071D01*
X5711408Y7645127D01*
X5710757Y7644385D01*
X5704551Y7638942D01*
X5702797Y7636317D01*
X5700563Y7634083D01*
X5696434Y7626932D01*
X5695836Y7626153D01*
X5693564Y7622499D01*
X5585612Y7460937D01*
X5583113Y7457450D01*
X5582620Y7456596D01*
X5577597Y7450050D01*
X5576388Y7447132D01*
X5574633Y7444505D01*
X5571979Y7436687D01*
X5571541Y7435800D01*
X5570028Y7431780D01*
X5495676Y7252277D01*
X5493904Y7248367D01*
X5493586Y7247430D01*
X5489932Y7240020D01*
X5489316Y7236922D01*
X5488107Y7234004D01*
X5487028Y7225812D01*
X5486773Y7224859D01*
X5486072Y7220615D01*
X5453967Y7059208D01*
X5449248Y7035486D01*
X5448068Y7030682D01*
X5447739Y7028571D01*
X5445413Y7020645D01*
X5445294Y7015607D01*
X5444311Y7010667D01*
X5444851Y7002421D01*
X5444711Y7000279D01*
X5444814Y6995353D01*
X5442398Y6893325D01*
X5442202Y6885071D01*
X5444148Y6877055D01*
X5444620Y6872667D01*
X5447600Y6847757D01*
X5447600Y1054107D01*
X5446097Y1034705D01*
X5445412Y1030307D01*
X5443086Y1022383D01*
X5442627Y1003002D01*
X5441303Y947112D01*
X5440731Y937746D01*
X5437787Y907855D01*
X5435973Y895627D01*
X5430475Y867982D01*
X5412284Y776529D01*
X5409280Y764536D01*
X5403709Y746170D01*
X5399542Y734525D01*
X5353073Y622342D01*
X5347786Y611163D01*
X5338753Y594264D01*
X5332398Y583662D01*
X5264930Y482686D01*
X5257568Y472759D01*
X5257554Y472741D01*
X5245401Y457933D01*
X5237100Y448775D01*
X5151223Y362897D01*
X5142070Y354601D01*
X5127242Y342432D01*
X5117334Y335083D01*
X5026043Y274085D01*
X5016339Y267601D01*
X5005740Y261249D01*
X4989779Y252718D01*
X4988831Y252211D01*
X4977658Y246927D01*
X4865475Y200458D01*
X4853834Y196293D01*
X4835464Y190720D01*
X4823472Y187716D01*
X4704373Y164027D01*
X4692148Y162213D01*
X4662254Y159269D01*
X4652889Y158697D01*
X4577618Y156914D01*
X4569694Y154588D01*
X4565296Y153903D01*
X4545894Y152400D01*
X1054107Y152400D01*
X1034705Y153903D01*
X1030307Y154588D01*
X1022383Y156914D01*
X947111Y158697D01*
X937746Y159269D01*
X907852Y162213D01*
X895627Y164027D01*
X776528Y187716D01*
X764536Y190720D01*
X746166Y196293D01*
X734525Y200458D01*
X622342Y246927D01*
X611163Y252214D01*
X594264Y261247D01*
X583662Y267602D01*
X503136Y321406D01*
X482678Y335076D01*
X472759Y342432D01*
X457933Y354599D01*
X448775Y362900D01*
X362897Y448777D01*
X354599Y457933D01*
X342432Y472758D01*
X335083Y482666D01*
X267599Y583665D01*
X261247Y594264D01*
X252211Y611169D01*
X246927Y622342D01*
X200458Y734525D01*
X196291Y746170D01*
X190720Y764536D01*
X187716Y776529D01*
X169525Y867982D01*
X164027Y895627D01*
X162213Y907855D01*
X159269Y937746D01*
X158697Y947112D01*
X157373Y1003002D01*
X156914Y1022382D01*
X154588Y1030306D01*
X153903Y1034704D01*
X152400Y1054106D01*
X152400Y3150814D01*
X1295773Y3150814D01*
X1331940Y2911670D01*
X1405877Y2681384D01*
X1515681Y2465882D01*
X1658527Y2270707D01*
X1830741Y2100882D01*
X1834863Y2097952D01*
X1834865Y2097951D01*
X2023769Y1963703D01*
X2023772Y1963701D01*
X2027891Y1960774D01*
X2032427Y1958542D01*
X2240364Y1856224D01*
X2240369Y1856222D01*
X2244905Y1853990D01*
X2249748Y1852509D01*
X2249749Y1852509D01*
X2471353Y1784758D01*
X2471355Y1784758D01*
X2476201Y1783276D01*
X2715827Y1750451D01*
X2785069Y1752143D01*
X2952557Y1756236D01*
X2952561Y1756236D01*
X2957618Y1756360D01*
X3195355Y1800852D01*
X3422920Y1882780D01*
X3634459Y2000038D01*
X3638437Y2003168D01*
X3638441Y2003171D01*
X3820554Y2146480D01*
X3820555Y2146481D01*
X3824530Y2149609D01*
X3935885Y2270707D01*
X3984817Y2323920D01*
X3984819Y2323923D01*
X3988241Y2327644D01*
X4121383Y2529564D01*
X4123457Y2534178D01*
X4218454Y2745557D01*
X4218456Y2745562D01*
X4220528Y2750173D01*
X4283127Y2983795D01*
X4307569Y3224421D01*
X4307900Y3256000D01*
X4307671Y3258848D01*
X4288909Y3492044D01*
X4288908Y3492049D01*
X4288503Y3497085D01*
X4256837Y3626007D01*
X4232017Y3727053D01*
X4230810Y3731967D01*
X4176597Y3859686D01*
X4138283Y3949947D01*
X4138282Y3949949D01*
X4136306Y3954604D01*
X4007423Y4159268D01*
X3847475Y4340692D01*
X3660579Y4494211D01*
X3451542Y4615873D01*
X3446819Y4617686D01*
X3446817Y4617687D01*
X3230463Y4700738D01*
X3230465Y4700738D01*
X3225743Y4702550D01*
X3220797Y4703583D01*
X3220791Y4703585D01*
X3075746Y4733886D01*
X2988990Y4752010D01*
X2983942Y4752239D01*
X2983936Y4752240D01*
X2868183Y4757495D01*
X2747375Y4762981D01*
X2742355Y4762400D01*
X2742351Y4762400D01*
X2512141Y4735764D01*
X2512137Y4735763D01*
X2507114Y4735182D01*
X2502249Y4733805D01*
X2502247Y4733805D01*
X2385390Y4700738D01*
X2274388Y4669328D01*
X2055185Y4567111D01*
X2051005Y4564270D01*
X2051001Y4564268D01*
X1966629Y4506929D01*
X1855144Y4431164D01*
X1679412Y4264982D01*
X1676334Y4260956D01*
X1676333Y4260955D01*
X1535583Y4076862D01*
X1535580Y4076858D01*
X1532510Y4072842D01*
X1418217Y3859686D01*
X1416571Y3854905D01*
X1416569Y3854901D01*
X1374239Y3731967D01*
X1339473Y3630999D01*
X1298306Y3392665D01*
X1295773Y3150814D01*
X152400Y3150814D01*
X152400Y38355894D01*
X153903Y38375296D01*
X154588Y38379694D01*
X156914Y38387618D01*
X158697Y38462889D01*
X159269Y38472254D01*
X162213Y38502145D01*
X164027Y38514376D01*
X169120Y38539978D01*
X187716Y38633472D01*
X190720Y38645464D01*
X196291Y38663830D01*
X200458Y38675475D01*
X246927Y38787658D01*
X252211Y38798831D01*
X252718Y38799779D01*
X261249Y38815740D01*
X267599Y38826335D01*
X335083Y38927334D01*
X342432Y38937242D01*
X354601Y38952070D01*
X362897Y38961223D01*
X448775Y39047100D01*
X457933Y39055401D01*
X460091Y39057172D01*
X472759Y39067568D01*
X482681Y39074927D01*
X503136Y39088594D01*
X583662Y39142398D01*
X594264Y39148753D01*
X611163Y39157786D01*
X622342Y39163073D01*
X734525Y39209542D01*
X746166Y39213707D01*
X764537Y39219280D01*
X776529Y39222284D01*
X895627Y39245973D01*
X907852Y39247787D01*
X937747Y39250731D01*
X947111Y39251303D01*
X1022383Y39253086D01*
X1030307Y39255412D01*
X1034705Y39256097D01*
X1054107Y39257600D01*
X35645894Y39257600D01*
X35665296Y39256097D01*
G37*
G04 #@! TD.AperFunction*
G04 #@! TA.AperFunction,Conductor*
G36*
X11064821Y26655485D02*
G01*
X11096812Y26592104D01*
X11098889Y26569320D01*
X11098889Y21639620D01*
X11078887Y21571499D01*
X11025231Y21525006D01*
X10963662Y21513958D01*
X10938654Y21515794D01*
X10924969Y21516799D01*
X10776525Y21486868D01*
X10768873Y21482969D01*
X10649250Y21422018D01*
X10649247Y21422016D01*
X10641599Y21418119D01*
X10635277Y21412306D01*
X10635276Y21412305D01*
X10536456Y21321436D01*
X10536453Y21321432D01*
X10530131Y21315619D01*
X10525603Y21308317D01*
X10525602Y21308315D01*
X10454862Y21194223D01*
X10450333Y21186918D01*
X10408085Y21041500D01*
X10407995Y21032913D01*
X10407299Y20966490D01*
X10406499Y20890077D01*
X10408722Y20881781D01*
X10408722Y20881780D01*
X10441122Y20760865D01*
X10445693Y20743805D01*
X10522777Y20613462D01*
X10632075Y20508649D01*
X10639641Y20504592D01*
X10639644Y20504590D01*
X10757957Y20441151D01*
X10757961Y20441149D01*
X10765532Y20437090D01*
X10773914Y20435216D01*
X10773918Y20435215D01*
X10812162Y20426667D01*
X10874279Y20392287D01*
X10907948Y20329781D01*
X10902479Y20258996D01*
X10859609Y20202404D01*
X10792948Y20177973D01*
X10784677Y20177701D01*
X8884623Y20177701D01*
X8878030Y20177874D01*
X8854138Y20179126D01*
X8840912Y20179819D01*
X8821551Y20172387D01*
X8802599Y20166773D01*
X8782316Y20162462D01*
X8771600Y20154676D01*
X8764642Y20151578D01*
X8759280Y20148484D01*
X8750033Y20144934D01*
X8749556Y20144548D01*
X8749170Y20144235D01*
X8734775Y20129840D01*
X8719742Y20117000D01*
X8714278Y20113030D01*
X8714275Y20113027D01*
X8703563Y20105244D01*
X8696942Y20093776D01*
X8688081Y20083935D01*
X8687712Y20084267D01*
X8682795Y20077860D01*
X8529067Y19924131D01*
X7584569Y18979632D01*
X6849554Y18244617D01*
X6787242Y18210592D01*
X6716426Y18215656D01*
X6659590Y18258203D01*
X6634779Y18324723D01*
X6634458Y18333712D01*
X6634458Y22752304D01*
X6654460Y22820425D01*
X6671363Y22841399D01*
X10452305Y26622342D01*
X10514617Y26656368D01*
X10568885Y26656213D01*
X10644323Y26639351D01*
X10644325Y26639351D01*
X10652704Y26637478D01*
X10661277Y26637927D01*
X10661281Y26637927D01*
X10795345Y26644953D01*
X10795346Y26644953D01*
X10803928Y26645403D01*
X10812071Y26648143D01*
X10812074Y26648144D01*
X10932701Y26688739D01*
X11003643Y26691509D01*
X11064821Y26655485D01*
G37*
G04 #@! TD.AperFunction*
M02*
