M48
; DRILL file {KiCad (5.99.0-8491-gb8dfcb34c4)} date 01/20/21 09:42:41
; FORMAT={-:-/ absolute / metric / decimal}
; #@! TF.CreationDate,2021-01-20T09:42:41+01:00
; #@! TF.GenerationSoftware,Kicad,Pcbnew,(5.99.0-8491-gb8dfcb34c4)
; #@! TF.FileFunction,Plated,1,2,PTH
FMAT,2
METRIC
T1C0.300
T2C0.400
T3C1.000
T4C1.200
%
G90
G05
T1
X15.79Y31.01
X16.79Y32.76
X16.79Y23.26
X16.79Y22.51
X16.84Y31.01
X17.04Y27.76
X18.04Y34.01
X18.04Y33.26
X18.04Y21.76
X18.04Y21.01
X20.54Y34.01
X20.54Y33.26
X20.54Y21.86
X20.54Y21.06
X25.421Y27.841
X27.54Y25.26
X28.54Y26.01
X28.761Y18.164
X28.84Y30.01
X29.54Y18.706
X30.54Y19.01
X30.79Y34.26
T2
X1.0Y26.0
X1.0Y24.0
X1.0Y22.0
X1.0Y20.0
X1.0Y18.0
X1.0Y16.0
X1.0Y14.0
X1.0Y12.0
X1.0Y10.0
X1.0Y8.0
X3.0Y26.0
X3.0Y24.0
X3.0Y22.0
X3.0Y20.0
X3.0Y18.0
X3.0Y16.0
X3.0Y14.0
X3.0Y12.0
X3.0Y10.0
X3.0Y8.0
X4.3Y10.85
X7.775Y26.125
X8.0Y23.0
X8.0Y21.0
X8.37Y13.109
X8.38Y26.94
X8.576Y18.718
X8.814Y7.844
X8.96Y29.33
X9.03Y13.8
X9.351Y7.049
X9.381Y19.299
X9.73Y27.68
X9.74Y29.93
X10.0Y23.0
X10.435Y18.964
X10.699Y27.193
X10.94Y28.99
X10.96Y20.96
X11.099Y7.521
X11.4Y17.52
X11.46Y6.63
X11.94Y20.656
X12.11Y18.201
X13.0Y16.0
X15.0Y22.0
X15.0Y18.0
X15.0Y16.0
X15.63Y6.48
X15.85Y8.33
X16.28Y7.23
X16.66Y11.28
X17.0Y18.0
X17.0Y16.0
X18.1Y8.87
X19.0Y16.0
X20.79Y29.51
X20.79Y28.26
X20.79Y27.01
X20.79Y25.76
X22.04Y29.51
X22.04Y28.26
X22.04Y27.01
X22.04Y25.76
X23.0Y17.0
X25.0Y18.0
X26.54Y34.21
X27.84Y34.23
X28.0Y28.0
X29.0Y29.0
X29.3Y34.22
X30.54Y27.26
X30.54Y20.76
X33.04Y21.26
X35.82Y8.83
T3
X32.54Y30.82
X32.54Y28.28
X32.54Y25.74
X32.54Y23.2
T4
X32.54Y16.51
X32.54Y13.01
T0
M30
