G04 #@! TF.GenerationSoftware,KiCad,Pcbnew,(5.99.0-8491-gb8dfcb34c4)*
G04 #@! TF.CreationDate,2021-01-20T09:42:39+01:00*
G04 #@! TF.ProjectId,TMC2130_Driver,544d4332-3133-4305-9f44-72697665722e,rev?*
G04 #@! TF.SameCoordinates,PX67f3540PY6cb8080*
G04 #@! TF.FileFunction,Soldermask,Bot*
G04 #@! TF.FilePolarity,Negative*
%FSLAX46Y46*%
G04 Gerber Fmt 4.6, Leading zero omitted, Abs format (unit mm)*
G04 Created by KiCad (PCBNEW (5.99.0-8491-gb8dfcb34c4)) date 2021-01-20 09:42:39*
%MOMM*%
%LPD*%
G01*
G04 APERTURE LIST*
%ADD10C,2.700000*%
%ADD11O,0.650000X0.650000*%
%ADD12R,0.650000X3.600000*%
%ADD13R,0.650000X4.600000*%
%ADD14R,1.778000X1.778000*%
%ADD15C,1.778000*%
%ADD16R,2.400000X2.400000*%
%ADD17C,2.400000*%
G04 APERTURE END LIST*
D10*
X2800000Y3256000D03*
X33750000Y3256000D03*
D11*
X12652800Y1014800D03*
X22652800Y1014800D03*
X17652800Y1014800D03*
X13652800Y1014800D03*
X15652800Y1014800D03*
X10652800Y1014800D03*
X25652800Y1014800D03*
X26652800Y1014800D03*
X21652800Y1014800D03*
X18652800Y1014800D03*
X24652800Y1014800D03*
X27652800Y1014800D03*
X9652800Y1014800D03*
X23652800Y1014800D03*
X11652800Y1014800D03*
X16652800Y1014800D03*
X14652800Y1014800D03*
D12*
X8652800Y3814800D03*
D13*
X9652800Y3314800D03*
X10652800Y3314800D03*
X11652800Y3314800D03*
X12652800Y3314800D03*
X13652800Y3314800D03*
X14652800Y3314800D03*
X15652800Y3314800D03*
X16652800Y3314800D03*
X17652800Y3314800D03*
X18652800Y3314800D03*
X21652800Y3314800D03*
X22652800Y3314800D03*
X23652800Y3314800D03*
X24652800Y3314800D03*
X25652800Y3314800D03*
X26652800Y3314800D03*
X27652800Y3314800D03*
D14*
X32540000Y30820000D03*
D15*
X32540000Y28280000D03*
X32540000Y25740000D03*
X32540000Y23200000D03*
D16*
X32540000Y13010000D03*
D17*
X32540000Y16510000D03*
G36*
X28271694Y30741694D02*
G01*
X28290000Y30697500D01*
X28290000Y24572500D01*
X28271694Y24528306D01*
X28227500Y24510000D01*
X11852500Y24510000D01*
X11808306Y24528306D01*
X11790000Y24572500D01*
X11790000Y30697500D01*
X11808306Y30741694D01*
X11852500Y30760000D01*
X28227500Y30760000D01*
X28271694Y30741694D01*
G37*
M02*
