G04 #@! TF.GenerationSoftware,KiCad,Pcbnew,(5.99.0-8491-gb8dfcb34c4)*
G04 #@! TF.CreationDate,2021-01-20T09:42:39+01:00*
G04 #@! TF.ProjectId,TMC2130_Driver,544d4332-3133-4305-9f44-72697665722e,rev?*
G04 #@! TF.SameCoordinates,PX67f3540PY6cb8080*
G04 #@! TF.FileFunction,Legend,Top*
G04 #@! TF.FilePolarity,Positive*
%FSLAX46Y46*%
G04 Gerber Fmt 4.6, Leading zero omitted, Abs format (unit mm)*
G04 Created by KiCad (PCBNEW (5.99.0-8491-gb8dfcb34c4)) date 2021-01-20 09:42:39*
%MOMM*%
%LPD*%
G01*
G04 APERTURE LIST*
%ADD10C,0.300000*%
%ADD11C,0.150000*%
%ADD12C,0.100000*%
%ADD13C,0.120000*%
%ADD14R,1.778000X1.778000*%
%ADD15C,1.778000*%
G04 APERTURE END LIST*
D10*
X1198571Y32431429D02*
X1198571Y33931429D01*
X1555714Y33931429D01*
X1770000Y33860000D01*
X1912857Y33717143D01*
X1984285Y33574286D01*
X2055714Y33288572D01*
X2055714Y33074286D01*
X1984285Y32788572D01*
X1912857Y32645715D01*
X1770000Y32502858D01*
X1555714Y32431429D01*
X1198571Y32431429D01*
X3555714Y32431429D02*
X3055714Y33145715D01*
X2698571Y32431429D02*
X2698571Y33931429D01*
X3270000Y33931429D01*
X3412857Y33860000D01*
X3484285Y33788572D01*
X3555714Y33645715D01*
X3555714Y33431429D01*
X3484285Y33288572D01*
X3412857Y33217143D01*
X3270000Y33145715D01*
X2698571Y33145715D01*
X3984285Y33931429D02*
X4484285Y32431429D01*
X4984285Y33931429D01*
X5412857Y33788572D02*
X5484285Y33860000D01*
X5627142Y33931429D01*
X5984285Y33931429D01*
X6127142Y33860000D01*
X6198571Y33788572D01*
X6270000Y33645715D01*
X6270000Y33502858D01*
X6198571Y33288572D01*
X5341428Y32431429D01*
X6270000Y32431429D01*
X7698571Y32431429D02*
X6841428Y32431429D01*
X7270000Y32431429D02*
X7270000Y33931429D01*
X7127142Y33717143D01*
X6984285Y33574286D01*
X6841428Y33502858D01*
X8198571Y33931429D02*
X9127142Y33931429D01*
X8627142Y33360000D01*
X8841428Y33360000D01*
X8984285Y33288572D01*
X9055714Y33217143D01*
X9127142Y33074286D01*
X9127142Y32717143D01*
X9055714Y32574286D01*
X8984285Y32502858D01*
X8841428Y32431429D01*
X8412857Y32431429D01*
X8270000Y32502858D01*
X8198571Y32574286D01*
X10055714Y33931429D02*
X10198571Y33931429D01*
X10341428Y33860000D01*
X10412857Y33788572D01*
X10484285Y33645715D01*
X10555714Y33360000D01*
X10555714Y33002858D01*
X10484285Y32717143D01*
X10412857Y32574286D01*
X10341428Y32502858D01*
X10198571Y32431429D01*
X10055714Y32431429D01*
X9912857Y32502858D01*
X9841428Y32574286D01*
X9770000Y32717143D01*
X9698571Y33002858D01*
X9698571Y33360000D01*
X9770000Y33645715D01*
X9841428Y33788572D01*
X9912857Y33860000D01*
X10055714Y33931429D01*
X12127142Y33931429D02*
X12627142Y32431429D01*
X13127142Y33931429D01*
X14412857Y32431429D02*
X13555714Y32431429D01*
X13984285Y32431429D02*
X13984285Y33931429D01*
X13841428Y33717143D01*
X13698571Y33574286D01*
X13555714Y33502858D01*
D11*
X641309Y28151667D02*
X593690Y28199286D01*
X498452Y28342143D01*
X450833Y28437381D01*
X403214Y28580239D01*
X355595Y28818334D01*
X355595Y29008810D01*
X403214Y29246905D01*
X450833Y29389762D01*
X498452Y29485000D01*
X593690Y29627858D01*
X641309Y29675477D01*
X1450833Y28580239D02*
X1355595Y28532620D01*
X1165119Y28532620D01*
X1069880Y28580239D01*
X1022261Y28627858D01*
X974642Y28723096D01*
X974642Y29008810D01*
X1022261Y29104048D01*
X1069880Y29151667D01*
X1165119Y29199286D01*
X1355595Y29199286D01*
X1450833Y29151667D01*
X1784166Y28151667D02*
X1831785Y28199286D01*
X1927023Y28342143D01*
X1974642Y28437381D01*
X2022261Y28580239D01*
X2069880Y28818334D01*
X2069880Y29008810D01*
X2022261Y29246905D01*
X1974642Y29389762D01*
X1927023Y29485000D01*
X1831785Y29627858D01*
X1784166Y29675477D01*
X3307976Y28532620D02*
X3307976Y29199286D01*
X3307976Y29532620D02*
X3260357Y29485000D01*
X3307976Y29437381D01*
X3355595Y29485000D01*
X3307976Y29532620D01*
X3307976Y29437381D01*
X4450833Y28437381D02*
X4355595Y28485000D01*
X4260357Y28580239D01*
X4117500Y28723096D01*
X4022261Y28770715D01*
X3927023Y28770715D01*
X3974642Y28532620D02*
X3879404Y28580239D01*
X3784166Y28675477D01*
X3736547Y28865953D01*
X3736547Y29199286D01*
X3784166Y29389762D01*
X3879404Y29485000D01*
X3974642Y29532620D01*
X4165119Y29532620D01*
X4260357Y29485000D01*
X4355595Y29389762D01*
X4403214Y29199286D01*
X4403214Y28865953D01*
X4355595Y28675477D01*
X4260357Y28580239D01*
X4165119Y28532620D01*
X3974642Y28532620D01*
X5260357Y29199286D02*
X5260357Y28532620D01*
X4831785Y29199286D02*
X4831785Y28675477D01*
X4879404Y28580239D01*
X4974642Y28532620D01*
X5117500Y28532620D01*
X5212738Y28580239D01*
X5260357Y28627858D01*
X5736547Y28532620D02*
X5736547Y29199286D01*
X5736547Y29008810D02*
X5784166Y29104048D01*
X5831785Y29151667D01*
X5927023Y29199286D01*
X6022261Y29199286D01*
X6260357Y29199286D02*
X6498452Y28532620D01*
X6736547Y29199286D02*
X6498452Y28532620D01*
X6403214Y28294524D01*
X6355595Y28246905D01*
X6260357Y28199286D01*
X7117500Y28627858D02*
X7165119Y28580239D01*
X7117500Y28532620D01*
X7069880Y28580239D01*
X7117500Y28627858D01*
X7117500Y28532620D01*
X8022261Y29199286D02*
X8022261Y28532620D01*
X7593690Y29199286D02*
X7593690Y28675477D01*
X7641309Y28580239D01*
X7736547Y28532620D01*
X7879404Y28532620D01*
X7974642Y28580239D01*
X8022261Y28627858D01*
X8450833Y28580239D02*
X8546071Y28532620D01*
X8736547Y28532620D01*
X8831785Y28580239D01*
X8879404Y28675477D01*
X8879404Y28723096D01*
X8831785Y28818334D01*
X8736547Y28865953D01*
X8593690Y28865953D01*
X8498452Y28913572D01*
X8450833Y29008810D01*
X8450833Y29056429D01*
X8498452Y29151667D01*
X8593690Y29199286D01*
X8736547Y29199286D01*
X8831785Y29151667D01*
X355595Y26922620D02*
X355595Y27922620D01*
X688928Y27208334D01*
X1022261Y27922620D01*
X1022261Y26922620D01*
X1927023Y26922620D02*
X1927023Y27446429D01*
X1879404Y27541667D01*
X1784166Y27589286D01*
X1593690Y27589286D01*
X1498452Y27541667D01*
X1927023Y26970239D02*
X1831785Y26922620D01*
X1593690Y26922620D01*
X1498452Y26970239D01*
X1450833Y27065477D01*
X1450833Y27160715D01*
X1498452Y27255953D01*
X1593690Y27303572D01*
X1831785Y27303572D01*
X1927023Y27351191D01*
X2307976Y27589286D02*
X2546071Y26922620D01*
X2784166Y27589286D02*
X2546071Y26922620D01*
X2450833Y26684524D01*
X2403214Y26636905D01*
X2307976Y26589286D01*
X3879404Y27827381D02*
X3927023Y27875000D01*
X4022261Y27922620D01*
X4260357Y27922620D01*
X4355595Y27875000D01*
X4403214Y27827381D01*
X4450833Y27732143D01*
X4450833Y27636905D01*
X4403214Y27494048D01*
X3831785Y26922620D01*
X4450833Y26922620D01*
X5069880Y27922620D02*
X5165119Y27922620D01*
X5260357Y27875000D01*
X5307976Y27827381D01*
X5355595Y27732143D01*
X5403214Y27541667D01*
X5403214Y27303572D01*
X5355595Y27113096D01*
X5307976Y27017858D01*
X5260357Y26970239D01*
X5165119Y26922620D01*
X5069880Y26922620D01*
X4974642Y26970239D01*
X4927023Y27017858D01*
X4879404Y27113096D01*
X4831785Y27303572D01*
X4831785Y27541667D01*
X4879404Y27732143D01*
X4927023Y27827381D01*
X4974642Y27875000D01*
X5069880Y27922620D01*
X5784166Y27827381D02*
X5831785Y27875000D01*
X5927023Y27922620D01*
X6165119Y27922620D01*
X6260357Y27875000D01*
X6307976Y27827381D01*
X6355595Y27732143D01*
X6355595Y27636905D01*
X6307976Y27494048D01*
X5736547Y26922620D01*
X6355595Y26922620D01*
X6974642Y27922620D02*
X7069880Y27922620D01*
X7165119Y27875000D01*
X7212738Y27827381D01*
X7260357Y27732143D01*
X7307976Y27541667D01*
X7307976Y27303572D01*
X7260357Y27113096D01*
X7212738Y27017858D01*
X7165119Y26970239D01*
X7069880Y26922620D01*
X6974642Y26922620D01*
X6879404Y26970239D01*
X6831785Y27017858D01*
X6784166Y27113096D01*
X6736547Y27303572D01*
X6736547Y27541667D01*
X6784166Y27732143D01*
X6831785Y27827381D01*
X6879404Y27875000D01*
X6974642Y27922620D01*
X10841904Y17327620D02*
X10841904Y18327620D01*
X11080000Y18327620D01*
X11222857Y18280000D01*
X11318095Y18184762D01*
X11365714Y18089524D01*
X11413333Y17899048D01*
X11413333Y17756191D01*
X11365714Y17565715D01*
X11318095Y17470477D01*
X11222857Y17375239D01*
X11080000Y17327620D01*
X10841904Y17327620D01*
X12032380Y18327620D02*
X12127619Y18327620D01*
X12222857Y18280000D01*
X12270476Y18232381D01*
X12318095Y18137143D01*
X12365714Y17946667D01*
X12365714Y17708572D01*
X12318095Y17518096D01*
X12270476Y17422858D01*
X12222857Y17375239D01*
X12127619Y17327620D01*
X12032380Y17327620D01*
X11937142Y17375239D01*
X11889523Y17422858D01*
X11841904Y17518096D01*
X11794285Y17708572D01*
X11794285Y17946667D01*
X11841904Y18137143D01*
X11889523Y18232381D01*
X11937142Y18280000D01*
X12032380Y18327620D01*
X28468571Y17140953D02*
X28468571Y16379048D01*
X4341904Y17327620D02*
X4341904Y18327620D01*
X4580000Y18327620D01*
X4722857Y18280000D01*
X4818095Y18184762D01*
X4865714Y18089524D01*
X4913333Y17899048D01*
X4913333Y17756191D01*
X4865714Y17565715D01*
X4818095Y17470477D01*
X4722857Y17375239D01*
X4580000Y17327620D01*
X4341904Y17327620D01*
X5865714Y17327620D02*
X5294285Y17327620D01*
X5580000Y17327620D02*
X5580000Y18327620D01*
X5484761Y18184762D01*
X5389523Y18089524D01*
X5294285Y18041905D01*
X24587976Y10632096D02*
X24587976Y9984477D01*
X24626071Y9908286D01*
X24664166Y9870191D01*
X24740357Y9832096D01*
X24892738Y9832096D01*
X24968928Y9870191D01*
X25007023Y9908286D01*
X25045119Y9984477D01*
X25045119Y10632096D01*
X25387976Y9870191D02*
X25502261Y9832096D01*
X25692738Y9832096D01*
X25768928Y9870191D01*
X25807023Y9908286D01*
X25845119Y9984477D01*
X25845119Y10060667D01*
X25807023Y10136858D01*
X25768928Y10174953D01*
X25692738Y10213048D01*
X25540357Y10251143D01*
X25464166Y10289239D01*
X25426071Y10327334D01*
X25387976Y10403524D01*
X25387976Y10479715D01*
X25426071Y10555905D01*
X25464166Y10594000D01*
X25540357Y10632096D01*
X25730833Y10632096D01*
X25845119Y10594000D01*
X26187976Y10251143D02*
X26454642Y10251143D01*
X26568928Y9832096D02*
X26187976Y9832096D01*
X26187976Y10632096D01*
X26568928Y10632096D01*
X27787976Y10251143D02*
X27902261Y10213048D01*
X27940357Y10174953D01*
X27978452Y10098762D01*
X27978452Y9984477D01*
X27940357Y9908286D01*
X27902261Y9870191D01*
X27826071Y9832096D01*
X27521309Y9832096D01*
X27521309Y10632096D01*
X27787976Y10632096D01*
X27864166Y10594000D01*
X27902261Y10555905D01*
X27940357Y10479715D01*
X27940357Y10403524D01*
X27902261Y10327334D01*
X27864166Y10289239D01*
X27787976Y10251143D01*
X27521309Y10251143D01*
X28435595Y9832096D02*
X28359404Y9870191D01*
X28321309Y9908286D01*
X28283214Y9984477D01*
X28283214Y10213048D01*
X28321309Y10289239D01*
X28359404Y10327334D01*
X28435595Y10365429D01*
X28549880Y10365429D01*
X28626071Y10327334D01*
X28664166Y10289239D01*
X28702261Y10213048D01*
X28702261Y9984477D01*
X28664166Y9908286D01*
X28626071Y9870191D01*
X28549880Y9832096D01*
X28435595Y9832096D01*
X29387976Y9832096D02*
X29387976Y10251143D01*
X29349880Y10327334D01*
X29273690Y10365429D01*
X29121309Y10365429D01*
X29045119Y10327334D01*
X29387976Y9870191D02*
X29311785Y9832096D01*
X29121309Y9832096D01*
X29045119Y9870191D01*
X29007023Y9946381D01*
X29007023Y10022572D01*
X29045119Y10098762D01*
X29121309Y10136858D01*
X29311785Y10136858D01*
X29387976Y10174953D01*
X29768928Y9832096D02*
X29768928Y10365429D01*
X29768928Y10213048D02*
X29807023Y10289239D01*
X29845119Y10327334D01*
X29921309Y10365429D01*
X29997500Y10365429D01*
X30607023Y9832096D02*
X30607023Y10632096D01*
X30607023Y9870191D02*
X30530833Y9832096D01*
X30378452Y9832096D01*
X30302261Y9870191D01*
X30264166Y9908286D01*
X30226071Y9984477D01*
X30226071Y10213048D01*
X30264166Y10289239D01*
X30302261Y10327334D01*
X30378452Y10365429D01*
X30530833Y10365429D01*
X30607023Y10327334D01*
X24473690Y9344096D02*
X24740357Y8544096D01*
X25007023Y9344096D01*
X25387976Y8544096D02*
X25311785Y8582191D01*
X25273690Y8620286D01*
X25235595Y8696477D01*
X25235595Y8925048D01*
X25273690Y9001239D01*
X25311785Y9039334D01*
X25387976Y9077429D01*
X25502261Y9077429D01*
X25578452Y9039334D01*
X25616547Y9001239D01*
X25654642Y8925048D01*
X25654642Y8696477D01*
X25616547Y8620286D01*
X25578452Y8582191D01*
X25502261Y8544096D01*
X25387976Y8544096D01*
X26111785Y8544096D02*
X26035595Y8582191D01*
X25997500Y8658381D01*
X25997500Y9344096D01*
X26302261Y9077429D02*
X26607023Y9077429D01*
X26416547Y9344096D02*
X26416547Y8658381D01*
X26454642Y8582191D01*
X26530833Y8544096D01*
X26607023Y8544096D01*
X27216547Y8544096D02*
X27216547Y8963143D01*
X27178452Y9039334D01*
X27102261Y9077429D01*
X26949880Y9077429D01*
X26873690Y9039334D01*
X27216547Y8582191D02*
X27140357Y8544096D01*
X26949880Y8544096D01*
X26873690Y8582191D01*
X26835595Y8658381D01*
X26835595Y8734572D01*
X26873690Y8810762D01*
X26949880Y8848858D01*
X27140357Y8848858D01*
X27216547Y8886953D01*
X27940357Y9077429D02*
X27940357Y8429810D01*
X27902261Y8353620D01*
X27864166Y8315524D01*
X27787976Y8277429D01*
X27673690Y8277429D01*
X27597500Y8315524D01*
X27940357Y8582191D02*
X27864166Y8544096D01*
X27711785Y8544096D01*
X27635595Y8582191D01*
X27597500Y8620286D01*
X27559404Y8696477D01*
X27559404Y8925048D01*
X27597500Y9001239D01*
X27635595Y9039334D01*
X27711785Y9077429D01*
X27864166Y9077429D01*
X27940357Y9039334D01*
X28626071Y8582191D02*
X28549880Y8544096D01*
X28397500Y8544096D01*
X28321309Y8582191D01*
X28283214Y8658381D01*
X28283214Y8963143D01*
X28321309Y9039334D01*
X28397500Y9077429D01*
X28549880Y9077429D01*
X28626071Y9039334D01*
X28664166Y8963143D01*
X28664166Y8886953D01*
X28283214Y8810762D01*
D12*
X1076428Y31190715D02*
X1076428Y31690715D01*
X1076428Y31547858D02*
X1112142Y31619286D01*
X1147857Y31655000D01*
X1219285Y31690715D01*
X1290714Y31690715D01*
X1826428Y31226429D02*
X1755000Y31190715D01*
X1612142Y31190715D01*
X1540714Y31226429D01*
X1505000Y31297858D01*
X1505000Y31583572D01*
X1540714Y31655000D01*
X1612142Y31690715D01*
X1755000Y31690715D01*
X1826428Y31655000D01*
X1862142Y31583572D01*
X1862142Y31512143D01*
X1505000Y31440715D01*
X2112142Y31690715D02*
X2290714Y31190715D01*
X2469285Y31690715D01*
X3290714Y31869286D02*
X3326428Y31905000D01*
X3397857Y31940715D01*
X3576428Y31940715D01*
X3647857Y31905000D01*
X3683571Y31869286D01*
X3719285Y31797858D01*
X3719285Y31726429D01*
X3683571Y31619286D01*
X3255000Y31190715D01*
X3719285Y31190715D01*
D11*
X28468571Y13140953D02*
X28468571Y12379048D01*
X28087619Y12760000D02*
X28849523Y12760000D01*
X15567619Y31626000D02*
X15329523Y31626000D01*
X15424761Y31864096D02*
X15329523Y31626000D01*
X15424761Y31387905D01*
X15139047Y31768858D02*
X15329523Y31626000D01*
X15139047Y31483143D01*
D13*
X13280000Y24672779D02*
X13280000Y24347221D01*
X14300000Y24672779D02*
X14300000Y24347221D01*
X24444478Y31734273D02*
X24214273Y31964478D01*
X25165727Y32455522D02*
X24935522Y32685727D01*
X24730000Y35547936D02*
X24730000Y36752064D01*
X22910000Y35547936D02*
X22910000Y36752064D01*
X19252800Y14800D02*
X7952800Y14800D01*
X21052800Y14800D02*
X28352800Y14800D01*
X28352800Y5814800D02*
X28352800Y14800D01*
X19252800Y5814800D02*
X19252800Y9014800D01*
X7952800Y5814800D02*
X19252800Y5814800D01*
X7952800Y14800D02*
X7952800Y5814800D01*
X19252800Y5814800D02*
X19252800Y14800D01*
X21052800Y5814800D02*
X21052800Y14800D01*
X21052800Y9014800D02*
X21052800Y5814800D01*
X19252800Y9014800D02*
X21052800Y9014800D01*
X28352800Y5814800D02*
X21052800Y5814800D01*
D12*
X46250000Y20660000D02*
X46250000Y33360000D01*
D11*
X46256000Y20660000D02*
X31016000Y20660000D01*
X31016000Y20660000D02*
X31016000Y33360000D01*
X46256000Y33360000D02*
X31016000Y33360000D01*
D13*
X29530000Y33522779D02*
X29530000Y33197221D01*
X30550000Y33522779D02*
X30550000Y33197221D01*
X18592064Y17040000D02*
X14487936Y17040000D01*
X18592064Y20460000D02*
X14487936Y20460000D01*
X18432064Y37800000D02*
X14327936Y37800000D01*
X18432064Y34380000D02*
X14327936Y34380000D01*
X29077221Y24290000D02*
X29402779Y24290000D01*
X29077221Y23270000D02*
X29402779Y23270000D01*
X11620800Y12749200D02*
X8720800Y12749200D01*
X11980800Y10509200D02*
X8720800Y10509200D01*
X7640000Y11579721D02*
X7640000Y11905279D01*
X6620000Y11579721D02*
X6620000Y11905279D01*
X19465563Y16650000D02*
X13710000Y16650000D01*
X13710000Y9830000D02*
X13710000Y12180000D01*
X20530000Y15585563D02*
X20530000Y14300000D01*
X13710000Y16650000D02*
X13710000Y14300000D01*
X20530000Y10894437D02*
X20530000Y12180000D01*
X21163750Y10998750D02*
X21163750Y11786250D01*
X20530000Y15585563D02*
X19465563Y16650000D01*
X20530000Y10894437D02*
X19465563Y9830000D01*
X21557500Y11392500D02*
X20770000Y11392500D01*
X19465563Y9830000D02*
X13710000Y9830000D01*
X27850000Y17062064D02*
X27850000Y15857936D01*
X26030000Y17062064D02*
X26030000Y15857936D01*
X25980000Y27897221D02*
X25980000Y28222779D01*
X27000000Y27897221D02*
X27000000Y28222779D01*
X27077221Y30820000D02*
X27402779Y30820000D01*
X27077221Y29800000D02*
X27402779Y29800000D01*
X28050000Y33522779D02*
X28050000Y33197221D01*
X29070000Y33522779D02*
X29070000Y33197221D01*
X36700000Y10960000D02*
X37340000Y10960000D01*
X29380000Y11200000D02*
X29380000Y18320000D01*
X29380000Y18320000D02*
X37100000Y18320000D01*
X37340000Y10960000D02*
X37340000Y11360000D01*
X33481000Y15365000D02*
X33609000Y15236000D01*
X33721000Y15535000D02*
X33814000Y15441000D01*
X35540000Y11200000D02*
X35540000Y18320000D01*
X37100000Y11200000D02*
X37100000Y18320000D01*
X36640000Y11200000D02*
X36640000Y18320000D01*
X31265000Y17580000D02*
X31359000Y17486000D01*
X29380000Y11200000D02*
X37100000Y11200000D01*
X31471000Y17785000D02*
X31599000Y17656000D01*
X31114642Y12120106D02*
G75*
G02*
X31100000Y13876000I1425358J889894D01*
G01*
X33964721Y13900264D02*
G75*
G02*
X34220000Y13010000I-1424721J-890264D01*
G01*
X33429894Y11584642D02*
G75*
G02*
X31674000Y11570000I-889894J1425358D01*
G01*
X31649807Y14435505D02*
G75*
G02*
X33431000Y14435000I890193J-1425505D01*
G01*
X34220099Y13038674D02*
G75*
G02*
X33980000Y12144000I-1680099J-28674D01*
G01*
X34220000Y16510000D02*
G75*
G03*
X34220000Y16510000I-1680000J0D01*
G01*
X7170000Y16400000D02*
X7470000Y16100000D01*
X6420000Y16600000D02*
X6420000Y18600000D01*
X6420000Y18600000D02*
X10520000Y18600000D01*
X7170000Y16400000D02*
X6870000Y16100000D01*
X10520000Y16600000D02*
X6420000Y16600000D01*
X10520000Y18600000D02*
X10520000Y16600000D01*
X6870000Y16100000D02*
X7470000Y16100000D01*
X24080000Y12350000D02*
X24080000Y9550000D01*
X22080000Y9550000D02*
X22080000Y12350000D01*
X24080000Y9550000D02*
X22080000Y9550000D01*
X22080000Y12350000D02*
X24080000Y12350000D01*
D11*
X16365000Y31185000D02*
X16915000Y31185000D01*
X23715000Y23835000D02*
X23715000Y24385000D01*
X23715000Y31185000D02*
X23165000Y31185000D01*
X23715000Y31185000D02*
X23715000Y30635000D01*
X23715000Y23835000D02*
X23165000Y23835000D01*
X16365000Y31185000D02*
X16365000Y30735000D01*
X16365000Y23835000D02*
X16915000Y23835000D01*
X16365000Y30735000D02*
X15090000Y30735000D01*
X16365000Y23835000D02*
X16365000Y24385000D01*
D13*
X29077221Y25770000D02*
X29402779Y25770000D01*
X29077221Y24750000D02*
X29402779Y24750000D01*
X22360000Y13150000D02*
X22360000Y18550000D01*
X25660000Y13150000D02*
X25660000Y18550000D01*
X22360000Y13150000D02*
X25660000Y13150000D01*
X27232064Y10970000D02*
X26027936Y10970000D01*
X27232064Y12790000D02*
X26027936Y12790000D01*
X21420000Y35637221D02*
X21420000Y35962779D01*
X22440000Y35637221D02*
X22440000Y35962779D01*
X22030000Y18682779D02*
X22030000Y18357221D01*
X21010000Y18682779D02*
X21010000Y18357221D01*
D14*
X32540000Y30820000D03*
D15*
X32540000Y28280000D03*
X32540000Y25740000D03*
X32540000Y23200000D03*
M02*
