M48
; DRILL file {KiCad (5.99.0-8534-g3fcd0860c1)} date 01/21/21 22:08:20
; FORMAT={-:-/ absolute / metric / decimal}
; #@! TF.CreationDate,2021-01-21T22:08:20+01:00
; #@! TF.GenerationSoftware,Kicad,Pcbnew,(5.99.0-8534-g3fcd0860c1)
; #@! TF.FileFunction,Plated,1,4,PTH
FMAT,2
METRIC
T1C0.200
T2C0.700
T3C1.000
T4C1.300
T5C3.200
%
G90
G05
T1
X56.45Y-95.496
X58.7Y-75.3
X58.9Y-73.3
X60.4Y-80.0
X61.4Y-77.7
X62.6Y-74.0
X64.7Y-76.0
X65.3Y-79.3
X66.3Y-80.6
X69.7Y-98.4
X78.7Y-75.3
X78.95Y-73.3
X80.45Y-80.0
X81.45Y-77.7
X82.65Y-74.0
X84.75Y-76.0
X85.35Y-79.3
X86.35Y-80.6
X89.8Y-98.4
X98.8Y-75.3
X99.0Y-73.3
X100.5Y-80.0
X101.5Y-77.7
X102.7Y-74.0
X104.8Y-76.0
X105.4Y-79.3
X106.4Y-80.6
X109.7Y-98.3
X118.8Y-75.3
X119.05Y-73.3
X120.55Y-80.0
X121.55Y-77.7
X122.75Y-74.0
X124.85Y-76.0
X125.45Y-79.3
X126.45Y-80.6
T2
X48.75Y-62.65
X48.75Y-64.65
X48.75Y-66.65
X48.75Y-68.65
X48.75Y-72.65
X48.75Y-74.65
X48.75Y-76.65
X48.75Y-78.65
X48.75Y-80.65
X50.75Y-63.65
X50.75Y-65.65
X50.75Y-67.65
X50.75Y-71.65
X50.75Y-73.65
X50.75Y-75.65
X50.75Y-77.65
X50.75Y-79.65
X50.75Y-81.65
X53.25Y-63.65
X53.25Y-65.65
X53.25Y-67.65
X53.25Y-71.65
X53.25Y-73.65
X53.25Y-75.65
X53.25Y-77.65
X53.25Y-79.65
X53.25Y-81.65
X55.25Y-62.65
X55.25Y-64.65
X55.25Y-66.65
X55.25Y-68.65
X55.25Y-72.65
X55.25Y-74.65
X55.25Y-76.65
X55.25Y-78.65
X55.25Y-80.65
X59.75Y-97.35
X59.75Y-99.35
X59.75Y-101.35
X59.75Y-103.35
X59.75Y-105.35
X59.75Y-109.35
X59.75Y-111.35
X59.75Y-113.35
X59.75Y-115.35
X61.75Y-96.35
X61.75Y-98.35
X61.75Y-100.35
X61.75Y-102.35
X61.75Y-104.35
X61.75Y-106.35
X61.75Y-110.35
X61.75Y-112.35
X61.75Y-114.35
X64.25Y-96.35
X64.25Y-98.35
X64.25Y-100.35
X64.25Y-102.35
X64.25Y-104.35
X64.25Y-106.35
X64.25Y-110.35
X64.25Y-112.35
X64.25Y-114.35
X66.25Y-97.35
X66.25Y-99.35
X66.25Y-101.35
X66.25Y-103.35
X66.25Y-105.35
X66.25Y-109.35
X66.25Y-111.35
X66.25Y-113.35
X66.25Y-115.35
X68.75Y-62.65
X68.75Y-64.65
X68.75Y-66.65
X68.75Y-68.65
X68.75Y-72.65
X68.75Y-74.65
X68.75Y-76.65
X68.75Y-78.65
X68.75Y-80.65
X70.75Y-63.65
X70.75Y-65.65
X70.75Y-67.65
X70.75Y-71.65
X70.75Y-73.65
X70.75Y-75.65
X70.75Y-77.65
X70.75Y-79.65
X70.75Y-81.65
X73.25Y-63.65
X73.25Y-65.65
X73.25Y-67.65
X73.25Y-71.65
X73.25Y-73.65
X73.25Y-75.65
X73.25Y-77.65
X73.25Y-79.65
X73.25Y-81.65
X75.25Y-62.65
X75.25Y-64.65
X75.25Y-66.65
X75.25Y-68.65
X75.25Y-72.65
X75.25Y-74.65
X75.25Y-76.65
X75.25Y-78.65
X75.25Y-80.65
X79.75Y-97.35
X79.75Y-99.35
X79.75Y-101.35
X79.75Y-103.35
X79.75Y-105.35
X79.75Y-109.35
X79.75Y-111.35
X79.75Y-113.35
X79.75Y-115.35
X81.75Y-96.35
X81.75Y-98.35
X81.75Y-100.35
X81.75Y-102.35
X81.75Y-104.35
X81.75Y-106.35
X81.75Y-110.35
X81.75Y-112.35
X81.75Y-114.35
X84.25Y-96.35
X84.25Y-98.35
X84.25Y-100.35
X84.25Y-102.35
X84.25Y-104.35
X84.25Y-106.35
X84.25Y-110.35
X84.25Y-112.35
X84.25Y-114.35
X86.25Y-97.35
X86.25Y-99.35
X86.25Y-101.35
X86.25Y-103.35
X86.25Y-105.35
X86.25Y-109.35
X86.25Y-111.35
X86.25Y-113.35
X86.25Y-115.35
X88.75Y-62.65
X88.75Y-64.65
X88.75Y-66.65
X88.75Y-68.65
X88.75Y-72.65
X88.75Y-74.65
X88.75Y-76.65
X88.75Y-78.65
X88.75Y-80.65
X90.75Y-63.65
X90.75Y-65.65
X90.75Y-67.65
X90.75Y-71.65
X90.75Y-73.65
X90.75Y-75.65
X90.75Y-77.65
X90.75Y-79.65
X90.75Y-81.65
X93.25Y-63.65
X93.25Y-65.65
X93.25Y-67.65
X93.25Y-71.65
X93.25Y-73.65
X93.25Y-75.65
X93.25Y-77.65
X93.25Y-79.65
X93.25Y-81.65
X95.25Y-62.65
X95.25Y-64.65
X95.25Y-66.65
X95.25Y-68.65
X95.25Y-72.65
X95.25Y-74.65
X95.25Y-76.65
X95.25Y-78.65
X95.25Y-80.65
X99.85Y-97.35
X99.85Y-99.35
X99.85Y-101.35
X99.85Y-103.35
X99.85Y-105.35
X99.85Y-109.35
X99.85Y-111.35
X99.85Y-113.35
X99.85Y-115.35
X101.85Y-96.35
X101.85Y-98.35
X101.85Y-100.35
X101.85Y-102.35
X101.85Y-104.35
X101.85Y-106.35
X101.85Y-110.35
X101.85Y-112.35
X101.85Y-114.35
X104.35Y-96.35
X104.35Y-98.35
X104.35Y-100.35
X104.35Y-102.35
X104.35Y-104.35
X104.35Y-106.35
X104.35Y-110.35
X104.35Y-112.35
X104.35Y-114.35
X106.35Y-97.35
X106.35Y-99.35
X106.35Y-101.35
X106.35Y-103.35
X106.35Y-105.35
X106.35Y-109.35
X106.35Y-111.35
X106.35Y-113.35
X106.35Y-115.35
X108.75Y-62.65
X108.75Y-64.65
X108.75Y-66.65
X108.75Y-68.65
X108.75Y-72.65
X108.75Y-74.65
X108.75Y-76.65
X108.75Y-78.65
X108.75Y-80.65
X110.75Y-63.65
X110.75Y-65.65
X110.75Y-67.65
X110.75Y-71.65
X110.75Y-73.65
X110.75Y-75.65
X110.75Y-77.65
X110.75Y-79.65
X110.75Y-81.65
X113.25Y-63.65
X113.25Y-65.65
X113.25Y-67.65
X113.25Y-71.65
X113.25Y-73.65
X113.25Y-75.65
X113.25Y-77.65
X113.25Y-79.65
X113.25Y-81.65
X115.25Y-62.65
X115.25Y-64.65
X115.25Y-66.65
X115.25Y-68.65
X115.25Y-72.65
X115.25Y-74.65
X115.25Y-76.65
X115.25Y-78.65
X115.25Y-80.65
X119.85Y-97.35
X119.85Y-99.35
X119.85Y-101.35
X119.85Y-103.35
X119.85Y-105.35
X119.85Y-109.35
X119.85Y-111.35
X119.85Y-113.35
X119.85Y-115.35
X121.85Y-96.35
X121.85Y-98.35
X121.85Y-100.35
X121.85Y-102.35
X121.85Y-104.35
X121.85Y-106.35
X121.85Y-110.35
X121.85Y-112.35
X121.85Y-114.35
X124.35Y-96.35
X124.35Y-98.35
X124.35Y-100.35
X124.35Y-102.35
X124.35Y-104.35
X124.35Y-106.35
X124.35Y-110.35
X124.35Y-112.35
X124.35Y-114.35
X126.35Y-97.35
X126.35Y-99.35
X126.35Y-101.35
X126.35Y-103.35
X126.35Y-105.35
X126.35Y-109.35
X126.35Y-111.35
X126.35Y-113.35
X126.35Y-115.35
T3
X133.6Y-59.08
X133.6Y-61.62
X133.6Y-64.16
X133.6Y-66.7
X133.6Y-69.24
X133.6Y-71.78
X133.6Y-74.32
X133.6Y-76.86
X133.6Y-79.4
X133.6Y-81.94
X133.6Y-84.48
X133.6Y-87.02
X133.6Y-89.56
X133.6Y-92.1
X133.6Y-94.64
X133.6Y-97.18
X133.6Y-99.72
X133.6Y-102.26
X133.6Y-104.8
X133.6Y-107.34
X133.6Y-109.88
X133.6Y-112.42
X133.6Y-114.96
X133.6Y-117.5
X133.6Y-120.04
X136.14Y-59.08
X136.14Y-61.62
X136.14Y-64.16
X136.14Y-66.7
X136.14Y-69.24
X136.14Y-71.78
X136.14Y-74.32
X136.14Y-76.86
X136.14Y-79.4
X136.14Y-81.94
X136.14Y-84.48
X136.14Y-87.02
X136.14Y-89.56
X136.14Y-92.1
X136.14Y-94.64
X136.14Y-97.18
X136.14Y-99.72
X136.14Y-102.26
X136.14Y-104.8
X136.14Y-107.34
X136.14Y-109.88
X136.14Y-112.42
X136.14Y-114.96
X136.14Y-117.5
X136.14Y-120.04
T4
X49.0Y-95.0
X49.0Y-100.08
T5
X49.0Y-125.879
X63.0Y-54.0
X109.0Y-125.879
X123.0Y-54.0
T0
M30
