%TF.GenerationSoftware,KiCad,Pcbnew,(5.99.0-8534-g3fcd0860c1)*%
%TF.CreationDate,2021-01-21T22:08:18+01:00*%
%TF.ProjectId,DRV-Carrier,4452562d-4361-4727-9269-65722e6b6963,rev?*%
%TF.SameCoordinates,Original*%
%TF.FileFunction,Legend,Top*%
%TF.FilePolarity,Positive*%
%FSLAX46Y46*%
G04 Gerber Fmt 4.6, Leading zero omitted, Abs format (unit mm)*
G04 Created by KiCad (PCBNEW (5.99.0-8534-g3fcd0860c1)) date 2021-01-21 22:08:18*
%MOMM*%
%LPD*%
G01*
G04 APERTURE LIST*
%ADD10C,0.150000*%
%ADD11C,0.100000*%
%ADD12C,0.120000*%
%ADD13C,3.200000*%
%ADD14C,2.350000*%
G04 APERTURE END LIST*
D10*
X119904761Y-64095238D02*
X117904761Y-64095238D01*
X117904761Y-63619047D01*
X118000000Y-63333333D01*
X118190476Y-63142857D01*
X118380952Y-63047619D01*
X118761904Y-62952380D01*
X119047619Y-62952380D01*
X119428571Y-63047619D01*
X119619047Y-63142857D01*
X119809523Y-63333333D01*
X119904761Y-63619047D01*
X119904761Y-64095238D01*
X119904761Y-60952380D02*
X118952380Y-61619047D01*
X119904761Y-62095238D02*
X117904761Y-62095238D01*
X117904761Y-61333333D01*
X118000000Y-61142857D01*
X118095238Y-61047619D01*
X118285714Y-60952380D01*
X118571428Y-60952380D01*
X118761904Y-61047619D01*
X118857142Y-61142857D01*
X118952380Y-61333333D01*
X118952380Y-62095238D01*
X117904761Y-60380952D02*
X119904761Y-59714285D01*
X117904761Y-59047619D01*
X117904761Y-55904761D02*
X117904761Y-56857142D01*
X118857142Y-56952380D01*
X118761904Y-56857142D01*
X118666666Y-56666666D01*
X118666666Y-56190476D01*
X118761904Y-56000000D01*
X118857142Y-55904761D01*
X119047619Y-55809523D01*
X119523809Y-55809523D01*
X119714285Y-55904761D01*
X119809523Y-56000000D01*
X119904761Y-56190476D01*
X119904761Y-56666666D01*
X119809523Y-56857142D01*
X119714285Y-56952380D01*
X59904761Y-64095238D02*
X57904761Y-64095238D01*
X57904761Y-63619047D01*
X58000000Y-63333333D01*
X58190476Y-63142857D01*
X58380952Y-63047619D01*
X58761904Y-62952380D01*
X59047619Y-62952380D01*
X59428571Y-63047619D01*
X59619047Y-63142857D01*
X59809523Y-63333333D01*
X59904761Y-63619047D01*
X59904761Y-64095238D01*
X59904761Y-60952380D02*
X58952380Y-61619047D01*
X59904761Y-62095238D02*
X57904761Y-62095238D01*
X57904761Y-61333333D01*
X58000000Y-61142857D01*
X58095238Y-61047619D01*
X58285714Y-60952380D01*
X58571428Y-60952380D01*
X58761904Y-61047619D01*
X58857142Y-61142857D01*
X58952380Y-61333333D01*
X58952380Y-62095238D01*
X57904761Y-60380952D02*
X59904761Y-59714285D01*
X57904761Y-59047619D01*
X58761904Y-56571428D02*
X58666666Y-56761904D01*
X58571428Y-56857142D01*
X58380952Y-56952380D01*
X58285714Y-56952380D01*
X58095238Y-56857142D01*
X58000000Y-56761904D01*
X57904761Y-56571428D01*
X57904761Y-56190476D01*
X58000000Y-56000000D01*
X58095238Y-55904761D01*
X58285714Y-55809523D01*
X58380952Y-55809523D01*
X58571428Y-55904761D01*
X58666666Y-56000000D01*
X58761904Y-56190476D01*
X58761904Y-56571428D01*
X58857142Y-56761904D01*
X58952380Y-56857142D01*
X59142857Y-56952380D01*
X59523809Y-56952380D01*
X59714285Y-56857142D01*
X59809523Y-56761904D01*
X59904761Y-56571428D01*
X59904761Y-56190476D01*
X59809523Y-56000000D01*
X59714285Y-55904761D01*
X59523809Y-55809523D01*
X59142857Y-55809523D01*
X58952380Y-55904761D01*
X58857142Y-56000000D01*
X58761904Y-56190476D01*
X99904761Y-64095238D02*
X97904761Y-64095238D01*
X97904761Y-63619047D01*
X98000000Y-63333333D01*
X98190476Y-63142857D01*
X98380952Y-63047619D01*
X98761904Y-62952380D01*
X99047619Y-62952380D01*
X99428571Y-63047619D01*
X99619047Y-63142857D01*
X99809523Y-63333333D01*
X99904761Y-63619047D01*
X99904761Y-64095238D01*
X99904761Y-60952380D02*
X98952380Y-61619047D01*
X99904761Y-62095238D02*
X97904761Y-62095238D01*
X97904761Y-61333333D01*
X98000000Y-61142857D01*
X98095238Y-61047619D01*
X98285714Y-60952380D01*
X98571428Y-60952380D01*
X98761904Y-61047619D01*
X98857142Y-61142857D01*
X98952380Y-61333333D01*
X98952380Y-62095238D01*
X97904761Y-60380952D02*
X99904761Y-59714285D01*
X97904761Y-59047619D01*
X97904761Y-56000000D02*
X97904761Y-56380952D01*
X98000000Y-56571428D01*
X98095238Y-56666666D01*
X98380952Y-56857142D01*
X98761904Y-56952380D01*
X99523809Y-56952380D01*
X99714285Y-56857142D01*
X99809523Y-56761904D01*
X99904761Y-56571428D01*
X99904761Y-56190476D01*
X99809523Y-56000000D01*
X99714285Y-55904761D01*
X99523809Y-55809523D01*
X99047619Y-55809523D01*
X98857142Y-55904761D01*
X98761904Y-56000000D01*
X98666666Y-56190476D01*
X98666666Y-56571428D01*
X98761904Y-56761904D01*
X98857142Y-56857142D01*
X99047619Y-56952380D01*
X79904761Y-64095238D02*
X77904761Y-64095238D01*
X77904761Y-63619047D01*
X78000000Y-63333333D01*
X78190476Y-63142857D01*
X78380952Y-63047619D01*
X78761904Y-62952380D01*
X79047619Y-62952380D01*
X79428571Y-63047619D01*
X79619047Y-63142857D01*
X79809523Y-63333333D01*
X79904761Y-63619047D01*
X79904761Y-64095238D01*
X79904761Y-60952380D02*
X78952380Y-61619047D01*
X79904761Y-62095238D02*
X77904761Y-62095238D01*
X77904761Y-61333333D01*
X78000000Y-61142857D01*
X78095238Y-61047619D01*
X78285714Y-60952380D01*
X78571428Y-60952380D01*
X78761904Y-61047619D01*
X78857142Y-61142857D01*
X78952380Y-61333333D01*
X78952380Y-62095238D01*
X77904761Y-60380952D02*
X79904761Y-59714285D01*
X77904761Y-59047619D01*
X77904761Y-57047619D02*
X77904761Y-55714285D01*
X79904761Y-56571428D01*
X116904761Y-122095238D02*
X114904761Y-122095238D01*
X114904761Y-121619047D01*
X115000000Y-121333333D01*
X115190476Y-121142857D01*
X115380952Y-121047619D01*
X115761904Y-120952380D01*
X116047619Y-120952380D01*
X116428571Y-121047619D01*
X116619047Y-121142857D01*
X116809523Y-121333333D01*
X116904761Y-121619047D01*
X116904761Y-122095238D01*
X116904761Y-118952380D02*
X115952380Y-119619047D01*
X116904761Y-120095238D02*
X114904761Y-120095238D01*
X114904761Y-119333333D01*
X115000000Y-119142857D01*
X115095238Y-119047619D01*
X115285714Y-118952380D01*
X115571428Y-118952380D01*
X115761904Y-119047619D01*
X115857142Y-119142857D01*
X115952380Y-119333333D01*
X115952380Y-120095238D01*
X114904761Y-118380952D02*
X116904761Y-117714285D01*
X114904761Y-117047619D01*
X116904761Y-113809523D02*
X116904761Y-114952380D01*
X116904761Y-114380952D02*
X114904761Y-114380952D01*
X115190476Y-114571428D01*
X115380952Y-114761904D01*
X115476190Y-114952380D01*
X96904761Y-122095238D02*
X94904761Y-122095238D01*
X94904761Y-121619047D01*
X95000000Y-121333333D01*
X95190476Y-121142857D01*
X95380952Y-121047619D01*
X95761904Y-120952380D01*
X96047619Y-120952380D01*
X96428571Y-121047619D01*
X96619047Y-121142857D01*
X96809523Y-121333333D01*
X96904761Y-121619047D01*
X96904761Y-122095238D01*
X96904761Y-118952380D02*
X95952380Y-119619047D01*
X96904761Y-120095238D02*
X94904761Y-120095238D01*
X94904761Y-119333333D01*
X95000000Y-119142857D01*
X95095238Y-119047619D01*
X95285714Y-118952380D01*
X95571428Y-118952380D01*
X95761904Y-119047619D01*
X95857142Y-119142857D01*
X95952380Y-119333333D01*
X95952380Y-120095238D01*
X94904761Y-118380952D02*
X96904761Y-117714285D01*
X94904761Y-117047619D01*
X95095238Y-114952380D02*
X95000000Y-114857142D01*
X94904761Y-114666666D01*
X94904761Y-114190476D01*
X95000000Y-114000000D01*
X95095238Y-113904761D01*
X95285714Y-113809523D01*
X95476190Y-113809523D01*
X95761904Y-113904761D01*
X96904761Y-115047619D01*
X96904761Y-113809523D01*
X76904761Y-122095238D02*
X74904761Y-122095238D01*
X74904761Y-121619047D01*
X75000000Y-121333333D01*
X75190476Y-121142857D01*
X75380952Y-121047619D01*
X75761904Y-120952380D01*
X76047619Y-120952380D01*
X76428571Y-121047619D01*
X76619047Y-121142857D01*
X76809523Y-121333333D01*
X76904761Y-121619047D01*
X76904761Y-122095238D01*
X76904761Y-118952380D02*
X75952380Y-119619047D01*
X76904761Y-120095238D02*
X74904761Y-120095238D01*
X74904761Y-119333333D01*
X75000000Y-119142857D01*
X75095238Y-119047619D01*
X75285714Y-118952380D01*
X75571428Y-118952380D01*
X75761904Y-119047619D01*
X75857142Y-119142857D01*
X75952380Y-119333333D01*
X75952380Y-120095238D01*
X74904761Y-118380952D02*
X76904761Y-117714285D01*
X74904761Y-117047619D01*
X74904761Y-115047619D02*
X74904761Y-113809523D01*
X75666666Y-114476190D01*
X75666666Y-114190476D01*
X75761904Y-114000000D01*
X75857142Y-113904761D01*
X76047619Y-113809523D01*
X76523809Y-113809523D01*
X76714285Y-113904761D01*
X76809523Y-114000000D01*
X76904761Y-114190476D01*
X76904761Y-114761904D01*
X76809523Y-114952380D01*
X76714285Y-115047619D01*
X56904761Y-122095238D02*
X54904761Y-122095238D01*
X54904761Y-121619047D01*
X55000000Y-121333333D01*
X55190476Y-121142857D01*
X55380952Y-121047619D01*
X55761904Y-120952380D01*
X56047619Y-120952380D01*
X56428571Y-121047619D01*
X56619047Y-121142857D01*
X56809523Y-121333333D01*
X56904761Y-121619047D01*
X56904761Y-122095238D01*
X56904761Y-118952380D02*
X55952380Y-119619047D01*
X56904761Y-120095238D02*
X54904761Y-120095238D01*
X54904761Y-119333333D01*
X55000000Y-119142857D01*
X55095238Y-119047619D01*
X55285714Y-118952380D01*
X55571428Y-118952380D01*
X55761904Y-119047619D01*
X55857142Y-119142857D01*
X55952380Y-119333333D01*
X55952380Y-120095238D01*
X54904761Y-118380952D02*
X56904761Y-117714285D01*
X54904761Y-117047619D01*
X55571428Y-114000000D02*
X56904761Y-114000000D01*
X54809523Y-114476190D02*
X56238095Y-114952380D01*
X56238095Y-113714285D01*
D11*
%TO.C,J_MOT8*%
X47809000Y-84859000D02*
X47809000Y-59205000D01*
X47809000Y-59205000D02*
X57461000Y-59205000D01*
X57461000Y-59205000D02*
X57461000Y-84859000D01*
X57461000Y-84859000D02*
X47809000Y-84859000D01*
D12*
%TO.C,C7*%
X102847500Y-65562500D02*
X102847500Y-66350000D01*
X103345563Y-66590000D02*
X104410000Y-67654437D01*
X103345563Y-66590000D02*
X102060000Y-66590000D01*
X103241250Y-65956250D02*
X102453750Y-65956250D01*
X104410000Y-73410000D02*
X102060000Y-73410000D01*
X98654437Y-66590000D02*
X99940000Y-66590000D01*
X97590000Y-67654437D02*
X97590000Y-73410000D01*
X104410000Y-67654437D02*
X104410000Y-73410000D01*
X97590000Y-73410000D02*
X99940000Y-73410000D01*
X98654437Y-66590000D02*
X97590000Y-67654437D01*
%TO.C,C4*%
X91654437Y-111410000D02*
X90590000Y-110345563D01*
X90590000Y-104590000D02*
X92940000Y-104590000D01*
X91758750Y-112043750D02*
X92546250Y-112043750D01*
X92152500Y-112437500D02*
X92152500Y-111650000D01*
X96345563Y-111410000D02*
X97410000Y-110345563D01*
X96345563Y-111410000D02*
X95060000Y-111410000D01*
X91654437Y-111410000D02*
X92940000Y-111410000D01*
X90590000Y-110345563D02*
X90590000Y-104590000D01*
X97410000Y-104590000D02*
X95060000Y-104590000D01*
X97410000Y-110345563D02*
X97410000Y-104590000D01*
D11*
%TO.C,J_MOT3*%
X67191000Y-93141000D02*
X67191000Y-118795000D01*
X57539000Y-118795000D02*
X57539000Y-93141000D01*
X67191000Y-118795000D02*
X57539000Y-118795000D01*
X57539000Y-93141000D02*
X67191000Y-93141000D01*
D12*
%TO.C,C6*%
X118654437Y-66590000D02*
X119940000Y-66590000D01*
X122847500Y-65562500D02*
X122847500Y-66350000D01*
X117590000Y-67654437D02*
X117590000Y-73410000D01*
X123345563Y-66590000D02*
X122060000Y-66590000D01*
X123345563Y-66590000D02*
X124410000Y-67654437D01*
X117590000Y-73410000D02*
X119940000Y-73410000D01*
X118654437Y-66590000D02*
X117590000Y-67654437D01*
X123241250Y-65956250D02*
X122453750Y-65956250D01*
X124410000Y-73410000D02*
X122060000Y-73410000D01*
X124410000Y-67654437D02*
X124410000Y-73410000D01*
%TO.C,J2*%
X138120000Y-55170000D02*
X138120000Y-123950000D01*
X129920000Y-59080000D02*
X128920000Y-58580000D01*
X130310000Y-53870000D02*
X139430000Y-53870000D01*
X131620000Y-91610000D02*
X131620000Y-91610000D01*
X138120000Y-123950000D02*
X131620000Y-123950000D01*
X131620000Y-87510000D02*
X131620000Y-55170000D01*
X139430000Y-125250000D02*
X130310000Y-125250000D01*
X130310000Y-87510000D02*
X131620000Y-87510000D01*
X128920000Y-58580000D02*
X128920000Y-59580000D01*
X131620000Y-55170000D02*
X138120000Y-55170000D01*
X131620000Y-91610000D02*
X130310000Y-91610000D01*
X128920000Y-59580000D02*
X129920000Y-59080000D01*
X130310000Y-125250000D02*
X130310000Y-53870000D01*
X139430000Y-53870000D02*
X139430000Y-125250000D01*
X131620000Y-123950000D02*
X131620000Y-91610000D01*
%TO.C,C2*%
X57410000Y-110345563D02*
X57410000Y-104590000D01*
X56345563Y-111410000D02*
X57410000Y-110345563D01*
X52152500Y-112437500D02*
X52152500Y-111650000D01*
X51654437Y-111410000D02*
X52940000Y-111410000D01*
X50590000Y-110345563D02*
X50590000Y-104590000D01*
X51758750Y-112043750D02*
X52546250Y-112043750D01*
X57410000Y-104590000D02*
X55060000Y-104590000D01*
X51654437Y-111410000D02*
X50590000Y-110345563D01*
X56345563Y-111410000D02*
X55060000Y-111410000D01*
X50590000Y-104590000D02*
X52940000Y-104590000D01*
%TO.C,C8*%
X77590000Y-67654437D02*
X77590000Y-73410000D01*
X84410000Y-73410000D02*
X82060000Y-73410000D01*
X78654437Y-66590000D02*
X79940000Y-66590000D01*
X78654437Y-66590000D02*
X77590000Y-67654437D01*
X77590000Y-73410000D02*
X79940000Y-73410000D01*
X83345563Y-66590000D02*
X82060000Y-66590000D01*
X82847500Y-65562500D02*
X82847500Y-66350000D01*
X83241250Y-65956250D02*
X82453750Y-65956250D01*
X83345563Y-66590000D02*
X84410000Y-67654437D01*
X84410000Y-67654437D02*
X84410000Y-73410000D01*
%TO.C,C1*%
X77410000Y-110345563D02*
X77410000Y-104590000D01*
X70590000Y-110345563D02*
X70590000Y-104590000D01*
X76345563Y-111410000D02*
X77410000Y-110345563D01*
X70590000Y-104590000D02*
X72940000Y-104590000D01*
X72152500Y-112437500D02*
X72152500Y-111650000D01*
X71758750Y-112043750D02*
X72546250Y-112043750D01*
X71654437Y-111410000D02*
X72940000Y-111410000D01*
X71654437Y-111410000D02*
X70590000Y-110345563D01*
X76345563Y-111410000D02*
X75060000Y-111410000D01*
X77410000Y-104590000D02*
X75060000Y-104590000D01*
D11*
%TO.C,J_MOT5*%
X117461000Y-59205000D02*
X117461000Y-84859000D01*
X117461000Y-84859000D02*
X107809000Y-84859000D01*
X107809000Y-59205000D02*
X117461000Y-59205000D01*
X107809000Y-84859000D02*
X107809000Y-59205000D01*
%TO.C,J_MOT2*%
X87191000Y-118795000D02*
X77539000Y-118795000D01*
X77539000Y-93141000D02*
X87191000Y-93141000D01*
X77539000Y-118795000D02*
X77539000Y-93141000D01*
X87191000Y-93141000D02*
X87191000Y-118795000D01*
D12*
%TO.C,J1*%
X47761000Y-99046000D02*
X47726000Y-99011000D01*
X50069000Y-101355000D02*
X50023000Y-101308000D01*
X47977000Y-98853000D02*
X47931000Y-98806000D01*
X44100000Y-92160000D02*
X44100000Y-92660000D01*
X44840000Y-92160000D02*
X44100000Y-92160000D01*
X46400000Y-92400000D02*
X46400000Y-102680000D01*
X54261000Y-92400000D02*
X44340000Y-92400000D01*
X54261000Y-102680000D02*
X44340000Y-102680000D01*
X50275000Y-101150000D02*
X50239000Y-101115000D01*
X44900000Y-92400000D02*
X44900000Y-102680000D01*
X54261000Y-92400000D02*
X54261000Y-102680000D01*
X44340000Y-92400000D02*
X44340000Y-102680000D01*
X51301000Y-92400000D02*
X51301000Y-102680000D01*
X47465244Y-95683318D02*
G75*
G02*
X47320000Y-95000000I1534756J683318D01*
G01*
X47319747Y-95028805D02*
G75*
G02*
X47465000Y-94316000I1680253J28805D01*
G01*
X50535426Y-94316958D02*
G75*
G02*
X50535000Y-95684000I-1535426J-683042D01*
G01*
X49683042Y-96535426D02*
G75*
G02*
X48316000Y-96535000I-683042J1535426D01*
G01*
X48316958Y-93464574D02*
G75*
G02*
X49684000Y-93465000I683042J-1535426D01*
G01*
X50680000Y-100080000D02*
G75*
G03*
X50680000Y-100080000I-1680000J0D01*
G01*
D11*
%TO.C,J_MOT6*%
X97461000Y-59205000D02*
X97461000Y-84859000D01*
X97461000Y-84859000D02*
X87809000Y-84859000D01*
X87809000Y-59205000D02*
X97461000Y-59205000D01*
X87809000Y-84859000D02*
X87809000Y-59205000D01*
%TO.C,J_MOT7*%
X77461000Y-84859000D02*
X67809000Y-84859000D01*
X67809000Y-59205000D02*
X77461000Y-59205000D01*
X77461000Y-59205000D02*
X77461000Y-84859000D01*
X67809000Y-84859000D02*
X67809000Y-59205000D01*
D12*
%TO.C,C5*%
X111654437Y-111410000D02*
X112940000Y-111410000D01*
X116345563Y-111410000D02*
X117410000Y-110345563D01*
X116345563Y-111410000D02*
X115060000Y-111410000D01*
X112152500Y-112437500D02*
X112152500Y-111650000D01*
X111758750Y-112043750D02*
X112546250Y-112043750D01*
X110590000Y-104590000D02*
X112940000Y-104590000D01*
X117410000Y-110345563D02*
X117410000Y-104590000D01*
X111654437Y-111410000D02*
X110590000Y-110345563D01*
X117410000Y-104590000D02*
X115060000Y-104590000D01*
X110590000Y-110345563D02*
X110590000Y-104590000D01*
D11*
%TO.C,J_MOT1*%
X117639000Y-118795000D02*
X117639000Y-93141000D01*
X127291000Y-93141000D02*
X127291000Y-118795000D01*
X127291000Y-118795000D02*
X117639000Y-118795000D01*
X117639000Y-93141000D02*
X127291000Y-93141000D01*
D12*
%TO.C,C3*%
X57590000Y-67654437D02*
X57590000Y-73410000D01*
X63345563Y-66590000D02*
X64410000Y-67654437D01*
X64410000Y-73410000D02*
X62060000Y-73410000D01*
X58654437Y-66590000D02*
X59940000Y-66590000D01*
X57590000Y-73410000D02*
X59940000Y-73410000D01*
X64410000Y-67654437D02*
X64410000Y-73410000D01*
X63345563Y-66590000D02*
X62060000Y-66590000D01*
X62847500Y-65562500D02*
X62847500Y-66350000D01*
X58654437Y-66590000D02*
X57590000Y-67654437D01*
X63241250Y-65956250D02*
X62453750Y-65956250D01*
D11*
%TO.C,J_MOT4*%
X107291000Y-118795000D02*
X97639000Y-118795000D01*
X107291000Y-93141000D02*
X107291000Y-118795000D01*
X97639000Y-118795000D02*
X97639000Y-93141000D01*
X97639000Y-93141000D02*
X107291000Y-93141000D01*
%TD*%
D13*
%TO.C,J_MOT8*%
X52000000Y-56000000D03*
X52000000Y-87650000D03*
D14*
X52000000Y-70000000D03*
X52000000Y-60850000D03*
%TD*%
D13*
%TO.C,J_MOT3*%
X63000000Y-90350000D03*
X63000000Y-122000000D03*
D14*
X63000000Y-117150000D03*
X63000000Y-108000000D03*
%TD*%
D13*
%TO.C,J_MOT5*%
X112000000Y-87650000D03*
X112000000Y-56000000D03*
D14*
X112000000Y-70000000D03*
X112000000Y-60850000D03*
%TD*%
D13*
%TO.C,J_MOT2*%
X83000000Y-90350000D03*
X83000000Y-122000000D03*
D14*
X83000000Y-117150000D03*
X83000000Y-108000000D03*
%TD*%
D13*
%TO.C,J_MOT6*%
X92000000Y-87650000D03*
X92000000Y-56000000D03*
D14*
X92000000Y-60850000D03*
X92000000Y-70000000D03*
%TD*%
D13*
%TO.C,J_MOT7*%
X72000000Y-87650000D03*
X72000000Y-56000000D03*
D14*
X72000000Y-70000000D03*
X72000000Y-60850000D03*
%TD*%
D13*
%TO.C,J_MOT1*%
X123100000Y-122000000D03*
X123100000Y-90350000D03*
D14*
X123100000Y-108000000D03*
X123100000Y-117150000D03*
%TD*%
D13*
%TO.C,J_MOT4*%
X103100000Y-122000000D03*
X103100000Y-90350000D03*
D14*
X103100000Y-108000000D03*
X103100000Y-117150000D03*
%TD*%
M02*
