%TF.GenerationSoftware,KiCad,Pcbnew,(5.99.0-8534-g3fcd0860c1)*%
%TF.CreationDate,2021-01-21T22:08:18+01:00*%
%TF.ProjectId,DRV-Carrier,4452562d-4361-4727-9269-65722e6b6963,rev?*%
%TF.SameCoordinates,Original*%
%TF.FileFunction,Legend,Bot*%
%TF.FilePolarity,Positive*%
%FSLAX46Y46*%
G04 Gerber Fmt 4.6, Leading zero omitted, Abs format (unit mm)*
G04 Created by KiCad (PCBNEW (5.99.0-8534-g3fcd0860c1)) date 2021-01-21 22:08:18*
%MOMM*%
%LPD*%
G01*
G04 APERTURE LIST*
%ADD10C,0.150000*%
G04 APERTURE END LIST*
D10*
X104250000Y-126678571D02*
X104250000Y-125178571D01*
X103892857Y-125178571D01*
X103678571Y-125250000D01*
X103535714Y-125392857D01*
X103464285Y-125535714D01*
X103392857Y-125821428D01*
X103392857Y-126035714D01*
X103464285Y-126321428D01*
X103535714Y-126464285D01*
X103678571Y-126607142D01*
X103892857Y-126678571D01*
X104250000Y-126678571D01*
X102750000Y-126678571D02*
X102750000Y-125678571D01*
X102750000Y-125964285D02*
X102678571Y-125821428D01*
X102607142Y-125750000D01*
X102464285Y-125678571D01*
X102321428Y-125678571D01*
X101821428Y-126678571D02*
X101821428Y-125678571D01*
X101821428Y-125178571D02*
X101892857Y-125250000D01*
X101821428Y-125321428D01*
X101750000Y-125250000D01*
X101821428Y-125178571D01*
X101821428Y-125321428D01*
X101250000Y-125678571D02*
X100892857Y-126678571D01*
X100535714Y-125678571D01*
X99392857Y-126607142D02*
X99535714Y-126678571D01*
X99821428Y-126678571D01*
X99964285Y-126607142D01*
X100035714Y-126464285D01*
X100035714Y-125892857D01*
X99964285Y-125750000D01*
X99821428Y-125678571D01*
X99535714Y-125678571D01*
X99392857Y-125750000D01*
X99321428Y-125892857D01*
X99321428Y-126035714D01*
X100035714Y-126178571D01*
X98678571Y-126678571D02*
X98678571Y-125678571D01*
X98678571Y-125964285D02*
X98607142Y-125821428D01*
X98535714Y-125750000D01*
X98392857Y-125678571D01*
X98250000Y-125678571D01*
X95750000Y-126535714D02*
X95821428Y-126607142D01*
X96035714Y-126678571D01*
X96178571Y-126678571D01*
X96392857Y-126607142D01*
X96535714Y-126464285D01*
X96607142Y-126321428D01*
X96678571Y-126035714D01*
X96678571Y-125821428D01*
X96607142Y-125535714D01*
X96535714Y-125392857D01*
X96392857Y-125250000D01*
X96178571Y-125178571D01*
X96035714Y-125178571D01*
X95821428Y-125250000D01*
X95750000Y-125321428D01*
X94464285Y-126678571D02*
X94464285Y-125892857D01*
X94535714Y-125750000D01*
X94678571Y-125678571D01*
X94964285Y-125678571D01*
X95107142Y-125750000D01*
X94464285Y-126607142D02*
X94607142Y-126678571D01*
X94964285Y-126678571D01*
X95107142Y-126607142D01*
X95178571Y-126464285D01*
X95178571Y-126321428D01*
X95107142Y-126178571D01*
X94964285Y-126107142D01*
X94607142Y-126107142D01*
X94464285Y-126035714D01*
X93750000Y-126678571D02*
X93750000Y-125678571D01*
X93750000Y-125964285D02*
X93678571Y-125821428D01*
X93607142Y-125750000D01*
X93464285Y-125678571D01*
X93321428Y-125678571D01*
X92178571Y-126678571D02*
X92178571Y-125178571D01*
X92178571Y-126607142D02*
X92321428Y-126678571D01*
X92607142Y-126678571D01*
X92750000Y-126607142D01*
X92821428Y-126535714D01*
X92892857Y-126392857D01*
X92892857Y-125964285D01*
X92821428Y-125821428D01*
X92750000Y-125750000D01*
X92607142Y-125678571D01*
X92321428Y-125678571D01*
X92178571Y-125750000D01*
X89464285Y-126535714D02*
X89535714Y-126607142D01*
X89750000Y-126678571D01*
X89892857Y-126678571D01*
X90107142Y-126607142D01*
X90250000Y-126464285D01*
X90321428Y-126321428D01*
X90392857Y-126035714D01*
X90392857Y-125821428D01*
X90321428Y-125535714D01*
X90250000Y-125392857D01*
X90107142Y-125250000D01*
X89892857Y-125178571D01*
X89750000Y-125178571D01*
X89535714Y-125250000D01*
X89464285Y-125321428D01*
X88178571Y-126678571D02*
X88178571Y-125892857D01*
X88250000Y-125750000D01*
X88392857Y-125678571D01*
X88678571Y-125678571D01*
X88821428Y-125750000D01*
X88178571Y-126607142D02*
X88321428Y-126678571D01*
X88678571Y-126678571D01*
X88821428Y-126607142D01*
X88892857Y-126464285D01*
X88892857Y-126321428D01*
X88821428Y-126178571D01*
X88678571Y-126107142D01*
X88321428Y-126107142D01*
X88178571Y-126035714D01*
X87464285Y-126678571D02*
X87464285Y-125678571D01*
X87464285Y-125964285D02*
X87392857Y-125821428D01*
X87321428Y-125750000D01*
X87178571Y-125678571D01*
X87035714Y-125678571D01*
X86535714Y-126678571D02*
X86535714Y-125678571D01*
X86535714Y-125964285D02*
X86464285Y-125821428D01*
X86392857Y-125750000D01*
X86250000Y-125678571D01*
X86107142Y-125678571D01*
X85607142Y-126678571D02*
X85607142Y-125678571D01*
X85607142Y-125178571D02*
X85678571Y-125250000D01*
X85607142Y-125321428D01*
X85535714Y-125250000D01*
X85607142Y-125178571D01*
X85607142Y-125321428D01*
X84321428Y-126607142D02*
X84464285Y-126678571D01*
X84750000Y-126678571D01*
X84892857Y-126607142D01*
X84964285Y-126464285D01*
X84964285Y-125892857D01*
X84892857Y-125750000D01*
X84750000Y-125678571D01*
X84464285Y-125678571D01*
X84321428Y-125750000D01*
X84250000Y-125892857D01*
X84250000Y-126035714D01*
X84964285Y-126178571D01*
X83607142Y-126678571D02*
X83607142Y-125678571D01*
X83607142Y-125964285D02*
X83535714Y-125821428D01*
X83464285Y-125750000D01*
X83321428Y-125678571D01*
X83178571Y-125678571D01*
X81035714Y-125892857D02*
X80821428Y-125964285D01*
X80750000Y-126035714D01*
X80678571Y-126178571D01*
X80678571Y-126392857D01*
X80750000Y-126535714D01*
X80821428Y-126607142D01*
X80964285Y-126678571D01*
X81535714Y-126678571D01*
X81535714Y-125178571D01*
X81035714Y-125178571D01*
X80892857Y-125250000D01*
X80821428Y-125321428D01*
X80750000Y-125464285D01*
X80750000Y-125607142D01*
X80821428Y-125750000D01*
X80892857Y-125821428D01*
X81035714Y-125892857D01*
X81535714Y-125892857D01*
X79821428Y-126678571D02*
X79964285Y-126607142D01*
X80035714Y-126535714D01*
X80107142Y-126392857D01*
X80107142Y-125964285D01*
X80035714Y-125821428D01*
X79964285Y-125750000D01*
X79821428Y-125678571D01*
X79607142Y-125678571D01*
X79464285Y-125750000D01*
X79392857Y-125821428D01*
X79321428Y-125964285D01*
X79321428Y-126392857D01*
X79392857Y-126535714D01*
X79464285Y-126607142D01*
X79607142Y-126678571D01*
X79821428Y-126678571D01*
X78035714Y-126678571D02*
X78035714Y-125892857D01*
X78107142Y-125750000D01*
X78250000Y-125678571D01*
X78535714Y-125678571D01*
X78678571Y-125750000D01*
X78035714Y-126607142D02*
X78178571Y-126678571D01*
X78535714Y-126678571D01*
X78678571Y-126607142D01*
X78750000Y-126464285D01*
X78750000Y-126321428D01*
X78678571Y-126178571D01*
X78535714Y-126107142D01*
X78178571Y-126107142D01*
X78035714Y-126035714D01*
X77321428Y-126678571D02*
X77321428Y-125678571D01*
X77321428Y-125964285D02*
X77249999Y-125821428D01*
X77178571Y-125750000D01*
X77035714Y-125678571D01*
X76892857Y-125678571D01*
X75749999Y-126678571D02*
X75749999Y-125178571D01*
X75749999Y-126607142D02*
X75892857Y-126678571D01*
X76178571Y-126678571D01*
X76321428Y-126607142D01*
X76392857Y-126535714D01*
X76464285Y-126392857D01*
X76464285Y-125964285D01*
X76392857Y-125821428D01*
X76321428Y-125750000D01*
X76178571Y-125678571D01*
X75892857Y-125678571D01*
X75749999Y-125750000D01*
X104404761Y-128833333D02*
X104452380Y-128785714D01*
X104547619Y-128642857D01*
X104595238Y-128547619D01*
X104642857Y-128404761D01*
X104690476Y-128166666D01*
X104690476Y-127976190D01*
X104642857Y-127738095D01*
X104595238Y-127595238D01*
X104547619Y-127500000D01*
X104452380Y-127357142D01*
X104404761Y-127309523D01*
X103595238Y-128404761D02*
X103690476Y-128452380D01*
X103880952Y-128452380D01*
X103976190Y-128404761D01*
X104023809Y-128357142D01*
X104071428Y-128261904D01*
X104071428Y-127976190D01*
X104023809Y-127880952D01*
X103976190Y-127833333D01*
X103880952Y-127785714D01*
X103690476Y-127785714D01*
X103595238Y-127833333D01*
X103261904Y-128833333D02*
X103214285Y-128785714D01*
X103119047Y-128642857D01*
X103071428Y-128547619D01*
X103023809Y-128404761D01*
X102976190Y-128166666D01*
X102976190Y-127976190D01*
X103023809Y-127738095D01*
X103071428Y-127595238D01*
X103119047Y-127500000D01*
X103214285Y-127357142D01*
X103261904Y-127309523D01*
X101785714Y-127547619D02*
X101738095Y-127500000D01*
X101642857Y-127452380D01*
X101404761Y-127452380D01*
X101309523Y-127500000D01*
X101261904Y-127547619D01*
X101214285Y-127642857D01*
X101214285Y-127738095D01*
X101261904Y-127880952D01*
X101833333Y-128452380D01*
X101214285Y-128452380D01*
X100595238Y-127452380D02*
X100500000Y-127452380D01*
X100404761Y-127500000D01*
X100357142Y-127547619D01*
X100309523Y-127642857D01*
X100261904Y-127833333D01*
X100261904Y-128071428D01*
X100309523Y-128261904D01*
X100357142Y-128357142D01*
X100404761Y-128404761D01*
X100500000Y-128452380D01*
X100595238Y-128452380D01*
X100690476Y-128404761D01*
X100738095Y-128357142D01*
X100785714Y-128261904D01*
X100833333Y-128071428D01*
X100833333Y-127833333D01*
X100785714Y-127642857D01*
X100738095Y-127547619D01*
X100690476Y-127500000D01*
X100595238Y-127452380D01*
X99880952Y-127547619D02*
X99833333Y-127500000D01*
X99738095Y-127452380D01*
X99500000Y-127452380D01*
X99404761Y-127500000D01*
X99357142Y-127547619D01*
X99309523Y-127642857D01*
X99309523Y-127738095D01*
X99357142Y-127880952D01*
X99928571Y-128452380D01*
X99309523Y-128452380D01*
X98357142Y-128452380D02*
X98928571Y-128452380D01*
X98642857Y-128452380D02*
X98642857Y-127452380D01*
X98738095Y-127595238D01*
X98833333Y-127690476D01*
X98928571Y-127738095D01*
X97166666Y-128452380D02*
X97166666Y-127452380D01*
X97166666Y-127833333D02*
X97071428Y-127785714D01*
X96880952Y-127785714D01*
X96785714Y-127833333D01*
X96738095Y-127880952D01*
X96690476Y-127976190D01*
X96690476Y-128261904D01*
X96738095Y-128357142D01*
X96785714Y-128404761D01*
X96880952Y-128452380D01*
X97071428Y-128452380D01*
X97166666Y-128404761D01*
X96357142Y-127785714D02*
X96119047Y-128452380D01*
X95880952Y-127785714D02*
X96119047Y-128452380D01*
X96214285Y-128690476D01*
X96261904Y-128738095D01*
X96357142Y-128785714D01*
X94738095Y-128452380D02*
X94738095Y-127452380D01*
X94738095Y-127928571D02*
X94166666Y-127928571D01*
X94166666Y-128452380D02*
X94166666Y-127452380D01*
X93690476Y-128452380D02*
X93690476Y-127785714D01*
X93690476Y-127452380D02*
X93738095Y-127500000D01*
X93690476Y-127547619D01*
X93642857Y-127500000D01*
X93690476Y-127452380D01*
X93690476Y-127547619D01*
X93214285Y-127785714D02*
X93214285Y-128642857D01*
X93261904Y-128738095D01*
X93357142Y-128785714D01*
X93404761Y-128785714D01*
X93214285Y-127452380D02*
X93261904Y-127500000D01*
X93214285Y-127547619D01*
X93166666Y-127500000D01*
X93214285Y-127452380D01*
X93214285Y-127547619D01*
X92309523Y-128452380D02*
X92309523Y-127928571D01*
X92357142Y-127833333D01*
X92452380Y-127785714D01*
X92642857Y-127785714D01*
X92738095Y-127833333D01*
X92309523Y-128404761D02*
X92404761Y-128452380D01*
X92642857Y-128452380D01*
X92738095Y-128404761D01*
X92785714Y-128309523D01*
X92785714Y-128214285D01*
X92738095Y-128119047D01*
X92642857Y-128071428D01*
X92404761Y-128071428D01*
X92309523Y-128023809D01*
X91928571Y-128452380D02*
X91404761Y-127785714D01*
X91928571Y-127785714D02*
X91404761Y-128452380D01*
X91261904Y-128547619D02*
X90500000Y-128547619D01*
X90261904Y-127785714D02*
X90261904Y-128785714D01*
X90261904Y-127833333D02*
X90166666Y-127785714D01*
X89976190Y-127785714D01*
X89880952Y-127833333D01*
X89833333Y-127880952D01*
X89785714Y-127976190D01*
X89785714Y-128261904D01*
X89833333Y-128357142D01*
X89880952Y-128404761D01*
X89976190Y-128452380D01*
X90166666Y-128452380D01*
X90261904Y-128404761D01*
X89214285Y-128452380D02*
X89309523Y-128404761D01*
X89357142Y-128309523D01*
X89357142Y-127452380D01*
M02*
