M48
; DRILL file {KiCad (5.99.0-8534-g3fcd0860c1)} date 01/21/21 22:08:20
; FORMAT={-:-/ absolute / metric / decimal}
; #@! TF.CreationDate,2021-01-21T22:08:20+01:00
; #@! TF.GenerationSoftware,Kicad,Pcbnew,(5.99.0-8534-g3fcd0860c1)
; #@! TF.FileFunction,NonPlated,1,4,NPTH
FMAT,2
METRIC
T1C2.350
T2C3.200
%
G90
G05
T1
X52.0Y-60.85
X52.0Y-70.0
X63.0Y-108.0
X63.0Y-117.15
X72.0Y-60.85
X72.0Y-70.0
X83.0Y-108.0
X83.0Y-117.15
X92.0Y-60.85
X92.0Y-70.0
X103.1Y-108.0
X103.1Y-117.15
X112.0Y-60.85
X112.0Y-70.0
X123.1Y-108.0
X123.1Y-117.15
T2
X52.0Y-56.0
X52.0Y-87.65
X63.0Y-90.35
X63.0Y-122.0
X72.0Y-56.0
X72.0Y-87.65
X83.0Y-90.35
X83.0Y-122.0
X92.0Y-56.0
X92.0Y-87.65
X103.1Y-90.35
X103.1Y-122.0
X112.0Y-56.0
X112.0Y-87.65
X123.1Y-90.35
X123.1Y-122.0
T0
M30
