%TF.GenerationSoftware,KiCad,Pcbnew,(5.99.0-8534-g3fcd0860c1)*%
%TF.CreationDate,2021-01-21T22:08:18+01:00*%
%TF.ProjectId,DRV-Carrier,4452562d-4361-4727-9269-65722e6b6963,rev?*%
%TF.SameCoordinates,Original*%
%TF.FileFunction,Soldermask,Top*%
%TF.FilePolarity,Negative*%
%FSLAX46Y46*%
G04 Gerber Fmt 4.6, Leading zero omitted, Abs format (unit mm)*
G04 Created by KiCad (PCBNEW (5.99.0-8534-g3fcd0860c1)) date 2021-01-21 22:08:18*
%MOMM*%
%LPD*%
G01*
G04 APERTURE LIST*
G04 Aperture macros list*
%AMRoundRect*
0 Rectangle with rounded corners*
0 $1 Rounding radius*
0 $2 $3 $4 $5 $6 $7 $8 $9 X,Y pos of 4 corners*
0 Add a 4 corners polygon primitive as box body*
4,1,4,$2,$3,$4,$5,$6,$7,$8,$9,$2,$3,0*
0 Add four circle primitives for the rounded corners*
1,1,$1+$1,$2,$3*
1,1,$1+$1,$4,$5*
1,1,$1+$1,$6,$7*
1,1,$1+$1,$8,$9*
0 Add four rect primitives between the rounded corners*
20,1,$1+$1,$2,$3,$4,$5,0*
20,1,$1+$1,$4,$5,$6,$7,0*
20,1,$1+$1,$6,$7,$8,$9,0*
20,1,$1+$1,$8,$9,$2,$3,0*%
G04 Aperture macros list end*
%ADD10C,3.600000*%
%ADD11R,1.208000X1.208000*%
%ADD12C,1.208000*%
%ADD13C,2.350000*%
%ADD14RoundRect,0.250000X-0.550000X1.500000X-0.550000X-1.500000X0.550000X-1.500000X0.550000X1.500000X0*%
%ADD15RoundRect,0.250000X0.550000X-1.500000X0.550000X1.500000X-0.550000X1.500000X-0.550000X-1.500000X0*%
%ADD16C,5.700000*%
%ADD17RoundRect,0.250000X-0.600000X-0.600000X0.600000X-0.600000X0.600000X0.600000X-0.600000X0.600000X0*%
%ADD18C,1.700000*%
%ADD19R,2.600000X2.600000*%
%ADD20C,2.600000*%
G04 APERTURE END LIST*
D10*
%TO.C,J_MOT8*%
X52000000Y-56000000D03*
X52000000Y-87650000D03*
D11*
X50750000Y-81650000D03*
D12*
X48750000Y-80650000D03*
X50750000Y-79650000D03*
X48750000Y-78650000D03*
X50750000Y-77650000D03*
X48750000Y-76650000D03*
X50750000Y-75650000D03*
X48750000Y-74650000D03*
X50750000Y-73650000D03*
X48750000Y-72650000D03*
X50750000Y-71650000D03*
X48750000Y-68650000D03*
X50750000Y-67650000D03*
X48750000Y-66650000D03*
X50750000Y-65650000D03*
X48750000Y-64650000D03*
X50750000Y-63650000D03*
X48750000Y-62650000D03*
D11*
X53250000Y-81650000D03*
D12*
X55250000Y-80650000D03*
X53250000Y-79650000D03*
X55250000Y-78650000D03*
X53250000Y-77650000D03*
X55250000Y-76650000D03*
X53250000Y-75650000D03*
X55250000Y-74650000D03*
X53250000Y-73650000D03*
X55250000Y-72650000D03*
X53250000Y-71650000D03*
X55250000Y-68650000D03*
X53250000Y-67650000D03*
X55250000Y-66650000D03*
X53250000Y-65650000D03*
X55250000Y-64650000D03*
X53250000Y-63650000D03*
X55250000Y-62650000D03*
D13*
X52000000Y-70000000D03*
X52000000Y-60850000D03*
%TD*%
D14*
%TO.C,C7*%
X101000000Y-67300000D03*
X101000000Y-72700000D03*
%TD*%
D15*
%TO.C,C4*%
X94000000Y-110700000D03*
X94000000Y-105300000D03*
%TD*%
D16*
%TO.C,H4*%
X109000000Y-125878680D03*
%TD*%
%TO.C,H3*%
X49000000Y-125878680D03*
%TD*%
%TO.C,H2*%
X123000000Y-54000000D03*
%TD*%
D10*
%TO.C,J_MOT3*%
X63000000Y-90350000D03*
X63000000Y-122000000D03*
D11*
X64250000Y-96350000D03*
D12*
X66250000Y-97350000D03*
X64250000Y-98350000D03*
X66250000Y-99350000D03*
X64250000Y-100350000D03*
X66250000Y-101350000D03*
X64250000Y-102350000D03*
X66250000Y-103350000D03*
X64250000Y-104350000D03*
X66250000Y-105350000D03*
X64250000Y-106350000D03*
X66250000Y-109350000D03*
X64250000Y-110350000D03*
X66250000Y-111350000D03*
X64250000Y-112350000D03*
X66250000Y-113350000D03*
X64250000Y-114350000D03*
X66250000Y-115350000D03*
D11*
X61750000Y-96350000D03*
D12*
X59750000Y-97350000D03*
X61750000Y-98350000D03*
X59750000Y-99350000D03*
X61750000Y-100350000D03*
X59750000Y-101350000D03*
X61750000Y-102350000D03*
X59750000Y-103350000D03*
X61750000Y-104350000D03*
X59750000Y-105350000D03*
X61750000Y-106350000D03*
X59750000Y-109350000D03*
X61750000Y-110350000D03*
X59750000Y-111350000D03*
X61750000Y-112350000D03*
X59750000Y-113350000D03*
X61750000Y-114350000D03*
X59750000Y-115350000D03*
D13*
X63000000Y-117150000D03*
X63000000Y-108000000D03*
%TD*%
D14*
%TO.C,C6*%
X121000000Y-67300000D03*
X121000000Y-72700000D03*
%TD*%
D17*
%TO.C,J2*%
X133600000Y-59080000D03*
D18*
X136140000Y-59080000D03*
X133600000Y-61620000D03*
X136140000Y-61620000D03*
X133600000Y-64160000D03*
X136140000Y-64160000D03*
X133600000Y-66700000D03*
X136140000Y-66700000D03*
X133600000Y-69240000D03*
X136140000Y-69240000D03*
X133600000Y-71780000D03*
X136140000Y-71780000D03*
X133600000Y-74320000D03*
X136140000Y-74320000D03*
X133600000Y-76860000D03*
X136140000Y-76860000D03*
X133600000Y-79400000D03*
X136140000Y-79400000D03*
X133600000Y-81940000D03*
X136140000Y-81940000D03*
X133600000Y-84480000D03*
X136140000Y-84480000D03*
X133600000Y-87020000D03*
X136140000Y-87020000D03*
X133600000Y-89560000D03*
X136140000Y-89560000D03*
X133600000Y-92100000D03*
X136140000Y-92100000D03*
X133600000Y-94640000D03*
X136140000Y-94640000D03*
X133600000Y-97180000D03*
X136140000Y-97180000D03*
X133600000Y-99720000D03*
X136140000Y-99720000D03*
X133600000Y-102260000D03*
X136140000Y-102260000D03*
X133600000Y-104800000D03*
X136140000Y-104800000D03*
X133600000Y-107340000D03*
X136140000Y-107340000D03*
X133600000Y-109880000D03*
X136140000Y-109880000D03*
X133600000Y-112420000D03*
X136140000Y-112420000D03*
X133600000Y-114960000D03*
X136140000Y-114960000D03*
X133600000Y-117500000D03*
X136140000Y-117500000D03*
X133600000Y-120040000D03*
X136140000Y-120040000D03*
%TD*%
D16*
%TO.C,H1*%
X63000000Y-54000000D03*
%TD*%
D15*
%TO.C,C2*%
X54000000Y-110700000D03*
X54000000Y-105300000D03*
%TD*%
D14*
%TO.C,C8*%
X81000000Y-67300000D03*
X81000000Y-72700000D03*
%TD*%
D15*
%TO.C,C1*%
X74000000Y-110700000D03*
X74000000Y-105300000D03*
%TD*%
D10*
%TO.C,J_MOT5*%
X112000000Y-87650000D03*
X112000000Y-56000000D03*
D11*
X110750000Y-81650000D03*
D12*
X108750000Y-80650000D03*
X110750000Y-79650000D03*
X108750000Y-78650000D03*
X110750000Y-77650000D03*
X108750000Y-76650000D03*
X110750000Y-75650000D03*
X108750000Y-74650000D03*
X110750000Y-73650000D03*
X108750000Y-72650000D03*
X110750000Y-71650000D03*
X108750000Y-68650000D03*
X110750000Y-67650000D03*
X108750000Y-66650000D03*
X110750000Y-65650000D03*
X108750000Y-64650000D03*
X110750000Y-63650000D03*
X108750000Y-62650000D03*
D11*
X113250000Y-81650000D03*
D12*
X115250000Y-80650000D03*
X113250000Y-79650000D03*
X115250000Y-78650000D03*
X113250000Y-77650000D03*
X115250000Y-76650000D03*
X113250000Y-75650000D03*
X115250000Y-74650000D03*
X113250000Y-73650000D03*
X115250000Y-72650000D03*
X113250000Y-71650000D03*
X115250000Y-68650000D03*
X113250000Y-67650000D03*
X115250000Y-66650000D03*
X113250000Y-65650000D03*
X115250000Y-64650000D03*
X113250000Y-63650000D03*
X115250000Y-62650000D03*
D13*
X112000000Y-70000000D03*
X112000000Y-60850000D03*
%TD*%
D10*
%TO.C,J_MOT2*%
X83000000Y-90350000D03*
X83000000Y-122000000D03*
D11*
X84250000Y-96350000D03*
D12*
X86250000Y-97350000D03*
X84250000Y-98350000D03*
X86250000Y-99350000D03*
X84250000Y-100350000D03*
X86250000Y-101350000D03*
X84250000Y-102350000D03*
X86250000Y-103350000D03*
X84250000Y-104350000D03*
X86250000Y-105350000D03*
X84250000Y-106350000D03*
X86250000Y-109350000D03*
X84250000Y-110350000D03*
X86250000Y-111350000D03*
X84250000Y-112350000D03*
X86250000Y-113350000D03*
X84250000Y-114350000D03*
X86250000Y-115350000D03*
D11*
X81750000Y-96350000D03*
D12*
X79750000Y-97350000D03*
X81750000Y-98350000D03*
X79750000Y-99350000D03*
X81750000Y-100350000D03*
X79750000Y-101350000D03*
X81750000Y-102350000D03*
X79750000Y-103350000D03*
X81750000Y-104350000D03*
X79750000Y-105350000D03*
X81750000Y-106350000D03*
X79750000Y-109350000D03*
X81750000Y-110350000D03*
X79750000Y-111350000D03*
X81750000Y-112350000D03*
X79750000Y-113350000D03*
X81750000Y-114350000D03*
X79750000Y-115350000D03*
D13*
X83000000Y-117150000D03*
X83000000Y-108000000D03*
%TD*%
D19*
%TO.C,J1*%
X49000000Y-95000000D03*
D20*
X49000000Y-100080000D03*
%TD*%
D10*
%TO.C,J_MOT6*%
X92000000Y-87650000D03*
X92000000Y-56000000D03*
D11*
X90750000Y-81650000D03*
D12*
X88750000Y-80650000D03*
X90750000Y-79650000D03*
X88750000Y-78650000D03*
X90750000Y-77650000D03*
X88750000Y-76650000D03*
X90750000Y-75650000D03*
X88750000Y-74650000D03*
X90750000Y-73650000D03*
X88750000Y-72650000D03*
X90750000Y-71650000D03*
X88750000Y-68650000D03*
X90750000Y-67650000D03*
X88750000Y-66650000D03*
X90750000Y-65650000D03*
X88750000Y-64650000D03*
X90750000Y-63650000D03*
X88750000Y-62650000D03*
D11*
X93250000Y-81650000D03*
D12*
X95250000Y-80650000D03*
X93250000Y-79650000D03*
X95250000Y-78650000D03*
X93250000Y-77650000D03*
X95250000Y-76650000D03*
X93250000Y-75650000D03*
X95250000Y-74650000D03*
X93250000Y-73650000D03*
X95250000Y-72650000D03*
X93250000Y-71650000D03*
X95250000Y-68650000D03*
X93250000Y-67650000D03*
X95250000Y-66650000D03*
X93250000Y-65650000D03*
X95250000Y-64650000D03*
X93250000Y-63650000D03*
X95250000Y-62650000D03*
D13*
X92000000Y-60850000D03*
X92000000Y-70000000D03*
%TD*%
D10*
%TO.C,J_MOT7*%
X72000000Y-87650000D03*
X72000000Y-56000000D03*
D11*
X70750000Y-81650000D03*
D12*
X68750000Y-80650000D03*
X70750000Y-79650000D03*
X68750000Y-78650000D03*
X70750000Y-77650000D03*
X68750000Y-76650000D03*
X70750000Y-75650000D03*
X68750000Y-74650000D03*
X70750000Y-73650000D03*
X68750000Y-72650000D03*
X70750000Y-71650000D03*
X68750000Y-68650000D03*
X70750000Y-67650000D03*
X68750000Y-66650000D03*
X70750000Y-65650000D03*
X68750000Y-64650000D03*
X70750000Y-63650000D03*
X68750000Y-62650000D03*
D11*
X73250000Y-81650000D03*
D12*
X75250000Y-80650000D03*
X73250000Y-79650000D03*
X75250000Y-78650000D03*
X73250000Y-77650000D03*
X75250000Y-76650000D03*
X73250000Y-75650000D03*
X75250000Y-74650000D03*
X73250000Y-73650000D03*
X75250000Y-72650000D03*
X73250000Y-71650000D03*
X75250000Y-68650000D03*
X73250000Y-67650000D03*
X75250000Y-66650000D03*
X73250000Y-65650000D03*
X75250000Y-64650000D03*
X73250000Y-63650000D03*
X75250000Y-62650000D03*
D13*
X72000000Y-70000000D03*
X72000000Y-60850000D03*
%TD*%
D15*
%TO.C,C5*%
X114000000Y-110700000D03*
X114000000Y-105300000D03*
%TD*%
D10*
%TO.C,J_MOT1*%
X123100000Y-122000000D03*
X123100000Y-90350000D03*
D11*
X124350000Y-96350000D03*
D12*
X126350000Y-97350000D03*
X124350000Y-98350000D03*
X126350000Y-99350000D03*
X124350000Y-100350000D03*
X126350000Y-101350000D03*
X124350000Y-102350000D03*
X126350000Y-103350000D03*
X124350000Y-104350000D03*
X126350000Y-105350000D03*
X124350000Y-106350000D03*
X126350000Y-109350000D03*
X124350000Y-110350000D03*
X126350000Y-111350000D03*
X124350000Y-112350000D03*
X126350000Y-113350000D03*
X124350000Y-114350000D03*
X126350000Y-115350000D03*
D11*
X121850000Y-96350000D03*
D12*
X119850000Y-97350000D03*
X121850000Y-98350000D03*
X119850000Y-99350000D03*
X121850000Y-100350000D03*
X119850000Y-101350000D03*
X121850000Y-102350000D03*
X119850000Y-103350000D03*
X121850000Y-104350000D03*
X119850000Y-105350000D03*
X121850000Y-106350000D03*
X119850000Y-109350000D03*
X121850000Y-110350000D03*
X119850000Y-111350000D03*
X121850000Y-112350000D03*
X119850000Y-113350000D03*
X121850000Y-114350000D03*
X119850000Y-115350000D03*
D13*
X123100000Y-108000000D03*
X123100000Y-117150000D03*
%TD*%
D14*
%TO.C,C3*%
X61000000Y-67300000D03*
X61000000Y-72700000D03*
%TD*%
D10*
%TO.C,J_MOT4*%
X103100000Y-122000000D03*
X103100000Y-90350000D03*
D11*
X104350000Y-96350000D03*
D12*
X106350000Y-97350000D03*
X104350000Y-98350000D03*
X106350000Y-99350000D03*
X104350000Y-100350000D03*
X106350000Y-101350000D03*
X104350000Y-102350000D03*
X106350000Y-103350000D03*
X104350000Y-104350000D03*
X106350000Y-105350000D03*
X104350000Y-106350000D03*
X106350000Y-109350000D03*
X104350000Y-110350000D03*
X106350000Y-111350000D03*
X104350000Y-112350000D03*
X106350000Y-113350000D03*
X104350000Y-114350000D03*
X106350000Y-115350000D03*
D11*
X101850000Y-96350000D03*
D12*
X99850000Y-97350000D03*
X101850000Y-98350000D03*
X99850000Y-99350000D03*
X101850000Y-100350000D03*
X99850000Y-101350000D03*
X101850000Y-102350000D03*
X99850000Y-103350000D03*
X101850000Y-104350000D03*
X99850000Y-105350000D03*
X101850000Y-106350000D03*
X99850000Y-109350000D03*
X101850000Y-110350000D03*
X99850000Y-111350000D03*
X101850000Y-112350000D03*
X99850000Y-113350000D03*
X101850000Y-114350000D03*
X99850000Y-115350000D03*
D13*
X103100000Y-108000000D03*
X103100000Y-117150000D03*
%TD*%
M02*
