G04 #@! TF.GenerationSoftware,KiCad,Pcbnew,(5.99.0-8491-gb8dfcb34c4)*
G04 #@! TF.CreationDate,2021-01-21T08:47:48+01:00*
G04 #@! TF.ProjectId,TMC2209_Driver,544d4332-3230-4395-9f44-72697665722e,rev?*
G04 #@! TF.SameCoordinates,PX67f3540PY6cb8080*
G04 #@! TF.FileFunction,Copper,L1,Top*
G04 #@! TF.FilePolarity,Positive*
%FSLAX46Y46*%
G04 Gerber Fmt 4.6, Leading zero omitted, Abs format (unit mm)*
G04 Created by KiCad (PCBNEW (5.99.0-8491-gb8dfcb34c4)) date 2021-01-21 08:47:48*
%MOMM*%
%LPD*%
G01*
G04 APERTURE LIST*
G04 Aperture macros list*
%AMRoundRect*
0 Rectangle with rounded corners*
0 $1 Rounding radius*
0 $2 $3 $4 $5 $6 $7 $8 $9 X,Y pos of 4 corners*
0 Add a 4 corners polygon primitive as box body*
4,1,4,$2,$3,$4,$5,$6,$7,$8,$9,$2,$3,0*
0 Add four circle primitives for the rounded corners*
1,1,$1+$1,$2,$3*
1,1,$1+$1,$4,$5*
1,1,$1+$1,$6,$7*
1,1,$1+$1,$8,$9*
0 Add four rect primitives between the rounded corners*
20,1,$1+$1,$2,$3,$4,$5,0*
20,1,$1+$1,$4,$5,$6,$7,0*
20,1,$1+$1,$6,$7,$8,$9,0*
20,1,$1+$1,$8,$9,$2,$3,0*%
G04 Aperture macros list end*
G04 #@! TA.AperFunction,SMDPad,CuDef*
%ADD10R,0.950000X0.875000*%
G04 #@! TD*
G04 #@! TA.AperFunction,SMDPad,CuDef*
%ADD11R,0.640000X0.590000*%
G04 #@! TD*
G04 #@! TA.AperFunction,SMDPad,CuDef*
%ADD12R,1.250000X1.750000*%
G04 #@! TD*
G04 #@! TA.AperFunction,ConnectorPad*
%ADD13C,0.650000*%
G04 #@! TD*
G04 #@! TA.AperFunction,ConnectorPad*
%ADD14R,0.650000X4.600000*%
G04 #@! TD*
G04 #@! TA.AperFunction,ConnectorPad*
%ADD15R,0.650000X3.600000*%
G04 #@! TD*
G04 #@! TA.AperFunction,ComponentPad*
%ADD16R,1.778000X1.778000*%
G04 #@! TD*
G04 #@! TA.AperFunction,ComponentPad*
%ADD17C,1.778000*%
G04 #@! TD*
G04 #@! TA.AperFunction,SMDPad,CuDef*
%ADD18R,0.875000X0.950000*%
G04 #@! TD*
G04 #@! TA.AperFunction,SMDPad,CuDef*
%ADD19R,0.250000X0.800000*%
G04 #@! TD*
G04 #@! TA.AperFunction,SMDPad,CuDef*
%ADD20R,0.800000X0.250000*%
G04 #@! TD*
G04 #@! TA.AperFunction,SMDPad,CuDef*
%ADD21R,3.700000X3.700000*%
G04 #@! TD*
G04 #@! TA.AperFunction,SMDPad,CuDef*
%ADD22RoundRect,0.250000X1.075000X-0.375000X1.075000X0.375000X-1.075000X0.375000X-1.075000X-0.375000X0*%
G04 #@! TD*
G04 #@! TA.AperFunction,SMDPad,CuDef*
%ADD23RoundRect,0.250000X-1.075000X0.375000X-1.075000X-0.375000X1.075000X-0.375000X1.075000X0.375000X0*%
G04 #@! TD*
G04 #@! TA.AperFunction,SMDPad,CuDef*
%ADD24R,0.650000X0.400000*%
G04 #@! TD*
G04 #@! TA.AperFunction,SMDPad,CuDef*
%ADD25RoundRect,0.250000X1.500000X0.550000X-1.500000X0.550000X-1.500000X-0.550000X1.500000X-0.550000X0*%
G04 #@! TD*
G04 #@! TA.AperFunction,SMDPad,CuDef*
%ADD26R,1.000000X1.500000*%
G04 #@! TD*
G04 #@! TA.AperFunction,SMDPad,CuDef*
%ADD27R,0.680000X0.300000*%
G04 #@! TD*
G04 #@! TA.AperFunction,SMDPad,CuDef*
%ADD28R,1.450000X1.560000*%
G04 #@! TD*
G04 #@! TA.AperFunction,ViaPad*
%ADD29C,0.700000*%
G04 #@! TD*
G04 #@! TA.AperFunction,ViaPad*
%ADD30C,0.800000*%
G04 #@! TD*
G04 #@! TA.AperFunction,ViaPad*
%ADD31C,1.000000*%
G04 #@! TD*
G04 #@! TA.AperFunction,Conductor*
%ADD32C,0.250000*%
G04 #@! TD*
G04 #@! TA.AperFunction,Conductor*
%ADD33C,0.650000*%
G04 #@! TD*
G04 #@! TA.AperFunction,Conductor*
%ADD34C,2.000000*%
G04 #@! TD*
G04 #@! TA.AperFunction,Conductor*
%ADD35C,0.254000*%
G04 #@! TD*
G04 #@! TA.AperFunction,Conductor*
%ADD36C,0.508000*%
G04 #@! TD*
G04 #@! TA.AperFunction,Conductor*
%ADD37C,0.152400*%
G04 #@! TD*
G04 #@! TA.AperFunction,Conductor*
%ADD38C,0.203200*%
G04 #@! TD*
G04 APERTURE END LIST*
G36*
X15760000Y21590000D02*
G01*
X15260000Y21590000D01*
X15260000Y22190000D01*
X15760000Y22190000D01*
X15760000Y21590000D01*
G37*
D10*
X17514598Y19927500D03*
X17514598Y18352500D03*
X15736598Y30396602D03*
X15736598Y28821602D03*
X19930000Y31757500D03*
X19930000Y30182500D03*
X18276598Y31762000D03*
X18276598Y30187000D03*
D11*
X23991598Y20901602D03*
X23991598Y19931602D03*
X23991598Y29329602D03*
X23991598Y30299602D03*
D12*
X25200000Y34900000D03*
X28000000Y34900000D03*
X24600000Y15720000D03*
X27400000Y15720000D03*
D13*
X10652800Y1014800D03*
X18652800Y1014800D03*
X14652800Y1014800D03*
X13652800Y1014800D03*
X16652800Y1014800D03*
X8652800Y1014800D03*
X25652800Y1014800D03*
X21652800Y1014800D03*
X12652800Y1014800D03*
X11652800Y1014800D03*
X15652800Y1014800D03*
X23652800Y1014800D03*
X24652800Y1014800D03*
X22652800Y1014800D03*
X17652800Y1014800D03*
X27652800Y1014800D03*
X9652800Y1014800D03*
D14*
X8652800Y3314800D03*
X9652800Y3314800D03*
X10652800Y3314800D03*
X11652800Y3314800D03*
X12652800Y3314800D03*
X13652800Y3314800D03*
X14652800Y3314800D03*
X15652800Y3314800D03*
X16652800Y3314800D03*
X17652800Y3314800D03*
X18652800Y3314800D03*
X21652800Y3314800D03*
X22652800Y3314800D03*
X23652800Y3314800D03*
X24652800Y3314800D03*
X25652800Y3314800D03*
D15*
X26652800Y3814800D03*
D14*
X27652800Y3314800D03*
D16*
X32551398Y28948602D03*
D17*
X32551398Y26408602D03*
X32551398Y23868602D03*
X32551398Y21328602D03*
D18*
X12412000Y10876000D03*
X13987000Y10876000D03*
D19*
X21554598Y27575102D03*
X21054599Y27575102D03*
X20554597Y27575102D03*
X20054598Y27575102D03*
X19554599Y27575102D03*
X19054597Y27575102D03*
X18554598Y27575102D03*
D20*
X17554598Y26575102D03*
X17554598Y26075103D03*
X17554598Y25575101D03*
X17554598Y25075102D03*
X17554598Y24575103D03*
X17554598Y24075101D03*
X17554598Y23575102D03*
D19*
X18554598Y22575102D03*
X19054597Y22575102D03*
X19554599Y22575102D03*
X20054598Y22575102D03*
X20554597Y22575102D03*
X21054599Y22575102D03*
X21554598Y22575102D03*
D20*
X22554598Y23575102D03*
X22554598Y24075101D03*
X22554598Y24575103D03*
X22554598Y25075102D03*
X22554598Y25575101D03*
X22554598Y26075103D03*
X22554598Y26575102D03*
D21*
X20054598Y25075102D03*
D10*
X33643598Y16350102D03*
X33643598Y17925102D03*
X32119598Y16350102D03*
X32119598Y17925102D03*
X33643598Y33927102D03*
X33643598Y32352102D03*
D22*
X27852398Y17766602D03*
X27852398Y20566602D03*
D23*
X27826998Y32507602D03*
X27826998Y29707602D03*
D10*
X31992598Y33952602D03*
X31992598Y32377602D03*
D24*
X8985500Y12415000D03*
X8985500Y11765000D03*
X8985500Y11115000D03*
X10885500Y11115000D03*
X10885500Y12415000D03*
D18*
X10850000Y14051000D03*
X9275000Y14051000D03*
X5909700Y14965400D03*
X4334700Y14965400D03*
D25*
X22220000Y36020000D03*
X16820000Y36020000D03*
D26*
X16160000Y21890000D03*
X14860000Y21890000D03*
X13560000Y21890000D03*
D27*
X3076400Y13581800D03*
X3076400Y13081800D03*
X3076400Y12581800D03*
X3076400Y12081800D03*
X5796400Y12081800D03*
X5796400Y12581800D03*
X5796400Y13081800D03*
X5796400Y13581800D03*
D28*
X4436400Y12831800D03*
D29*
X21324598Y25672002D03*
X19419598Y23830502D03*
X20689598Y23830502D03*
X21324598Y24402002D03*
X19419598Y25037002D03*
X20054598Y25672002D03*
X19419598Y26307002D03*
X20689598Y26307002D03*
X20689598Y25037002D03*
X20054598Y24402002D03*
X18784598Y24402002D03*
X18784598Y25672002D03*
D30*
X6000000Y18000000D03*
X19000000Y11000000D03*
D31*
X33000000Y15000000D03*
X31500000Y35500000D03*
D30*
X2000000Y32000000D03*
X8000000Y34000000D03*
X8000000Y20000000D03*
X10000000Y32000000D03*
X7800000Y12310000D03*
X2000000Y20000000D03*
X6000000Y34000000D03*
D29*
X16010000Y15640000D03*
X17514598Y17264602D03*
D30*
X10000000Y34000000D03*
X10000000Y24000000D03*
X19000000Y15000000D03*
D31*
X33500000Y35500000D03*
D30*
X8000000Y26000000D03*
X6000000Y28000000D03*
D31*
X30341598Y17000000D03*
D30*
X4000000Y34000000D03*
X2000000Y28000000D03*
X2000000Y24000000D03*
X4000000Y28000000D03*
X10000000Y28000000D03*
X4000000Y32000000D03*
D29*
X23991598Y31488602D03*
D30*
X8000000Y16000000D03*
X8000000Y30000000D03*
X4037410Y18006844D03*
D31*
X28500000Y15000000D03*
D30*
X2000000Y34000000D03*
D31*
X29500000Y35500000D03*
D30*
X11000000Y18000000D03*
X8000000Y22000000D03*
X6000000Y32000000D03*
X10000000Y30000000D03*
X6000000Y24000000D03*
D31*
X31000000Y15000000D03*
D30*
X8000000Y28000000D03*
D29*
X16613598Y21757602D03*
D30*
X6000000Y30000000D03*
X2000000Y22000000D03*
X8000000Y32000000D03*
X2000000Y30000000D03*
X6000000Y20000000D03*
X4000000Y26000000D03*
D29*
X23966198Y18382202D03*
D30*
X4000000Y22000000D03*
X11000000Y16000000D03*
X2000000Y26000000D03*
X4000000Y24000000D03*
X4000000Y30000000D03*
X6000000Y26000000D03*
X19000000Y13000000D03*
D31*
X30000000Y34000000D03*
D29*
X29833598Y23335202D03*
X25337798Y24503602D03*
X29833598Y24427402D03*
X23610598Y24630602D03*
X22746998Y20388802D03*
X22746998Y21785802D03*
X22746998Y21074602D03*
X21680198Y20414202D03*
X21705598Y21100002D03*
X29833598Y25697402D03*
X29833598Y26789602D03*
X25337798Y25646602D03*
X23610598Y25519602D03*
X22696198Y29761402D03*
X22696198Y29050202D03*
X22696198Y28364402D03*
X21654798Y29075602D03*
X21654798Y29761402D03*
D30*
X13480000Y27440000D03*
X14887410Y32982590D03*
X12076765Y23683235D03*
D29*
X20918198Y32982590D03*
D30*
X17320000Y7170000D03*
X9652800Y6397200D03*
X16420000Y7550000D03*
D29*
X18080203Y16006887D03*
D30*
X8710000Y6860000D03*
X3360000Y14284202D03*
X3360000Y9750000D03*
X8910000Y8760000D03*
X13494495Y7124495D03*
D29*
X12285000Y6380200D03*
D30*
X2120000Y10030000D03*
X7930000Y9041390D03*
X22095584Y8243406D03*
X2170000Y18330000D03*
X14520000Y14060000D03*
X5900000Y14070000D03*
D31*
X18317500Y6824700D03*
D30*
X11551390Y14069638D03*
D29*
X15002800Y6436579D03*
D30*
X9650994Y8090994D03*
X18830000Y7800000D03*
X5840000Y10920000D03*
X16250000Y9980000D03*
X15820000Y10840000D03*
X6820000Y10910000D03*
D29*
X14113800Y6418300D03*
X14863598Y22742789D03*
D30*
X14910000Y23950000D03*
D32*
X22620000Y33610000D02*
X23510000Y33610000D01*
D33*
X26661400Y6273400D02*
X26661400Y8107400D01*
D32*
X23991598Y28008802D02*
X23991598Y29329602D01*
D33*
X23664200Y6276200D02*
X23664200Y8437600D01*
X27652800Y6264800D02*
X27652000Y6265600D01*
D34*
X25000000Y37000000D02*
X25000000Y33000000D01*
D32*
X19530000Y33610000D02*
X22620000Y33610000D01*
X22554598Y23575102D02*
X22554598Y23502202D01*
D33*
X23652800Y6264800D02*
X23664200Y6276200D01*
X26652800Y3814800D02*
X26652800Y6264800D01*
D32*
X25580000Y31540000D02*
X25580000Y29600504D01*
D33*
X24652800Y6264800D02*
X24654800Y6266800D01*
X27652000Y6265600D02*
X27652000Y8336000D01*
D32*
X18276598Y32356598D02*
X19530000Y33610000D01*
X22557898Y26575102D02*
X23991598Y28008802D01*
X22554598Y23502202D02*
X23991598Y22065202D01*
X23510000Y33610000D02*
X25580000Y31540000D01*
D33*
X24654800Y6266800D02*
X24654800Y8488400D01*
X23652800Y3314800D02*
X23652800Y6264800D01*
D32*
X24753598Y20283924D02*
X24135920Y20901602D01*
X22554598Y26575102D02*
X25580000Y29600504D01*
D33*
X25652800Y3314800D02*
X25652800Y7987800D01*
X27652800Y3314800D02*
X27652800Y6264800D01*
D32*
X24753598Y20283924D02*
X24753598Y15873598D01*
D33*
X24652800Y3314800D02*
X24652800Y6264800D01*
D32*
X18276598Y32022102D02*
X18276598Y32356598D01*
D33*
X26652800Y6264800D02*
X26661400Y6273400D01*
D32*
X23991598Y22065202D02*
X23991598Y20901602D01*
D35*
X3686400Y12081800D02*
X4436400Y12831800D01*
D36*
X23991598Y19931602D02*
X23991598Y18407602D01*
D34*
X28000000Y34900000D02*
X28100000Y35000000D01*
D36*
X23991598Y30299602D02*
X23991598Y31488602D01*
D34*
X29153996Y34500000D02*
X33500000Y34500000D01*
X27826998Y32507602D02*
X27826998Y33173002D01*
D35*
X16363598Y22007602D02*
X16613598Y21757602D01*
D34*
X27680000Y16000000D02*
X33000000Y16000000D01*
D36*
X23991598Y18407602D02*
X23966198Y18382202D01*
D35*
X22401698Y25075102D02*
X20727698Y25075102D01*
D34*
X27852398Y17766602D02*
X27852398Y16172398D01*
D36*
X17514598Y18382102D02*
X17514598Y17264602D01*
D37*
X5796400Y13081800D02*
X4686400Y13081800D01*
D35*
X20054598Y22575102D02*
X20054598Y25075102D01*
X3076400Y12081800D02*
X3686400Y12081800D01*
D34*
X27400000Y15720000D02*
X27852398Y16172398D01*
D35*
X20554597Y27422202D02*
X20554597Y25575101D01*
X21054599Y22728002D02*
X21054599Y24075101D01*
D34*
X27826998Y33173002D02*
X29153996Y34500000D01*
D35*
X19054597Y27575102D02*
X19054597Y28103025D01*
X18276598Y28881024D02*
X18276598Y29755602D01*
X18276598Y29755602D02*
X18276598Y30447102D01*
X19054597Y28103025D02*
X18276598Y28881024D01*
D36*
X33440397Y22979603D02*
X32551398Y23868602D01*
X33846799Y18090803D02*
X33846799Y22573201D01*
X33846799Y22573201D02*
X33440397Y22979603D01*
X32119598Y17925102D02*
X32119598Y20896802D01*
X33643598Y31406602D02*
X33846799Y31203401D01*
X33846799Y27704003D02*
X33440397Y27297601D01*
X33440397Y27297601D02*
X32551398Y26408602D01*
X33846799Y31203401D02*
X33846799Y27704003D01*
X33643598Y32352102D02*
X33643598Y31406602D01*
X31992598Y32377602D02*
X31992598Y29507402D01*
D35*
X21054599Y27422202D02*
X21054599Y28131001D01*
D37*
X11280000Y6910000D02*
X11280000Y9780000D01*
X10652800Y3314800D02*
X10652800Y6282800D01*
X10652800Y6282800D02*
X11280000Y6910000D01*
X10714000Y11880000D02*
X11860000Y11880000D01*
X10331889Y11497889D02*
X10714000Y11880000D01*
X12180000Y12200000D02*
X12180000Y23580000D01*
X11280000Y9780000D02*
X10331889Y10728111D01*
D35*
X20918198Y28267402D02*
X20918198Y32982590D01*
D37*
X11860000Y11880000D02*
X12180000Y12200000D01*
D35*
X21054599Y28131001D02*
X20918198Y28267402D01*
D37*
X13480000Y27440000D02*
X13480000Y31575180D01*
X12180000Y23580000D02*
X12076765Y23683235D01*
X13480000Y31575180D02*
X14887410Y32982590D01*
X10331889Y10728111D02*
X10331889Y11497889D01*
X9652800Y6717200D02*
X9652800Y6397200D01*
X17320000Y7170000D02*
X17483320Y7333320D01*
X9652800Y3314800D02*
X9652800Y6397200D01*
X17483320Y14591724D02*
X17483320Y7226264D01*
X17483320Y7226264D02*
X17352282Y7095226D01*
X19800598Y16909002D02*
X17483320Y14591724D01*
X19800598Y16909002D02*
X19800598Y21361404D01*
X19800598Y21361404D02*
X20554597Y22115403D01*
X20554597Y22575102D02*
X20554597Y22115403D01*
X17110000Y8240000D02*
X17110000Y15036684D01*
X19054597Y16981281D02*
X18080203Y16006887D01*
X8652800Y3314800D02*
X8652800Y6802800D01*
X16420000Y7550000D02*
X17110000Y8240000D01*
X19054597Y22728002D02*
X19054597Y16981281D01*
X17110000Y15036684D02*
X18080203Y16006887D01*
X8652800Y6802800D02*
X8710000Y6860000D01*
X10885500Y10762600D02*
X10885500Y11115000D01*
X11652800Y6174200D02*
X11661187Y6182587D01*
X11661187Y9986913D02*
X10885500Y10762600D01*
X11652800Y3314800D02*
X11652800Y6174200D01*
X11661187Y6182587D02*
X11661187Y9986913D01*
D35*
X17707498Y26888202D02*
X17707498Y26575102D01*
X15774098Y28821602D02*
X17707498Y26888202D01*
X19554599Y27575102D02*
X19554599Y28229102D01*
X19173197Y28610504D02*
X19173197Y31330701D01*
X19173197Y31330701D02*
X19890098Y32047602D01*
X19554599Y28229102D02*
X19173197Y28610504D01*
X20054598Y27422202D02*
X20054598Y30345602D01*
D37*
X8231729Y9708601D02*
X9019485Y8920845D01*
X3360000Y14284202D02*
X3360000Y18370000D01*
X2634800Y13081800D02*
X1998000Y12445000D01*
X3444799Y9708601D02*
X8231729Y9708601D01*
X10245101Y25575101D02*
X10724899Y25575101D01*
X1998000Y12445000D02*
X1998000Y11155400D01*
X3101800Y13081800D02*
X2634800Y13081800D01*
X17554598Y25575101D02*
X14053936Y25575101D01*
X3360000Y18370000D02*
X3360000Y18690000D01*
X10724899Y25575101D02*
X14053936Y25575101D01*
X3360000Y18690000D02*
X10245101Y25575101D01*
X9019485Y8920845D02*
X9019485Y8759211D01*
X1998000Y11155400D02*
X3444799Y9708601D01*
X13494495Y8734495D02*
X14090000Y9330000D01*
X13494495Y7124495D02*
X13494495Y8734495D01*
X14090000Y9330000D02*
X14090000Y10773000D01*
X12574810Y11038810D02*
X12574810Y22680314D01*
X17554598Y23575102D02*
X17300895Y23321399D01*
X12574810Y22680314D02*
X13215895Y23321399D01*
X12412000Y10876000D02*
X12412000Y6507200D01*
X12412000Y6507200D02*
X12285000Y6380200D01*
X13215895Y23321399D02*
X17300895Y23321399D01*
X21652800Y3314800D02*
X21652800Y7800622D01*
X9915103Y26075103D02*
X17554598Y26075103D01*
X1693190Y12571256D02*
X1693190Y10486480D01*
X3101800Y13581800D02*
X2703734Y13581800D01*
X1693190Y10486480D02*
X3138280Y9041390D01*
X2170000Y18330000D02*
X9915103Y26075103D01*
X21652800Y7800622D02*
X22095584Y8243406D01*
X3138280Y9041390D02*
X7930000Y9041390D01*
X2703734Y13581800D02*
X1693190Y12571256D01*
D35*
X18554598Y20959602D02*
X17552098Y19957102D01*
D36*
X14932977Y13427023D02*
X14520000Y13840000D01*
D33*
X14952977Y6486402D02*
X15002800Y6436579D01*
D38*
X5911800Y13831800D02*
X5911800Y14963300D01*
D35*
X10850000Y13150000D02*
X10850000Y12450500D01*
D33*
X18652800Y6372600D02*
X18660400Y6380200D01*
D36*
X14520000Y13840000D02*
X14520000Y14060000D01*
D33*
X18652800Y6489400D02*
X18317500Y6824700D01*
X18652800Y6372600D02*
X18652800Y6489400D01*
D36*
X10885500Y12415000D02*
X10885500Y14015500D01*
D33*
X18652800Y3314800D02*
X18652800Y6372600D01*
X17317758Y19957102D02*
X17514598Y19957102D01*
X14932977Y6892702D02*
X14952977Y6872703D01*
D37*
X10750000Y13150000D02*
X10850000Y13150000D01*
D33*
X14932977Y6892702D02*
X14932977Y13427023D01*
X14932977Y17572321D02*
X17317758Y19957102D01*
X14952977Y6872703D02*
X14952977Y6486402D01*
D36*
X5909700Y13833900D02*
X5911800Y13831800D01*
X14915000Y12415000D02*
X14932977Y12397023D01*
X5909700Y14965400D02*
X5909700Y13833900D01*
D33*
X14932977Y13427023D02*
X14932977Y17572321D01*
D38*
X5911800Y13581800D02*
X5911800Y13831800D01*
D35*
X18554598Y22728002D02*
X18554598Y20959602D01*
X10850000Y14051000D02*
X10850000Y13150000D01*
D37*
X8985500Y11765000D02*
X9272000Y11765000D01*
X10183889Y22963209D02*
X12295782Y25075102D01*
X10183889Y12676889D02*
X10183889Y22963209D01*
X9272000Y11765000D02*
X10183889Y12676889D01*
X12295782Y25075102D02*
X15104898Y25075102D01*
X12295782Y25075102D02*
X17554598Y25075102D01*
X9650994Y9339006D02*
X9650994Y8090994D01*
X4111091Y10059239D02*
X8930761Y10059239D01*
X19902007Y8872007D02*
X22397313Y8872007D01*
X8930761Y10059239D02*
X9650994Y9339006D01*
X3011800Y12581800D02*
X2711800Y12581800D01*
X22397313Y8872007D02*
X22724185Y8545135D01*
X18830000Y7800000D02*
X19902007Y8872007D01*
X2711800Y12581800D02*
X2472491Y12342492D01*
X22724185Y8545135D02*
X22724185Y3386185D01*
X2472491Y12342492D02*
X2472491Y11697839D01*
X2472491Y11697839D02*
X4111091Y10059239D01*
X5840000Y10920000D02*
X5840000Y12038200D01*
X15791399Y7248271D02*
X15791399Y9521399D01*
X15791399Y9521399D02*
X16250000Y9980000D01*
X16652800Y5289800D02*
X16652800Y6386870D01*
X16652800Y6386870D02*
X15791399Y7248271D01*
X15486588Y10506588D02*
X15820000Y10840000D01*
X6820000Y11959700D02*
X6820000Y10910000D01*
X6197900Y12581800D02*
X6820000Y11959700D01*
X15652800Y6955802D02*
X15486588Y7122015D01*
X15652800Y3314800D02*
X15652800Y6955802D01*
X6197900Y12581800D02*
X5796400Y12581800D01*
X15486588Y7122015D02*
X15486588Y10506588D01*
X12750000Y6980000D02*
X12750000Y9890000D01*
X12750000Y9890000D02*
X13189684Y10329684D01*
X13189684Y10329684D02*
X13189684Y21519684D01*
X13311700Y6418300D02*
X12750000Y6980000D01*
X14113800Y6418300D02*
X13311700Y6418300D01*
D32*
X17554598Y24075101D02*
X15035101Y24075101D01*
X14863598Y22007602D02*
X14863598Y22742789D01*
X15035101Y24075101D02*
X14910000Y23950000D01*
G04 #@! TA.AperFunction,Conductor*
G36*
X29240911Y29919200D02*
G01*
X29287404Y29865544D01*
X29298782Y29811802D01*
X29283718Y28455953D01*
X29276228Y27781872D01*
X29255471Y27713978D01*
X29201302Y27668084D01*
X29191976Y27664388D01*
X24614656Y26057924D01*
X24578763Y26050950D01*
X24020997Y26025128D01*
X23742743Y26012246D01*
X23700814Y26017394D01*
X23694273Y26019350D01*
X23694274Y26019350D01*
X23685670Y26021923D01*
X23676694Y26021978D01*
X23676693Y26021978D01*
X23616280Y26022347D01*
X23541668Y26022803D01*
X23533038Y26020337D01*
X23533034Y26020336D01*
X23472846Y26003134D01*
X23444049Y25998418D01*
X23163508Y25985429D01*
X23078006Y25981471D01*
X23073795Y25980696D01*
X23073793Y25980696D01*
X23046253Y25975629D01*
X23037459Y25974011D01*
X23033400Y25972676D01*
X23033386Y25972673D01*
X22997052Y25960728D01*
X22990312Y25958718D01*
X22986676Y25957744D01*
X22978484Y25956665D01*
X22970853Y25953504D01*
X22962874Y25951366D01*
X22962643Y25952230D01*
X22924300Y25944603D01*
X22288091Y25944603D01*
X22287854Y25944600D01*
X22287803Y25944600D01*
X22284894Y25944566D01*
X22284873Y25944566D01*
X22284561Y25944562D01*
X22284188Y25944553D01*
X22284168Y25944553D01*
X22279120Y25944436D01*
X22279111Y25944436D01*
X22278734Y25944427D01*
X22276075Y25944335D01*
X22275589Y25944318D01*
X22275578Y25944318D01*
X22275216Y25944305D01*
X22226169Y25942034D01*
X22194325Y25940560D01*
X22125352Y25957390D01*
X22076428Y26008838D01*
X22062498Y26066425D01*
X22062498Y26155602D01*
X22082500Y26223723D01*
X22136156Y26270216D01*
X22188498Y26281602D01*
X23102598Y26281602D01*
X23118119Y26291949D01*
X23118121Y26291950D01*
X25353003Y27781872D01*
X26379198Y28466002D01*
X26402463Y29815374D01*
X26423636Y29883140D01*
X26478085Y29928701D01*
X26528444Y29939202D01*
X29172790Y29939202D01*
X29240911Y29919200D01*
G37*
G04 #@! TD.AperFunction*
G04 #@! TA.AperFunction,Conductor*
G36*
X33711478Y24991600D02*
G01*
X33757971Y24937944D01*
X33769351Y24884369D01*
X33763100Y24246769D01*
X33746421Y22545567D01*
X33725752Y22477645D01*
X33671643Y22431681D01*
X33620427Y22420802D01*
X29956293Y22420802D01*
X29915253Y22427673D01*
X24634822Y24246769D01*
X24634821Y24246769D01*
X24626598Y24249602D01*
X24050231Y24281922D01*
X23045873Y24338241D01*
X23016621Y24344915D01*
X23015024Y24345982D01*
X22984721Y24352009D01*
X22960668Y24356794D01*
X22960665Y24356794D01*
X22954598Y24358001D01*
X22697006Y24358001D01*
X22689952Y24358199D01*
X22659442Y24359910D01*
X22181443Y24386714D01*
X22114550Y24410497D01*
X22071134Y24466672D01*
X22062498Y24512515D01*
X22062498Y24666202D01*
X22082500Y24734323D01*
X22136156Y24780816D01*
X22188498Y24792202D01*
X22954598Y24792202D01*
X22960665Y24793409D01*
X22960668Y24793409D01*
X23015024Y24804221D01*
X23015321Y24802727D01*
X23043853Y24808402D01*
X23077198Y24808402D01*
X23377025Y24992911D01*
X23443061Y25011602D01*
X33643357Y25011602D01*
X33711478Y24991600D01*
G37*
G04 #@! TD.AperFunction*
G04 #@! TA.AperFunction,Conductor*
G36*
X22650909Y24207749D02*
G01*
X22681419Y24206038D01*
X22681897Y24206018D01*
X22681915Y24206017D01*
X22683406Y24205954D01*
X22685676Y24205859D01*
X22692730Y24205661D01*
X22693680Y24205648D01*
X22696619Y24205606D01*
X22696674Y24205606D01*
X22697006Y24205601D01*
X22927180Y24205601D01*
X22951763Y24203179D01*
X22954986Y24202538D01*
X22954992Y24202537D01*
X22974264Y24198704D01*
X22981785Y24196736D01*
X22982721Y24196333D01*
X22993893Y24193784D01*
X23009377Y24190251D01*
X23009384Y24190250D01*
X23011973Y24189659D01*
X23037341Y24186080D01*
X23039982Y24185932D01*
X23039991Y24185931D01*
X23399676Y24165762D01*
X23430194Y24160228D01*
X23529394Y24129235D01*
X23605597Y24127839D01*
X23664403Y24126761D01*
X23664406Y24126761D01*
X23673375Y24126597D01*
X23682035Y24128958D01*
X23682036Y24128958D01*
X23726083Y24140966D01*
X23766277Y24145205D01*
X24041699Y24129761D01*
X24579499Y24099604D01*
X24613483Y24092931D01*
X29216726Y22507125D01*
X29274615Y22466027D01*
X29301096Y22400154D01*
X29301676Y22389397D01*
X29324182Y20363802D01*
X29304938Y20295463D01*
X29251802Y20248377D01*
X29198190Y20236402D01*
X26553844Y20236402D01*
X26485723Y20256404D01*
X26439230Y20310060D01*
X26427863Y20360230D01*
X26404910Y21691490D01*
X26404598Y21709602D01*
X26394227Y21716516D01*
X23143521Y23883654D01*
X23143519Y23883655D01*
X23127998Y23894002D01*
X22188498Y23894002D01*
X22120377Y23914004D01*
X22073884Y23967660D01*
X22062498Y24020002D01*
X22062498Y24107481D01*
X22082500Y24175602D01*
X22136156Y24222095D01*
X22195552Y24233283D01*
X22650909Y24207749D01*
G37*
G04 #@! TD.AperFunction*
G04 #@! TA.AperFunction,Conductor*
G36*
X22030370Y23071824D02*
G01*
X22073331Y23043669D01*
X23141893Y21975107D01*
X23175919Y21912795D01*
X23178798Y21886012D01*
X23178798Y20108402D01*
X23158796Y20040281D01*
X23105140Y19993788D01*
X23052798Y19982402D01*
X21374398Y19982402D01*
X21306277Y20002404D01*
X21259784Y20056060D01*
X21248398Y20108402D01*
X21248398Y21971829D01*
X21268400Y22039950D01*
X21282771Y22057784D01*
X21291251Y22063450D01*
X21298144Y22073766D01*
X21298146Y22073768D01*
X21318583Y22104354D01*
X21325480Y22114676D01*
X21337499Y22175102D01*
X21337499Y22941202D01*
X21357501Y23009323D01*
X21411157Y23055816D01*
X21463499Y23067202D01*
X21904598Y23067202D01*
X21910664Y23068408D01*
X21910669Y23068409D01*
X21959656Y23078153D01*
X22030370Y23071824D01*
G37*
G04 #@! TD.AperFunction*
G04 #@! TA.AperFunction,Conductor*
G36*
X35656547Y39143670D02*
G01*
X35656559Y39143771D01*
X35662700Y39143019D01*
X35668739Y39141668D01*
X35674918Y39141522D01*
X35674923Y39141521D01*
X35746694Y39139821D01*
X35756060Y39139249D01*
X35777220Y39137165D01*
X35789451Y39135351D01*
X35856176Y39122079D01*
X35898773Y39113606D01*
X35910746Y39110607D01*
X35919559Y39107934D01*
X35931185Y39103774D01*
X36034172Y39061115D01*
X36045339Y39055833D01*
X36053450Y39051498D01*
X36064042Y39045149D01*
X36156730Y38983217D01*
X36166641Y38975866D01*
X36173769Y38970017D01*
X36182925Y38961717D01*
X36261717Y38882925D01*
X36270022Y38873763D01*
X36275866Y38866642D01*
X36283218Y38856728D01*
X36345149Y38764041D01*
X36351493Y38753458D01*
X36355827Y38745351D01*
X36361109Y38734186D01*
X36403778Y38631175D01*
X36407933Y38619563D01*
X36410607Y38610746D01*
X36413608Y38598764D01*
X36435351Y38489453D01*
X36437165Y38477221D01*
X36439250Y38456050D01*
X36439822Y38446684D01*
X36441668Y38368739D01*
X36443019Y38362698D01*
X36443771Y38356558D01*
X36443670Y38356546D01*
X36446000Y38335453D01*
X36446000Y5126000D01*
X36425998Y5057879D01*
X36372342Y5011386D01*
X36320000Y5000000D01*
X31180000Y5000000D01*
X31111879Y5020002D01*
X31065386Y5073658D01*
X31054000Y5126000D01*
X31054000Y6838431D01*
X31055874Y6860082D01*
X31058460Y6874909D01*
X31059523Y6881002D01*
X31059377Y6887187D01*
X31056635Y7002926D01*
X31056600Y7005910D01*
X31056600Y7024138D01*
X31056069Y7026806D01*
X31056005Y7029523D01*
X31054706Y7035330D01*
X31054704Y7035345D01*
X31052024Y7047328D01*
X31051408Y7050242D01*
X31038435Y7115463D01*
X31008453Y7266191D01*
X31008310Y7266537D01*
X31008237Y7266902D01*
X30913791Y7494913D01*
X30913585Y7495221D01*
X30913442Y7495567D01*
X30905035Y7508149D01*
X30779768Y7695626D01*
X30779765Y7695630D01*
X30776329Y7700772D01*
X30776064Y7701037D01*
X30775857Y7701347D01*
X30601347Y7875857D01*
X30601037Y7876064D01*
X30600772Y7876329D01*
X30595630Y7879765D01*
X30595626Y7879768D01*
X30400734Y8009990D01*
X30400731Y8009992D01*
X30395567Y8013442D01*
X30395221Y8013585D01*
X30394913Y8013791D01*
X30166903Y8108237D01*
X30166536Y8108310D01*
X30166191Y8108453D01*
X30160126Y8109659D01*
X30160124Y8109660D01*
X30049528Y8131658D01*
X29950234Y8151409D01*
X29947380Y8152011D01*
X29929523Y8156005D01*
X29926805Y8156069D01*
X29924137Y8156600D01*
X29905902Y8156600D01*
X29902919Y8156635D01*
X29787187Y8159376D01*
X29787183Y8159376D01*
X29781003Y8159522D01*
X29774909Y8158459D01*
X29774907Y8158459D01*
X29760087Y8155874D01*
X29738438Y8154000D01*
X29361569Y8154000D01*
X29339918Y8155874D01*
X29338800Y8156069D01*
X29318998Y8159523D01*
X29312820Y8159377D01*
X29312815Y8159377D01*
X29197074Y8156635D01*
X29194090Y8156600D01*
X29175862Y8156600D01*
X29173194Y8156069D01*
X29170477Y8156005D01*
X29164670Y8154706D01*
X29164655Y8154704D01*
X29152672Y8152024D01*
X29149758Y8151408D01*
X28933809Y8108453D01*
X28933463Y8108310D01*
X28933098Y8108237D01*
X28705087Y8013791D01*
X28704779Y8013585D01*
X28704433Y8013442D01*
X28699266Y8009990D01*
X28699265Y8009989D01*
X28504374Y7879768D01*
X28504370Y7879765D01*
X28499228Y7876329D01*
X28498963Y7876064D01*
X28498653Y7875857D01*
X28324143Y7701347D01*
X28323936Y7701037D01*
X28323671Y7700772D01*
X28320235Y7695630D01*
X28320232Y7695626D01*
X28192564Y7504556D01*
X28186558Y7495567D01*
X28186415Y7495221D01*
X28186209Y7494913D01*
X28091763Y7266903D01*
X28091690Y7266536D01*
X28091547Y7266191D01*
X28088306Y7249894D01*
X28048595Y7050251D01*
X28047989Y7047380D01*
X28043995Y7029523D01*
X28043931Y7026805D01*
X28043400Y7024137D01*
X28043400Y7005902D01*
X28043365Y7002926D01*
X28040478Y6881003D01*
X28041541Y6874909D01*
X28041541Y6874907D01*
X28044126Y6860087D01*
X28046000Y6838438D01*
X28046000Y5126000D01*
X28025998Y5057879D01*
X27972342Y5011386D01*
X27920000Y5000000D01*
X23363300Y5000000D01*
X23295179Y5020002D01*
X23248686Y5073658D01*
X23237300Y5126000D01*
X23237300Y5614800D01*
X23217547Y5714106D01*
X23161294Y5798294D01*
X23150978Y5805187D01*
X23150977Y5805188D01*
X23118069Y5827177D01*
X23072542Y5881654D01*
X23062072Y5932221D01*
X23069960Y9481883D01*
X23069960Y9481884D01*
X23070000Y9500000D01*
X20663178Y9500000D01*
X20595057Y9520002D01*
X20548564Y9573658D01*
X20537178Y9626000D01*
X20537191Y14389717D01*
X20537198Y17315402D01*
X20537460Y17549880D01*
X20541974Y21583050D01*
X20562052Y21651148D01*
X20578879Y21672004D01*
X20775146Y21868271D01*
X20783252Y21875699D01*
X20787409Y21879187D01*
X20852450Y21907651D01*
X20922554Y21896432D01*
X20975465Y21849092D01*
X20994398Y21782664D01*
X20994398Y20108402D01*
X20994758Y20105055D01*
X20994758Y20105051D01*
X20999787Y20058276D01*
X21000202Y20054412D01*
X21011588Y20002070D01*
X21018782Y19975847D01*
X21022682Y19968999D01*
X21064760Y19895104D01*
X21064763Y19895100D01*
X21067823Y19889726D01*
X21114316Y19836070D01*
X21146900Y19804629D01*
X21234717Y19758693D01*
X21302838Y19738691D01*
X21307297Y19738050D01*
X21307301Y19738049D01*
X21329037Y19734924D01*
X21374398Y19728402D01*
X23052798Y19728402D01*
X23056145Y19728762D01*
X23056149Y19728762D01*
X23103424Y19733844D01*
X23103431Y19733845D01*
X23106788Y19734206D01*
X23110089Y19734924D01*
X23157476Y19745232D01*
X23157483Y19745234D01*
X23159130Y19745592D01*
X23185353Y19752786D01*
X23192197Y19756684D01*
X23192201Y19756685D01*
X23223748Y19774650D01*
X23292842Y19790977D01*
X23359794Y19767358D01*
X23403349Y19711291D01*
X23412098Y19665158D01*
X23412098Y19636602D01*
X23431851Y19537296D01*
X23438746Y19526977D01*
X23461863Y19492380D01*
X23483098Y19422378D01*
X23483098Y18788032D01*
X23463096Y18719911D01*
X23457072Y18711343D01*
X23438356Y18686952D01*
X23377466Y18539952D01*
X23376389Y18531768D01*
X23376388Y18531766D01*
X23360085Y18407932D01*
X23356698Y18382202D01*
X23357776Y18374014D01*
X23368471Y18292780D01*
X23377466Y18224452D01*
X23438356Y18077452D01*
X23535216Y17951220D01*
X23661448Y17854360D01*
X23808448Y17793470D01*
X23816632Y17792393D01*
X23816634Y17792392D01*
X23958010Y17773780D01*
X23966198Y17772702D01*
X23974386Y17773780D01*
X24115762Y17792392D01*
X24115764Y17792393D01*
X24123948Y17793470D01*
X24270948Y17854360D01*
X24397180Y17951220D01*
X24494040Y18077452D01*
X24554930Y18224452D01*
X24563926Y18292780D01*
X24574620Y18374014D01*
X24575698Y18382202D01*
X24554930Y18539952D01*
X24509688Y18649174D01*
X24500098Y18697390D01*
X24500098Y19422378D01*
X24521333Y19492380D01*
X24544450Y19526977D01*
X24551345Y19537296D01*
X24571098Y19636602D01*
X24571098Y20226602D01*
X24551345Y20325908D01*
X24495092Y20410096D01*
X24410904Y20466349D01*
X24311598Y20486102D01*
X23671598Y20486102D01*
X23583378Y20468554D01*
X23512666Y20474882D01*
X23456598Y20518436D01*
X23432798Y20592133D01*
X23432798Y21886012D01*
X23431343Y21913159D01*
X23431081Y21915602D01*
X23429126Y21933782D01*
X23428464Y21939942D01*
X23398848Y22034527D01*
X23364822Y22096839D01*
X23327421Y22146800D01*
X23324195Y22151110D01*
X23324191Y22151114D01*
X23321498Y22154712D01*
X22252936Y23223274D01*
X22250440Y23225304D01*
X22250431Y23225312D01*
X22212558Y23256112D01*
X22213195Y23256895D01*
X22172547Y23309937D01*
X22164098Y23355299D01*
X22164098Y23514002D01*
X22184100Y23582123D01*
X22237756Y23628616D01*
X22290098Y23640002D01*
X23012944Y23640002D01*
X23082836Y23618840D01*
X26097980Y21608744D01*
X26143565Y21554315D01*
X26154069Y21506078D01*
X26173638Y20371124D01*
X26173901Y20355851D01*
X26174289Y20352638D01*
X26174289Y20352631D01*
X26176268Y20336227D01*
X26180142Y20304104D01*
X26180860Y20300936D01*
X26180861Y20300929D01*
X26182215Y20294954D01*
X26191509Y20253934D01*
X26198228Y20229847D01*
X26202060Y20223117D01*
X26202062Y20223113D01*
X26244206Y20149104D01*
X26244209Y20149100D01*
X26247269Y20143726D01*
X26251322Y20139049D01*
X26255946Y20133712D01*
X26285446Y20069067D01*
X26286992Y20058276D01*
X26288377Y20048602D01*
X26348169Y19917098D01*
X26442465Y19807661D01*
X26563687Y19729089D01*
X26639892Y19706299D01*
X26695548Y19689654D01*
X26695550Y19689654D01*
X26702089Y19687698D01*
X26710110Y19687102D01*
X28962312Y19687102D01*
X29004801Y19693187D01*
X29061505Y19701307D01*
X29061508Y19701308D01*
X29070398Y19702581D01*
X29078574Y19706298D01*
X29078576Y19706299D01*
X29128699Y19729089D01*
X29201902Y19762373D01*
X29311339Y19856669D01*
X29389911Y19977891D01*
X29401392Y20016281D01*
X29438544Y20074480D01*
X29471289Y20103496D01*
X29471297Y20103504D01*
X29473394Y20105362D01*
X29504472Y20138293D01*
X29549429Y20226615D01*
X29568673Y20294954D01*
X29578166Y20366624D01*
X29558865Y22103727D01*
X29578109Y22172066D01*
X29631245Y22219152D01*
X29701402Y22230036D01*
X29725897Y22224256D01*
X29830051Y22188375D01*
X29830056Y22188373D01*
X29832522Y22187524D01*
X29873312Y22177160D01*
X29893832Y22173725D01*
X29911775Y22170720D01*
X29911786Y22170719D01*
X29914352Y22170289D01*
X29916947Y22170073D01*
X29916949Y22170073D01*
X29923079Y22169563D01*
X29956293Y22166802D01*
X31496075Y22166802D01*
X31564196Y22146800D01*
X31610689Y22093144D01*
X31620793Y22022870D01*
X31595024Y21962795D01*
X31588185Y21954120D01*
X31585496Y21949009D01*
X31585494Y21949006D01*
X31545067Y21872167D01*
X31490322Y21768114D01*
X31427995Y21567389D01*
X31403292Y21358666D01*
X31417038Y21148937D01*
X31468774Y20945225D01*
X31556768Y20754352D01*
X31560101Y20749636D01*
X31587995Y20710167D01*
X31611098Y20637447D01*
X31611098Y18711177D01*
X31591096Y18643056D01*
X31544252Y18603906D01*
X31545292Y18602349D01*
X31461104Y18546096D01*
X31404851Y18461908D01*
X31385098Y18362602D01*
X31385098Y17487602D01*
X31386305Y17481534D01*
X31401512Y17405081D01*
X31395184Y17334367D01*
X31351629Y17278300D01*
X31277933Y17254500D01*
X31140078Y17254500D01*
X31071957Y17274502D01*
X31026686Y17326747D01*
X31026484Y17326646D01*
X31026087Y17327439D01*
X31025464Y17328158D01*
X31024291Y17331025D01*
X31023205Y17333193D01*
X31020708Y17340073D01*
X30924260Y17487181D01*
X30796556Y17608155D01*
X30644448Y17696507D01*
X30637446Y17698628D01*
X30637443Y17698629D01*
X30547952Y17725733D01*
X30476094Y17747497D01*
X30468785Y17747950D01*
X30468782Y17747951D01*
X30394441Y17752563D01*
X30300525Y17758389D01*
X30293310Y17757149D01*
X30293307Y17757149D01*
X30134376Y17729839D01*
X30127160Y17728599D01*
X29965297Y17659726D01*
X29959409Y17655393D01*
X29959404Y17655390D01*
X29829519Y17559805D01*
X29829515Y17559801D01*
X29823620Y17555463D01*
X29709729Y17421404D01*
X29692823Y17388296D01*
X29670115Y17343825D01*
X29621321Y17292252D01*
X29552392Y17275246D01*
X29485210Y17298206D01*
X29441106Y17353842D01*
X29431898Y17401126D01*
X29431898Y18176516D01*
X29416419Y18284602D01*
X29356627Y18416106D01*
X29262331Y18525543D01*
X29141109Y18604115D01*
X29023392Y18639320D01*
X29009248Y18643550D01*
X29009246Y18643550D01*
X29002707Y18645506D01*
X28994686Y18646102D01*
X28798547Y18646102D01*
X28730426Y18666104D01*
X28710862Y18681618D01*
X28702657Y18689570D01*
X28645027Y18745417D01*
X28581609Y18788032D01*
X28463827Y18867179D01*
X28463824Y18867181D01*
X28459167Y18870310D01*
X28254127Y18960316D01*
X28036390Y19012591D01*
X27950243Y19017558D01*
X27818443Y19025158D01*
X27818440Y19025158D01*
X27812836Y19025481D01*
X27590533Y18998579D01*
X27376508Y18932736D01*
X27371528Y18930166D01*
X27371524Y18930164D01*
X27259928Y18872565D01*
X27177524Y18830033D01*
X26999873Y18693716D01*
X26994039Y18687304D01*
X26992849Y18686580D01*
X26991965Y18685767D01*
X26991803Y18685943D01*
X26933400Y18650381D01*
X26900844Y18646102D01*
X26742484Y18646102D01*
X26699995Y18640017D01*
X26643291Y18631897D01*
X26643288Y18631896D01*
X26634398Y18630623D01*
X26626222Y18626906D01*
X26626220Y18626905D01*
X26601003Y18615439D01*
X26502894Y18570831D01*
X26393457Y18476535D01*
X26314885Y18355313D01*
X26273494Y18216911D01*
X26272898Y18208890D01*
X26272898Y17356688D01*
X26276095Y17334367D01*
X26286066Y17264740D01*
X26288377Y17248602D01*
X26348169Y17117098D01*
X26442465Y17007661D01*
X26449999Y17002778D01*
X26540430Y16944163D01*
X26586714Y16890327D01*
X26597898Y16838431D01*
X26597898Y16826282D01*
X26576663Y16756280D01*
X26535253Y16694306D01*
X26532832Y16682134D01*
X26526589Y16650749D01*
X26492105Y16586236D01*
X26473320Y16567451D01*
X26471525Y16565304D01*
X26369362Y16443119D01*
X26369359Y16443115D01*
X26365763Y16438814D01*
X26254817Y16244306D01*
X26180069Y16033225D01*
X26179162Y16027689D01*
X26179162Y16027687D01*
X26146049Y15825468D01*
X26143883Y15812243D01*
X26143971Y15806629D01*
X26143971Y15806627D01*
X26145027Y15739424D01*
X26147400Y15588347D01*
X26148480Y15582842D01*
X26185680Y15393231D01*
X26190510Y15368611D01*
X26271851Y15159982D01*
X26388851Y14969055D01*
X26392587Y14964862D01*
X26392589Y14964859D01*
X26497320Y14847312D01*
X26526823Y14788075D01*
X26535253Y14745694D01*
X26591506Y14661506D01*
X26675694Y14605253D01*
X26775000Y14585500D01*
X26830413Y14585500D01*
X26889371Y14570855D01*
X26905614Y14562255D01*
X26911924Y14558914D01*
X27065823Y14509798D01*
X27100345Y14498781D01*
X27125249Y14490833D01*
X27347258Y14461605D01*
X27352858Y14461869D01*
X27352859Y14461869D01*
X27442818Y14466111D01*
X27570933Y14472153D01*
X27789207Y14522144D01*
X27794365Y14524344D01*
X27794374Y14524347D01*
X27796462Y14525238D01*
X27797489Y14525359D01*
X27799707Y14526080D01*
X27799850Y14525638D01*
X27866968Y14533568D01*
X27930785Y14502457D01*
X27943188Y14489409D01*
X27973361Y14452741D01*
X27979188Y14448310D01*
X27979189Y14448309D01*
X28107558Y14350695D01*
X28107561Y14350694D01*
X28113383Y14346266D01*
X28120064Y14343299D01*
X28120068Y14343296D01*
X28267457Y14277829D01*
X28267459Y14277828D01*
X28274144Y14274859D01*
X28447020Y14242350D01*
X28454328Y14242688D01*
X28454331Y14242688D01*
X28615423Y14250144D01*
X28615427Y14250145D01*
X28622738Y14250483D01*
X28629776Y14252495D01*
X28629779Y14252495D01*
X28784834Y14296810D01*
X28784838Y14296812D01*
X28791872Y14298822D01*
X28945350Y14384773D01*
X29025554Y14458395D01*
X29069550Y14498781D01*
X29069551Y14498782D01*
X29074938Y14503727D01*
X29173685Y14649302D01*
X29176290Y14656142D01*
X29176292Y14656145D01*
X29179416Y14664348D01*
X29222355Y14720888D01*
X29289045Y14745238D01*
X29297164Y14745500D01*
X30206038Y14745500D01*
X30274159Y14725498D01*
X30319141Y14675031D01*
X30361590Y14588573D01*
X30366242Y14582920D01*
X30366243Y14582918D01*
X30468708Y14458395D01*
X30468711Y14458393D01*
X30473361Y14452741D01*
X30479188Y14448310D01*
X30479189Y14448309D01*
X30607558Y14350695D01*
X30607561Y14350694D01*
X30613383Y14346266D01*
X30620064Y14343299D01*
X30620068Y14343296D01*
X30767457Y14277829D01*
X30767459Y14277828D01*
X30774144Y14274859D01*
X30947020Y14242350D01*
X30954328Y14242688D01*
X30954331Y14242688D01*
X31115423Y14250144D01*
X31115427Y14250145D01*
X31122738Y14250483D01*
X31129776Y14252495D01*
X31129779Y14252495D01*
X31284834Y14296810D01*
X31284838Y14296812D01*
X31291872Y14298822D01*
X31445350Y14384773D01*
X31525554Y14458395D01*
X31569550Y14498781D01*
X31569551Y14498782D01*
X31574938Y14503727D01*
X31673685Y14649302D01*
X31676290Y14656142D01*
X31676292Y14656145D01*
X31679416Y14664348D01*
X31722355Y14720888D01*
X31789045Y14745238D01*
X31797164Y14745500D01*
X32206038Y14745500D01*
X32274159Y14725498D01*
X32319141Y14675031D01*
X32361590Y14588573D01*
X32366242Y14582920D01*
X32366243Y14582918D01*
X32468708Y14458395D01*
X32468711Y14458393D01*
X32473361Y14452741D01*
X32479188Y14448310D01*
X32479189Y14448309D01*
X32607558Y14350695D01*
X32607561Y14350694D01*
X32613383Y14346266D01*
X32620064Y14343299D01*
X32620068Y14343296D01*
X32767457Y14277829D01*
X32767459Y14277828D01*
X32774144Y14274859D01*
X32947020Y14242350D01*
X32954328Y14242688D01*
X32954331Y14242688D01*
X33115423Y14250144D01*
X33115427Y14250145D01*
X33122738Y14250483D01*
X33129776Y14252495D01*
X33129779Y14252495D01*
X33284834Y14296810D01*
X33284838Y14296812D01*
X33291872Y14298822D01*
X33445350Y14384773D01*
X33525554Y14458395D01*
X33569550Y14498781D01*
X33569551Y14498782D01*
X33574938Y14503727D01*
X33673685Y14649302D01*
X33736294Y14813689D01*
X33754127Y14948242D01*
X33782906Y15013143D01*
X33805507Y15034007D01*
X33822983Y15046565D01*
X33978815Y15207371D01*
X34087164Y15368611D01*
X34100577Y15388571D01*
X34100579Y15388574D01*
X34103708Y15393231D01*
X34193714Y15598271D01*
X34198907Y15619901D01*
X34234259Y15681471D01*
X34251425Y15695253D01*
X34291774Y15722213D01*
X34291776Y15722215D01*
X34302092Y15729108D01*
X34358345Y15813296D01*
X34378098Y15912602D01*
X34378098Y16787602D01*
X34358345Y16886908D01*
X34302092Y16971096D01*
X34247369Y17007661D01*
X34228225Y17020453D01*
X34228224Y17020454D01*
X34217904Y17027349D01*
X34218217Y17027818D01*
X34171158Y17065742D01*
X34148737Y17133105D01*
X34166296Y17201897D01*
X34215049Y17247287D01*
X34217904Y17247855D01*
X34232332Y17257495D01*
X34291776Y17297215D01*
X34302092Y17304108D01*
X34358345Y17388296D01*
X34378098Y17487602D01*
X34378098Y18362602D01*
X34358345Y18461908D01*
X34360407Y18462318D01*
X34355299Y18487998D01*
X34355299Y22503155D01*
X34356541Y22514268D01*
X34355944Y22514316D01*
X34356664Y22523264D01*
X34358645Y22532019D01*
X34355541Y22582053D01*
X34355299Y22589855D01*
X34355299Y22608114D01*
X34353590Y22620051D01*
X34352561Y22630101D01*
X34350186Y22668374D01*
X34350186Y22668375D01*
X34349630Y22677333D01*
X34346581Y22685778D01*
X34345982Y22688672D01*
X34341761Y22705600D01*
X34340932Y22708435D01*
X34339659Y22717323D01*
X34320059Y22760432D01*
X34316260Y22769767D01*
X34303241Y22805828D01*
X34300192Y22814274D01*
X34294896Y22821523D01*
X34293497Y22824154D01*
X34284712Y22839188D01*
X34283114Y22841688D01*
X34279398Y22849860D01*
X34248503Y22885716D01*
X34242217Y22893633D01*
X34236207Y22901860D01*
X34236206Y22901861D01*
X34233332Y22905795D01*
X34221243Y22917884D01*
X34214885Y22924731D01*
X34190222Y22953354D01*
X34184361Y22960156D01*
X34176827Y22965040D01*
X34170064Y22970939D01*
X34170123Y22971006D01*
X34159635Y22979492D01*
X34043610Y23095517D01*
X34009584Y23157829D01*
X34006711Y23185847D01*
X34017088Y24244279D01*
X34023305Y24878425D01*
X34023339Y24881879D01*
X34017808Y24937144D01*
X34006428Y24990719D01*
X33998973Y25018157D01*
X33979147Y25052974D01*
X33962820Y25122066D01*
X33969659Y25153576D01*
X33969019Y25153757D01*
X33987124Y25217732D01*
X33988352Y25222070D01*
X33997939Y25293727D01*
X33993029Y25794558D01*
X33985789Y26532979D01*
X33980571Y27065216D01*
X33999904Y27133529D01*
X34017470Y27155546D01*
X34156830Y27294906D01*
X34165569Y27301889D01*
X34165181Y27302345D01*
X34172017Y27308163D01*
X34179609Y27312953D01*
X34212801Y27350536D01*
X34218147Y27356223D01*
X34231050Y27369126D01*
X34238283Y27378777D01*
X34244661Y27386611D01*
X34270044Y27415351D01*
X34270046Y27415355D01*
X34275986Y27422080D01*
X34279802Y27430208D01*
X34281431Y27432688D01*
X34290401Y27447616D01*
X34291829Y27450224D01*
X34297213Y27457408D01*
X34313828Y27501730D01*
X34317747Y27511029D01*
X34334047Y27545745D01*
X34334048Y27545749D01*
X34337861Y27553870D01*
X34339241Y27562733D01*
X34340108Y27565569D01*
X34344530Y27582424D01*
X34345169Y27585333D01*
X34348320Y27593737D01*
X34351827Y27640921D01*
X34352979Y27650962D01*
X34355299Y27665862D01*
X34355299Y27682979D01*
X34355646Y27692317D01*
X34358445Y27729975D01*
X34358445Y27729978D01*
X34359110Y27738929D01*
X34357236Y27747709D01*
X34356625Y27756664D01*
X34356714Y27756670D01*
X34355299Y27770078D01*
X34355299Y31133349D01*
X34356541Y31144466D01*
X34355945Y31144514D01*
X34356665Y31153465D01*
X34358646Y31162219D01*
X34355541Y31212263D01*
X34355299Y31220066D01*
X34355299Y31238314D01*
X34353590Y31250244D01*
X34352561Y31260295D01*
X34350186Y31298574D01*
X34350186Y31298575D01*
X34349630Y31307532D01*
X34346582Y31315976D01*
X34345983Y31318867D01*
X34341763Y31335792D01*
X34340932Y31338632D01*
X34339659Y31347523D01*
X34320069Y31390607D01*
X34316263Y31399959D01*
X34314843Y31403894D01*
X34300193Y31444474D01*
X34294896Y31451724D01*
X34293502Y31454347D01*
X34284712Y31469388D01*
X34283115Y31471886D01*
X34279398Y31480060D01*
X34264983Y31496790D01*
X34248513Y31515904D01*
X34242230Y31523817D01*
X34237616Y31530132D01*
X34213578Y31596936D01*
X34229473Y31666130D01*
X34269351Y31709231D01*
X34291776Y31724215D01*
X34302092Y31731108D01*
X34358345Y31815296D01*
X34378098Y31914602D01*
X34378098Y32789602D01*
X34358345Y32888908D01*
X34302092Y32973096D01*
X34263929Y32998596D01*
X34228225Y33022453D01*
X34228224Y33022454D01*
X34217904Y33029349D01*
X34218217Y33029818D01*
X34171158Y33067742D01*
X34148737Y33135105D01*
X34166296Y33203897D01*
X34215049Y33249287D01*
X34217904Y33249855D01*
X34262590Y33279713D01*
X34291776Y33299215D01*
X34302092Y33306108D01*
X34358345Y33390296D01*
X34378098Y33489602D01*
X34378098Y33552404D01*
X34398100Y33620525D01*
X34413614Y33640089D01*
X34474907Y33703338D01*
X34474908Y33703340D01*
X34478815Y33707371D01*
X34507164Y33749559D01*
X34600577Y33888571D01*
X34600579Y33888574D01*
X34603708Y33893231D01*
X34693714Y34098271D01*
X34745989Y34316008D01*
X34758879Y34539562D01*
X34731977Y34761865D01*
X34666134Y34975890D01*
X34660593Y34986627D01*
X34566002Y35169893D01*
X34566001Y35169894D01*
X34563431Y35174874D01*
X34427114Y35352525D01*
X34422969Y35356296D01*
X34422966Y35356300D01*
X34293732Y35473894D01*
X34256810Y35534534D01*
X34253380Y35552495D01*
X34239977Y35667450D01*
X34239129Y35674723D01*
X34210171Y35754500D01*
X34181607Y35833194D01*
X34179110Y35840073D01*
X34082662Y35987181D01*
X33954958Y36108155D01*
X33802850Y36196507D01*
X33795848Y36198628D01*
X33795845Y36198629D01*
X33706354Y36225733D01*
X33634496Y36247497D01*
X33627187Y36247950D01*
X33627184Y36247951D01*
X33552843Y36252563D01*
X33458927Y36258389D01*
X33451712Y36257149D01*
X33451709Y36257149D01*
X33293127Y36229899D01*
X33285562Y36228599D01*
X33123699Y36159726D01*
X33117811Y36155393D01*
X33117806Y36155390D01*
X32987921Y36059805D01*
X32987917Y36059801D01*
X32982022Y36055463D01*
X32868131Y35921404D01*
X32837866Y35862134D01*
X32817985Y35823199D01*
X32769192Y35771626D01*
X32705768Y35754500D01*
X32298480Y35754500D01*
X32230359Y35774502D01*
X32185088Y35826747D01*
X32184886Y35826646D01*
X32184489Y35827439D01*
X32183866Y35828158D01*
X32182693Y35831025D01*
X32181607Y35833194D01*
X32179110Y35840073D01*
X32082662Y35987181D01*
X31954958Y36108155D01*
X31802850Y36196507D01*
X31795848Y36198628D01*
X31795845Y36198629D01*
X31706354Y36225733D01*
X31634496Y36247497D01*
X31627187Y36247950D01*
X31627184Y36247951D01*
X31552843Y36252563D01*
X31458927Y36258389D01*
X31451712Y36257149D01*
X31451709Y36257149D01*
X31293127Y36229899D01*
X31285562Y36228599D01*
X31123699Y36159726D01*
X31117811Y36155393D01*
X31117806Y36155390D01*
X30987921Y36059805D01*
X30987917Y36059801D01*
X30982022Y36055463D01*
X30868131Y35921404D01*
X30837866Y35862134D01*
X30817985Y35823199D01*
X30769192Y35771626D01*
X30705768Y35754500D01*
X30298480Y35754500D01*
X30230359Y35774502D01*
X30185088Y35826747D01*
X30184886Y35826646D01*
X30184489Y35827439D01*
X30183866Y35828158D01*
X30182693Y35831025D01*
X30181607Y35833194D01*
X30179110Y35840073D01*
X30082662Y35987181D01*
X29954958Y36108155D01*
X29802850Y36196507D01*
X29795848Y36198628D01*
X29795845Y36198629D01*
X29706354Y36225733D01*
X29634496Y36247497D01*
X29627187Y36247950D01*
X29627184Y36247951D01*
X29552843Y36252563D01*
X29458927Y36258389D01*
X29451712Y36257149D01*
X29451709Y36257149D01*
X29293127Y36229899D01*
X29285562Y36228599D01*
X29123699Y36159726D01*
X29117811Y36155393D01*
X29117806Y36155390D01*
X28987921Y36059805D01*
X28987917Y36059801D01*
X28982022Y36055463D01*
X28977281Y36049882D01*
X28972482Y36045407D01*
X28909020Y36013578D01*
X28838424Y36021111D01*
X28808807Y36038402D01*
X28785973Y36056306D01*
X28781022Y36058927D01*
X28781018Y36058930D01*
X28593038Y36158459D01*
X28593036Y36158460D01*
X28588076Y36161086D01*
X28582725Y36162794D01*
X28582722Y36162795D01*
X28380097Y36227461D01*
X28380096Y36227461D01*
X28374751Y36229167D01*
X28152742Y36258395D01*
X28147142Y36258131D01*
X28147141Y36258131D01*
X28057182Y36253889D01*
X27929067Y36247847D01*
X27710793Y36197856D01*
X27705635Y36195656D01*
X27705632Y36195655D01*
X27509977Y36112201D01*
X27504822Y36110002D01*
X27500139Y36106926D01*
X27500130Y36106921D01*
X27416863Y36052224D01*
X27372269Y36033957D01*
X27275694Y36014747D01*
X27191506Y35958494D01*
X27135253Y35874306D01*
X27132832Y35862134D01*
X27126589Y35830749D01*
X27092105Y35766236D01*
X27073320Y35747451D01*
X27071525Y35745304D01*
X26969362Y35623119D01*
X26969359Y35623115D01*
X26965763Y35618814D01*
X26854817Y35424306D01*
X26780069Y35213225D01*
X26743883Y34992243D01*
X26743971Y34986629D01*
X26743971Y34986627D01*
X26744140Y34975890D01*
X26747400Y34768347D01*
X26790510Y34548611D01*
X26871851Y34339982D01*
X26874779Y34335203D01*
X26874782Y34335198D01*
X26951555Y34209916D01*
X26970094Y34141383D01*
X26948638Y34073706D01*
X26937316Y34059281D01*
X26920817Y34041149D01*
X26916719Y34036854D01*
X26900318Y34020453D01*
X26898515Y34018296D01*
X26883129Y33999894D01*
X26879662Y33995920D01*
X26823769Y33934495D01*
X26820785Y33929738D01*
X26820781Y33929733D01*
X26814281Y33919372D01*
X26804209Y33905509D01*
X26796361Y33896123D01*
X26796355Y33896115D01*
X26792761Y33891816D01*
X26789981Y33886942D01*
X26751616Y33819682D01*
X26748906Y33815154D01*
X26704775Y33744803D01*
X26698117Y33728240D01*
X26690661Y33712817D01*
X26684592Y33702178D01*
X26684589Y33702171D01*
X26681815Y33697308D01*
X26679945Y33692027D01*
X26679944Y33692025D01*
X26654094Y33619028D01*
X26652229Y33614092D01*
X26633766Y33568162D01*
X26621254Y33537038D01*
X26620117Y33531547D01*
X26617635Y33519562D01*
X26613026Y33503055D01*
X26607067Y33486227D01*
X26606161Y33480696D01*
X26606160Y33480691D01*
X26597519Y33427919D01*
X26566772Y33363926D01*
X26525329Y33333581D01*
X26477494Y33311831D01*
X26368057Y33217535D01*
X26289485Y33096313D01*
X26248094Y32957911D01*
X26247498Y32949890D01*
X26247498Y32097688D01*
X26252134Y32065314D01*
X26258681Y32019603D01*
X26262977Y31989602D01*
X26322769Y31858098D01*
X26417065Y31748661D01*
X26538287Y31670089D01*
X26614492Y31647299D01*
X26670148Y31630654D01*
X26670150Y31630654D01*
X26676689Y31628698D01*
X26684710Y31628102D01*
X26880849Y31628102D01*
X26948970Y31608100D01*
X26968532Y31592588D01*
X27034369Y31528787D01*
X27039034Y31525653D01*
X27039033Y31525653D01*
X27215569Y31407025D01*
X27215572Y31407023D01*
X27220229Y31403894D01*
X27425269Y31313888D01*
X27520040Y31291135D01*
X27590533Y31274211D01*
X27643006Y31261613D01*
X27729153Y31256646D01*
X27860953Y31249046D01*
X27860956Y31249046D01*
X27866560Y31248723D01*
X28088863Y31275625D01*
X28302888Y31341468D01*
X28307868Y31344038D01*
X28307872Y31344040D01*
X28496891Y31441600D01*
X28496892Y31441601D01*
X28501872Y31444171D01*
X28679523Y31580488D01*
X28685357Y31586900D01*
X28686547Y31587624D01*
X28687431Y31588437D01*
X28687593Y31588261D01*
X28745996Y31623823D01*
X28778552Y31628102D01*
X28936912Y31628102D01*
X28979401Y31634187D01*
X29036105Y31642307D01*
X29036108Y31642308D01*
X29044998Y31643581D01*
X29053174Y31647298D01*
X29053176Y31647299D01*
X29103299Y31670089D01*
X29176502Y31703373D01*
X29285939Y31797669D01*
X29364511Y31918891D01*
X29405902Y32057293D01*
X29406498Y32065314D01*
X29406498Y32917516D01*
X29406470Y32917711D01*
X29421353Y32986025D01*
X29442827Y33014700D01*
X29636722Y33208595D01*
X29699034Y33242621D01*
X29725817Y33245500D01*
X29918523Y33245500D01*
X29932519Y33244195D01*
X29932520Y33244213D01*
X29939831Y33243702D01*
X29947020Y33242350D01*
X29954328Y33242688D01*
X29954331Y33242688D01*
X30012161Y33245365D01*
X30017987Y33245500D01*
X31288256Y33245500D01*
X31356377Y33225498D01*
X31402870Y33171842D01*
X31412974Y33101568D01*
X31383480Y33036988D01*
X31358260Y33014737D01*
X31334104Y32998596D01*
X31277851Y32914408D01*
X31258098Y32815102D01*
X31258098Y31940102D01*
X31277851Y31840796D01*
X31334104Y31756608D01*
X31344420Y31749715D01*
X31418292Y31700355D01*
X31417393Y31699010D01*
X31461599Y31663384D01*
X31484098Y31591527D01*
X31484098Y30067091D01*
X31462863Y29997089D01*
X31422651Y29936908D01*
X31402898Y29837602D01*
X31402898Y28134802D01*
X31382896Y28066681D01*
X31329240Y28020188D01*
X31276898Y28008802D01*
X29931265Y28008802D01*
X29906349Y28006694D01*
X29891242Y28005417D01*
X29891234Y28005416D01*
X29888598Y28005193D01*
X29846873Y27998083D01*
X29831824Y27994190D01*
X29807999Y27988026D01*
X29807992Y27988024D01*
X29805426Y27987360D01*
X29702240Y27951146D01*
X29701175Y27950772D01*
X29630274Y27947086D01*
X29568636Y27982318D01*
X29535830Y28045281D01*
X29533457Y28071062D01*
X29537702Y28453131D01*
X29552728Y29805516D01*
X29552728Y29805525D01*
X29552766Y29808980D01*
X29552425Y29812426D01*
X29547615Y29860975D01*
X29547614Y29860984D01*
X29547274Y29864412D01*
X29546561Y29867778D01*
X29546560Y29867787D01*
X29536257Y29916449D01*
X29536257Y29916450D01*
X29535896Y29918154D01*
X29528406Y29945757D01*
X29508878Y29980050D01*
X29482428Y30026500D01*
X29482425Y30026504D01*
X29479365Y30031878D01*
X29432872Y30085534D01*
X29433480Y30086061D01*
X29401544Y30152110D01*
X29392292Y30216710D01*
X29391019Y30225602D01*
X29331227Y30357106D01*
X29236931Y30466543D01*
X29115709Y30545115D01*
X29018791Y30574100D01*
X28983848Y30584550D01*
X28983846Y30584550D01*
X28977307Y30586506D01*
X28969286Y30587102D01*
X26717084Y30587102D01*
X26674595Y30581017D01*
X26617891Y30572897D01*
X26617888Y30572896D01*
X26608998Y30571623D01*
X26600822Y30567906D01*
X26600820Y30567905D01*
X26556356Y30547688D01*
X26477494Y30511831D01*
X26368057Y30417535D01*
X26289485Y30296313D01*
X26248094Y30157911D01*
X26247498Y30149890D01*
X26247498Y30110882D01*
X26228448Y30046005D01*
X26228637Y30045902D01*
X26181194Y29958889D01*
X26160021Y29891123D01*
X26148501Y29819753D01*
X26148423Y29815248D01*
X26148423Y29815244D01*
X26128669Y28669526D01*
X26107496Y28601760D01*
X26072580Y28566860D01*
X25212109Y27993213D01*
X23057436Y26556764D01*
X22987544Y26535602D01*
X22290098Y26535602D01*
X22221977Y26555604D01*
X22175484Y26609260D01*
X22164098Y26661602D01*
X22164098Y26817428D01*
X22184100Y26885549D01*
X22214586Y26918294D01*
X22228143Y26928443D01*
X22228150Y26928449D01*
X22231750Y26931144D01*
X23346898Y28046292D01*
X23365063Y28066514D01*
X23381966Y28087488D01*
X23427907Y28175311D01*
X23447909Y28243432D01*
X23458198Y28314992D01*
X23458198Y29634018D01*
X23478200Y29702139D01*
X23531856Y29748632D01*
X23608778Y29757597D01*
X23665528Y29746309D01*
X23665532Y29746309D01*
X23671598Y29745102D01*
X24311598Y29745102D01*
X24410904Y29764855D01*
X24495092Y29821108D01*
X24551345Y29905296D01*
X24571098Y30004602D01*
X24571098Y30594602D01*
X24551345Y30693908D01*
X24542087Y30707763D01*
X24521333Y30738824D01*
X24500098Y30808826D01*
X24500098Y31118744D01*
X24516526Y31180054D01*
X24519440Y31183852D01*
X24531209Y31212263D01*
X24560503Y31282986D01*
X24580330Y31330852D01*
X24582067Y31344040D01*
X24600020Y31480414D01*
X24601098Y31488602D01*
X24587548Y31591527D01*
X24581408Y31638166D01*
X24581407Y31638168D01*
X24580330Y31646352D01*
X24519440Y31793352D01*
X24422580Y31919584D01*
X24296348Y32016444D01*
X24149348Y32077334D01*
X24141164Y32078411D01*
X24141162Y32078412D01*
X23999786Y32097024D01*
X23991598Y32098102D01*
X23983410Y32097024D01*
X23842034Y32078412D01*
X23842032Y32078411D01*
X23833848Y32077334D01*
X23686848Y32016444D01*
X23560616Y31919584D01*
X23463756Y31793352D01*
X23402866Y31646352D01*
X23401789Y31638168D01*
X23401788Y31638166D01*
X23395648Y31591527D01*
X23382098Y31488602D01*
X23383176Y31480414D01*
X23401130Y31344040D01*
X23402866Y31330852D01*
X23422693Y31282986D01*
X23451988Y31212263D01*
X23463756Y31183852D01*
X23466670Y31180054D01*
X23483098Y31118744D01*
X23483098Y30808826D01*
X23461863Y30738824D01*
X23441109Y30707763D01*
X23431851Y30693908D01*
X23412098Y30594602D01*
X23412098Y30523424D01*
X23392096Y30455303D01*
X23338440Y30408810D01*
X23268166Y30398706D01*
X23227698Y30411775D01*
X23223360Y30414044D01*
X23217879Y30416911D01*
X23149758Y30436913D01*
X23145299Y30437554D01*
X23145295Y30437555D01*
X23113978Y30442058D01*
X23078198Y30447202D01*
X21425698Y30447202D01*
X21357577Y30467204D01*
X21311084Y30520860D01*
X21299698Y30573202D01*
X21299698Y32451503D01*
X21319700Y32519624D01*
X21338005Y32539523D01*
X21336788Y32540740D01*
X21342631Y32546583D01*
X21349180Y32551608D01*
X21446040Y32677840D01*
X21506930Y32824840D01*
X21510092Y32848854D01*
X21526620Y32974402D01*
X21527698Y32982590D01*
X21521480Y33029818D01*
X21508008Y33132154D01*
X21508007Y33132156D01*
X21506930Y33140340D01*
X21446040Y33287340D01*
X21349180Y33413572D01*
X21222948Y33510432D01*
X21075948Y33571322D01*
X21067764Y33572399D01*
X21067762Y33572400D01*
X20926386Y33591012D01*
X20918198Y33592090D01*
X20910010Y33591012D01*
X20768634Y33572400D01*
X20768632Y33572399D01*
X20760448Y33571322D01*
X20752819Y33568162D01*
X20729721Y33558595D01*
X20659131Y33551006D01*
X20595644Y33582786D01*
X20559417Y33643844D01*
X20555503Y33675145D01*
X20555534Y33702178D01*
X20561484Y39020142D01*
X20581562Y39088239D01*
X20635270Y39134672D01*
X20687484Y39146000D01*
X35635453Y39146000D01*
X35656547Y39143670D01*
G37*
G04 #@! TD.AperFunction*
G04 #@! TA.AperFunction,Conductor*
G36*
X23146319Y30173200D02*
G01*
X23192812Y30119544D01*
X23204198Y30067202D01*
X23204198Y28314992D01*
X23184196Y28246871D01*
X23167293Y28225897D01*
X22052145Y27110749D01*
X21989833Y27076723D01*
X21938471Y27076265D01*
X21910671Y27081794D01*
X21910672Y27081794D01*
X21904598Y27083002D01*
X21463499Y27083002D01*
X21395378Y27103004D01*
X21348885Y27156660D01*
X21337499Y27209002D01*
X21337499Y27975102D01*
X21336292Y27981172D01*
X21335685Y27987331D01*
X21335999Y27987362D01*
X21334499Y28002593D01*
X21334499Y28081553D01*
X21334702Y28084314D01*
X21336442Y28089382D01*
X21334588Y28138778D01*
X21334499Y28143504D01*
X21334499Y28157847D01*
X21333751Y28161861D01*
X21333681Y28162944D01*
X21332965Y28182007D01*
X21332529Y28193635D01*
X21327936Y28204327D01*
X21326389Y28211190D01*
X21325059Y28215568D01*
X21322527Y28222131D01*
X21320397Y28233564D01*
X21308669Y28252591D01*
X21300168Y28268957D01*
X21294854Y28281326D01*
X21294853Y28281328D01*
X21291346Y28289490D01*
X21290992Y28289921D01*
X21273798Y28351250D01*
X21273798Y30067202D01*
X21293800Y30135323D01*
X21347456Y30181816D01*
X21399798Y30193202D01*
X23078198Y30193202D01*
X23146319Y30173200D01*
G37*
G04 #@! TD.AperFunction*
G04 #@! TA.AperFunction,Conductor*
G36*
X33663148Y27734800D02*
G01*
X33709641Y27681144D01*
X33721021Y27630037D01*
X33739041Y25792068D01*
X33743951Y25291237D01*
X33724618Y25222924D01*
X33671420Y25175907D01*
X33617957Y25164002D01*
X23417661Y25164002D01*
X23351625Y25182693D01*
X23066691Y25358037D01*
X23051798Y25367202D01*
X22188498Y25367202D01*
X22120377Y25387204D01*
X22073884Y25440860D01*
X22062498Y25493202D01*
X22062498Y25661592D01*
X22082500Y25729713D01*
X22136156Y25776206D01*
X22182671Y25787457D01*
X22282264Y25792068D01*
X22288091Y25792203D01*
X22954598Y25792203D01*
X22960665Y25793410D01*
X22960668Y25793410D01*
X23002848Y25801800D01*
X23002849Y25801800D01*
X23015024Y25804222D01*
X23025346Y25811119D01*
X23036808Y25815867D01*
X23037717Y25813672D01*
X23085054Y25829234D01*
X24028045Y25872891D01*
X24626598Y25900602D01*
X29889540Y27747692D01*
X29931265Y27754802D01*
X33595027Y27754802D01*
X33663148Y27734800D01*
G37*
G04 #@! TD.AperFunction*
G04 #@! TA.AperFunction,Conductor*
G36*
X30378713Y17499050D02*
G01*
X30416151Y17496727D01*
X30444862Y17491561D01*
X30474325Y17482638D01*
X30474326Y17482638D01*
X30528418Y17466255D01*
X30555177Y17454620D01*
X30630677Y17410766D01*
X30654040Y17393288D01*
X30680885Y17367858D01*
X30717413Y17333255D01*
X30736132Y17310867D01*
X30792944Y17224214D01*
X30794177Y17222296D01*
X30796582Y17218479D01*
X30797190Y17217265D01*
X30797309Y17217325D01*
X30799426Y17213965D01*
X30798960Y17213732D01*
X30799357Y17212939D01*
X30803147Y17208059D01*
X30803148Y17208057D01*
X30805652Y17204833D01*
X30805335Y17204587D01*
X30806446Y17202823D01*
X30805091Y17201969D01*
X30813836Y17193815D01*
X30828931Y17169260D01*
X30833501Y17161826D01*
X30834124Y17161107D01*
X30834382Y17161331D01*
X30834928Y17160586D01*
X30834726Y17160411D01*
X30879997Y17108166D01*
X30912580Y17076727D01*
X31000397Y17030791D01*
X31023086Y17024129D01*
X31055075Y17014736D01*
X31114801Y16976352D01*
X31144294Y16911771D01*
X31144294Y16875909D01*
X31132237Y16792050D01*
X31131598Y16783107D01*
X31131598Y16622217D01*
X31136073Y16606978D01*
X31137463Y16605773D01*
X31145146Y16604102D01*
X33771598Y16604102D01*
X33839719Y16584100D01*
X33886212Y16530444D01*
X33897598Y16478102D01*
X33897598Y16222102D01*
X33877596Y16153981D01*
X33823940Y16107488D01*
X33771598Y16096102D01*
X32391713Y16096102D01*
X32376474Y16091627D01*
X32375269Y16090237D01*
X32373598Y16082554D01*
X32373598Y15417717D01*
X32378073Y15402478D01*
X32379463Y15401273D01*
X32387146Y15399602D01*
X32592341Y15399602D01*
X32596848Y15399763D01*
X32660867Y15404342D01*
X32674089Y15406728D01*
X32799056Y15443421D01*
X32815286Y15450833D01*
X32816439Y15451574D01*
X32817754Y15451960D01*
X32823484Y15454577D01*
X32823860Y15453753D01*
X32884560Y15471576D01*
X32936902Y15460190D01*
X33015873Y15424125D01*
X33032986Y15419100D01*
X33164152Y15400241D01*
X33173093Y15399602D01*
X33508586Y15399602D01*
X33576707Y15379600D01*
X33623200Y15325944D01*
X33633304Y15255670D01*
X33608258Y15201465D01*
X33610616Y15199777D01*
X33550710Y15116105D01*
X33521931Y15051204D01*
X33502329Y14981614D01*
X33501739Y14977159D01*
X33490317Y14890982D01*
X33483158Y14862691D01*
X33467490Y14821552D01*
X33460505Y14803211D01*
X33452086Y14781107D01*
X33438616Y14755230D01*
X33389604Y14682975D01*
X33370537Y14660886D01*
X33353791Y14645514D01*
X33306224Y14601850D01*
X33282588Y14584740D01*
X33206407Y14542077D01*
X33179481Y14530869D01*
X33095534Y14506877D01*
X33066737Y14502162D01*
X33032585Y14500581D01*
X32979537Y14498126D01*
X32950427Y14500162D01*
X32864621Y14516298D01*
X32836763Y14524974D01*
X32756979Y14560413D01*
X32731866Y14575265D01*
X32662371Y14628110D01*
X32641343Y14648346D01*
X32585873Y14715757D01*
X32570065Y14740286D01*
X32549029Y14783132D01*
X32549028Y14783134D01*
X32547142Y14786975D01*
X32508754Y14844036D01*
X32463772Y14894503D01*
X32433536Y14923273D01*
X32345719Y14969209D01*
X32277598Y14989211D01*
X32273139Y14989852D01*
X32273135Y14989853D01*
X32241818Y14994355D01*
X32206038Y14999500D01*
X31797164Y14999500D01*
X31796755Y14999493D01*
X31796699Y14999493D01*
X31789468Y14999376D01*
X31788972Y14999368D01*
X31786446Y14999287D01*
X31785870Y14999268D01*
X31785869Y14999268D01*
X31780853Y14999106D01*
X31701929Y14983831D01*
X31683656Y14977159D01*
X31637892Y14960450D01*
X31637886Y14960447D01*
X31635239Y14959481D01*
X31594261Y14940223D01*
X31520076Y14874508D01*
X31477137Y14817968D01*
X31474956Y14814039D01*
X31474953Y14814034D01*
X31470484Y14805981D01*
X31468357Y14803211D01*
X31468696Y14803012D01*
X31465116Y14796929D01*
X31464951Y14797039D01*
X31464949Y14797036D01*
X31463332Y14793900D01*
X31463332Y14793899D01*
X31462007Y14791329D01*
X31454287Y14778334D01*
X31389603Y14682975D01*
X31370535Y14660884D01*
X31353791Y14645514D01*
X31306224Y14601850D01*
X31282588Y14584740D01*
X31206407Y14542077D01*
X31179481Y14530869D01*
X31095534Y14506877D01*
X31066737Y14502162D01*
X31032585Y14500581D01*
X30979537Y14498126D01*
X30950427Y14500162D01*
X30864621Y14516298D01*
X30836763Y14524974D01*
X30756979Y14560413D01*
X30731866Y14575265D01*
X30662371Y14628110D01*
X30641343Y14648346D01*
X30585873Y14715757D01*
X30570065Y14740286D01*
X30549029Y14783132D01*
X30549028Y14783134D01*
X30547142Y14786975D01*
X30508754Y14844036D01*
X30463772Y14894503D01*
X30433536Y14923273D01*
X30345719Y14969209D01*
X30277598Y14989211D01*
X30273139Y14989852D01*
X30273135Y14989853D01*
X30241818Y14994355D01*
X30206038Y14999500D01*
X29297164Y14999500D01*
X29296755Y14999493D01*
X29296699Y14999493D01*
X29289468Y14999376D01*
X29288972Y14999368D01*
X29286446Y14999287D01*
X29285870Y14999268D01*
X29285869Y14999268D01*
X29280853Y14999106D01*
X29201929Y14983831D01*
X29183656Y14977159D01*
X29137892Y14960450D01*
X29137886Y14960447D01*
X29135239Y14959481D01*
X29094261Y14940223D01*
X29020076Y14874508D01*
X28977137Y14817968D01*
X28974956Y14814039D01*
X28974953Y14814034D01*
X28970484Y14805981D01*
X28968357Y14803211D01*
X28968696Y14803012D01*
X28965116Y14796929D01*
X28964951Y14797039D01*
X28964949Y14797036D01*
X28963332Y14793900D01*
X28963332Y14793899D01*
X28962007Y14791329D01*
X28954287Y14778334D01*
X28889603Y14682975D01*
X28870535Y14660884D01*
X28853791Y14645514D01*
X28806224Y14601850D01*
X28782588Y14584740D01*
X28706407Y14542077D01*
X28679479Y14530869D01*
X28666506Y14527161D01*
X28595513Y14527677D01*
X28536067Y14566493D01*
X28507044Y14631286D01*
X28510992Y14683810D01*
X28518502Y14709386D01*
X28537361Y14840554D01*
X28538000Y14849495D01*
X28538000Y15447885D01*
X28533525Y15463124D01*
X28532135Y15464329D01*
X28524452Y15466000D01*
X27272000Y15466000D01*
X27203879Y15486002D01*
X27157386Y15539658D01*
X27146000Y15592000D01*
X27146000Y15848000D01*
X27166002Y15916121D01*
X27219658Y15962614D01*
X27272000Y15974000D01*
X28519885Y15974000D01*
X28535124Y15978475D01*
X28536329Y15979865D01*
X28538000Y15987548D01*
X28538000Y16082554D01*
X31131598Y16082554D01*
X31131598Y15914859D01*
X31131759Y15910352D01*
X31136338Y15846333D01*
X31138724Y15833111D01*
X31175417Y15708144D01*
X31182831Y15691910D01*
X31252024Y15584242D01*
X31263710Y15570755D01*
X31360438Y15486940D01*
X31375446Y15477295D01*
X31491873Y15424125D01*
X31508986Y15419100D01*
X31640152Y15400241D01*
X31649093Y15399602D01*
X31847483Y15399602D01*
X31862722Y15404077D01*
X31863927Y15405467D01*
X31865598Y15413150D01*
X31865598Y16077987D01*
X31861123Y16093226D01*
X31859733Y16094431D01*
X31852050Y16096102D01*
X31149713Y16096102D01*
X31134474Y16091627D01*
X31133269Y16090237D01*
X31131598Y16082554D01*
X28538000Y16082554D01*
X28538000Y16507602D01*
X28558002Y16575723D01*
X28611658Y16622216D01*
X28664000Y16633602D01*
X28966621Y16633602D01*
X28973922Y16634026D01*
X29095653Y16648219D01*
X29109808Y16651565D01*
X29262159Y16706865D01*
X29275158Y16713375D01*
X29410704Y16802243D01*
X29421856Y16811567D01*
X29533320Y16929231D01*
X29542033Y16940878D01*
X29562771Y16976580D01*
X29614283Y17025438D01*
X29641542Y17035625D01*
X29679443Y17044976D01*
X29679441Y17044976D01*
X29682163Y17045647D01*
X29684819Y17046560D01*
X29716458Y17057437D01*
X29716459Y17057438D01*
X29724980Y17060367D01*
X29789643Y17106212D01*
X29800773Y17114103D01*
X29800774Y17114103D01*
X29805828Y17117687D01*
X29854622Y17169260D01*
X29857212Y17172927D01*
X29857216Y17172932D01*
X29893733Y17224636D01*
X29893737Y17224642D01*
X29896330Y17228314D01*
X29915795Y17266436D01*
X29931980Y17290705D01*
X29988519Y17357255D01*
X30009856Y17377152D01*
X30077831Y17427176D01*
X30080159Y17428890D01*
X30105504Y17443347D01*
X30185851Y17477534D01*
X30213837Y17485770D01*
X30260506Y17493790D01*
X30299876Y17500555D01*
X30329016Y17502133D01*
X30378713Y17499050D01*
G37*
G04 #@! TD.AperFunction*
G04 #@! TA.AperFunction,Conductor*
G36*
X33537115Y35999050D02*
G01*
X33574553Y35996727D01*
X33603264Y35991561D01*
X33632727Y35982638D01*
X33632728Y35982638D01*
X33686820Y35966255D01*
X33713579Y35954620D01*
X33789079Y35910766D01*
X33812442Y35893288D01*
X33847962Y35859640D01*
X33875815Y35833255D01*
X33894533Y35810868D01*
X33942402Y35737857D01*
X33955469Y35711763D01*
X33958074Y35704587D01*
X33971413Y35667837D01*
X33971414Y35667833D01*
X33985255Y35629700D01*
X33991968Y35601303D01*
X34000605Y35527234D01*
X34001089Y35523080D01*
X34003889Y35504850D01*
X34004101Y35503740D01*
X34004102Y35503734D01*
X34006258Y35492442D01*
X34006260Y35492436D01*
X34007319Y35486889D01*
X34039861Y35402440D01*
X34076783Y35341800D01*
X34122787Y35286028D01*
X34231082Y35187488D01*
X34246244Y35170999D01*
X34326780Y35066044D01*
X34352381Y34999824D01*
X34338117Y34930275D01*
X34288516Y34879478D01*
X34219326Y34863562D01*
X34208887Y34864621D01*
X34123046Y34876963D01*
X34114103Y34877602D01*
X33915713Y34877602D01*
X33900474Y34873127D01*
X33899269Y34871737D01*
X33897598Y34864054D01*
X33897598Y33799102D01*
X33877596Y33730981D01*
X33823940Y33684488D01*
X33771598Y33673102D01*
X32689228Y33673102D01*
X32621107Y33693104D01*
X32616512Y33696544D01*
X32607050Y33698602D01*
X31022713Y33698602D01*
X31007474Y33694127D01*
X31006269Y33692737D01*
X31004598Y33685054D01*
X31004598Y33625500D01*
X30984596Y33557379D01*
X30930940Y33510886D01*
X30878598Y33499500D01*
X30017987Y33499500D01*
X30017754Y33499497D01*
X30017690Y33499497D01*
X30012411Y33499436D01*
X30012344Y33499435D01*
X30012103Y33499432D01*
X30011793Y33499425D01*
X30011748Y33499424D01*
X30006991Y33499314D01*
X30006277Y33499297D01*
X30003720Y33499208D01*
X30000813Y33499107D01*
X30000783Y33499106D01*
X30000416Y33499093D01*
X30000016Y33499074D01*
X29999955Y33499072D01*
X29965273Y33497467D01*
X29947757Y33497876D01*
X29943587Y33498265D01*
X29943573Y33498266D01*
X29942104Y33498403D01*
X29940639Y33498471D01*
X29940627Y33498472D01*
X29926971Y33499107D01*
X29918523Y33499500D01*
X29725817Y33499500D01*
X29698670Y33498045D01*
X29696999Y33497865D01*
X29696982Y33497864D01*
X29683028Y33496364D01*
X29671887Y33495166D01*
X29577302Y33465550D01*
X29571870Y33462584D01*
X29571868Y33462583D01*
X29538088Y33444137D01*
X29468714Y33429045D01*
X29402193Y33453855D01*
X29391048Y33463251D01*
X29364369Y33488524D01*
X29352722Y33497237D01*
X29212569Y33578645D01*
X29199244Y33584439D01*
X29146402Y33600443D01*
X29087004Y33639332D01*
X29058060Y33704161D01*
X29068312Y33773377D01*
X29113476Y33872272D01*
X29118502Y33889388D01*
X29137361Y34020554D01*
X29138000Y34029495D01*
X29138000Y34385607D01*
X31004598Y34385607D01*
X31004598Y34224717D01*
X31009073Y34209478D01*
X31010463Y34208273D01*
X31018146Y34206602D01*
X31720483Y34206602D01*
X31735722Y34211077D01*
X31736927Y34212467D01*
X31738598Y34220150D01*
X31738598Y34884987D01*
X31737257Y34889554D01*
X32246598Y34889554D01*
X32246598Y34224717D01*
X32251073Y34209478D01*
X32252463Y34208273D01*
X32260146Y34206602D01*
X32946968Y34206602D01*
X33015089Y34186600D01*
X33019684Y34183160D01*
X33029146Y34181102D01*
X33371483Y34181102D01*
X33386722Y34185577D01*
X33387927Y34186967D01*
X33389598Y34194650D01*
X33389598Y34859487D01*
X33385123Y34874726D01*
X33383733Y34875931D01*
X33376050Y34877602D01*
X33170855Y34877602D01*
X33166348Y34877441D01*
X33102329Y34872862D01*
X33089107Y34870476D01*
X32964140Y34833783D01*
X32947906Y34826369D01*
X32907606Y34800470D01*
X32839486Y34780468D01*
X32771365Y34800470D01*
X32756976Y34811242D01*
X32751758Y34815764D01*
X32736752Y34825408D01*
X32620323Y34878579D01*
X32603210Y34883604D01*
X32472044Y34902463D01*
X32463103Y34903102D01*
X32264713Y34903102D01*
X32249474Y34898627D01*
X32248269Y34897237D01*
X32246598Y34889554D01*
X31737257Y34889554D01*
X31734123Y34900226D01*
X31732733Y34901431D01*
X31725050Y34903102D01*
X31519855Y34903102D01*
X31515348Y34902941D01*
X31451329Y34898362D01*
X31438107Y34895976D01*
X31313140Y34859283D01*
X31296906Y34851869D01*
X31189238Y34782676D01*
X31175751Y34770990D01*
X31091936Y34674262D01*
X31082291Y34659254D01*
X31029121Y34542827D01*
X31024096Y34525714D01*
X31005237Y34394548D01*
X31004598Y34385607D01*
X29138000Y34385607D01*
X29138000Y34627885D01*
X29133525Y34643124D01*
X29132135Y34644329D01*
X29124452Y34646000D01*
X28272115Y34646000D01*
X28256876Y34641525D01*
X28255671Y34640135D01*
X28254000Y34632452D01*
X28254000Y33603000D01*
X28233998Y33534879D01*
X28180342Y33488386D01*
X28128000Y33477000D01*
X28099113Y33477000D01*
X28083874Y33472525D01*
X28082669Y33471135D01*
X28080998Y33463452D01*
X28080998Y32379602D01*
X28060996Y32311481D01*
X28007340Y32264988D01*
X27954998Y32253602D01*
X27698998Y32253602D01*
X27630877Y32273604D01*
X27584384Y32327260D01*
X27572998Y32379602D01*
X27572998Y33554602D01*
X27593000Y33622723D01*
X27646656Y33669216D01*
X27698998Y33680602D01*
X27727885Y33680602D01*
X27743124Y33685077D01*
X27744329Y33686467D01*
X27746000Y33694150D01*
X27746000Y35028000D01*
X27766002Y35096121D01*
X27819658Y35142614D01*
X27872000Y35154000D01*
X29119885Y35154000D01*
X29135124Y35158475D01*
X29136329Y35159865D01*
X29138000Y35167548D01*
X29138000Y35772743D01*
X29137839Y35777240D01*
X29137528Y35781592D01*
X29152617Y35850966D01*
X29188524Y35892066D01*
X29238560Y35928889D01*
X29263906Y35943347D01*
X29344253Y35977534D01*
X29372239Y35985770D01*
X29405931Y35991560D01*
X29458278Y36000555D01*
X29487418Y36002133D01*
X29537115Y35999050D01*
X29574553Y35996727D01*
X29603264Y35991561D01*
X29632727Y35982638D01*
X29632728Y35982638D01*
X29686820Y35966255D01*
X29713579Y35954620D01*
X29789079Y35910766D01*
X29812442Y35893288D01*
X29847962Y35859640D01*
X29875815Y35833255D01*
X29894534Y35810867D01*
X29951346Y35724215D01*
X29952581Y35722294D01*
X29954982Y35718483D01*
X29955571Y35717307D01*
X29955686Y35717365D01*
X29957828Y35713965D01*
X29957362Y35713732D01*
X29957759Y35712939D01*
X29961552Y35708055D01*
X29964054Y35704833D01*
X29963737Y35704587D01*
X29964850Y35702820D01*
X29963496Y35701967D01*
X29972238Y35693815D01*
X29988210Y35667833D01*
X29991903Y35661826D01*
X29992526Y35661107D01*
X29992784Y35661331D01*
X29993330Y35660586D01*
X29993128Y35660411D01*
X30038399Y35608166D01*
X30040423Y35606213D01*
X30040424Y35606212D01*
X30060718Y35586631D01*
X30070982Y35576727D01*
X30158799Y35530791D01*
X30226920Y35510789D01*
X30231379Y35510148D01*
X30231383Y35510147D01*
X30260561Y35505952D01*
X30298480Y35500500D01*
X30705768Y35500500D01*
X30709882Y35501046D01*
X30709888Y35501046D01*
X30746875Y35505952D01*
X30771983Y35509282D01*
X30835407Y35526408D01*
X30872854Y35539742D01*
X30879920Y35544752D01*
X30879924Y35544754D01*
X30948645Y35593478D01*
X30948647Y35593479D01*
X30953701Y35597063D01*
X30957957Y35601562D01*
X30957961Y35601565D01*
X30999397Y35645363D01*
X31002494Y35648636D01*
X31011809Y35661826D01*
X31041604Y35704013D01*
X31041605Y35704015D01*
X31044200Y35707689D01*
X31046247Y35711697D01*
X31064079Y35746619D01*
X31064081Y35746622D01*
X31074201Y35766441D01*
X31090387Y35790711D01*
X31146921Y35857255D01*
X31168258Y35877152D01*
X31238560Y35928889D01*
X31263906Y35943347D01*
X31344253Y35977534D01*
X31372239Y35985770D01*
X31405931Y35991560D01*
X31458278Y36000555D01*
X31487418Y36002133D01*
X31537115Y35999050D01*
X31574553Y35996727D01*
X31603264Y35991561D01*
X31632727Y35982638D01*
X31632728Y35982638D01*
X31686820Y35966255D01*
X31713579Y35954620D01*
X31789079Y35910766D01*
X31812442Y35893288D01*
X31847962Y35859640D01*
X31875815Y35833255D01*
X31894534Y35810867D01*
X31951346Y35724215D01*
X31952581Y35722294D01*
X31954982Y35718483D01*
X31955571Y35717307D01*
X31955686Y35717365D01*
X31957828Y35713965D01*
X31957362Y35713732D01*
X31957759Y35712939D01*
X31961552Y35708055D01*
X31964054Y35704833D01*
X31963737Y35704587D01*
X31964850Y35702820D01*
X31963496Y35701967D01*
X31972238Y35693815D01*
X31988210Y35667833D01*
X31991903Y35661826D01*
X31992526Y35661107D01*
X31992784Y35661331D01*
X31993330Y35660586D01*
X31993128Y35660411D01*
X32038399Y35608166D01*
X32040423Y35606213D01*
X32040424Y35606212D01*
X32060718Y35586631D01*
X32070982Y35576727D01*
X32158799Y35530791D01*
X32226920Y35510789D01*
X32231379Y35510148D01*
X32231383Y35510147D01*
X32260561Y35505952D01*
X32298480Y35500500D01*
X32705768Y35500500D01*
X32709882Y35501046D01*
X32709888Y35501046D01*
X32746875Y35505952D01*
X32771983Y35509282D01*
X32835407Y35526408D01*
X32872854Y35539742D01*
X32879920Y35544752D01*
X32879924Y35544754D01*
X32948645Y35593478D01*
X32948647Y35593479D01*
X32953701Y35597063D01*
X32957957Y35601562D01*
X32957961Y35601565D01*
X32999397Y35645363D01*
X33002494Y35648636D01*
X33011809Y35661826D01*
X33041604Y35704013D01*
X33041605Y35704015D01*
X33044200Y35707689D01*
X33046247Y35711697D01*
X33064079Y35746619D01*
X33064081Y35746622D01*
X33074201Y35766441D01*
X33090387Y35790711D01*
X33146921Y35857255D01*
X33168258Y35877152D01*
X33238560Y35928889D01*
X33263906Y35943347D01*
X33344253Y35977534D01*
X33372239Y35985770D01*
X33405931Y35991560D01*
X33458278Y36000555D01*
X33487418Y36002133D01*
X33537115Y35999050D01*
G37*
G04 #@! TD.AperFunction*
G04 #@! TA.AperFunction,Conductor*
G36*
X19944695Y39125998D02*
G01*
X19991188Y39072342D01*
X20002574Y39020166D01*
X20006804Y35766000D01*
X20008949Y34115664D01*
X19989035Y34047517D01*
X19935440Y34000955D01*
X19882949Y33989500D01*
X19582764Y33989500D01*
X19562046Y33991705D01*
X19558288Y33991882D01*
X19548112Y33994073D01*
X19517684Y33990472D01*
X19516850Y33990373D01*
X19510334Y33989989D01*
X19510339Y33989928D01*
X19505159Y33989500D01*
X19499960Y33989500D01*
X19479455Y33986087D01*
X19473599Y33985254D01*
X19422728Y33979233D01*
X19414480Y33975272D01*
X19405454Y33973770D01*
X19360346Y33949431D01*
X19355088Y33946753D01*
X19316056Y33928011D01*
X19316052Y33928009D01*
X19308910Y33924579D01*
X19302478Y33919172D01*
X19300542Y33917236D01*
X19300348Y33917058D01*
X19294337Y33913815D01*
X19287268Y33906168D01*
X19287267Y33906167D01*
X19261980Y33878811D01*
X19258550Y33875244D01*
X18045558Y32662253D01*
X18029366Y32649176D01*
X18026573Y32646635D01*
X18017825Y32640986D01*
X18011378Y32632808D01*
X18011377Y32632807D01*
X17998338Y32616267D01*
X17993996Y32611382D01*
X17994043Y32611342D01*
X17990690Y32607385D01*
X17987009Y32603704D01*
X17983985Y32599472D01*
X17974924Y32586793D01*
X17971360Y32582047D01*
X17939658Y32541832D01*
X17936627Y32533201D01*
X17931306Y32525755D01*
X17930405Y32522743D01*
X17881627Y32474241D01*
X17821556Y32459000D01*
X17801598Y32459000D01*
X17702292Y32439247D01*
X17618104Y32382994D01*
X17561851Y32298806D01*
X17542098Y32199500D01*
X17542098Y31324500D01*
X17561851Y31225194D01*
X17618104Y31141006D01*
X17628420Y31134113D01*
X17689797Y31093102D01*
X17702292Y31084753D01*
X17701979Y31084284D01*
X17749038Y31046360D01*
X17771459Y30978997D01*
X17753900Y30910205D01*
X17705147Y30864815D01*
X17702292Y30864247D01*
X17618104Y30807994D01*
X17561851Y30723806D01*
X17542098Y30624500D01*
X17542098Y29749500D01*
X17561851Y29650194D01*
X17618104Y29566006D01*
X17702292Y29509753D01*
X17757111Y29498849D01*
X17793679Y29491575D01*
X17856589Y29458668D01*
X17891721Y29396973D01*
X17895098Y29367996D01*
X17895098Y28933869D01*
X17892898Y28913196D01*
X17892720Y28909411D01*
X17890528Y28899231D01*
X17891752Y28888891D01*
X17894225Y28867992D01*
X17894616Y28861361D01*
X17894670Y28861365D01*
X17895098Y28856189D01*
X17895098Y28850984D01*
X17895953Y28845848D01*
X17898552Y28830230D01*
X17899389Y28824354D01*
X17905444Y28773194D01*
X17909426Y28764901D01*
X17910936Y28755830D01*
X17915879Y28746669D01*
X17915880Y28746666D01*
X17935396Y28710498D01*
X17938073Y28705245D01*
X17960383Y28658785D01*
X17966013Y28652086D01*
X17967949Y28650150D01*
X17967969Y28650128D01*
X17971203Y28644135D01*
X17978849Y28637067D01*
X18005919Y28612044D01*
X18009485Y28608614D01*
X18265464Y28352635D01*
X18299490Y28290323D01*
X18294425Y28219508D01*
X18261559Y28177904D01*
X18265197Y28174266D01*
X18256420Y28165489D01*
X18246104Y28158596D01*
X18189851Y28074408D01*
X18170098Y27975102D01*
X18170098Y27272722D01*
X18150096Y27204601D01*
X18092306Y27156309D01*
X18089896Y27155311D01*
X18019305Y27147728D01*
X17952593Y27182629D01*
X16508003Y28627220D01*
X16473977Y28689532D01*
X16471098Y28716315D01*
X16471098Y29259102D01*
X16451345Y29358408D01*
X16395092Y29442596D01*
X16314290Y29496586D01*
X16314287Y29496589D01*
X16310904Y29498849D01*
X16311106Y29499152D01*
X16263502Y29537516D01*
X16241084Y29604880D01*
X16258645Y29673671D01*
X16310608Y29722047D01*
X16318788Y29725783D01*
X16321034Y29726713D01*
X16384423Y29769068D01*
X16401632Y29786277D01*
X16443988Y29849667D01*
X16453304Y29872159D01*
X16469391Y29953034D01*
X16470598Y29965289D01*
X16470598Y30124487D01*
X16466123Y30139726D01*
X16464733Y30140931D01*
X16457050Y30142602D01*
X15020713Y30142602D01*
X15005474Y30138127D01*
X15004269Y30136737D01*
X15002598Y30129054D01*
X15002598Y29965289D01*
X15003805Y29953034D01*
X15019892Y29872159D01*
X15029208Y29849667D01*
X15071564Y29786277D01*
X15088773Y29769068D01*
X15152162Y29726713D01*
X15154408Y29725783D01*
X15158552Y29722443D01*
X15162483Y29719817D01*
X15162248Y29719465D01*
X15209690Y29681235D01*
X15232112Y29613872D01*
X15214555Y29545081D01*
X15165608Y29499509D01*
X15162292Y29498849D01*
X15078104Y29442596D01*
X15021851Y29358408D01*
X15002098Y29259102D01*
X15002098Y28384102D01*
X15021851Y28284796D01*
X15078104Y28200608D01*
X15162292Y28144355D01*
X15261598Y28124602D01*
X15879385Y28124602D01*
X15947506Y28104600D01*
X15968480Y28087697D01*
X16984459Y27071718D01*
X17018485Y27009406D01*
X17013420Y26938591D01*
X16984459Y26893528D01*
X16981420Y26890489D01*
X16971104Y26883596D01*
X16914851Y26799408D01*
X16895098Y26700102D01*
X16895098Y26531803D01*
X16875096Y26463682D01*
X16821440Y26417189D01*
X16769098Y26405803D01*
X9933906Y26405803D01*
X9922925Y26406282D01*
X9922402Y26406328D01*
X9885845Y26409526D01*
X9875199Y26406673D01*
X9875196Y26406673D01*
X9848793Y26399598D01*
X9838060Y26397218D01*
X9811146Y26392473D01*
X9811144Y26392472D01*
X9800287Y26390558D01*
X9790736Y26385044D01*
X9787239Y26383771D01*
X9783880Y26382205D01*
X9773230Y26379351D01*
X9764199Y26373027D01*
X9764196Y26373026D01*
X9741801Y26357345D01*
X9732531Y26351439D01*
X9708867Y26337777D01*
X9708865Y26337775D01*
X9699319Y26332264D01*
X9692233Y26323819D01*
X9675398Y26303756D01*
X9667971Y26295652D01*
X2383805Y19011486D01*
X2321493Y18977460D01*
X2271101Y18976813D01*
X2219198Y18986714D01*
X2219193Y18986714D01*
X2211410Y18988199D01*
X2128916Y18983008D01*
X2054333Y18978316D01*
X2054331Y18978316D01*
X2046422Y18977818D01*
X2038886Y18975369D01*
X2038884Y18975369D01*
X1896741Y18929184D01*
X1896738Y18929183D01*
X1889199Y18926733D01*
X1749619Y18838153D01*
X1636453Y18717644D01*
X1556812Y18572778D01*
X1515700Y18412657D01*
X1515700Y18247343D01*
X1556812Y18087222D01*
X1636453Y17942356D01*
X1641877Y17936580D01*
X1703345Y17871124D01*
X1749619Y17821847D01*
X1889199Y17733267D01*
X1896738Y17730817D01*
X1896741Y17730816D01*
X2038884Y17684631D01*
X2038886Y17684631D01*
X2046422Y17682182D01*
X2054331Y17681684D01*
X2054333Y17681684D01*
X2128916Y17676992D01*
X2211410Y17671801D01*
X2219194Y17673286D01*
X2219196Y17673286D01*
X2366013Y17701293D01*
X2366014Y17701293D01*
X2373797Y17702778D01*
X2523378Y17773166D01*
X2529483Y17778216D01*
X2529487Y17778219D01*
X2644647Y17873488D01*
X2650755Y17878541D01*
X2747924Y18012283D01*
X2786148Y18108825D01*
X2829823Y18164799D01*
X2896826Y18188275D01*
X2965884Y18171799D01*
X3015073Y18120603D01*
X3029300Y18062441D01*
X3029300Y14918537D01*
X3009298Y14850416D01*
X2970814Y14812152D01*
X2939619Y14792355D01*
X2934192Y14786576D01*
X2934191Y14786575D01*
X2879032Y14727837D01*
X2826453Y14671846D01*
X2746812Y14526980D01*
X2705700Y14366859D01*
X2705700Y14201545D01*
X2720288Y14144730D01*
X2725899Y14122876D01*
X2723467Y14051921D01*
X2683059Y13993545D01*
X2652076Y13975132D01*
X2649266Y13973968D01*
X2637094Y13971547D01*
X2552906Y13915294D01*
X2546013Y13904978D01*
X2525900Y13874877D01*
X2502126Y13848357D01*
X2497498Y13844473D01*
X2487950Y13838961D01*
X2480864Y13830516D01*
X2464029Y13810453D01*
X2456602Y13802349D01*
X1472641Y12818388D01*
X1464538Y12810962D01*
X1436029Y12787040D01*
X1430518Y12777494D01*
X1430516Y12777492D01*
X1416854Y12753828D01*
X1410948Y12744558D01*
X1395267Y12722163D01*
X1395266Y12722160D01*
X1388942Y12713129D01*
X1386088Y12702479D01*
X1384522Y12699120D01*
X1383249Y12695623D01*
X1377735Y12686072D01*
X1375821Y12675215D01*
X1375820Y12675213D01*
X1371075Y12648299D01*
X1368695Y12637566D01*
X1364275Y12621068D01*
X1358767Y12600514D01*
X1359728Y12589529D01*
X1359728Y12589527D01*
X1362010Y12563449D01*
X1362490Y12552467D01*
X1362490Y10505269D01*
X1362010Y10494287D01*
X1358767Y10457222D01*
X1361622Y10446568D01*
X1368695Y10420170D01*
X1371075Y10409437D01*
X1375607Y10383734D01*
X1377735Y10371664D01*
X1383249Y10362113D01*
X1384522Y10358616D01*
X1386088Y10355257D01*
X1388942Y10344607D01*
X1395265Y10335576D01*
X1395266Y10335575D01*
X1410948Y10313178D01*
X1416854Y10303908D01*
X1436029Y10270696D01*
X1444474Y10263609D01*
X1448780Y10258478D01*
X1477244Y10193437D01*
X1474300Y10146152D01*
X1473493Y10143007D01*
X1465700Y10112657D01*
X1465700Y9947343D01*
X1506812Y9787222D01*
X1586453Y9642356D01*
X1699619Y9521847D01*
X1839199Y9433267D01*
X1846738Y9430817D01*
X1846741Y9430816D01*
X1988884Y9384631D01*
X1988886Y9384631D01*
X1996422Y9382182D01*
X2004331Y9381684D01*
X2004333Y9381684D01*
X2078916Y9376992D01*
X2161410Y9371801D01*
X2169193Y9373286D01*
X2169198Y9373286D01*
X2246018Y9387940D01*
X2316680Y9381057D01*
X2358722Y9353267D01*
X2891148Y8820841D01*
X2898574Y8812738D01*
X2922496Y8784229D01*
X2932042Y8778718D01*
X2932044Y8778716D01*
X2955708Y8765054D01*
X2964978Y8759148D01*
X2987373Y8743467D01*
X2987376Y8743466D01*
X2996407Y8737142D01*
X3007057Y8734288D01*
X3010416Y8732722D01*
X3013913Y8731449D01*
X3023464Y8725935D01*
X3034321Y8724021D01*
X3034323Y8724020D01*
X3061237Y8719275D01*
X3071970Y8716895D01*
X3098373Y8709820D01*
X3098376Y8709820D01*
X3109022Y8706967D01*
X3146102Y8710211D01*
X3157083Y8710690D01*
X7292108Y8710690D01*
X7360229Y8690688D01*
X7393331Y8659424D01*
X7396453Y8653746D01*
X7449259Y8597514D01*
X7500965Y8542453D01*
X7509619Y8533237D01*
X7649199Y8444657D01*
X7656738Y8442207D01*
X7656741Y8442206D01*
X7798884Y8396021D01*
X7798886Y8396021D01*
X7806422Y8393572D01*
X7814331Y8393074D01*
X7814333Y8393074D01*
X7888916Y8388381D01*
X7971410Y8383191D01*
X7979194Y8384676D01*
X7979196Y8384676D01*
X8126013Y8412683D01*
X8126014Y8412683D01*
X8133797Y8414168D01*
X8140967Y8417542D01*
X8140970Y8417543D01*
X8201258Y8445912D01*
X8271412Y8456818D01*
X8336326Y8428065D01*
X8365321Y8392605D01*
X8376453Y8372356D01*
X8381877Y8366580D01*
X8450866Y8293115D01*
X8489619Y8251847D01*
X8629199Y8163267D01*
X8636738Y8160817D01*
X8636741Y8160816D01*
X8778884Y8114631D01*
X8778886Y8114631D01*
X8786422Y8112182D01*
X8794331Y8111684D01*
X8794333Y8111684D01*
X8838800Y8108886D01*
X8882136Y8106160D01*
X8948865Y8081920D01*
X8991897Y8025451D01*
X8996217Y8008214D01*
X8996694Y8008337D01*
X9037806Y7848216D01*
X9117447Y7703350D01*
X9122871Y7697574D01*
X9190187Y7625890D01*
X9222238Y7562540D01*
X9217442Y7516055D01*
X9267447Y7532937D01*
X9339997Y7513424D01*
X9370193Y7494261D01*
X9377732Y7491811D01*
X9377735Y7491810D01*
X9519878Y7445625D01*
X9519880Y7445625D01*
X9527416Y7443176D01*
X9535325Y7442678D01*
X9535327Y7442678D01*
X9609910Y7437986D01*
X9692404Y7432795D01*
X9700188Y7434280D01*
X9700190Y7434280D01*
X9847007Y7462287D01*
X9847008Y7462287D01*
X9854791Y7463772D01*
X10004372Y7534160D01*
X10010477Y7539210D01*
X10010481Y7539213D01*
X10125641Y7634482D01*
X10131749Y7639535D01*
X10182700Y7709663D01*
X10224259Y7766864D01*
X10224260Y7766866D01*
X10228918Y7773277D01*
X10240919Y7803586D01*
X10286858Y7919615D01*
X10286858Y7919617D01*
X10289775Y7926983D01*
X10299971Y8007689D01*
X10309500Y8083126D01*
X10310494Y8090994D01*
X10303288Y8148040D01*
X10290769Y8247140D01*
X10290768Y8247143D01*
X10289775Y8255005D01*
X10256093Y8340075D01*
X10231836Y8401342D01*
X10231835Y8401344D01*
X10228918Y8408711D01*
X10202285Y8445369D01*
X10136409Y8536039D01*
X10131749Y8542453D01*
X10027379Y8628795D01*
X9987641Y8687629D01*
X9981694Y8725880D01*
X9981694Y9320214D01*
X9982173Y9331195D01*
X9984455Y9357285D01*
X9985416Y9368264D01*
X9975488Y9405313D01*
X9973111Y9416037D01*
X9968364Y9442964D01*
X9968363Y9442967D01*
X9966449Y9453822D01*
X9960936Y9463370D01*
X9959665Y9466863D01*
X9958094Y9470233D01*
X9955241Y9480879D01*
X9948919Y9489908D01*
X9948918Y9489910D01*
X9933239Y9512303D01*
X9927335Y9521571D01*
X9913669Y9545240D01*
X9913668Y9545241D01*
X9908155Y9554790D01*
X9879640Y9578717D01*
X9871537Y9586143D01*
X9177895Y10279785D01*
X9170467Y10287890D01*
X9153631Y10307955D01*
X9146545Y10316400D01*
X9136999Y10321911D01*
X9136997Y10321913D01*
X9113333Y10335575D01*
X9104063Y10341481D01*
X9081668Y10357162D01*
X9081665Y10357163D01*
X9072634Y10363487D01*
X9061984Y10366341D01*
X9058625Y10367907D01*
X9055128Y10369180D01*
X9045577Y10374694D01*
X9034720Y10376608D01*
X9034718Y10376609D01*
X9007804Y10381354D01*
X8997071Y10383734D01*
X8972121Y10390419D01*
X8960019Y10393662D01*
X8949034Y10392701D01*
X8949032Y10392701D01*
X8922954Y10390419D01*
X8911972Y10389939D01*
X7498201Y10389939D01*
X7430080Y10409941D01*
X7383587Y10463597D01*
X7373483Y10533871D01*
X7391347Y10577879D01*
X7389446Y10578924D01*
X7393265Y10585871D01*
X7397924Y10592283D01*
X7401078Y10600247D01*
X7455864Y10738621D01*
X7455864Y10738623D01*
X7458781Y10745989D01*
X7469149Y10828057D01*
X7477673Y10895540D01*
X8405371Y10895540D01*
X8418794Y10828057D01*
X8428110Y10805565D01*
X8470466Y10742175D01*
X8487675Y10724966D01*
X8551065Y10682610D01*
X8573557Y10673294D01*
X8654432Y10657207D01*
X8666687Y10656000D01*
X8767385Y10656000D01*
X8782624Y10660475D01*
X8783829Y10661865D01*
X8785500Y10669548D01*
X8785500Y10896885D01*
X8784159Y10901452D01*
X9185500Y10901452D01*
X9185500Y10674115D01*
X9189975Y10658876D01*
X9191365Y10657671D01*
X9199048Y10656000D01*
X9304313Y10656000D01*
X9316568Y10657207D01*
X9397443Y10673294D01*
X9419935Y10682610D01*
X9483325Y10724966D01*
X9500534Y10742175D01*
X9542890Y10805565D01*
X9552206Y10828057D01*
X9565965Y10897230D01*
X9564813Y10910106D01*
X9549660Y10915000D01*
X9203615Y10915000D01*
X9188376Y10910525D01*
X9187171Y10909135D01*
X9185500Y10901452D01*
X8784159Y10901452D01*
X8781025Y10912124D01*
X8779635Y10913329D01*
X8771952Y10915000D01*
X8419615Y10915000D01*
X8407214Y10911359D01*
X8405371Y10895540D01*
X7477673Y10895540D01*
X7478506Y10902132D01*
X7479500Y10910000D01*
X7469391Y10990022D01*
X7459775Y11066146D01*
X7459774Y11066149D01*
X7458781Y11074011D01*
X7425639Y11157717D01*
X7400842Y11220348D01*
X7400841Y11220350D01*
X7397924Y11227717D01*
X7391616Y11236400D01*
X7305415Y11355045D01*
X7300755Y11361459D01*
X7196385Y11447801D01*
X7156647Y11506635D01*
X7150700Y11544886D01*
X7150700Y11940908D01*
X7151179Y11951889D01*
X7153461Y11977979D01*
X7154422Y11988958D01*
X7144494Y12026007D01*
X7142117Y12036731D01*
X7137370Y12063658D01*
X7137369Y12063661D01*
X7135455Y12074516D01*
X7129942Y12084064D01*
X7128671Y12087557D01*
X7127100Y12090927D01*
X7124247Y12101573D01*
X7117925Y12110602D01*
X7117924Y12110604D01*
X7102245Y12132997D01*
X7096341Y12142265D01*
X7082675Y12165934D01*
X7082674Y12165935D01*
X7077161Y12175484D01*
X7048653Y12199405D01*
X7040548Y12206832D01*
X6445026Y12802355D01*
X6437599Y12810460D01*
X6422228Y12828779D01*
X6393253Y12898538D01*
X6390714Y12926906D01*
X6375560Y12931800D01*
X6333413Y12931800D01*
X6263411Y12953035D01*
X6246027Y12964651D01*
X6246026Y12964652D01*
X6235706Y12971547D01*
X6236019Y12972016D01*
X6188960Y13009940D01*
X6166539Y13077303D01*
X6184098Y13146095D01*
X6232851Y13191485D01*
X6235706Y13192053D01*
X6252322Y13203155D01*
X6263411Y13210565D01*
X6333413Y13231800D01*
X6377285Y13231800D01*
X6389686Y13235441D01*
X6391529Y13251259D01*
X6380648Y13305961D01*
X6380648Y13355122D01*
X6395900Y13431800D01*
X6395900Y13598446D01*
X6419963Y13672506D01*
X6473265Y13745871D01*
X6477924Y13752283D01*
X6490265Y13783452D01*
X8578500Y13783452D01*
X8578500Y13582187D01*
X8579707Y13569932D01*
X8595794Y13489057D01*
X8605110Y13466565D01*
X8647466Y13403175D01*
X8664675Y13385966D01*
X8728065Y13343610D01*
X8750557Y13334294D01*
X8831432Y13318207D01*
X8843687Y13317000D01*
X9002885Y13317000D01*
X9018124Y13321475D01*
X9019329Y13322865D01*
X9021000Y13330548D01*
X9021000Y13778885D01*
X9016525Y13794124D01*
X9015135Y13795329D01*
X9007452Y13797000D01*
X8596615Y13797000D01*
X8581376Y13792525D01*
X8580171Y13791135D01*
X8578500Y13783452D01*
X6490265Y13783452D01*
X6494968Y13795329D01*
X6535864Y13898621D01*
X6535864Y13898623D01*
X6538781Y13905989D01*
X6539957Y13915294D01*
X6558506Y14062132D01*
X6559500Y14070000D01*
X6538781Y14234011D01*
X6536292Y14240298D01*
X6538708Y14310733D01*
X6553551Y14341114D01*
X6570754Y14366859D01*
X6586947Y14391094D01*
X6606700Y14490400D01*
X6606700Y14519813D01*
X8578500Y14519813D01*
X8578500Y14323115D01*
X8582975Y14307876D01*
X8584365Y14306671D01*
X8592048Y14305000D01*
X9002885Y14305000D01*
X9018124Y14309475D01*
X9019329Y14310865D01*
X9021000Y14318548D01*
X9021000Y14766885D01*
X9016525Y14782124D01*
X9015135Y14783329D01*
X9007452Y14785000D01*
X8843687Y14785000D01*
X8831432Y14783793D01*
X8750557Y14767706D01*
X8728065Y14758390D01*
X8664675Y14716034D01*
X8647466Y14698825D01*
X8605110Y14635435D01*
X8595794Y14612943D01*
X8579707Y14532068D01*
X8578500Y14519813D01*
X6606700Y14519813D01*
X6606700Y15440400D01*
X6586947Y15539706D01*
X6530694Y15623894D01*
X6446506Y15680147D01*
X6347200Y15699900D01*
X5472200Y15699900D01*
X5372894Y15680147D01*
X5288706Y15623894D01*
X5232453Y15539706D01*
X5232150Y15539908D01*
X5193786Y15492304D01*
X5126422Y15469886D01*
X5057631Y15487447D01*
X5009255Y15539410D01*
X5005519Y15547590D01*
X5004589Y15549836D01*
X4962234Y15613225D01*
X4945025Y15630434D01*
X4881635Y15672790D01*
X4859143Y15682106D01*
X4778268Y15698193D01*
X4766013Y15699400D01*
X4606815Y15699400D01*
X4591576Y15694925D01*
X4590371Y15693535D01*
X4588700Y15685852D01*
X4588700Y14249515D01*
X4593175Y14234276D01*
X4594565Y14233071D01*
X4602248Y14231400D01*
X4766013Y14231400D01*
X4778268Y14232607D01*
X4859143Y14248694D01*
X4881635Y14258010D01*
X4945025Y14300366D01*
X4962234Y14317575D01*
X5004589Y14380964D01*
X5005519Y14383210D01*
X5008859Y14387354D01*
X5011485Y14391285D01*
X5011837Y14391050D01*
X5050067Y14438492D01*
X5117430Y14460914D01*
X5186221Y14443357D01*
X5231793Y14394410D01*
X5232453Y14391094D01*
X5239345Y14380780D01*
X5239346Y14380777D01*
X5254972Y14357391D01*
X5276187Y14289638D01*
X5272248Y14256054D01*
X5245700Y14152657D01*
X5245700Y13996800D01*
X5225698Y13928679D01*
X5172042Y13882186D01*
X5119700Y13870800D01*
X4708515Y13870800D01*
X4693276Y13866325D01*
X4692071Y13864935D01*
X4690400Y13857252D01*
X4690400Y11810915D01*
X4694875Y11795676D01*
X4696265Y11794471D01*
X4703948Y11792800D01*
X5155211Y11792800D01*
X5165658Y11793829D01*
X5235411Y11780601D01*
X5266399Y11758044D01*
X5272906Y11748306D01*
X5357094Y11692053D01*
X5407881Y11681951D01*
X5470791Y11649044D01*
X5505923Y11587349D01*
X5509300Y11558372D01*
X5509300Y11554335D01*
X5489298Y11486214D01*
X5450814Y11447950D01*
X5419619Y11428153D01*
X5414192Y11422374D01*
X5414191Y11422373D01*
X5350966Y11355045D01*
X5306453Y11307644D01*
X5226812Y11162778D01*
X5185700Y11002657D01*
X5185700Y10837343D01*
X5226812Y10677222D01*
X5230631Y10670276D01*
X5230633Y10670270D01*
X5282107Y10576640D01*
X5297397Y10507310D01*
X5272777Y10440719D01*
X5216063Y10398010D01*
X5171693Y10389939D01*
X4300261Y10389939D01*
X4232140Y10409941D01*
X4211166Y10426844D01*
X3180306Y11457705D01*
X3146280Y11520017D01*
X3151345Y11590833D01*
X3193892Y11647668D01*
X3260412Y11672479D01*
X3269401Y11672800D01*
X3410213Y11672800D01*
X3422468Y11674007D01*
X3503343Y11690094D01*
X3525835Y11699410D01*
X3589225Y11741766D01*
X3605053Y11757594D01*
X3667365Y11791620D01*
X3706497Y11793892D01*
X3717585Y11792800D01*
X4164285Y11792800D01*
X4179524Y11797275D01*
X4180729Y11798665D01*
X4182400Y11806348D01*
X4182400Y13852685D01*
X4177925Y13867924D01*
X4176535Y13869129D01*
X4168852Y13870800D01*
X4085444Y13870800D01*
X4017323Y13890802D01*
X3970830Y13944458D01*
X3960726Y14014732D01*
X3968292Y14043183D01*
X3995863Y14112820D01*
X3995864Y14112823D01*
X3998781Y14120191D01*
X4000572Y14134371D01*
X4028953Y14199445D01*
X4068957Y14225641D01*
X4079029Y14237265D01*
X4080700Y14244948D01*
X4080700Y15681285D01*
X4076225Y15696524D01*
X4074835Y15697729D01*
X4067152Y15699400D01*
X3903387Y15699400D01*
X3891132Y15698193D01*
X3841281Y15688277D01*
X3770567Y15694605D01*
X3714500Y15738159D01*
X3690700Y15811856D01*
X3690700Y18500829D01*
X3710702Y18568950D01*
X3727605Y18589924D01*
X10345176Y25207496D01*
X10407488Y25241522D01*
X10434271Y25244401D01*
X11693210Y25244401D01*
X11761331Y25224399D01*
X11807824Y25170743D01*
X11817928Y25100469D01*
X11788434Y25035889D01*
X11782305Y25029306D01*
X9963340Y23210341D01*
X9955237Y23202915D01*
X9926728Y23178993D01*
X9921217Y23169447D01*
X9921215Y23169445D01*
X9907553Y23145781D01*
X9901647Y23136511D01*
X9885966Y23114116D01*
X9885965Y23114113D01*
X9879641Y23105082D01*
X9876787Y23094432D01*
X9875221Y23091073D01*
X9873948Y23087576D01*
X9868434Y23078025D01*
X9866520Y23067168D01*
X9866519Y23067166D01*
X9861774Y23040252D01*
X9859394Y23029519D01*
X9857775Y23023476D01*
X9849466Y22992467D01*
X9850427Y22981482D01*
X9850427Y22981480D01*
X9852709Y22955402D01*
X9853189Y22944420D01*
X9853189Y14909553D01*
X9833187Y14841432D01*
X9779531Y14794939D01*
X9714837Y14784160D01*
X9706310Y14785000D01*
X9547115Y14785000D01*
X9531876Y14780525D01*
X9530671Y14779135D01*
X9529000Y14771452D01*
X9529000Y13335115D01*
X9533475Y13319876D01*
X9534865Y13318671D01*
X9542548Y13317000D01*
X9706310Y13317000D01*
X9714837Y13317840D01*
X9784590Y13304613D01*
X9836119Y13255773D01*
X9853189Y13192447D01*
X9853189Y12866060D01*
X9833187Y12797939D01*
X9816284Y12776965D01*
X9740272Y12700953D01*
X9677960Y12666927D01*
X9607145Y12671992D01*
X9546412Y12720045D01*
X9543352Y12724625D01*
X9493994Y12798494D01*
X9409806Y12854747D01*
X9310500Y12874500D01*
X8660500Y12874500D01*
X8561194Y12854747D01*
X8477006Y12798494D01*
X8420753Y12714306D01*
X8401000Y12615000D01*
X8401000Y12215000D01*
X8402207Y12208932D01*
X8420753Y12115694D01*
X8416556Y12114859D01*
X8421633Y12067626D01*
X8420663Y12064324D01*
X8420753Y12064306D01*
X8401000Y11965000D01*
X8401000Y11565000D01*
X8402207Y11558932D01*
X8420753Y11465694D01*
X8416748Y11464897D01*
X8421909Y11417005D01*
X8421069Y11414144D01*
X8421215Y11414115D01*
X8405035Y11332770D01*
X8406187Y11319894D01*
X8421340Y11315000D01*
X8600330Y11315000D01*
X8624911Y11312579D01*
X8660500Y11305500D01*
X9310500Y11305500D01*
X9346089Y11312579D01*
X9370670Y11315000D01*
X9551385Y11315000D01*
X9563786Y11318641D01*
X9565629Y11334460D01*
X9549785Y11414115D01*
X9554126Y11414979D01*
X9549086Y11461662D01*
X9550268Y11465690D01*
X9550247Y11465694D01*
X9570000Y11565000D01*
X9572774Y11564448D01*
X9594893Y11619039D01*
X9604516Y11629835D01*
X10121789Y12147108D01*
X10184101Y12181134D01*
X10254916Y12176069D01*
X10311752Y12133522D01*
X10320135Y12118801D01*
X10320753Y12115694D01*
X10327645Y12105380D01*
X10327646Y12105377D01*
X10327895Y12105005D01*
X10328188Y12104071D01*
X10332395Y12093914D01*
X10331486Y12093537D01*
X10349111Y12037252D01*
X10330329Y11968785D01*
X10312226Y11945907D01*
X10111340Y11745021D01*
X10103236Y11737595D01*
X10083172Y11720760D01*
X10083167Y11720755D01*
X10074728Y11713673D01*
X10069218Y11704129D01*
X10069217Y11704128D01*
X10055553Y11680461D01*
X10049647Y11671191D01*
X10033966Y11648796D01*
X10033965Y11648793D01*
X10027641Y11639762D01*
X10024787Y11629112D01*
X10023221Y11625753D01*
X10021948Y11622256D01*
X10016434Y11612705D01*
X10014520Y11601848D01*
X10014519Y11601846D01*
X10009774Y11574932D01*
X10007394Y11564199D01*
X10005983Y11558932D01*
X9997466Y11527147D01*
X9998427Y11516162D01*
X9998427Y11516160D01*
X10000709Y11490082D01*
X10001189Y11479100D01*
X10001189Y10746900D01*
X10000709Y10735918D01*
X9998868Y10714873D01*
X9997466Y10698853D01*
X10000321Y10688199D01*
X10007394Y10661801D01*
X10009774Y10651068D01*
X10016434Y10613295D01*
X10021948Y10603744D01*
X10023221Y10600247D01*
X10024787Y10596888D01*
X10027641Y10586238D01*
X10033965Y10577207D01*
X10033966Y10577204D01*
X10049647Y10554809D01*
X10055553Y10545539D01*
X10069215Y10521875D01*
X10069217Y10521873D01*
X10074728Y10512327D01*
X10083173Y10505241D01*
X10103230Y10488411D01*
X10111334Y10480985D01*
X10524478Y10067842D01*
X10912395Y9679925D01*
X10946420Y9617612D01*
X10949300Y9590829D01*
X10949300Y7099171D01*
X10929298Y7031050D01*
X10912395Y7010076D01*
X10475986Y6573667D01*
X10413674Y6539641D01*
X10342859Y6544706D01*
X10286023Y6587253D01*
X10269739Y6616378D01*
X10233642Y6707548D01*
X10233641Y6707550D01*
X10230724Y6714917D01*
X10133555Y6848659D01*
X10119741Y6860087D01*
X10012287Y6948981D01*
X10012283Y6948984D01*
X10006178Y6954034D01*
X9856597Y7024422D01*
X9848814Y7025907D01*
X9848813Y7025907D01*
X9701996Y7053914D01*
X9701994Y7053914D01*
X9694210Y7055399D01*
X9612391Y7050251D01*
X9537133Y7045516D01*
X9537131Y7045516D01*
X9529222Y7045018D01*
X9521681Y7042568D01*
X9521682Y7042568D01*
X9474508Y7027241D01*
X9403541Y7025214D01*
X9342743Y7061876D01*
X9318421Y7100690D01*
X9312572Y7115463D01*
X9287924Y7177717D01*
X9239460Y7244423D01*
X9195418Y7305041D01*
X9190755Y7311459D01*
X9184642Y7316516D01*
X9180634Y7320784D01*
X9148583Y7384135D01*
X9153379Y7430619D01*
X9103374Y7413738D01*
X9044689Y7425629D01*
X8920970Y7483847D01*
X8920967Y7483848D01*
X8913797Y7487222D01*
X8906014Y7488707D01*
X8906013Y7488707D01*
X8759196Y7516714D01*
X8759194Y7516714D01*
X8751410Y7518199D01*
X8675520Y7513424D01*
X8594333Y7508316D01*
X8594331Y7508316D01*
X8586422Y7507818D01*
X8578886Y7505369D01*
X8578884Y7505369D01*
X8436741Y7459184D01*
X8436738Y7459183D01*
X8429199Y7456733D01*
X8318525Y7386498D01*
X8250293Y7366886D01*
X8182288Y7387277D01*
X8134604Y7444666D01*
X8129606Y7456733D01*
X8113791Y7494913D01*
X8113585Y7495221D01*
X8113442Y7495567D01*
X8105035Y7508149D01*
X7979768Y7695626D01*
X7979765Y7695630D01*
X7976329Y7700772D01*
X7976064Y7701037D01*
X7975857Y7701347D01*
X7801347Y7875857D01*
X7801037Y7876064D01*
X7800772Y7876329D01*
X7795630Y7879765D01*
X7795626Y7879768D01*
X7600734Y8009990D01*
X7600731Y8009992D01*
X7595567Y8013442D01*
X7595221Y8013585D01*
X7594913Y8013791D01*
X7366903Y8108237D01*
X7366536Y8108310D01*
X7366191Y8108453D01*
X7360126Y8109659D01*
X7360124Y8109660D01*
X7228298Y8135881D01*
X7150234Y8151409D01*
X7147380Y8152011D01*
X7129523Y8156005D01*
X7126805Y8156069D01*
X7124137Y8156600D01*
X7105902Y8156600D01*
X7102919Y8156635D01*
X6987187Y8159376D01*
X6987183Y8159376D01*
X6981003Y8159522D01*
X6974909Y8158459D01*
X6974907Y8158459D01*
X6960087Y8155874D01*
X6938438Y8154000D01*
X6661569Y8154000D01*
X6639918Y8155874D01*
X6638800Y8156069D01*
X6618998Y8159523D01*
X6612820Y8159377D01*
X6612815Y8159377D01*
X6497074Y8156635D01*
X6494090Y8156600D01*
X6475862Y8156600D01*
X6473194Y8156069D01*
X6470477Y8156005D01*
X6464670Y8154706D01*
X6464655Y8154704D01*
X6452672Y8152024D01*
X6449758Y8151408D01*
X6233809Y8108453D01*
X6233463Y8108310D01*
X6233098Y8108237D01*
X6005087Y8013791D01*
X6004779Y8013585D01*
X6004433Y8013442D01*
X5999266Y8009990D01*
X5999265Y8009989D01*
X5804374Y7879768D01*
X5804370Y7879765D01*
X5799228Y7876329D01*
X5798963Y7876064D01*
X5798653Y7875857D01*
X5624143Y7701347D01*
X5623936Y7701037D01*
X5623671Y7700772D01*
X5620235Y7695630D01*
X5620232Y7695626D01*
X5490955Y7502148D01*
X5486558Y7495567D01*
X5486415Y7495221D01*
X5486209Y7494913D01*
X5391763Y7266903D01*
X5391690Y7266536D01*
X5391547Y7266191D01*
X5390341Y7260126D01*
X5390340Y7260124D01*
X5378323Y7199709D01*
X5349324Y7053914D01*
X5348595Y7050251D01*
X5347989Y7047380D01*
X5343995Y7029523D01*
X5343931Y7026805D01*
X5343400Y7024137D01*
X5343400Y7005902D01*
X5343365Y7002919D01*
X5340478Y6881003D01*
X5341541Y6874909D01*
X5341541Y6874907D01*
X5344126Y6860087D01*
X5346000Y6838438D01*
X5346000Y1064547D01*
X5343670Y1043454D01*
X5343771Y1043442D01*
X5343019Y1037302D01*
X5341668Y1031261D01*
X5341522Y1025077D01*
X5339822Y953316D01*
X5339250Y943950D01*
X5337165Y922779D01*
X5335351Y910547D01*
X5313608Y801236D01*
X5310607Y789254D01*
X5307933Y780437D01*
X5303778Y768825D01*
X5261109Y665814D01*
X5255827Y654649D01*
X5251493Y646542D01*
X5245149Y635959D01*
X5183218Y543272D01*
X5175866Y533358D01*
X5170022Y526237D01*
X5161717Y517075D01*
X5082925Y438283D01*
X5073773Y429986D01*
X5066641Y424134D01*
X5056730Y416783D01*
X4964944Y355454D01*
X4964042Y354851D01*
X4953450Y348502D01*
X4945339Y344167D01*
X4934172Y338885D01*
X4831185Y296226D01*
X4819559Y292066D01*
X4810746Y289393D01*
X4798773Y286394D01*
X4775441Y281753D01*
X4689451Y264649D01*
X4677220Y262835D01*
X4656060Y260751D01*
X4646694Y260179D01*
X4574923Y258479D01*
X4574918Y258478D01*
X4568739Y258332D01*
X4562700Y256981D01*
X4556559Y256229D01*
X4556547Y256330D01*
X4535453Y254000D01*
X1064547Y254000D01*
X1043454Y256330D01*
X1043442Y256229D01*
X1037302Y256981D01*
X1031261Y258332D01*
X986403Y259394D01*
X953316Y260178D01*
X943950Y260750D01*
X922779Y262835D01*
X910547Y264649D01*
X896728Y267398D01*
X801229Y286394D01*
X789254Y289393D01*
X780437Y292067D01*
X768825Y296222D01*
X665814Y338891D01*
X654654Y344171D01*
X650799Y346231D01*
X646542Y348507D01*
X635959Y354851D01*
X543272Y416782D01*
X533363Y424130D01*
X526231Y429983D01*
X517075Y438283D01*
X438283Y517075D01*
X429983Y526231D01*
X429978Y526237D01*
X424134Y533359D01*
X416783Y543270D01*
X354851Y635958D01*
X348502Y646550D01*
X344167Y654661D01*
X338885Y665828D01*
X318733Y714480D01*
X296226Y768815D01*
X292066Y780441D01*
X289393Y789254D01*
X286393Y801231D01*
X264649Y910549D01*
X262835Y922780D01*
X260751Y943940D01*
X260179Y953306D01*
X258479Y1025077D01*
X258478Y1025082D01*
X258332Y1031261D01*
X256981Y1037300D01*
X256229Y1043441D01*
X256330Y1043453D01*
X254000Y1064547D01*
X254000Y3256000D01*
X1190500Y3256000D01*
X1210316Y3004219D01*
X1269275Y2758637D01*
X1365925Y2525302D01*
X1497887Y2309960D01*
X1661912Y2117912D01*
X1853960Y1953887D01*
X2069302Y1821925D01*
X2073872Y1820032D01*
X2073876Y1820030D01*
X2298064Y1727169D01*
X2302637Y1725275D01*
X2388021Y1704776D01*
X2543406Y1667471D01*
X2543412Y1667470D01*
X2548219Y1666316D01*
X2800000Y1646500D01*
X3051781Y1666316D01*
X3056588Y1667470D01*
X3056594Y1667471D01*
X3211979Y1704776D01*
X3297363Y1725275D01*
X3301936Y1727169D01*
X3526124Y1820030D01*
X3526128Y1820032D01*
X3530698Y1821925D01*
X3746040Y1953887D01*
X3938088Y2117912D01*
X4102113Y2309960D01*
X4234075Y2525302D01*
X4330725Y2758637D01*
X4389684Y3004219D01*
X4409500Y3256000D01*
X4389684Y3507781D01*
X4330725Y3753363D01*
X4234075Y3986698D01*
X4102113Y4202040D01*
X3938088Y4394088D01*
X3746040Y4558113D01*
X3530698Y4690075D01*
X3526128Y4691968D01*
X3526124Y4691970D01*
X3301936Y4784831D01*
X3301934Y4784832D01*
X3297363Y4786725D01*
X3211979Y4807224D01*
X3056594Y4844529D01*
X3056588Y4844530D01*
X3051781Y4845684D01*
X2800000Y4865500D01*
X2548219Y4845684D01*
X2543412Y4844530D01*
X2543406Y4844529D01*
X2388021Y4807224D01*
X2302637Y4786725D01*
X2298066Y4784832D01*
X2298064Y4784831D01*
X2073876Y4691970D01*
X2073872Y4691968D01*
X2069302Y4690075D01*
X1853960Y4558113D01*
X1661912Y4394088D01*
X1497887Y4202040D01*
X1365925Y3986698D01*
X1269275Y3753363D01*
X1210316Y3507781D01*
X1190500Y3256000D01*
X254000Y3256000D01*
X254000Y27522657D01*
X12825700Y27522657D01*
X12825700Y27357343D01*
X12866812Y27197222D01*
X12946453Y27052356D01*
X12951877Y27046580D01*
X13052105Y26939849D01*
X13059619Y26931847D01*
X13199199Y26843267D01*
X13206738Y26840817D01*
X13206741Y26840816D01*
X13348884Y26794631D01*
X13348886Y26794631D01*
X13356422Y26792182D01*
X13364331Y26791684D01*
X13364333Y26791684D01*
X13435030Y26787236D01*
X13521410Y26781801D01*
X13529194Y26783286D01*
X13529196Y26783286D01*
X13676013Y26811293D01*
X13676014Y26811293D01*
X13683797Y26812778D01*
X13833378Y26883166D01*
X13839483Y26888216D01*
X13839487Y26888219D01*
X13954647Y26983488D01*
X13960755Y26988541D01*
X14013636Y27061326D01*
X14053265Y27115870D01*
X14053266Y27115872D01*
X14057924Y27122283D01*
X14067999Y27147728D01*
X14115864Y27268621D01*
X14115864Y27268623D01*
X14118781Y27275989D01*
X14139500Y27440000D01*
X14118781Y27604011D01*
X14057924Y27757717D01*
X13960755Y27891459D01*
X13856385Y27977801D01*
X13816647Y28036635D01*
X13810700Y28074886D01*
X13810700Y30827915D01*
X15002598Y30827915D01*
X15002598Y30668717D01*
X15007073Y30653478D01*
X15008463Y30652273D01*
X15016146Y30650602D01*
X15464483Y30650602D01*
X15479722Y30655077D01*
X15480927Y30656467D01*
X15482598Y30664150D01*
X15482598Y31074987D01*
X15481257Y31079554D01*
X15990598Y31079554D01*
X15990598Y30668717D01*
X15995073Y30653478D01*
X15996463Y30652273D01*
X16004146Y30650602D01*
X16452483Y30650602D01*
X16467722Y30655077D01*
X16468927Y30656467D01*
X16470598Y30664150D01*
X16470598Y30827915D01*
X16469391Y30840170D01*
X16453304Y30921045D01*
X16443988Y30943537D01*
X16401632Y31006927D01*
X16384423Y31024136D01*
X16321033Y31066492D01*
X16298541Y31075808D01*
X16217666Y31091895D01*
X16205411Y31093102D01*
X16008713Y31093102D01*
X15993474Y31088627D01*
X15992269Y31087237D01*
X15990598Y31079554D01*
X15481257Y31079554D01*
X15478123Y31090226D01*
X15476733Y31091431D01*
X15469050Y31093102D01*
X15267785Y31093102D01*
X15255530Y31091895D01*
X15174655Y31075808D01*
X15152163Y31066492D01*
X15088773Y31024136D01*
X15071564Y31006927D01*
X15029208Y30943537D01*
X15019892Y30921045D01*
X15003805Y30840170D01*
X15002598Y30827915D01*
X13810700Y30827915D01*
X13810700Y31386008D01*
X13830702Y31454129D01*
X13847604Y31475103D01*
X14194812Y31822311D01*
X14670392Y32297892D01*
X14732705Y32331917D01*
X14767397Y32334548D01*
X14928820Y32324391D01*
X14936604Y32325876D01*
X14936606Y32325876D01*
X15083423Y32353883D01*
X15083424Y32353883D01*
X15091207Y32355368D01*
X15240788Y32425756D01*
X15246893Y32430806D01*
X15246897Y32430809D01*
X15362057Y32526078D01*
X15368165Y32531131D01*
X15447979Y32640986D01*
X15460675Y32658460D01*
X15460676Y32658462D01*
X15465334Y32664873D01*
X15526191Y32818579D01*
X15534813Y32886825D01*
X15545916Y32974722D01*
X15546910Y32982590D01*
X15535498Y33072926D01*
X15527185Y33138736D01*
X15527184Y33138739D01*
X15526191Y33146601D01*
X15465334Y33300307D01*
X15368165Y33434049D01*
X15362057Y33439102D01*
X15246897Y33534371D01*
X15246893Y33534374D01*
X15240788Y33539424D01*
X15091207Y33609812D01*
X15083424Y33611297D01*
X15083423Y33611297D01*
X14936606Y33639304D01*
X14936604Y33639304D01*
X14928820Y33640789D01*
X14846326Y33635598D01*
X14771743Y33630906D01*
X14771741Y33630906D01*
X14763832Y33630408D01*
X14756296Y33627959D01*
X14756294Y33627959D01*
X14614151Y33581774D01*
X14614148Y33581773D01*
X14606609Y33579323D01*
X14467029Y33490743D01*
X14461602Y33484964D01*
X14461601Y33484963D01*
X14407766Y33427635D01*
X14353863Y33370234D01*
X14274222Y33225368D01*
X14233110Y33065247D01*
X14233110Y32899933D01*
X14236477Y32886820D01*
X14234046Y32815870D01*
X14203533Y32766393D01*
X13259439Y31822300D01*
X13251348Y31814886D01*
X13222839Y31790964D01*
X13217328Y31781418D01*
X13217326Y31781416D01*
X13203664Y31757752D01*
X13197758Y31748482D01*
X13182077Y31726087D01*
X13182076Y31726084D01*
X13175752Y31717053D01*
X13172898Y31706403D01*
X13171332Y31703044D01*
X13170059Y31699547D01*
X13164545Y31689996D01*
X13162631Y31679139D01*
X13162630Y31679137D01*
X13157885Y31652223D01*
X13155505Y31641490D01*
X13149911Y31620612D01*
X13145577Y31604438D01*
X13146538Y31593453D01*
X13146538Y31593451D01*
X13148820Y31567373D01*
X13149300Y31556391D01*
X13149300Y28074335D01*
X13129298Y28006214D01*
X13090814Y27967950D01*
X13059619Y27948153D01*
X13054192Y27942374D01*
X13054191Y27942373D01*
X13000356Y27885045D01*
X12946453Y27827644D01*
X12866812Y27682778D01*
X12825700Y27522657D01*
X254000Y27522657D01*
X254000Y35752452D01*
X14816000Y35752452D01*
X14816000Y35439568D01*
X14816636Y35430648D01*
X14830186Y35336031D01*
X14835175Y35318969D01*
X14887479Y35203932D01*
X14897048Y35188970D01*
X14979536Y35093236D01*
X14992930Y35081553D01*
X15098961Y35012827D01*
X15115104Y35005368D01*
X15238231Y34968545D01*
X15251265Y34966141D01*
X15255062Y34966000D01*
X16547885Y34966000D01*
X16563124Y34970475D01*
X16564329Y34971865D01*
X16566000Y34979548D01*
X16566000Y35747885D01*
X16564659Y35752452D01*
X17074000Y35752452D01*
X17074000Y34984115D01*
X17078475Y34968876D01*
X17079865Y34967671D01*
X17087548Y34966000D01*
X18350432Y34966000D01*
X18359352Y34966636D01*
X18453969Y34980186D01*
X18471031Y34985175D01*
X18586068Y35037479D01*
X18601030Y35047048D01*
X18696764Y35129536D01*
X18708447Y35142930D01*
X18777173Y35248961D01*
X18784632Y35265104D01*
X18821455Y35388231D01*
X18823859Y35401265D01*
X18824000Y35405062D01*
X18824000Y35747885D01*
X18819525Y35763124D01*
X18818135Y35764329D01*
X18810452Y35766000D01*
X17092115Y35766000D01*
X17076876Y35761525D01*
X17075671Y35760135D01*
X17074000Y35752452D01*
X16564659Y35752452D01*
X16561525Y35763124D01*
X16560135Y35764329D01*
X16552452Y35766000D01*
X14834115Y35766000D01*
X14818876Y35761525D01*
X14817671Y35760135D01*
X14816000Y35752452D01*
X254000Y35752452D01*
X254000Y36634938D01*
X14816000Y36634938D01*
X14816000Y36292115D01*
X14820475Y36276876D01*
X14821865Y36275671D01*
X14829548Y36274000D01*
X16547885Y36274000D01*
X16563124Y36278475D01*
X16564329Y36279865D01*
X16566000Y36287548D01*
X16566000Y37055885D01*
X16564659Y37060452D01*
X17074000Y37060452D01*
X17074000Y36292115D01*
X17078475Y36276876D01*
X17079865Y36275671D01*
X17087548Y36274000D01*
X18805885Y36274000D01*
X18821124Y36278475D01*
X18822329Y36279865D01*
X18824000Y36287548D01*
X18824000Y36600432D01*
X18823364Y36609352D01*
X18809814Y36703969D01*
X18804825Y36721031D01*
X18752521Y36836068D01*
X18742952Y36851030D01*
X18660464Y36946764D01*
X18647070Y36958447D01*
X18541039Y37027173D01*
X18524896Y37034632D01*
X18401769Y37071455D01*
X18388735Y37073859D01*
X18384938Y37074000D01*
X17092115Y37074000D01*
X17076876Y37069525D01*
X17075671Y37068135D01*
X17074000Y37060452D01*
X16564659Y37060452D01*
X16561525Y37071124D01*
X16560135Y37072329D01*
X16552452Y37074000D01*
X15289568Y37074000D01*
X15280648Y37073364D01*
X15186031Y37059814D01*
X15168969Y37054825D01*
X15053932Y37002521D01*
X15038970Y36992952D01*
X14943236Y36910464D01*
X14931553Y36897070D01*
X14862827Y36791039D01*
X14855368Y36774896D01*
X14818545Y36651769D01*
X14816141Y36638735D01*
X14816000Y36634938D01*
X254000Y36634938D01*
X254000Y38335453D01*
X256330Y38356547D01*
X256229Y38356559D01*
X256981Y38362700D01*
X258332Y38368739D01*
X258478Y38374918D01*
X258479Y38374923D01*
X260179Y38446694D01*
X260751Y38456060D01*
X262835Y38477220D01*
X264649Y38489451D01*
X286393Y38598769D01*
X289393Y38610746D01*
X292066Y38619559D01*
X296226Y38631185D01*
X338885Y38734172D01*
X344167Y38745339D01*
X348502Y38753450D01*
X354851Y38764042D01*
X356763Y38766903D01*
X416783Y38856730D01*
X424134Y38866641D01*
X429986Y38873773D01*
X438283Y38882925D01*
X517075Y38961717D01*
X526237Y38970022D01*
X533363Y38975870D01*
X543272Y38983218D01*
X635959Y39045149D01*
X646542Y39051493D01*
X650799Y39053769D01*
X654654Y39055829D01*
X665814Y39061109D01*
X768825Y39103778D01*
X780437Y39107933D01*
X789254Y39110607D01*
X801229Y39113606D01*
X910546Y39135351D01*
X922779Y39137165D01*
X943950Y39139250D01*
X953316Y39139822D01*
X986403Y39140606D01*
X1031261Y39141668D01*
X1037302Y39143019D01*
X1043442Y39143771D01*
X1043454Y39143670D01*
X1064547Y39146000D01*
X19876574Y39146000D01*
X19944695Y39125998D01*
G37*
G04 #@! TD.AperFunction*
G04 #@! TA.AperFunction,Conductor*
G36*
X19950051Y16486608D02*
G01*
X20006887Y16444061D01*
X20031698Y16377541D01*
X20032019Y16368716D01*
X20041170Y9329364D01*
X20021256Y9261217D01*
X19967661Y9214655D01*
X19904187Y9203680D01*
X19883732Y9205470D01*
X19883727Y9205470D01*
X19872749Y9206430D01*
X19862103Y9203577D01*
X19862100Y9203577D01*
X19835697Y9196502D01*
X19824964Y9194122D01*
X19798050Y9189377D01*
X19798048Y9189376D01*
X19787191Y9187462D01*
X19777640Y9181948D01*
X19774143Y9180675D01*
X19770784Y9179109D01*
X19760134Y9176255D01*
X19751103Y9169931D01*
X19751100Y9169930D01*
X19728705Y9154249D01*
X19719435Y9148343D01*
X19695771Y9134681D01*
X19695769Y9134679D01*
X19686223Y9129168D01*
X19679137Y9120723D01*
X19662302Y9100660D01*
X19654875Y9092556D01*
X19043805Y8481486D01*
X18981493Y8447460D01*
X18931101Y8446813D01*
X18879198Y8456714D01*
X18879193Y8456714D01*
X18871410Y8458199D01*
X18788916Y8453008D01*
X18714333Y8448316D01*
X18714331Y8448316D01*
X18706422Y8447818D01*
X18698886Y8445369D01*
X18698884Y8445369D01*
X18556741Y8399184D01*
X18556738Y8399183D01*
X18549199Y8396733D01*
X18409619Y8308153D01*
X18404192Y8302374D01*
X18404191Y8302373D01*
X18302312Y8193883D01*
X18296453Y8187644D01*
X18216812Y8042778D01*
X18175700Y7882657D01*
X18175700Y7717343D01*
X18177672Y7709663D01*
X18179707Y7701736D01*
X18177275Y7630781D01*
X18136869Y7572405D01*
X18102583Y7554424D01*
X18103062Y7553299D01*
X18002275Y7510414D01*
X17931761Y7502148D01*
X17867972Y7533317D01*
X17851005Y7552295D01*
X17849459Y7554424D01*
X17838083Y7570081D01*
X17814020Y7644141D01*
X17814020Y14402553D01*
X17834022Y14470674D01*
X17850925Y14491648D01*
X19816924Y16457647D01*
X19879236Y16491673D01*
X19950051Y16486608D01*
G37*
G04 #@! TD.AperFunction*
G04 #@! TA.AperFunction,Conductor*
G36*
X18641929Y20403244D02*
G01*
X18698765Y20360697D01*
X18723576Y20294177D01*
X18723897Y20285188D01*
X18723897Y17170451D01*
X18703895Y17102330D01*
X18686992Y17081356D01*
X18249461Y16643825D01*
X18187149Y16609799D01*
X18143922Y16607998D01*
X18080203Y16616387D01*
X18072015Y16615309D01*
X17930639Y16596697D01*
X17930637Y16596696D01*
X17922453Y16595619D01*
X17775453Y16534729D01*
X17649221Y16437869D01*
X17552361Y16311637D01*
X17491471Y16164637D01*
X17470703Y16006887D01*
X17479092Y15943170D01*
X17468153Y15873024D01*
X17443265Y15837629D01*
X16889445Y15283810D01*
X16881341Y15276384D01*
X16852839Y15252468D01*
X16847328Y15242922D01*
X16847326Y15242920D01*
X16833664Y15219256D01*
X16827758Y15209986D01*
X16812077Y15187591D01*
X16812076Y15187588D01*
X16805752Y15178557D01*
X16802898Y15167907D01*
X16801332Y15164548D01*
X16800059Y15161051D01*
X16794545Y15151500D01*
X16792631Y15140643D01*
X16792630Y15140641D01*
X16787885Y15113727D01*
X16785505Y15102994D01*
X16779911Y15082116D01*
X16775577Y15065942D01*
X16776538Y15054957D01*
X16776538Y15054955D01*
X16778820Y15028877D01*
X16779300Y15017895D01*
X16779300Y10652596D01*
X16759298Y10584475D01*
X16705642Y10537982D01*
X16635368Y10527878D01*
X16599654Y10538586D01*
X16533131Y10569890D01*
X16480012Y10616991D01*
X16460789Y10685336D01*
X16461775Y10699689D01*
X16478506Y10832132D01*
X16479500Y10840000D01*
X16471651Y10902132D01*
X16459775Y10996146D01*
X16459774Y10996149D01*
X16458781Y11004011D01*
X16397924Y11157717D01*
X16389201Y11169724D01*
X16305415Y11285045D01*
X16300755Y11291459D01*
X16272299Y11315000D01*
X16179487Y11391781D01*
X16179483Y11391784D01*
X16173378Y11396834D01*
X16023797Y11467222D01*
X16016014Y11468707D01*
X16016013Y11468707D01*
X15869196Y11496714D01*
X15869194Y11496714D01*
X15861410Y11498199D01*
X15778916Y11493009D01*
X15704333Y11488316D01*
X15704331Y11488316D01*
X15696422Y11487818D01*
X15679055Y11482175D01*
X15677411Y11481641D01*
X15606443Y11479615D01*
X15545646Y11516279D01*
X15514322Y11579992D01*
X15512477Y11601475D01*
X15512477Y17280095D01*
X15532479Y17348216D01*
X15549382Y17369190D01*
X16265145Y18084952D01*
X16780598Y18084952D01*
X16780598Y17921187D01*
X16781805Y17908932D01*
X16797892Y17828057D01*
X16807208Y17805565D01*
X16849564Y17742175D01*
X16866773Y17724966D01*
X16930163Y17682610D01*
X16952655Y17673294D01*
X17033530Y17657207D01*
X17045785Y17656000D01*
X17242483Y17656000D01*
X17257722Y17660475D01*
X17258927Y17661865D01*
X17260598Y17669548D01*
X17260598Y18080385D01*
X17259257Y18084952D01*
X17768598Y18084952D01*
X17768598Y17674115D01*
X17773073Y17658876D01*
X17774463Y17657671D01*
X17782146Y17656000D01*
X17983411Y17656000D01*
X17995666Y17657207D01*
X18076541Y17673294D01*
X18099033Y17682610D01*
X18162423Y17724966D01*
X18179632Y17742175D01*
X18221988Y17805565D01*
X18231304Y17828057D01*
X18247391Y17908932D01*
X18248598Y17921187D01*
X18248598Y18080385D01*
X18244123Y18095624D01*
X18242733Y18096829D01*
X18235050Y18098500D01*
X17786713Y18098500D01*
X17771474Y18094025D01*
X17770269Y18092635D01*
X17768598Y18084952D01*
X17259257Y18084952D01*
X17256123Y18095624D01*
X17254733Y18096829D01*
X17247050Y18098500D01*
X16798713Y18098500D01*
X16783474Y18094025D01*
X16782269Y18092635D01*
X16780598Y18084952D01*
X16265145Y18084952D01*
X16749788Y18569595D01*
X16812100Y18603621D01*
X16838883Y18606500D01*
X18230483Y18606500D01*
X18245722Y18610975D01*
X18246927Y18612365D01*
X18248598Y18620048D01*
X18248598Y18783813D01*
X18247391Y18796068D01*
X18231304Y18876943D01*
X18221988Y18899435D01*
X18179632Y18962825D01*
X18162423Y18980034D01*
X18099034Y19022389D01*
X18096788Y19023319D01*
X18092644Y19026659D01*
X18088713Y19029285D01*
X18088948Y19029637D01*
X18041506Y19067867D01*
X18019084Y19135230D01*
X18036641Y19204021D01*
X18085588Y19249593D01*
X18088904Y19250253D01*
X18173092Y19306506D01*
X18229345Y19390694D01*
X18249098Y19490000D01*
X18249098Y20062389D01*
X18269100Y20130510D01*
X18286003Y20151484D01*
X18508802Y20374283D01*
X18571114Y20408309D01*
X18641929Y20403244D01*
G37*
G04 #@! TD.AperFunction*
G04 #@! TA.AperFunction,Conductor*
G36*
X17925100Y23170600D02*
G01*
X17963433Y23124731D01*
X17965313Y23125987D01*
X18014564Y23052277D01*
X18031773Y23035068D01*
X18105483Y22985817D01*
X18104381Y22984168D01*
X18147595Y22949347D01*
X18170098Y22877483D01*
X18170098Y22175102D01*
X18171305Y22169034D01*
X18171912Y22162871D01*
X18171598Y22162840D01*
X18173098Y22147610D01*
X18173098Y21169815D01*
X18153096Y21101694D01*
X18136193Y21080720D01*
X17716878Y20661405D01*
X17654566Y20627379D01*
X17627783Y20624500D01*
X17039598Y20624500D01*
X16940292Y20604747D01*
X16856104Y20548494D01*
X16799851Y20464306D01*
X16780098Y20365000D01*
X16780098Y20291169D01*
X16760096Y20223048D01*
X16743193Y20202074D01*
X14555910Y18014791D01*
X14543521Y18003925D01*
X14519673Y17985625D01*
X14491800Y17949299D01*
X14486473Y17942357D01*
X14486472Y17942356D01*
X14437505Y17878541D01*
X14426785Y17864571D01*
X14368393Y17723601D01*
X14348477Y17572321D01*
X14349555Y17564133D01*
X14349555Y17564132D01*
X14352399Y17542529D01*
X14353477Y17526083D01*
X14353477Y14785408D01*
X14333475Y14717287D01*
X14279819Y14670794D01*
X14266427Y14665580D01*
X14239199Y14656733D01*
X14099619Y14568153D01*
X14094192Y14562374D01*
X14094191Y14562373D01*
X14053742Y14519299D01*
X13986453Y14447644D01*
X13906812Y14302778D01*
X13865700Y14142657D01*
X13865700Y13977343D01*
X13906812Y13817222D01*
X13986453Y13672356D01*
X13991877Y13666580D01*
X14081093Y13571576D01*
X14087257Y13563657D01*
X14087401Y13563341D01*
X14088456Y13562117D01*
X14118285Y13527498D01*
X14124572Y13519580D01*
X14130587Y13511346D01*
X14130592Y13511340D01*
X14133466Y13507406D01*
X14145562Y13495310D01*
X14151919Y13488464D01*
X14182438Y13453045D01*
X14189972Y13448162D01*
X14196734Y13442263D01*
X14196675Y13442195D01*
X14207159Y13433713D01*
X14316572Y13324300D01*
X14350598Y13261988D01*
X14353477Y13235205D01*
X14353477Y11736500D01*
X14333475Y11668379D01*
X14279819Y11621886D01*
X14227477Y11610500D01*
X13646384Y11610500D01*
X13578263Y11630502D01*
X13531770Y11684158D01*
X13520384Y11736500D01*
X13520384Y20754500D01*
X13540386Y20822621D01*
X13594042Y20869114D01*
X13646384Y20880500D01*
X14060000Y20880500D01*
X14070914Y20882671D01*
X14147136Y20897832D01*
X14147137Y20897833D01*
X14159306Y20900253D01*
X14165334Y20904281D01*
X14232373Y20911488D01*
X14252901Y20905460D01*
X14260694Y20900253D01*
X14272863Y20897833D01*
X14272864Y20897832D01*
X14349086Y20882671D01*
X14360000Y20880500D01*
X15360000Y20880500D01*
X15459306Y20900253D01*
X15465691Y20904519D01*
X15533021Y20911759D01*
X15558869Y20904170D01*
X15573055Y20898294D01*
X15653932Y20882207D01*
X15666187Y20881000D01*
X15887885Y20881000D01*
X15903124Y20885475D01*
X15904329Y20886865D01*
X15906000Y20894548D01*
X15906000Y21320951D01*
X15926002Y21389072D01*
X15937064Y21402799D01*
X15943141Y21406859D01*
X15960628Y21433030D01*
X15992390Y21480565D01*
X15992391Y21480567D01*
X15999285Y21490885D01*
X16014000Y21564863D01*
X16019000Y21590000D01*
X16016421Y21602967D01*
X16014502Y21622452D01*
X16414000Y21622452D01*
X16414000Y20899115D01*
X16418475Y20883876D01*
X16419865Y20882671D01*
X16427548Y20881000D01*
X16653813Y20881000D01*
X16666068Y20882207D01*
X16746943Y20898294D01*
X16769435Y20907610D01*
X16832825Y20949966D01*
X16850034Y20967175D01*
X16892390Y21030565D01*
X16901706Y21053057D01*
X16917793Y21133932D01*
X16919000Y21146187D01*
X16919000Y21617885D01*
X16914525Y21633124D01*
X16913135Y21634329D01*
X16905452Y21636000D01*
X16432115Y21636000D01*
X16416876Y21631525D01*
X16415671Y21630135D01*
X16414000Y21622452D01*
X16014502Y21622452D01*
X16014000Y21627547D01*
X16014000Y22018000D01*
X16034002Y22086121D01*
X16087658Y22132614D01*
X16140000Y22144000D01*
X16900885Y22144000D01*
X16916124Y22148475D01*
X16917329Y22149865D01*
X16919000Y22157548D01*
X16919000Y22633813D01*
X16917793Y22646068D01*
X16901706Y22726943D01*
X16892390Y22749434D01*
X16862146Y22794698D01*
X16840932Y22862451D01*
X16859716Y22930918D01*
X16912533Y22978361D01*
X16966912Y22990699D01*
X17282106Y22990699D01*
X17293088Y22990219D01*
X17319166Y22987937D01*
X17319168Y22987937D01*
X17330153Y22986976D01*
X17350645Y22992467D01*
X17367205Y22996904D01*
X17377938Y22999284D01*
X17404852Y23004029D01*
X17404854Y23004030D01*
X17415711Y23005944D01*
X17425262Y23011458D01*
X17428759Y23012731D01*
X17432118Y23014297D01*
X17442768Y23017151D01*
X17451799Y23023475D01*
X17451802Y23023476D01*
X17474197Y23039157D01*
X17483467Y23045063D01*
X17507134Y23058727D01*
X17507135Y23058728D01*
X17516679Y23064238D01*
X17523761Y23072677D01*
X17523766Y23072682D01*
X17540601Y23092746D01*
X17548027Y23100850D01*
X17600874Y23153697D01*
X17663186Y23187723D01*
X17689969Y23190602D01*
X17856979Y23190602D01*
X17925100Y23170600D01*
G37*
G04 #@! TD.AperFunction*
G04 #@! TA.AperFunction,Conductor*
G36*
X11372112Y23579585D02*
G01*
X11428948Y23537038D01*
X11450121Y23492864D01*
X11463577Y23440457D01*
X11543218Y23295591D01*
X11548642Y23289815D01*
X11603145Y23231776D01*
X11656384Y23175082D01*
X11735725Y23124731D01*
X11790814Y23089770D01*
X11837613Y23036381D01*
X11849300Y22983385D01*
X11849300Y14831215D01*
X11829298Y14763094D01*
X11775642Y14716601D01*
X11699690Y14707447D01*
X11600586Y14726352D01*
X11600584Y14726352D01*
X11592800Y14727837D01*
X11498891Y14721928D01*
X11429649Y14737612D01*
X11420976Y14742915D01*
X11397126Y14758852D01*
X11397123Y14758853D01*
X11386806Y14765747D01*
X11287500Y14785500D01*
X10640589Y14785500D01*
X10572468Y14805502D01*
X10525975Y14859158D01*
X10514589Y14911500D01*
X10514589Y22774038D01*
X10534591Y22842159D01*
X10551494Y22863133D01*
X11238985Y23550624D01*
X11301297Y23584650D01*
X11372112Y23579585D01*
G37*
G04 #@! TD.AperFunction*
M02*
