G04 #@! TF.GenerationSoftware,KiCad,Pcbnew,(5.99.0-8491-gb8dfcb34c4)*
G04 #@! TF.CreationDate,2021-01-21T08:47:48+01:00*
G04 #@! TF.ProjectId,TMC2209_Driver,544d4332-3230-4395-9f44-72697665722e,rev?*
G04 #@! TF.SameCoordinates,PX67f3540PY6cb8080*
G04 #@! TF.FileFunction,Legend,Bot*
G04 #@! TF.FilePolarity,Positive*
%FSLAX46Y46*%
G04 Gerber Fmt 4.6, Leading zero omitted, Abs format (unit mm)*
G04 Created by KiCad (PCBNEW (5.99.0-8491-gb8dfcb34c4)) date 2021-01-21 08:47:48*
%MOMM*%
%LPD*%
G01*
G04 APERTURE LIST*
%ADD10C,0.010000*%
G04 APERTURE END LIST*
D10*
X32410256Y9369032D02*
X32353384Y9347913D01*
X32353384Y9347913D02*
X32352733Y9347507D01*
X32352733Y9347507D02*
X32317560Y9321620D01*
X32317560Y9321620D02*
X32291593Y9291367D01*
X32291593Y9291367D02*
X32273330Y9251942D01*
X32273330Y9251942D02*
X32261268Y9198538D01*
X32261268Y9198538D02*
X32253904Y9126349D01*
X32253904Y9126349D02*
X32249736Y9030568D01*
X32249736Y9030568D02*
X32249371Y9016922D01*
X32249371Y9016922D02*
X32244124Y8811158D01*
X32244124Y8811158D02*
X32288284Y8788322D01*
X32288284Y8788322D02*
X32320237Y8772890D01*
X32320237Y8772890D02*
X32339530Y8765577D01*
X32339530Y8765577D02*
X32340422Y8765486D01*
X32340422Y8765486D02*
X32343761Y8778978D01*
X32343761Y8778978D02*
X32346413Y8815374D01*
X32346413Y8815374D02*
X32348044Y8868548D01*
X32348044Y8868548D02*
X32348400Y8911607D01*
X32348400Y8911607D02*
X32348408Y8981359D01*
X32348408Y8981359D02*
X32351597Y9025163D01*
X32351597Y9025163D02*
X32362712Y9046056D01*
X32362712Y9046056D02*
X32386499Y9047075D01*
X32386499Y9047075D02*
X32427704Y9031259D01*
X32427704Y9031259D02*
X32489914Y9002185D01*
X32489914Y9002185D02*
X32535659Y8978037D01*
X32535659Y8978037D02*
X32559187Y8957087D01*
X32559187Y8957087D02*
X32566104Y8934253D01*
X32566104Y8934253D02*
X32566114Y8933123D01*
X32566114Y8933123D02*
X32554701Y8893788D01*
X32554701Y8893788D02*
X32520908Y8872538D01*
X32520908Y8872538D02*
X32469191Y8869461D01*
X32469191Y8869461D02*
X32431939Y8869994D01*
X32431939Y8869994D02*
X32412297Y8859265D01*
X32412297Y8859265D02*
X32400048Y8833495D01*
X32400048Y8833495D02*
X32392998Y8800663D01*
X32392998Y8800663D02*
X32403158Y8782034D01*
X32403158Y8782034D02*
X32406983Y8779368D01*
X32406983Y8779368D02*
X32442999Y8768660D01*
X32442999Y8768660D02*
X32493434Y8767144D01*
X32493434Y8767144D02*
X32545374Y8774241D01*
X32545374Y8774241D02*
X32582178Y8787212D01*
X32582178Y8787212D02*
X32633062Y8830415D01*
X32633062Y8830415D02*
X32661986Y8890554D01*
X32661986Y8890554D02*
X32667714Y8937538D01*
X32667714Y8937538D02*
X32663343Y8979918D01*
X32663343Y8979918D02*
X32647525Y9014512D01*
X32647525Y9014512D02*
X32616203Y9045237D01*
X32616203Y9045237D02*
X32565322Y9076010D01*
X32565322Y9076010D02*
X32490824Y9110748D01*
X32490824Y9110748D02*
X32486286Y9112712D01*
X32486286Y9112712D02*
X32419179Y9143713D01*
X32419179Y9143713D02*
X32377768Y9169138D01*
X32377768Y9169138D02*
X32360019Y9191986D01*
X32360019Y9191986D02*
X32363893Y9215255D01*
X32363893Y9215255D02*
X32387357Y9241944D01*
X32387357Y9241944D02*
X32394373Y9248086D01*
X32394373Y9248086D02*
X32441370Y9271900D01*
X32441370Y9271900D02*
X32490067Y9270897D01*
X32490067Y9270897D02*
X32532478Y9247549D01*
X32532478Y9247549D02*
X32560616Y9204325D01*
X32560616Y9204325D02*
X32563231Y9195840D01*
X32563231Y9195840D02*
X32588692Y9154692D01*
X32588692Y9154692D02*
X32620999Y9134872D01*
X32620999Y9134872D02*
X32667714Y9115230D01*
X32667714Y9115230D02*
X32667714Y9166050D01*
X32667714Y9166050D02*
X32653504Y9239918D01*
X32653504Y9239918D02*
X32611325Y9307673D01*
X32611325Y9307673D02*
X32589376Y9330339D01*
X32589376Y9330339D02*
X32539483Y9359431D01*
X32539483Y9359431D02*
X32476033Y9372600D01*
X32476033Y9372600D02*
X32410256Y9369032D01*
X32410256Y9369032D02*
X32410256Y9369032D01*
G36*
X32539483Y9359431D02*
G01*
X32589376Y9330339D01*
X32611325Y9307673D01*
X32653504Y9239918D01*
X32667714Y9166050D01*
X32667714Y9115230D01*
X32620999Y9134872D01*
X32588692Y9154692D01*
X32563231Y9195840D01*
X32560616Y9204325D01*
X32532478Y9247549D01*
X32490067Y9270897D01*
X32441370Y9271900D01*
X32394373Y9248086D01*
X32387357Y9241944D01*
X32363893Y9215255D01*
X32360019Y9191986D01*
X32377768Y9169138D01*
X32419179Y9143713D01*
X32486286Y9112712D01*
X32490824Y9110748D01*
X32565322Y9076010D01*
X32616203Y9045237D01*
X32647525Y9014512D01*
X32663343Y8979918D01*
X32667714Y8937538D01*
X32661986Y8890554D01*
X32633062Y8830415D01*
X32582178Y8787212D01*
X32545374Y8774241D01*
X32493434Y8767144D01*
X32442999Y8768660D01*
X32406983Y8779368D01*
X32403158Y8782034D01*
X32392998Y8800663D01*
X32400048Y8833495D01*
X32412297Y8859265D01*
X32431939Y8869994D01*
X32469191Y8869461D01*
X32520908Y8872538D01*
X32554701Y8893788D01*
X32566114Y8933123D01*
X32566104Y8934253D01*
X32559187Y8957087D01*
X32535659Y8978037D01*
X32489914Y9002185D01*
X32427704Y9031259D01*
X32386499Y9047075D01*
X32362712Y9046056D01*
X32351597Y9025163D01*
X32348408Y8981359D01*
X32348400Y8911607D01*
X32348044Y8868548D01*
X32346413Y8815374D01*
X32343761Y8778978D01*
X32340422Y8765486D01*
X32339530Y8765577D01*
X32320237Y8772890D01*
X32288284Y8788322D01*
X32244124Y8811158D01*
X32249371Y9016922D01*
X32249736Y9030568D01*
X32253904Y9126349D01*
X32261268Y9198538D01*
X32273330Y9251942D01*
X32291593Y9291367D01*
X32317560Y9321620D01*
X32352733Y9347507D01*
X32353384Y9347913D01*
X32410256Y9369032D01*
X32476033Y9372600D01*
X32539483Y9359431D01*
G37*
X32539483Y9359431D02*
X32589376Y9330339D01*
X32611325Y9307673D01*
X32653504Y9239918D01*
X32667714Y9166050D01*
X32667714Y9115230D01*
X32620999Y9134872D01*
X32588692Y9154692D01*
X32563231Y9195840D01*
X32560616Y9204325D01*
X32532478Y9247549D01*
X32490067Y9270897D01*
X32441370Y9271900D01*
X32394373Y9248086D01*
X32387357Y9241944D01*
X32363893Y9215255D01*
X32360019Y9191986D01*
X32377768Y9169138D01*
X32419179Y9143713D01*
X32486286Y9112712D01*
X32490824Y9110748D01*
X32565322Y9076010D01*
X32616203Y9045237D01*
X32647525Y9014512D01*
X32663343Y8979918D01*
X32667714Y8937538D01*
X32661986Y8890554D01*
X32633062Y8830415D01*
X32582178Y8787212D01*
X32545374Y8774241D01*
X32493434Y8767144D01*
X32442999Y8768660D01*
X32406983Y8779368D01*
X32403158Y8782034D01*
X32392998Y8800663D01*
X32400048Y8833495D01*
X32412297Y8859265D01*
X32431939Y8869994D01*
X32469191Y8869461D01*
X32520908Y8872538D01*
X32554701Y8893788D01*
X32566114Y8933123D01*
X32566104Y8934253D01*
X32559187Y8957087D01*
X32535659Y8978037D01*
X32489914Y9002185D01*
X32427704Y9031259D01*
X32386499Y9047075D01*
X32362712Y9046056D01*
X32351597Y9025163D01*
X32348408Y8981359D01*
X32348400Y8911607D01*
X32348044Y8868548D01*
X32346413Y8815374D01*
X32343761Y8778978D01*
X32340422Y8765486D01*
X32339530Y8765577D01*
X32320237Y8772890D01*
X32288284Y8788322D01*
X32244124Y8811158D01*
X32249371Y9016922D01*
X32249736Y9030568D01*
X32253904Y9126349D01*
X32261268Y9198538D01*
X32273330Y9251942D01*
X32291593Y9291367D01*
X32317560Y9321620D01*
X32352733Y9347507D01*
X32353384Y9347913D01*
X32410256Y9369032D01*
X32476033Y9372600D01*
X32539483Y9359431D01*
X32346090Y14077652D02*
X32267546Y14077222D01*
X32267546Y14077222D02*
X32210702Y14076058D01*
X32210702Y14076058D02*
X32171895Y14073793D01*
X32171895Y14073793D02*
X32147462Y14070060D01*
X32147462Y14070060D02*
X32133738Y14064494D01*
X32133738Y14064494D02*
X32127060Y14056727D01*
X32127060Y14056727D02*
X32123764Y14046395D01*
X32123764Y14046395D02*
X32123444Y14045057D01*
X32123444Y14045057D02*
X32118438Y14020921D01*
X32118438Y14020921D02*
X32109171Y13973299D01*
X32109171Y13973299D02*
X32096608Y13907259D01*
X32096608Y13907259D02*
X32081713Y13827872D01*
X32081713Y13827872D02*
X32065449Y13740204D01*
X32065449Y13740204D02*
X32064881Y13737125D01*
X32064881Y13737125D02*
X32048590Y13651211D01*
X32048590Y13651211D02*
X32033348Y13575304D01*
X32033348Y13575304D02*
X32020139Y13513955D01*
X32020139Y13513955D02*
X32009946Y13471718D01*
X32009946Y13471718D02*
X32003752Y13453145D01*
X32003752Y13453145D02*
X32003457Y13452816D01*
X32003457Y13452816D02*
X31985212Y13443747D01*
X31985212Y13443747D02*
X31947595Y13428633D01*
X31947595Y13428633D02*
X31898729Y13410738D01*
X31898729Y13410738D02*
X31898457Y13410642D01*
X31898457Y13410642D02*
X31836907Y13387507D01*
X31836907Y13387507D02*
X31764343Y13358035D01*
X31764343Y13358035D02*
X31695943Y13328403D01*
X31695943Y13328403D02*
X31692706Y13326938D01*
X31692706Y13326938D02*
X31581298Y13276374D01*
X31581298Y13276374D02*
X31334601Y13444840D01*
X31334601Y13444840D02*
X31258923Y13496197D01*
X31258923Y13496197D02*
X31190369Y13542111D01*
X31190369Y13542111D02*
X31132912Y13579970D01*
X31132912Y13579970D02*
X31090524Y13607163D01*
X31090524Y13607163D02*
X31067175Y13621079D01*
X31067175Y13621079D02*
X31064958Y13622111D01*
X31064958Y13622111D02*
X31047990Y13617516D01*
X31047990Y13617516D02*
X31016299Y13595345D01*
X31016299Y13595345D02*
X30968648Y13554553D01*
X30968648Y13554553D02*
X30903802Y13494095D01*
X30903802Y13494095D02*
X30837603Y13429773D01*
X30837603Y13429773D02*
X30773786Y13366388D01*
X30773786Y13366388D02*
X30716671Y13308549D01*
X30716671Y13308549D02*
X30669695Y13259825D01*
X30669695Y13259825D02*
X30636297Y13223790D01*
X30636297Y13223790D02*
X30619915Y13204016D01*
X30619915Y13204016D02*
X30619306Y13202998D01*
X30619306Y13202998D02*
X30617495Y13189428D01*
X30617495Y13189428D02*
X30624317Y13167267D01*
X30624317Y13167267D02*
X30641460Y13133522D01*
X30641460Y13133522D02*
X30670607Y13085200D01*
X30670607Y13085200D02*
X30713445Y13019308D01*
X30713445Y13019308D02*
X30770552Y12934483D01*
X30770552Y12934483D02*
X30821234Y12859823D01*
X30821234Y12859823D02*
X30866539Y12792860D01*
X30866539Y12792860D02*
X30903850Y12737484D01*
X30903850Y12737484D02*
X30930548Y12697580D01*
X30930548Y12697580D02*
X30944015Y12677038D01*
X30944015Y12677038D02*
X30944863Y12675644D01*
X30944863Y12675644D02*
X30943219Y12655962D01*
X30943219Y12655962D02*
X30930755Y12617707D01*
X30930755Y12617707D02*
X30909952Y12568111D01*
X30909952Y12568111D02*
X30902538Y12552272D01*
X30902538Y12552272D02*
X30870186Y12481710D01*
X30870186Y12481710D02*
X30835672Y12401647D01*
X30835672Y12401647D02*
X30807635Y12332371D01*
X30807635Y12332371D02*
X30787432Y12280955D01*
X30787432Y12280955D02*
X30771385Y12241881D01*
X30771385Y12241881D02*
X30762112Y12221459D01*
X30762112Y12221459D02*
X30760959Y12219886D01*
X30760959Y12219886D02*
X30743904Y12217279D01*
X30743904Y12217279D02*
X30703702Y12210137D01*
X30703702Y12210137D02*
X30645698Y12199477D01*
X30645698Y12199477D02*
X30575237Y12186315D01*
X30575237Y12186315D02*
X30497665Y12171667D01*
X30497665Y12171667D02*
X30418328Y12156551D01*
X30418328Y12156551D02*
X30342569Y12141982D01*
X30342569Y12141982D02*
X30275736Y12128978D01*
X30275736Y12128978D02*
X30223172Y12118555D01*
X30223172Y12118555D02*
X30190224Y12111730D01*
X30190224Y12111730D02*
X30182143Y12109801D01*
X30182143Y12109801D02*
X30173795Y12105038D01*
X30173795Y12105038D02*
X30167494Y12094282D01*
X30167494Y12094282D02*
X30162955Y12073902D01*
X30162955Y12073902D02*
X30159896Y12040266D01*
X30159896Y12040266D02*
X30158033Y11989745D01*
X30158033Y11989745D02*
X30157082Y11918708D01*
X30157082Y11918708D02*
X30156760Y11823524D01*
X30156760Y11823524D02*
X30156743Y11784508D01*
X30156743Y11784508D02*
X30156743Y11467201D01*
X30156743Y11467201D02*
X30232943Y11452161D01*
X30232943Y11452161D02*
X30275337Y11444005D01*
X30275337Y11444005D02*
X30338600Y11432101D01*
X30338600Y11432101D02*
X30415038Y11417884D01*
X30415038Y11417884D02*
X30496957Y11402790D01*
X30496957Y11402790D02*
X30519600Y11398645D01*
X30519600Y11398645D02*
X30595194Y11383947D01*
X30595194Y11383947D02*
X30661047Y11369495D01*
X30661047Y11369495D02*
X30711634Y11356625D01*
X30711634Y11356625D02*
X30741426Y11346678D01*
X30741426Y11346678D02*
X30746388Y11343713D01*
X30746388Y11343713D02*
X30758574Y11322717D01*
X30758574Y11322717D02*
X30776047Y11282033D01*
X30776047Y11282033D02*
X30795423Y11229678D01*
X30795423Y11229678D02*
X30799266Y11218400D01*
X30799266Y11218400D02*
X30824661Y11148477D01*
X30824661Y11148477D02*
X30856183Y11069582D01*
X30856183Y11069582D02*
X30887031Y10998734D01*
X30887031Y10998734D02*
X30887183Y10998405D01*
X30887183Y10998405D02*
X30938553Y10887267D01*
X30938553Y10887267D02*
X30769601Y10638747D01*
X30769601Y10638747D02*
X30600648Y10390228D01*
X30600648Y10390228D02*
X30817571Y10172942D01*
X30817571Y10172942D02*
X30883181Y10108274D01*
X30883181Y10108274D02*
X30943021Y10051267D01*
X30943021Y10051267D02*
X30993733Y10004967D01*
X30993733Y10004967D02*
X31031954Y9972416D01*
X31031954Y9972416D02*
X31054325Y9956657D01*
X31054325Y9956657D02*
X31057534Y9955657D01*
X31057534Y9955657D02*
X31076374Y9963531D01*
X31076374Y9963531D02*
X31114820Y9985422D01*
X31114820Y9985422D02*
X31168670Y10018733D01*
X31168670Y10018733D02*
X31233724Y10060869D01*
X31233724Y10060869D02*
X31304060Y10108057D01*
X31304060Y10108057D02*
X31375445Y10156190D01*
X31375445Y10156190D02*
X31439092Y10198072D01*
X31439092Y10198072D02*
X31490959Y10231129D01*
X31490959Y10231129D02*
X31527005Y10252782D01*
X31527005Y10252782D02*
X31543133Y10260457D01*
X31543133Y10260457D02*
X31562811Y10253963D01*
X31562811Y10253963D02*
X31600125Y10236850D01*
X31600125Y10236850D02*
X31647379Y10212674D01*
X31647379Y10212674D02*
X31652388Y10209987D01*
X31652388Y10209987D02*
X31716023Y10178073D01*
X31716023Y10178073D02*
X31759659Y10162421D01*
X31759659Y10162421D02*
X31786798Y10162255D01*
X31786798Y10162255D02*
X31800943Y10176796D01*
X31800943Y10176796D02*
X31801025Y10177000D01*
X31801025Y10177000D02*
X31808095Y10194221D01*
X31808095Y10194221D02*
X31824958Y10235101D01*
X31824958Y10235101D02*
X31850305Y10296475D01*
X31850305Y10296475D02*
X31882829Y10375181D01*
X31882829Y10375181D02*
X31921222Y10468053D01*
X31921222Y10468053D02*
X31964178Y10571928D01*
X31964178Y10571928D02*
X32005778Y10672498D01*
X32005778Y10672498D02*
X32051496Y10783484D01*
X32051496Y10783484D02*
X32093474Y10886297D01*
X32093474Y10886297D02*
X32130452Y10977785D01*
X32130452Y10977785D02*
X32161173Y11054799D01*
X32161173Y11054799D02*
X32184378Y11114185D01*
X32184378Y11114185D02*
X32198810Y11152791D01*
X32198810Y11152791D02*
X32203257Y11167200D01*
X32203257Y11167200D02*
X32192104Y11183728D01*
X32192104Y11183728D02*
X32162931Y11210070D01*
X32162931Y11210070D02*
X32124029Y11239113D01*
X32124029Y11239113D02*
X32013243Y11330961D01*
X32013243Y11330961D02*
X31926649Y11436241D01*
X31926649Y11436241D02*
X31865284Y11552734D01*
X31865284Y11552734D02*
X31830185Y11678224D01*
X31830185Y11678224D02*
X31822392Y11810493D01*
X31822392Y11810493D02*
X31828057Y11871543D01*
X31828057Y11871543D02*
X31858922Y11998205D01*
X31858922Y11998205D02*
X31912080Y12110059D01*
X31912080Y12110059D02*
X31984233Y12205999D01*
X31984233Y12205999D02*
X32072083Y12284924D01*
X32072083Y12284924D02*
X32172335Y12345730D01*
X32172335Y12345730D02*
X32281690Y12387313D01*
X32281690Y12387313D02*
X32396853Y12408572D01*
X32396853Y12408572D02*
X32514525Y12408401D01*
X32514525Y12408401D02*
X32631410Y12385699D01*
X32631410Y12385699D02*
X32744211Y12339362D01*
X32744211Y12339362D02*
X32849631Y12268287D01*
X32849631Y12268287D02*
X32893632Y12228089D01*
X32893632Y12228089D02*
X32978021Y12124871D01*
X32978021Y12124871D02*
X33036778Y12012075D01*
X33036778Y12012075D02*
X33070296Y11892990D01*
X33070296Y11892990D02*
X33078965Y11770905D01*
X33078965Y11770905D02*
X33063177Y11649107D01*
X33063177Y11649107D02*
X33023322Y11530884D01*
X33023322Y11530884D02*
X32959793Y11419525D01*
X32959793Y11419525D02*
X32872979Y11318316D01*
X32872979Y11318316D02*
X32775971Y11239113D01*
X32775971Y11239113D02*
X32735563Y11208838D01*
X32735563Y11208838D02*
X32707018Y11182781D01*
X32707018Y11182781D02*
X32696743Y11167175D01*
X32696743Y11167175D02*
X32702123Y11150157D01*
X32702123Y11150157D02*
X32717425Y11109500D01*
X32717425Y11109500D02*
X32741388Y11048358D01*
X32741388Y11048358D02*
X32772756Y10969881D01*
X32772756Y10969881D02*
X32810268Y10877220D01*
X32810268Y10877220D02*
X32852667Y10773528D01*
X32852667Y10773528D02*
X32894337Y10672474D01*
X32894337Y10672474D02*
X32940310Y10561393D01*
X32940310Y10561393D02*
X32982893Y10458459D01*
X32982893Y10458459D02*
X33020779Y10366835D01*
X33020779Y10366835D02*
X33052660Y10289684D01*
X33052660Y10289684D02*
X33077229Y10230169D01*
X33077229Y10230169D02*
X33093180Y10191456D01*
X33093180Y10191456D02*
X33099090Y10177000D01*
X33099090Y10177000D02*
X33113052Y10162315D01*
X33113052Y10162315D02*
X33140060Y10162358D01*
X33140060Y10162358D02*
X33183587Y10177901D01*
X33183587Y10177901D02*
X33247110Y10209716D01*
X33247110Y10209716D02*
X33247612Y10209987D01*
X33247612Y10209987D02*
X33295440Y10234677D01*
X33295440Y10234677D02*
X33334103Y10252662D01*
X33334103Y10252662D02*
X33355905Y10260386D01*
X33355905Y10260386D02*
X33356867Y10260457D01*
X33356867Y10260457D02*
X33373279Y10252622D01*
X33373279Y10252622D02*
X33409513Y10230835D01*
X33409513Y10230835D02*
X33461526Y10197672D01*
X33461526Y10197672D02*
X33525275Y10155709D01*
X33525275Y10155709D02*
X33595940Y10108057D01*
X33595940Y10108057D02*
X33667884Y10059809D01*
X33667884Y10059809D02*
X33732726Y10017849D01*
X33732726Y10017849D02*
X33786265Y9984773D01*
X33786265Y9984773D02*
X33824303Y9963179D01*
X33824303Y9963179D02*
X33842467Y9955657D01*
X33842467Y9955657D02*
X33859192Y9965543D01*
X33859192Y9965543D02*
X33892820Y9993174D01*
X33892820Y9993174D02*
X33939990Y10035505D01*
X33939990Y10035505D02*
X33997342Y10089495D01*
X33997342Y10089495D02*
X34061516Y10152101D01*
X34061516Y10152101D02*
X34082503Y10173017D01*
X34082503Y10173017D02*
X34299501Y10390377D01*
X34299501Y10390377D02*
X34134332Y10632780D01*
X34134332Y10632780D02*
X34084136Y10707219D01*
X34084136Y10707219D02*
X34040081Y10774028D01*
X34040081Y10774028D02*
X34004638Y10829335D01*
X34004638Y10829335D02*
X33980281Y10869271D01*
X33980281Y10869271D02*
X33969478Y10889964D01*
X33969478Y10889964D02*
X33969162Y10891437D01*
X33969162Y10891437D02*
X33974857Y10910942D01*
X33974857Y10910942D02*
X33990174Y10950178D01*
X33990174Y10950178D02*
X34012463Y11002570D01*
X34012463Y11002570D02*
X34028107Y11037645D01*
X34028107Y11037645D02*
X34057359Y11104799D01*
X34057359Y11104799D02*
X34084906Y11172642D01*
X34084906Y11172642D02*
X34106263Y11229966D01*
X34106263Y11229966D02*
X34112065Y11247428D01*
X34112065Y11247428D02*
X34128548Y11294062D01*
X34128548Y11294062D02*
X34144660Y11330095D01*
X34144660Y11330095D02*
X34153510Y11343713D01*
X34153510Y11343713D02*
X34173040Y11352048D01*
X34173040Y11352048D02*
X34215666Y11363863D01*
X34215666Y11363863D02*
X34275855Y11377819D01*
X34275855Y11377819D02*
X34348078Y11392578D01*
X34348078Y11392578D02*
X34380400Y11398645D01*
X34380400Y11398645D02*
X34462478Y11413727D01*
X34462478Y11413727D02*
X34541205Y11428331D01*
X34541205Y11428331D02*
X34608891Y11441020D01*
X34608891Y11441020D02*
X34657840Y11450358D01*
X34657840Y11450358D02*
X34667057Y11452161D01*
X34667057Y11452161D02*
X34743257Y11467201D01*
X34743257Y11467201D02*
X34743257Y11784508D01*
X34743257Y11784508D02*
X34743086Y11888846D01*
X34743086Y11888846D02*
X34742384Y11967787D01*
X34742384Y11967787D02*
X34740866Y12024962D01*
X34740866Y12024962D02*
X34738251Y12064001D01*
X34738251Y12064001D02*
X34734254Y12088535D01*
X34734254Y12088535D02*
X34728591Y12102195D01*
X34728591Y12102195D02*
X34720980Y12108611D01*
X34720980Y12108611D02*
X34717857Y12109801D01*
X34717857Y12109801D02*
X34699022Y12114020D01*
X34699022Y12114020D02*
X34657412Y12122438D01*
X34657412Y12122438D02*
X34598370Y12134039D01*
X34598370Y12134039D02*
X34527243Y12147805D01*
X34527243Y12147805D02*
X34449375Y12162720D01*
X34449375Y12162720D02*
X34370113Y12177768D01*
X34370113Y12177768D02*
X34294802Y12191931D01*
X34294802Y12191931D02*
X34228787Y12204194D01*
X34228787Y12204194D02*
X34177413Y12213539D01*
X34177413Y12213539D02*
X34146025Y12218950D01*
X34146025Y12218950D02*
X34139041Y12219886D01*
X34139041Y12219886D02*
X34132715Y12232404D01*
X34132715Y12232404D02*
X34118710Y12265754D01*
X34118710Y12265754D02*
X34099645Y12313623D01*
X34099645Y12313623D02*
X34092366Y12332371D01*
X34092366Y12332371D02*
X34063004Y12404805D01*
X34063004Y12404805D02*
X34028429Y12484830D01*
X34028429Y12484830D02*
X33997463Y12552272D01*
X33997463Y12552272D02*
X33974677Y12603841D01*
X33974677Y12603841D02*
X33959518Y12646215D01*
X33959518Y12646215D02*
X33954458Y12672166D01*
X33954458Y12672166D02*
X33955264Y12675644D01*
X33955264Y12675644D02*
X33965959Y12692064D01*
X33965959Y12692064D02*
X33990380Y12728583D01*
X33990380Y12728583D02*
X34025905Y12781313D01*
X34025905Y12781313D02*
X34069913Y12846365D01*
X34069913Y12846365D02*
X34119783Y12919849D01*
X34119783Y12919849D02*
X34129644Y12934355D01*
X34129644Y12934355D02*
X34187508Y13020296D01*
X34187508Y13020296D02*
X34230044Y13085739D01*
X34230044Y13085739D02*
X34258946Y13133696D01*
X34258946Y13133696D02*
X34275910Y13167180D01*
X34275910Y13167180D02*
X34282633Y13189205D01*
X34282633Y13189205D02*
X34280810Y13202783D01*
X34280810Y13202783D02*
X34280764Y13202869D01*
X34280764Y13202869D02*
X34266414Y13220703D01*
X34266414Y13220703D02*
X34234677Y13255183D01*
X34234677Y13255183D02*
X34188990Y13302732D01*
X34188990Y13302732D02*
X34132796Y13359778D01*
X34132796Y13359778D02*
X34069532Y13422745D01*
X34069532Y13422745D02*
X34062398Y13429773D01*
X34062398Y13429773D02*
X33982670Y13506980D01*
X33982670Y13506980D02*
X33921143Y13563670D01*
X33921143Y13563670D02*
X33876579Y13600890D01*
X33876579Y13600890D02*
X33847743Y13619685D01*
X33847743Y13619685D02*
X33835042Y13622111D01*
X33835042Y13622111D02*
X33816506Y13611529D01*
X33816506Y13611529D02*
X33778039Y13587084D01*
X33778039Y13587084D02*
X33723614Y13551388D01*
X33723614Y13551388D02*
X33657202Y13507053D01*
X33657202Y13507053D02*
X33582775Y13456689D01*
X33582775Y13456689D02*
X33565399Y13444840D01*
X33565399Y13444840D02*
X33318703Y13276374D01*
X33318703Y13276374D02*
X33207294Y13326938D01*
X33207294Y13326938D02*
X33139543Y13356405D01*
X33139543Y13356405D02*
X33066817Y13386041D01*
X33066817Y13386041D02*
X33004297Y13409670D01*
X33004297Y13409670D02*
X33001543Y13410642D01*
X33001543Y13410642D02*
X32952640Y13428543D01*
X32952640Y13428543D02*
X32914943Y13443680D01*
X32914943Y13443680D02*
X32896575Y13452790D01*
X32896575Y13452790D02*
X32896544Y13452816D01*
X32896544Y13452816D02*
X32890715Y13469283D01*
X32890715Y13469283D02*
X32880808Y13509781D01*
X32880808Y13509781D02*
X32867805Y13569758D01*
X32867805Y13569758D02*
X32852691Y13644660D01*
X32852691Y13644660D02*
X32836448Y13729936D01*
X32836448Y13729936D02*
X32835119Y13737125D01*
X32835119Y13737125D02*
X32818825Y13824986D01*
X32818825Y13824986D02*
X32803867Y13904740D01*
X32803867Y13904740D02*
X32791209Y13971319D01*
X32791209Y13971319D02*
X32781814Y14019653D01*
X32781814Y14019653D02*
X32776646Y14044675D01*
X32776646Y14044675D02*
X32776556Y14045057D01*
X32776556Y14045057D02*
X32773411Y14055701D01*
X32773411Y14055701D02*
X32767296Y14063738D01*
X32767296Y14063738D02*
X32754547Y14069533D01*
X32754547Y14069533D02*
X32731500Y14073453D01*
X32731500Y14073453D02*
X32694491Y14075865D01*
X32694491Y14075865D02*
X32639856Y14077135D01*
X32639856Y14077135D02*
X32563933Y14077629D01*
X32563933Y14077629D02*
X32463056Y14077714D01*
X32463056Y14077714D02*
X32450000Y14077714D01*
X32450000Y14077714D02*
X32346090Y14077652D01*
X32346090Y14077652D02*
X32346090Y14077652D01*
G36*
X32563933Y14077629D02*
G01*
X32639856Y14077135D01*
X32694491Y14075865D01*
X32731500Y14073453D01*
X32754547Y14069533D01*
X32767296Y14063738D01*
X32773411Y14055701D01*
X32776556Y14045057D01*
X32776646Y14044675D01*
X32781814Y14019653D01*
X32791209Y13971319D01*
X32803867Y13904740D01*
X32818825Y13824986D01*
X32835119Y13737125D01*
X32836448Y13729936D01*
X32852691Y13644660D01*
X32867805Y13569758D01*
X32880808Y13509781D01*
X32890715Y13469283D01*
X32896544Y13452816D01*
X32896575Y13452790D01*
X32914943Y13443680D01*
X32952640Y13428543D01*
X33001543Y13410642D01*
X33004297Y13409670D01*
X33066817Y13386041D01*
X33139543Y13356405D01*
X33207294Y13326938D01*
X33318703Y13276374D01*
X33565399Y13444840D01*
X33582775Y13456689D01*
X33657202Y13507053D01*
X33723614Y13551388D01*
X33778039Y13587084D01*
X33816506Y13611529D01*
X33835042Y13622111D01*
X33847743Y13619685D01*
X33876579Y13600890D01*
X33921143Y13563670D01*
X33982670Y13506980D01*
X34062398Y13429773D01*
X34069532Y13422745D01*
X34132796Y13359778D01*
X34188990Y13302732D01*
X34234677Y13255183D01*
X34266414Y13220703D01*
X34280764Y13202869D01*
X34280810Y13202783D01*
X34282633Y13189205D01*
X34275910Y13167180D01*
X34258946Y13133696D01*
X34230044Y13085739D01*
X34187508Y13020296D01*
X34129644Y12934355D01*
X34119783Y12919849D01*
X34069913Y12846365D01*
X34025905Y12781313D01*
X33990380Y12728583D01*
X33965959Y12692064D01*
X33955264Y12675644D01*
X33954458Y12672166D01*
X33959518Y12646215D01*
X33974677Y12603841D01*
X33997463Y12552272D01*
X34028429Y12484830D01*
X34063004Y12404805D01*
X34092366Y12332371D01*
X34099645Y12313623D01*
X34118710Y12265754D01*
X34132715Y12232404D01*
X34139041Y12219886D01*
X34146025Y12218950D01*
X34177413Y12213539D01*
X34228787Y12204194D01*
X34294802Y12191931D01*
X34370113Y12177768D01*
X34449375Y12162720D01*
X34527243Y12147805D01*
X34598370Y12134039D01*
X34657412Y12122438D01*
X34699022Y12114020D01*
X34717857Y12109801D01*
X34720980Y12108611D01*
X34728591Y12102195D01*
X34734254Y12088535D01*
X34738251Y12064001D01*
X34740866Y12024962D01*
X34742384Y11967787D01*
X34743086Y11888846D01*
X34743257Y11784508D01*
X34743257Y11467201D01*
X34667057Y11452161D01*
X34657840Y11450358D01*
X34608891Y11441020D01*
X34541205Y11428331D01*
X34462478Y11413727D01*
X34380400Y11398645D01*
X34348078Y11392578D01*
X34275855Y11377819D01*
X34215666Y11363863D01*
X34173040Y11352048D01*
X34153510Y11343713D01*
X34144660Y11330095D01*
X34128548Y11294062D01*
X34112065Y11247428D01*
X34106263Y11229966D01*
X34084906Y11172642D01*
X34057359Y11104799D01*
X34028107Y11037645D01*
X34012463Y11002570D01*
X33990174Y10950178D01*
X33974857Y10910942D01*
X33969162Y10891437D01*
X33969478Y10889964D01*
X33980281Y10869271D01*
X34004638Y10829335D01*
X34040081Y10774028D01*
X34084136Y10707219D01*
X34134332Y10632780D01*
X34299501Y10390377D01*
X34082503Y10173017D01*
X34061516Y10152101D01*
X33997342Y10089495D01*
X33939990Y10035505D01*
X33892820Y9993174D01*
X33859192Y9965543D01*
X33842467Y9955657D01*
X33824303Y9963179D01*
X33786265Y9984773D01*
X33732726Y10017849D01*
X33667884Y10059809D01*
X33595940Y10108057D01*
X33525275Y10155709D01*
X33461526Y10197672D01*
X33409513Y10230835D01*
X33373279Y10252622D01*
X33356867Y10260457D01*
X33355905Y10260386D01*
X33334103Y10252662D01*
X33295440Y10234677D01*
X33247612Y10209987D01*
X33247110Y10209716D01*
X33183587Y10177901D01*
X33140060Y10162358D01*
X33113052Y10162315D01*
X33099090Y10177000D01*
X33093180Y10191456D01*
X33077229Y10230169D01*
X33052660Y10289684D01*
X33020779Y10366835D01*
X32982893Y10458459D01*
X32940310Y10561393D01*
X32894337Y10672474D01*
X32852667Y10773528D01*
X32810268Y10877220D01*
X32772756Y10969881D01*
X32741388Y11048358D01*
X32717425Y11109500D01*
X32702123Y11150157D01*
X32696743Y11167175D01*
X32707018Y11182781D01*
X32735563Y11208838D01*
X32775971Y11239113D01*
X32872979Y11318316D01*
X32959793Y11419525D01*
X33023322Y11530884D01*
X33063177Y11649107D01*
X33078965Y11770905D01*
X33070296Y11892990D01*
X33036778Y12012075D01*
X32978021Y12124871D01*
X32893632Y12228089D01*
X32849631Y12268287D01*
X32744211Y12339362D01*
X32631410Y12385699D01*
X32514525Y12408401D01*
X32396853Y12408572D01*
X32281690Y12387313D01*
X32172335Y12345730D01*
X32072083Y12284924D01*
X31984233Y12205999D01*
X31912080Y12110059D01*
X31858922Y11998205D01*
X31828057Y11871543D01*
X31822392Y11810493D01*
X31830185Y11678224D01*
X31865284Y11552734D01*
X31926649Y11436241D01*
X32013243Y11330961D01*
X32124029Y11239113D01*
X32162931Y11210070D01*
X32192104Y11183728D01*
X32203257Y11167200D01*
X32198810Y11152791D01*
X32184378Y11114185D01*
X32161173Y11054799D01*
X32130452Y10977785D01*
X32093474Y10886297D01*
X32051496Y10783484D01*
X32005778Y10672498D01*
X31964178Y10571928D01*
X31921222Y10468053D01*
X31882829Y10375181D01*
X31850305Y10296475D01*
X31824958Y10235101D01*
X31808095Y10194221D01*
X31801025Y10177000D01*
X31800943Y10176796D01*
X31786798Y10162255D01*
X31759659Y10162421D01*
X31716023Y10178073D01*
X31652388Y10209987D01*
X31647379Y10212674D01*
X31600125Y10236850D01*
X31562811Y10253963D01*
X31543133Y10260457D01*
X31527005Y10252782D01*
X31490959Y10231129D01*
X31439092Y10198072D01*
X31375445Y10156190D01*
X31304060Y10108057D01*
X31233724Y10060869D01*
X31168670Y10018733D01*
X31114820Y9985422D01*
X31076374Y9963531D01*
X31057534Y9955657D01*
X31054325Y9956657D01*
X31031954Y9972416D01*
X30993733Y10004967D01*
X30943021Y10051267D01*
X30883181Y10108274D01*
X30817571Y10172942D01*
X30600648Y10390228D01*
X30769601Y10638747D01*
X30938553Y10887267D01*
X30887183Y10998405D01*
X30887031Y10998734D01*
X30856183Y11069582D01*
X30824661Y11148477D01*
X30799266Y11218400D01*
X30795423Y11229678D01*
X30776047Y11282033D01*
X30758574Y11322717D01*
X30746388Y11343713D01*
X30741426Y11346678D01*
X30711634Y11356625D01*
X30661047Y11369495D01*
X30595194Y11383947D01*
X30519600Y11398645D01*
X30496957Y11402790D01*
X30415038Y11417884D01*
X30338600Y11432101D01*
X30275337Y11444005D01*
X30232943Y11452161D01*
X30156743Y11467201D01*
X30156743Y11784508D01*
X30156760Y11823524D01*
X30157082Y11918708D01*
X30158033Y11989745D01*
X30159896Y12040266D01*
X30162955Y12073902D01*
X30167494Y12094282D01*
X30173795Y12105038D01*
X30182143Y12109801D01*
X30190224Y12111730D01*
X30223172Y12118555D01*
X30275736Y12128978D01*
X30342569Y12141982D01*
X30418328Y12156551D01*
X30497665Y12171667D01*
X30575237Y12186315D01*
X30645698Y12199477D01*
X30703702Y12210137D01*
X30743904Y12217279D01*
X30760959Y12219886D01*
X30762112Y12221459D01*
X30771385Y12241881D01*
X30787432Y12280955D01*
X30807635Y12332371D01*
X30835672Y12401647D01*
X30870186Y12481710D01*
X30902538Y12552272D01*
X30909952Y12568111D01*
X30930755Y12617707D01*
X30943219Y12655962D01*
X30944863Y12675644D01*
X30944015Y12677038D01*
X30930548Y12697580D01*
X30903850Y12737484D01*
X30866539Y12792860D01*
X30821234Y12859823D01*
X30770552Y12934483D01*
X30713445Y13019308D01*
X30670607Y13085200D01*
X30641460Y13133522D01*
X30624317Y13167267D01*
X30617495Y13189428D01*
X30619306Y13202998D01*
X30619915Y13204016D01*
X30636297Y13223790D01*
X30669695Y13259825D01*
X30716671Y13308549D01*
X30773786Y13366388D01*
X30837603Y13429773D01*
X30903802Y13494095D01*
X30968648Y13554553D01*
X31016299Y13595345D01*
X31047990Y13617516D01*
X31064958Y13622111D01*
X31067175Y13621079D01*
X31090524Y13607163D01*
X31132912Y13579970D01*
X31190369Y13542111D01*
X31258923Y13496197D01*
X31334601Y13444840D01*
X31581298Y13276374D01*
X31692706Y13326938D01*
X31695943Y13328403D01*
X31764343Y13358035D01*
X31836907Y13387507D01*
X31898457Y13410642D01*
X31898729Y13410738D01*
X31947595Y13428633D01*
X31985212Y13443747D01*
X32003457Y13452816D01*
X32003752Y13453145D01*
X32009946Y13471718D01*
X32020139Y13513955D01*
X32033348Y13575304D01*
X32048590Y13651211D01*
X32064881Y13737125D01*
X32065449Y13740204D01*
X32081713Y13827872D01*
X32096608Y13907259D01*
X32109171Y13973299D01*
X32118438Y14020921D01*
X32123444Y14045057D01*
X32123764Y14046395D01*
X32127060Y14056727D01*
X32133738Y14064494D01*
X32147462Y14070060D01*
X32171895Y14073793D01*
X32210702Y14076058D01*
X32267546Y14077222D01*
X32346090Y14077652D01*
X32450000Y14077714D01*
X32463056Y14077714D01*
X32563933Y14077629D01*
G37*
X32563933Y14077629D02*
X32639856Y14077135D01*
X32694491Y14075865D01*
X32731500Y14073453D01*
X32754547Y14069533D01*
X32767296Y14063738D01*
X32773411Y14055701D01*
X32776556Y14045057D01*
X32776646Y14044675D01*
X32781814Y14019653D01*
X32791209Y13971319D01*
X32803867Y13904740D01*
X32818825Y13824986D01*
X32835119Y13737125D01*
X32836448Y13729936D01*
X32852691Y13644660D01*
X32867805Y13569758D01*
X32880808Y13509781D01*
X32890715Y13469283D01*
X32896544Y13452816D01*
X32896575Y13452790D01*
X32914943Y13443680D01*
X32952640Y13428543D01*
X33001543Y13410642D01*
X33004297Y13409670D01*
X33066817Y13386041D01*
X33139543Y13356405D01*
X33207294Y13326938D01*
X33318703Y13276374D01*
X33565399Y13444840D01*
X33582775Y13456689D01*
X33657202Y13507053D01*
X33723614Y13551388D01*
X33778039Y13587084D01*
X33816506Y13611529D01*
X33835042Y13622111D01*
X33847743Y13619685D01*
X33876579Y13600890D01*
X33921143Y13563670D01*
X33982670Y13506980D01*
X34062398Y13429773D01*
X34069532Y13422745D01*
X34132796Y13359778D01*
X34188990Y13302732D01*
X34234677Y13255183D01*
X34266414Y13220703D01*
X34280764Y13202869D01*
X34280810Y13202783D01*
X34282633Y13189205D01*
X34275910Y13167180D01*
X34258946Y13133696D01*
X34230044Y13085739D01*
X34187508Y13020296D01*
X34129644Y12934355D01*
X34119783Y12919849D01*
X34069913Y12846365D01*
X34025905Y12781313D01*
X33990380Y12728583D01*
X33965959Y12692064D01*
X33955264Y12675644D01*
X33954458Y12672166D01*
X33959518Y12646215D01*
X33974677Y12603841D01*
X33997463Y12552272D01*
X34028429Y12484830D01*
X34063004Y12404805D01*
X34092366Y12332371D01*
X34099645Y12313623D01*
X34118710Y12265754D01*
X34132715Y12232404D01*
X34139041Y12219886D01*
X34146025Y12218950D01*
X34177413Y12213539D01*
X34228787Y12204194D01*
X34294802Y12191931D01*
X34370113Y12177768D01*
X34449375Y12162720D01*
X34527243Y12147805D01*
X34598370Y12134039D01*
X34657412Y12122438D01*
X34699022Y12114020D01*
X34717857Y12109801D01*
X34720980Y12108611D01*
X34728591Y12102195D01*
X34734254Y12088535D01*
X34738251Y12064001D01*
X34740866Y12024962D01*
X34742384Y11967787D01*
X34743086Y11888846D01*
X34743257Y11784508D01*
X34743257Y11467201D01*
X34667057Y11452161D01*
X34657840Y11450358D01*
X34608891Y11441020D01*
X34541205Y11428331D01*
X34462478Y11413727D01*
X34380400Y11398645D01*
X34348078Y11392578D01*
X34275855Y11377819D01*
X34215666Y11363863D01*
X34173040Y11352048D01*
X34153510Y11343713D01*
X34144660Y11330095D01*
X34128548Y11294062D01*
X34112065Y11247428D01*
X34106263Y11229966D01*
X34084906Y11172642D01*
X34057359Y11104799D01*
X34028107Y11037645D01*
X34012463Y11002570D01*
X33990174Y10950178D01*
X33974857Y10910942D01*
X33969162Y10891437D01*
X33969478Y10889964D01*
X33980281Y10869271D01*
X34004638Y10829335D01*
X34040081Y10774028D01*
X34084136Y10707219D01*
X34134332Y10632780D01*
X34299501Y10390377D01*
X34082503Y10173017D01*
X34061516Y10152101D01*
X33997342Y10089495D01*
X33939990Y10035505D01*
X33892820Y9993174D01*
X33859192Y9965543D01*
X33842467Y9955657D01*
X33824303Y9963179D01*
X33786265Y9984773D01*
X33732726Y10017849D01*
X33667884Y10059809D01*
X33595940Y10108057D01*
X33525275Y10155709D01*
X33461526Y10197672D01*
X33409513Y10230835D01*
X33373279Y10252622D01*
X33356867Y10260457D01*
X33355905Y10260386D01*
X33334103Y10252662D01*
X33295440Y10234677D01*
X33247612Y10209987D01*
X33247110Y10209716D01*
X33183587Y10177901D01*
X33140060Y10162358D01*
X33113052Y10162315D01*
X33099090Y10177000D01*
X33093180Y10191456D01*
X33077229Y10230169D01*
X33052660Y10289684D01*
X33020779Y10366835D01*
X32982893Y10458459D01*
X32940310Y10561393D01*
X32894337Y10672474D01*
X32852667Y10773528D01*
X32810268Y10877220D01*
X32772756Y10969881D01*
X32741388Y11048358D01*
X32717425Y11109500D01*
X32702123Y11150157D01*
X32696743Y11167175D01*
X32707018Y11182781D01*
X32735563Y11208838D01*
X32775971Y11239113D01*
X32872979Y11318316D01*
X32959793Y11419525D01*
X33023322Y11530884D01*
X33063177Y11649107D01*
X33078965Y11770905D01*
X33070296Y11892990D01*
X33036778Y12012075D01*
X32978021Y12124871D01*
X32893632Y12228089D01*
X32849631Y12268287D01*
X32744211Y12339362D01*
X32631410Y12385699D01*
X32514525Y12408401D01*
X32396853Y12408572D01*
X32281690Y12387313D01*
X32172335Y12345730D01*
X32072083Y12284924D01*
X31984233Y12205999D01*
X31912080Y12110059D01*
X31858922Y11998205D01*
X31828057Y11871543D01*
X31822392Y11810493D01*
X31830185Y11678224D01*
X31865284Y11552734D01*
X31926649Y11436241D01*
X32013243Y11330961D01*
X32124029Y11239113D01*
X32162931Y11210070D01*
X32192104Y11183728D01*
X32203257Y11167200D01*
X32198810Y11152791D01*
X32184378Y11114185D01*
X32161173Y11054799D01*
X32130452Y10977785D01*
X32093474Y10886297D01*
X32051496Y10783484D01*
X32005778Y10672498D01*
X31964178Y10571928D01*
X31921222Y10468053D01*
X31882829Y10375181D01*
X31850305Y10296475D01*
X31824958Y10235101D01*
X31808095Y10194221D01*
X31801025Y10177000D01*
X31800943Y10176796D01*
X31786798Y10162255D01*
X31759659Y10162421D01*
X31716023Y10178073D01*
X31652388Y10209987D01*
X31647379Y10212674D01*
X31600125Y10236850D01*
X31562811Y10253963D01*
X31543133Y10260457D01*
X31527005Y10252782D01*
X31490959Y10231129D01*
X31439092Y10198072D01*
X31375445Y10156190D01*
X31304060Y10108057D01*
X31233724Y10060869D01*
X31168670Y10018733D01*
X31114820Y9985422D01*
X31076374Y9963531D01*
X31057534Y9955657D01*
X31054325Y9956657D01*
X31031954Y9972416D01*
X30993733Y10004967D01*
X30943021Y10051267D01*
X30883181Y10108274D01*
X30817571Y10172942D01*
X30600648Y10390228D01*
X30769601Y10638747D01*
X30938553Y10887267D01*
X30887183Y10998405D01*
X30887031Y10998734D01*
X30856183Y11069582D01*
X30824661Y11148477D01*
X30799266Y11218400D01*
X30795423Y11229678D01*
X30776047Y11282033D01*
X30758574Y11322717D01*
X30746388Y11343713D01*
X30741426Y11346678D01*
X30711634Y11356625D01*
X30661047Y11369495D01*
X30595194Y11383947D01*
X30519600Y11398645D01*
X30496957Y11402790D01*
X30415038Y11417884D01*
X30338600Y11432101D01*
X30275337Y11444005D01*
X30232943Y11452161D01*
X30156743Y11467201D01*
X30156743Y11784508D01*
X30156760Y11823524D01*
X30157082Y11918708D01*
X30158033Y11989745D01*
X30159896Y12040266D01*
X30162955Y12073902D01*
X30167494Y12094282D01*
X30173795Y12105038D01*
X30182143Y12109801D01*
X30190224Y12111730D01*
X30223172Y12118555D01*
X30275736Y12128978D01*
X30342569Y12141982D01*
X30418328Y12156551D01*
X30497665Y12171667D01*
X30575237Y12186315D01*
X30645698Y12199477D01*
X30703702Y12210137D01*
X30743904Y12217279D01*
X30760959Y12219886D01*
X30762112Y12221459D01*
X30771385Y12241881D01*
X30787432Y12280955D01*
X30807635Y12332371D01*
X30835672Y12401647D01*
X30870186Y12481710D01*
X30902538Y12552272D01*
X30909952Y12568111D01*
X30930755Y12617707D01*
X30943219Y12655962D01*
X30944863Y12675644D01*
X30944015Y12677038D01*
X30930548Y12697580D01*
X30903850Y12737484D01*
X30866539Y12792860D01*
X30821234Y12859823D01*
X30770552Y12934483D01*
X30713445Y13019308D01*
X30670607Y13085200D01*
X30641460Y13133522D01*
X30624317Y13167267D01*
X30617495Y13189428D01*
X30619306Y13202998D01*
X30619915Y13204016D01*
X30636297Y13223790D01*
X30669695Y13259825D01*
X30716671Y13308549D01*
X30773786Y13366388D01*
X30837603Y13429773D01*
X30903802Y13494095D01*
X30968648Y13554553D01*
X31016299Y13595345D01*
X31047990Y13617516D01*
X31064958Y13622111D01*
X31067175Y13621079D01*
X31090524Y13607163D01*
X31132912Y13579970D01*
X31190369Y13542111D01*
X31258923Y13496197D01*
X31334601Y13444840D01*
X31581298Y13276374D01*
X31692706Y13326938D01*
X31695943Y13328403D01*
X31764343Y13358035D01*
X31836907Y13387507D01*
X31898457Y13410642D01*
X31898729Y13410738D01*
X31947595Y13428633D01*
X31985212Y13443747D01*
X32003457Y13452816D01*
X32003752Y13453145D01*
X32009946Y13471718D01*
X32020139Y13513955D01*
X32033348Y13575304D01*
X32048590Y13651211D01*
X32064881Y13737125D01*
X32065449Y13740204D01*
X32081713Y13827872D01*
X32096608Y13907259D01*
X32109171Y13973299D01*
X32118438Y14020921D01*
X32123444Y14045057D01*
X32123764Y14046395D01*
X32127060Y14056727D01*
X32133738Y14064494D01*
X32147462Y14070060D01*
X32171895Y14073793D01*
X32210702Y14076058D01*
X32267546Y14077222D01*
X32346090Y14077652D01*
X32450000Y14077714D01*
X32463056Y14077714D01*
X32563933Y14077629D01*
X34281697Y9388761D02*
X34224473Y9350265D01*
X34224473Y9350265D02*
X34180251Y9294665D01*
X34180251Y9294665D02*
X34153833Y9223914D01*
X34153833Y9223914D02*
X34148490Y9171838D01*
X34148490Y9171838D02*
X34149097Y9150107D01*
X34149097Y9150107D02*
X34154178Y9133469D01*
X34154178Y9133469D02*
X34168145Y9118563D01*
X34168145Y9118563D02*
X34195411Y9102027D01*
X34195411Y9102027D02*
X34240388Y9080502D01*
X34240388Y9080502D02*
X34307489Y9050626D01*
X34307489Y9050626D02*
X34307829Y9050476D01*
X34307829Y9050476D02*
X34369593Y9022187D01*
X34369593Y9022187D02*
X34420241Y8997067D01*
X34420241Y8997067D02*
X34454596Y8977821D01*
X34454596Y8977821D02*
X34467482Y8967152D01*
X34467482Y8967152D02*
X34467486Y8967066D01*
X34467486Y8967066D02*
X34456128Y8943834D01*
X34456128Y8943834D02*
X34429569Y8918226D01*
X34429569Y8918226D02*
X34399077Y8899779D01*
X34399077Y8899779D02*
X34383630Y8896114D01*
X34383630Y8896114D02*
X34341485Y8908788D01*
X34341485Y8908788D02*
X34305192Y8940529D01*
X34305192Y8940529D02*
X34287483Y8975428D01*
X34287483Y8975428D02*
X34270448Y9001155D01*
X34270448Y9001155D02*
X34237078Y9030454D01*
X34237078Y9030454D02*
X34197851Y9055765D01*
X34197851Y9055765D02*
X34163244Y9069529D01*
X34163244Y9069529D02*
X34156007Y9070286D01*
X34156007Y9070286D02*
X34147861Y9057840D01*
X34147861Y9057840D02*
X34147370Y9026028D01*
X34147370Y9026028D02*
X34153357Y8983134D01*
X34153357Y8983134D02*
X34164643Y8937442D01*
X34164643Y8937442D02*
X34180050Y8897239D01*
X34180050Y8897239D02*
X34180829Y8895678D01*
X34180829Y8895678D02*
X34227196Y8830938D01*
X34227196Y8830938D02*
X34287289Y8786903D01*
X34287289Y8786903D02*
X34355535Y8765289D01*
X34355535Y8765289D02*
X34426362Y8767815D01*
X34426362Y8767815D02*
X34494196Y8796196D01*
X34494196Y8796196D02*
X34497212Y8798192D01*
X34497212Y8798192D02*
X34550573Y8846552D01*
X34550573Y8846552D02*
X34585660Y8909648D01*
X34585660Y8909648D02*
X34605078Y8992613D01*
X34605078Y8992613D02*
X34607684Y9015922D01*
X34607684Y9015922D02*
X34612299Y9125945D01*
X34612299Y9125945D02*
X34606767Y9177252D01*
X34606767Y9177252D02*
X34467486Y9177252D01*
X34467486Y9177252D02*
X34465676Y9145247D01*
X34465676Y9145247D02*
X34455778Y9135907D01*
X34455778Y9135907D02*
X34431102Y9142895D01*
X34431102Y9142895D02*
X34392205Y9159413D01*
X34392205Y9159413D02*
X34348725Y9180119D01*
X34348725Y9180119D02*
X34347644Y9180667D01*
X34347644Y9180667D02*
X34310791Y9200051D01*
X34310791Y9200051D02*
X34296000Y9212987D01*
X34296000Y9212987D02*
X34299647Y9226549D01*
X34299647Y9226549D02*
X34315005Y9244368D01*
X34315005Y9244368D02*
X34354077Y9270155D01*
X34354077Y9270155D02*
X34396154Y9272050D01*
X34396154Y9272050D02*
X34433897Y9253283D01*
X34433897Y9253283D02*
X34459966Y9217085D01*
X34459966Y9217085D02*
X34467486Y9177252D01*
X34467486Y9177252D02*
X34606767Y9177252D01*
X34606767Y9177252D02*
X34602806Y9213973D01*
X34602806Y9213973D02*
X34578450Y9283788D01*
X34578450Y9283788D02*
X34544544Y9332698D01*
X34544544Y9332698D02*
X34483347Y9382122D01*
X34483347Y9382122D02*
X34415937Y9406641D01*
X34415937Y9406641D02*
X34347120Y9408203D01*
X34347120Y9408203D02*
X34281697Y9388761D01*
X34281697Y9388761D02*
X34281697Y9388761D01*
G36*
X34607684Y9015922D02*
G01*
X34605078Y8992613D01*
X34585660Y8909648D01*
X34550573Y8846552D01*
X34497212Y8798192D01*
X34494196Y8796196D01*
X34426362Y8767815D01*
X34355535Y8765289D01*
X34287289Y8786903D01*
X34227196Y8830938D01*
X34180829Y8895678D01*
X34180050Y8897239D01*
X34164643Y8937442D01*
X34153357Y8983134D01*
X34147370Y9026028D01*
X34147861Y9057840D01*
X34156007Y9070286D01*
X34163244Y9069529D01*
X34197851Y9055765D01*
X34237078Y9030454D01*
X34270448Y9001155D01*
X34287483Y8975428D01*
X34305192Y8940529D01*
X34341485Y8908788D01*
X34383630Y8896114D01*
X34399077Y8899779D01*
X34429569Y8918226D01*
X34456128Y8943834D01*
X34467486Y8967066D01*
X34467482Y8967152D01*
X34454596Y8977821D01*
X34420241Y8997067D01*
X34369593Y9022187D01*
X34307829Y9050476D01*
X34307489Y9050626D01*
X34240388Y9080502D01*
X34195411Y9102027D01*
X34168145Y9118563D01*
X34154178Y9133469D01*
X34149097Y9150107D01*
X34148490Y9171838D01*
X34152712Y9212987D01*
X34296000Y9212987D01*
X34310791Y9200051D01*
X34347644Y9180667D01*
X34348725Y9180119D01*
X34392205Y9159413D01*
X34431102Y9142895D01*
X34455778Y9135907D01*
X34465676Y9145247D01*
X34467486Y9177252D01*
X34459966Y9217085D01*
X34433897Y9253283D01*
X34396154Y9272050D01*
X34354077Y9270155D01*
X34315005Y9244368D01*
X34299647Y9226549D01*
X34296000Y9212987D01*
X34152712Y9212987D01*
X34153833Y9223914D01*
X34180251Y9294665D01*
X34224473Y9350265D01*
X34281697Y9388761D01*
X34347120Y9408203D01*
X34415937Y9406641D01*
X34483347Y9382122D01*
X34544544Y9332698D01*
X34578450Y9283788D01*
X34602806Y9213973D01*
X34606767Y9177252D01*
X34612299Y9125945D01*
X34607684Y9015922D01*
G37*
X34607684Y9015922D02*
X34605078Y8992613D01*
X34585660Y8909648D01*
X34550573Y8846552D01*
X34497212Y8798192D01*
X34494196Y8796196D01*
X34426362Y8767815D01*
X34355535Y8765289D01*
X34287289Y8786903D01*
X34227196Y8830938D01*
X34180829Y8895678D01*
X34180050Y8897239D01*
X34164643Y8937442D01*
X34153357Y8983134D01*
X34147370Y9026028D01*
X34147861Y9057840D01*
X34156007Y9070286D01*
X34163244Y9069529D01*
X34197851Y9055765D01*
X34237078Y9030454D01*
X34270448Y9001155D01*
X34287483Y8975428D01*
X34305192Y8940529D01*
X34341485Y8908788D01*
X34383630Y8896114D01*
X34399077Y8899779D01*
X34429569Y8918226D01*
X34456128Y8943834D01*
X34467486Y8967066D01*
X34467482Y8967152D01*
X34454596Y8977821D01*
X34420241Y8997067D01*
X34369593Y9022187D01*
X34307829Y9050476D01*
X34307489Y9050626D01*
X34240388Y9080502D01*
X34195411Y9102027D01*
X34168145Y9118563D01*
X34154178Y9133469D01*
X34149097Y9150107D01*
X34148490Y9171838D01*
X34152712Y9212987D01*
X34296000Y9212987D01*
X34310791Y9200051D01*
X34347644Y9180667D01*
X34348725Y9180119D01*
X34392205Y9159413D01*
X34431102Y9142895D01*
X34455778Y9135907D01*
X34465676Y9145247D01*
X34467486Y9177252D01*
X34459966Y9217085D01*
X34433897Y9253283D01*
X34396154Y9272050D01*
X34354077Y9270155D01*
X34315005Y9244368D01*
X34299647Y9226549D01*
X34296000Y9212987D01*
X34152712Y9212987D01*
X34153833Y9223914D01*
X34180251Y9294665D01*
X34224473Y9350265D01*
X34281697Y9388761D01*
X34347120Y9408203D01*
X34415937Y9406641D01*
X34483347Y9382122D01*
X34544544Y9332698D01*
X34578450Y9283788D01*
X34602806Y9213973D01*
X34606767Y9177252D01*
X34612299Y9125945D01*
X34607684Y9015922D01*
X33074114Y9468711D02*
X33069861Y9409387D01*
X33069861Y9409387D02*
X33064975Y9374428D01*
X33064975Y9374428D02*
X33058205Y9359180D01*
X33058205Y9359180D02*
X33048298Y9358985D01*
X33048298Y9358985D02*
X33045086Y9360805D01*
X33045086Y9360805D02*
X33002356Y9373985D01*
X33002356Y9373985D02*
X32946773Y9373215D01*
X32946773Y9373215D02*
X32890263Y9359667D01*
X32890263Y9359667D02*
X32854918Y9342139D01*
X32854918Y9342139D02*
X32818679Y9314139D01*
X32818679Y9314139D02*
X32792187Y9282451D01*
X32792187Y9282451D02*
X32774001Y9242187D01*
X32774001Y9242187D02*
X32762678Y9188457D01*
X32762678Y9188457D02*
X32756778Y9116374D01*
X32756778Y9116374D02*
X32754857Y9021049D01*
X32754857Y9021049D02*
X32754823Y9002763D01*
X32754823Y9002763D02*
X32754800Y8797354D01*
X32754800Y8797354D02*
X32800509Y8781420D01*
X32800509Y8781420D02*
X32832973Y8770580D01*
X32832973Y8770580D02*
X32850785Y8765532D01*
X32850785Y8765532D02*
X32851309Y8765486D01*
X32851309Y8765486D02*
X32853063Y8779172D01*
X32853063Y8779172D02*
X32854556Y8816924D01*
X32854556Y8816924D02*
X32855674Y8873776D01*
X32855674Y8873776D02*
X32856303Y8944766D01*
X32856303Y8944766D02*
X32856400Y8987927D01*
X32856400Y8987927D02*
X32856602Y9073027D01*
X32856602Y9073027D02*
X32857642Y9134019D01*
X32857642Y9134019D02*
X32860169Y9175823D01*
X32860169Y9175823D02*
X32864836Y9203358D01*
X32864836Y9203358D02*
X32872293Y9221544D01*
X32872293Y9221544D02*
X32883189Y9235302D01*
X32883189Y9235302D02*
X32889993Y9241927D01*
X32889993Y9241927D02*
X32936728Y9268625D01*
X32936728Y9268625D02*
X32987728Y9270625D01*
X32987728Y9270625D02*
X33033999Y9248045D01*
X33033999Y9248045D02*
X33042556Y9239893D01*
X33042556Y9239893D02*
X33055107Y9224564D01*
X33055107Y9224564D02*
X33063812Y9206382D01*
X33063812Y9206382D02*
X33069369Y9180091D01*
X33069369Y9180091D02*
X33072474Y9140438D01*
X33072474Y9140438D02*
X33073824Y9082168D01*
X33073824Y9082168D02*
X33074114Y9001827D01*
X33074114Y9001827D02*
X33074114Y8797354D01*
X33074114Y8797354D02*
X33119823Y8781420D01*
X33119823Y8781420D02*
X33152287Y8770580D01*
X33152287Y8770580D02*
X33170099Y8765532D01*
X33170099Y8765532D02*
X33170623Y8765486D01*
X33170623Y8765486D02*
X33171963Y8779377D01*
X33171963Y8779377D02*
X33173172Y8818561D01*
X33173172Y8818561D02*
X33174199Y8879300D01*
X33174199Y8879300D02*
X33174998Y8957859D01*
X33174998Y8957859D02*
X33175519Y9050502D01*
X33175519Y9050502D02*
X33175714Y9153491D01*
X33175714Y9153491D02*
X33175714Y9550658D01*
X33175714Y9550658D02*
X33128543Y9570556D01*
X33128543Y9570556D02*
X33081371Y9590453D01*
X33081371Y9590453D02*
X33074114Y9468711D01*
X33074114Y9468711D02*
X33074114Y9468711D01*
G36*
X33128543Y9570556D02*
G01*
X33175714Y9550658D01*
X33175714Y9153491D01*
X33175519Y9050502D01*
X33174998Y8957859D01*
X33174199Y8879300D01*
X33173172Y8818561D01*
X33171963Y8779377D01*
X33170623Y8765486D01*
X33170099Y8765532D01*
X33152287Y8770580D01*
X33119823Y8781420D01*
X33074114Y8797354D01*
X33074114Y9001827D01*
X33073824Y9082168D01*
X33072474Y9140438D01*
X33069369Y9180091D01*
X33063812Y9206382D01*
X33055107Y9224564D01*
X33042556Y9239893D01*
X33033999Y9248045D01*
X32987728Y9270625D01*
X32936728Y9268625D01*
X32889993Y9241927D01*
X32883189Y9235302D01*
X32872293Y9221544D01*
X32864836Y9203358D01*
X32860169Y9175823D01*
X32857642Y9134019D01*
X32856602Y9073027D01*
X32856400Y8987927D01*
X32856303Y8944766D01*
X32855674Y8873776D01*
X32854556Y8816924D01*
X32853063Y8779172D01*
X32851309Y8765486D01*
X32850785Y8765532D01*
X32832973Y8770580D01*
X32800509Y8781420D01*
X32754800Y8797354D01*
X32754823Y9002763D01*
X32754857Y9021049D01*
X32756778Y9116374D01*
X32762678Y9188457D01*
X32774001Y9242187D01*
X32792187Y9282451D01*
X32818679Y9314139D01*
X32854918Y9342139D01*
X32890263Y9359667D01*
X32946773Y9373215D01*
X33002356Y9373985D01*
X33045086Y9360805D01*
X33048298Y9358985D01*
X33058205Y9359180D01*
X33064975Y9374428D01*
X33069861Y9409387D01*
X33074114Y9468711D01*
X33081371Y9590453D01*
X33128543Y9570556D01*
G37*
X33128543Y9570556D02*
X33175714Y9550658D01*
X33175714Y9153491D01*
X33175519Y9050502D01*
X33174998Y8957859D01*
X33174199Y8879300D01*
X33173172Y8818561D01*
X33171963Y8779377D01*
X33170623Y8765486D01*
X33170099Y8765532D01*
X33152287Y8770580D01*
X33119823Y8781420D01*
X33074114Y8797354D01*
X33074114Y9001827D01*
X33073824Y9082168D01*
X33072474Y9140438D01*
X33069369Y9180091D01*
X33063812Y9206382D01*
X33055107Y9224564D01*
X33042556Y9239893D01*
X33033999Y9248045D01*
X32987728Y9270625D01*
X32936728Y9268625D01*
X32889993Y9241927D01*
X32883189Y9235302D01*
X32872293Y9221544D01*
X32864836Y9203358D01*
X32860169Y9175823D01*
X32857642Y9134019D01*
X32856602Y9073027D01*
X32856400Y8987927D01*
X32856303Y8944766D01*
X32855674Y8873776D01*
X32854556Y8816924D01*
X32853063Y8779172D01*
X32851309Y8765486D01*
X32850785Y8765532D01*
X32832973Y8770580D01*
X32800509Y8781420D01*
X32754800Y8797354D01*
X32754823Y9002763D01*
X32754857Y9021049D01*
X32756778Y9116374D01*
X32762678Y9188457D01*
X32774001Y9242187D01*
X32792187Y9282451D01*
X32818679Y9314139D01*
X32854918Y9342139D01*
X32890263Y9359667D01*
X32946773Y9373215D01*
X33002356Y9373985D01*
X33045086Y9360805D01*
X33048298Y9358985D01*
X33058205Y9359180D01*
X33064975Y9374428D01*
X33069861Y9409387D01*
X33074114Y9468711D01*
X33081371Y9590453D01*
X33128543Y9570556D01*
X30305124Y9363665D02*
X30263333Y9344656D01*
X30263333Y9344656D02*
X30230531Y9321622D01*
X30230531Y9321622D02*
X30206497Y9295867D01*
X30206497Y9295867D02*
X30189903Y9262642D01*
X30189903Y9262642D02*
X30179423Y9217200D01*
X30179423Y9217200D02*
X30173729Y9154793D01*
X30173729Y9154793D02*
X30171493Y9070673D01*
X30171493Y9070673D02*
X30171257Y9015279D01*
X30171257Y9015279D02*
X30171257Y8799174D01*
X30171257Y8799174D02*
X30208226Y8782330D01*
X30208226Y8782330D02*
X30237344Y8770019D01*
X30237344Y8770019D02*
X30251769Y8765486D01*
X30251769Y8765486D02*
X30254528Y8778975D01*
X30254528Y8778975D02*
X30256718Y8815347D01*
X30256718Y8815347D02*
X30258058Y8868458D01*
X30258058Y8868458D02*
X30258343Y8910628D01*
X30258343Y8910628D02*
X30259566Y8971553D01*
X30259566Y8971553D02*
X30262864Y9019885D01*
X30262864Y9019885D02*
X30267679Y9049482D01*
X30267679Y9049482D02*
X30271504Y9055771D01*
X30271504Y9055771D02*
X30297217Y9049348D01*
X30297217Y9049348D02*
X30337582Y9032875D01*
X30337582Y9032875D02*
X30384321Y9010542D01*
X30384321Y9010542D02*
X30429155Y8986543D01*
X30429155Y8986543D02*
X30463807Y8965070D01*
X30463807Y8965070D02*
X30479998Y8950315D01*
X30479998Y8950315D02*
X30480062Y8950155D01*
X30480062Y8950155D02*
X30478670Y8922848D01*
X30478670Y8922848D02*
X30466182Y8896781D01*
X30466182Y8896781D02*
X30444257Y8875608D01*
X30444257Y8875608D02*
X30412257Y8868526D01*
X30412257Y8868526D02*
X30384908Y8869351D01*
X30384908Y8869351D02*
X30346174Y8869958D01*
X30346174Y8869958D02*
X30325842Y8860884D01*
X30325842Y8860884D02*
X30313631Y8836908D01*
X30313631Y8836908D02*
X30312091Y8832387D01*
X30312091Y8832387D02*
X30306797Y8798194D01*
X30306797Y8798194D02*
X30320953Y8777432D01*
X30320953Y8777432D02*
X30357852Y8767538D01*
X30357852Y8767538D02*
X30397711Y8765708D01*
X30397711Y8765708D02*
X30469438Y8779273D01*
X30469438Y8779273D02*
X30506568Y8798645D01*
X30506568Y8798645D02*
X30552424Y8844155D01*
X30552424Y8844155D02*
X30576744Y8900017D01*
X30576744Y8900017D02*
X30578927Y8959043D01*
X30578927Y8959043D02*
X30558371Y9014047D01*
X30558371Y9014047D02*
X30527451Y9048514D01*
X30527451Y9048514D02*
X30496580Y9067811D01*
X30496580Y9067811D02*
X30448058Y9092241D01*
X30448058Y9092241D02*
X30391515Y9117015D01*
X30391515Y9117015D02*
X30382090Y9120801D01*
X30382090Y9120801D02*
X30319981Y9148209D01*
X30319981Y9148209D02*
X30284178Y9172366D01*
X30284178Y9172366D02*
X30272663Y9196381D01*
X30272663Y9196381D02*
X30283420Y9223365D01*
X30283420Y9223365D02*
X30301886Y9244457D01*
X30301886Y9244457D02*
X30345531Y9270428D01*
X30345531Y9270428D02*
X30393554Y9272376D01*
X30393554Y9272376D02*
X30437594Y9252363D01*
X30437594Y9252363D02*
X30469291Y9212449D01*
X30469291Y9212449D02*
X30473451Y9202152D01*
X30473451Y9202152D02*
X30497673Y9164276D01*
X30497673Y9164276D02*
X30533035Y9136158D01*
X30533035Y9136158D02*
X30577657Y9113083D01*
X30577657Y9113083D02*
X30577657Y9178515D01*
X30577657Y9178515D02*
X30575031Y9218494D01*
X30575031Y9218494D02*
X30563770Y9250003D01*
X30563770Y9250003D02*
X30538801Y9283622D01*
X30538801Y9283622D02*
X30514831Y9309516D01*
X30514831Y9309516D02*
X30477559Y9346183D01*
X30477559Y9346183D02*
X30448599Y9365879D01*
X30448599Y9365879D02*
X30417495Y9373780D01*
X30417495Y9373780D02*
X30382287Y9375086D01*
X30382287Y9375086D02*
X30305124Y9363665D01*
X30305124Y9363665D02*
X30305124Y9363665D01*
G36*
X30417495Y9373780D02*
G01*
X30448599Y9365879D01*
X30477559Y9346183D01*
X30514831Y9309516D01*
X30538801Y9283622D01*
X30563770Y9250003D01*
X30575031Y9218494D01*
X30577657Y9178515D01*
X30577657Y9113083D01*
X30533035Y9136158D01*
X30497673Y9164276D01*
X30473451Y9202152D01*
X30469291Y9212449D01*
X30437594Y9252363D01*
X30393554Y9272376D01*
X30345531Y9270428D01*
X30301886Y9244457D01*
X30283420Y9223365D01*
X30272663Y9196381D01*
X30284178Y9172366D01*
X30319981Y9148209D01*
X30382090Y9120801D01*
X30391515Y9117015D01*
X30448058Y9092241D01*
X30496580Y9067811D01*
X30527451Y9048514D01*
X30558371Y9014047D01*
X30578927Y8959043D01*
X30576744Y8900017D01*
X30552424Y8844155D01*
X30506568Y8798645D01*
X30469438Y8779273D01*
X30397711Y8765708D01*
X30357852Y8767538D01*
X30320953Y8777432D01*
X30306797Y8798194D01*
X30312091Y8832387D01*
X30313631Y8836908D01*
X30325842Y8860884D01*
X30346174Y8869958D01*
X30384908Y8869351D01*
X30412257Y8868526D01*
X30444257Y8875608D01*
X30466182Y8896781D01*
X30478670Y8922848D01*
X30480062Y8950155D01*
X30479998Y8950315D01*
X30463807Y8965070D01*
X30429155Y8986543D01*
X30384321Y9010542D01*
X30337582Y9032875D01*
X30297217Y9049348D01*
X30271504Y9055771D01*
X30267679Y9049482D01*
X30262864Y9019885D01*
X30259566Y8971553D01*
X30258343Y8910628D01*
X30258058Y8868458D01*
X30256718Y8815347D01*
X30254528Y8778975D01*
X30251769Y8765486D01*
X30237344Y8770019D01*
X30208226Y8782330D01*
X30171257Y8799174D01*
X30171257Y9015279D01*
X30171493Y9070673D01*
X30173729Y9154793D01*
X30179423Y9217200D01*
X30189903Y9262642D01*
X30206497Y9295867D01*
X30230531Y9321622D01*
X30263333Y9344656D01*
X30305124Y9363665D01*
X30382287Y9375086D01*
X30417495Y9373780D01*
G37*
X30417495Y9373780D02*
X30448599Y9365879D01*
X30477559Y9346183D01*
X30514831Y9309516D01*
X30538801Y9283622D01*
X30563770Y9250003D01*
X30575031Y9218494D01*
X30577657Y9178515D01*
X30577657Y9113083D01*
X30533035Y9136158D01*
X30497673Y9164276D01*
X30473451Y9202152D01*
X30469291Y9212449D01*
X30437594Y9252363D01*
X30393554Y9272376D01*
X30345531Y9270428D01*
X30301886Y9244457D01*
X30283420Y9223365D01*
X30272663Y9196381D01*
X30284178Y9172366D01*
X30319981Y9148209D01*
X30382090Y9120801D01*
X30391515Y9117015D01*
X30448058Y9092241D01*
X30496580Y9067811D01*
X30527451Y9048514D01*
X30558371Y9014047D01*
X30578927Y8959043D01*
X30576744Y8900017D01*
X30552424Y8844155D01*
X30506568Y8798645D01*
X30469438Y8779273D01*
X30397711Y8765708D01*
X30357852Y8767538D01*
X30320953Y8777432D01*
X30306797Y8798194D01*
X30312091Y8832387D01*
X30313631Y8836908D01*
X30325842Y8860884D01*
X30346174Y8869958D01*
X30384908Y8869351D01*
X30412257Y8868526D01*
X30444257Y8875608D01*
X30466182Y8896781D01*
X30478670Y8922848D01*
X30480062Y8950155D01*
X30479998Y8950315D01*
X30463807Y8965070D01*
X30429155Y8986543D01*
X30384321Y9010542D01*
X30337582Y9032875D01*
X30297217Y9049348D01*
X30271504Y9055771D01*
X30267679Y9049482D01*
X30262864Y9019885D01*
X30259566Y8971553D01*
X30258343Y8910628D01*
X30258058Y8868458D01*
X30256718Y8815347D01*
X30254528Y8778975D01*
X30251769Y8765486D01*
X30237344Y8770019D01*
X30208226Y8782330D01*
X30171257Y8799174D01*
X30171257Y9015279D01*
X30171493Y9070673D01*
X30173729Y9154793D01*
X30179423Y9217200D01*
X30189903Y9262642D01*
X30206497Y9295867D01*
X30230531Y9321622D01*
X30263333Y9344656D01*
X30305124Y9363665D01*
X30382287Y9375086D01*
X30417495Y9373780D01*
X31259883Y9254642D02*
X31260067Y9146163D01*
X31260067Y9146163D02*
X31260781Y9062713D01*
X31260781Y9062713D02*
X31262325Y9000296D01*
X31262325Y9000296D02*
X31264999Y8954915D01*
X31264999Y8954915D02*
X31269106Y8922571D01*
X31269106Y8922571D02*
X31274945Y8899267D01*
X31274945Y8899267D02*
X31282818Y8881005D01*
X31282818Y8881005D02*
X31288779Y8870582D01*
X31288779Y8870582D02*
X31338145Y8814055D01*
X31338145Y8814055D02*
X31400736Y8778623D01*
X31400736Y8778623D02*
X31469987Y8765910D01*
X31469987Y8765910D02*
X31539332Y8777537D01*
X31539332Y8777537D02*
X31580625Y8798432D01*
X31580625Y8798432D02*
X31623975Y8834578D01*
X31623975Y8834578D02*
X31653519Y8878724D01*
X31653519Y8878724D02*
X31671345Y8936538D01*
X31671345Y8936538D02*
X31679537Y9013687D01*
X31679537Y9013687D02*
X31680698Y9070286D01*
X31680698Y9070286D02*
X31680542Y9074353D01*
X31680542Y9074353D02*
X31579143Y9074353D01*
X31579143Y9074353D02*
X31578524Y9009450D01*
X31578524Y9009450D02*
X31575686Y8966486D01*
X31575686Y8966486D02*
X31569160Y8938378D01*
X31569160Y8938378D02*
X31557477Y8918047D01*
X31557477Y8918047D02*
X31543517Y8902712D01*
X31543517Y8902712D02*
X31496635Y8873110D01*
X31496635Y8873110D02*
X31446299Y8870581D01*
X31446299Y8870581D02*
X31398724Y8895295D01*
X31398724Y8895295D02*
X31395021Y8898644D01*
X31395021Y8898644D02*
X31379217Y8916065D01*
X31379217Y8916065D02*
X31369307Y8936791D01*
X31369307Y8936791D02*
X31363942Y8967638D01*
X31363942Y8967638D02*
X31361772Y9015423D01*
X31361772Y9015423D02*
X31361429Y9068252D01*
X31361429Y9068252D02*
X31362173Y9134619D01*
X31362173Y9134619D02*
X31365252Y9178894D01*
X31365252Y9178894D02*
X31371939Y9207991D01*
X31371939Y9207991D02*
X31383504Y9228827D01*
X31383504Y9228827D02*
X31392987Y9239893D01*
X31392987Y9239893D02*
X31437040Y9267802D01*
X31437040Y9267802D02*
X31487776Y9271157D01*
X31487776Y9271157D02*
X31536204Y9249841D01*
X31536204Y9249841D02*
X31545550Y9241927D01*
X31545550Y9241927D02*
X31561460Y9224353D01*
X31561460Y9224353D02*
X31571390Y9203413D01*
X31571390Y9203413D02*
X31576722Y9172218D01*
X31576722Y9172218D02*
X31578837Y9123878D01*
X31578837Y9123878D02*
X31579143Y9074353D01*
X31579143Y9074353D02*
X31680542Y9074353D01*
X31680542Y9074353D02*
X31677190Y9161432D01*
X31677190Y9161432D02*
X31665274Y9229914D01*
X31665274Y9229914D02*
X31642865Y9281400D01*
X31642865Y9281400D02*
X31607876Y9321557D01*
X31607876Y9321557D02*
X31580625Y9342139D01*
X31580625Y9342139D02*
X31531093Y9364375D01*
X31531093Y9364375D02*
X31473684Y9374696D01*
X31473684Y9374696D02*
X31420318Y9371933D01*
X31420318Y9371933D02*
X31390457Y9360788D01*
X31390457Y9360788D02*
X31378739Y9357617D01*
X31378739Y9357617D02*
X31370963Y9369443D01*
X31370963Y9369443D02*
X31365535Y9401134D01*
X31365535Y9401134D02*
X31361429Y9449407D01*
X31361429Y9449407D02*
X31356933Y9503171D01*
X31356933Y9503171D02*
X31350687Y9535518D01*
X31350687Y9535518D02*
X31339324Y9554015D01*
X31339324Y9554015D02*
X31319472Y9566230D01*
X31319472Y9566230D02*
X31307000Y9571638D01*
X31307000Y9571638D02*
X31259829Y9591399D01*
X31259829Y9591399D02*
X31259883Y9254642D01*
X31259883Y9254642D02*
X31259883Y9254642D01*
G36*
X31679537Y9013687D02*
G01*
X31671345Y8936538D01*
X31653519Y8878724D01*
X31623975Y8834578D01*
X31580625Y8798432D01*
X31539332Y8777537D01*
X31469987Y8765910D01*
X31400736Y8778623D01*
X31338145Y8814055D01*
X31288779Y8870582D01*
X31282818Y8881005D01*
X31274945Y8899267D01*
X31269106Y8922571D01*
X31264999Y8954915D01*
X31262325Y9000296D01*
X31260781Y9062713D01*
X31260734Y9068252D01*
X31361429Y9068252D01*
X31361772Y9015423D01*
X31363942Y8967638D01*
X31369307Y8936791D01*
X31379217Y8916065D01*
X31395021Y8898644D01*
X31398724Y8895295D01*
X31446299Y8870581D01*
X31496635Y8873110D01*
X31543517Y8902712D01*
X31557477Y8918047D01*
X31569160Y8938378D01*
X31575686Y8966486D01*
X31578524Y9009450D01*
X31579143Y9074353D01*
X31578837Y9123878D01*
X31576722Y9172218D01*
X31571390Y9203413D01*
X31561460Y9224353D01*
X31545550Y9241927D01*
X31536204Y9249841D01*
X31487776Y9271157D01*
X31437040Y9267802D01*
X31392987Y9239893D01*
X31383504Y9228827D01*
X31371939Y9207991D01*
X31365252Y9178894D01*
X31362173Y9134619D01*
X31361429Y9068252D01*
X31260734Y9068252D01*
X31260067Y9146163D01*
X31259883Y9254642D01*
X31259829Y9591399D01*
X31307000Y9571638D01*
X31319472Y9566230D01*
X31339324Y9554015D01*
X31350687Y9535518D01*
X31356933Y9503171D01*
X31361429Y9449407D01*
X31365535Y9401134D01*
X31370963Y9369443D01*
X31378739Y9357617D01*
X31390457Y9360788D01*
X31420318Y9371933D01*
X31473684Y9374696D01*
X31531093Y9364375D01*
X31580625Y9342139D01*
X31607876Y9321557D01*
X31642865Y9281400D01*
X31665274Y9229914D01*
X31677190Y9161432D01*
X31680542Y9074353D01*
X31680698Y9070286D01*
X31679537Y9013687D01*
G37*
X31679537Y9013687D02*
X31671345Y8936538D01*
X31653519Y8878724D01*
X31623975Y8834578D01*
X31580625Y8798432D01*
X31539332Y8777537D01*
X31469987Y8765910D01*
X31400736Y8778623D01*
X31338145Y8814055D01*
X31288779Y8870582D01*
X31282818Y8881005D01*
X31274945Y8899267D01*
X31269106Y8922571D01*
X31264999Y8954915D01*
X31262325Y9000296D01*
X31260781Y9062713D01*
X31260734Y9068252D01*
X31361429Y9068252D01*
X31361772Y9015423D01*
X31363942Y8967638D01*
X31369307Y8936791D01*
X31379217Y8916065D01*
X31395021Y8898644D01*
X31398724Y8895295D01*
X31446299Y8870581D01*
X31496635Y8873110D01*
X31543517Y8902712D01*
X31557477Y8918047D01*
X31569160Y8938378D01*
X31575686Y8966486D01*
X31578524Y9009450D01*
X31579143Y9074353D01*
X31578837Y9123878D01*
X31576722Y9172218D01*
X31571390Y9203413D01*
X31561460Y9224353D01*
X31545550Y9241927D01*
X31536204Y9249841D01*
X31487776Y9271157D01*
X31437040Y9267802D01*
X31392987Y9239893D01*
X31383504Y9228827D01*
X31371939Y9207991D01*
X31365252Y9178894D01*
X31362173Y9134619D01*
X31361429Y9068252D01*
X31260734Y9068252D01*
X31260067Y9146163D01*
X31259883Y9254642D01*
X31259829Y9591399D01*
X31307000Y9571638D01*
X31319472Y9566230D01*
X31339324Y9554015D01*
X31350687Y9535518D01*
X31356933Y9503171D01*
X31361429Y9449407D01*
X31365535Y9401134D01*
X31370963Y9369443D01*
X31378739Y9357617D01*
X31390457Y9360788D01*
X31420318Y9371933D01*
X31473684Y9374696D01*
X31531093Y9364375D01*
X31580625Y9342139D01*
X31607876Y9321557D01*
X31642865Y9281400D01*
X31665274Y9229914D01*
X31677190Y9161432D01*
X31680542Y9074353D01*
X31680698Y9070286D01*
X31679537Y9013687D01*
X31920074Y9370245D02*
X31854142Y9345916D01*
X31854142Y9345916D02*
X31800727Y9302883D01*
X31800727Y9302883D02*
X31779836Y9272591D01*
X31779836Y9272591D02*
X31757061Y9217006D01*
X31757061Y9217006D02*
X31757534Y9176814D01*
X31757534Y9176814D02*
X31781438Y9149783D01*
X31781438Y9149783D02*
X31790283Y9145187D01*
X31790283Y9145187D02*
X31828470Y9130856D01*
X31828470Y9130856D02*
X31847972Y9134528D01*
X31847972Y9134528D02*
X31854578Y9158593D01*
X31854578Y9158593D02*
X31854914Y9171886D01*
X31854914Y9171886D02*
X31867008Y9220790D01*
X31867008Y9220790D02*
X31898529Y9255001D01*
X31898529Y9255001D02*
X31942341Y9271524D01*
X31942341Y9271524D02*
X31991305Y9267366D01*
X31991305Y9267366D02*
X32031106Y9245773D01*
X32031106Y9245773D02*
X32044550Y9233456D01*
X32044550Y9233456D02*
X32054079Y9218513D01*
X32054079Y9218513D02*
X32060515Y9195925D01*
X32060515Y9195925D02*
X32064683Y9160672D01*
X32064683Y9160672D02*
X32067403Y9107734D01*
X32067403Y9107734D02*
X32069498Y9032093D01*
X32069498Y9032093D02*
X32070040Y9008143D01*
X32070040Y9008143D02*
X32072019Y8926210D01*
X32072019Y8926210D02*
X32074269Y8868545D01*
X32074269Y8868545D02*
X32077643Y8830392D01*
X32077643Y8830392D02*
X32082994Y8806996D01*
X32082994Y8806996D02*
X32091176Y8793602D01*
X32091176Y8793602D02*
X32103041Y8785455D01*
X32103041Y8785455D02*
X32110638Y8781856D01*
X32110638Y8781856D02*
X32142898Y8769548D01*
X32142898Y8769548D02*
X32161889Y8765486D01*
X32161889Y8765486D02*
X32168164Y8779052D01*
X32168164Y8779052D02*
X32171994Y8820066D01*
X32171994Y8820066D02*
X32173400Y8889001D01*
X32173400Y8889001D02*
X32172402Y8986331D01*
X32172402Y8986331D02*
X32172092Y9001343D01*
X32172092Y9001343D02*
X32169899Y9090141D01*
X32169899Y9090141D02*
X32167307Y9154981D01*
X32167307Y9154981D02*
X32163618Y9200933D01*
X32163618Y9200933D02*
X32158136Y9233065D01*
X32158136Y9233065D02*
X32150165Y9256447D01*
X32150165Y9256447D02*
X32139007Y9276148D01*
X32139007Y9276148D02*
X32133170Y9284590D01*
X32133170Y9284590D02*
X32099704Y9321943D01*
X32099704Y9321943D02*
X32062273Y9350997D01*
X32062273Y9350997D02*
X32057691Y9353533D01*
X32057691Y9353533D02*
X31990574Y9373557D01*
X31990574Y9373557D02*
X31920074Y9370245D01*
X31920074Y9370245D02*
X31920074Y9370245D01*
G36*
X32057691Y9353533D02*
G01*
X32062273Y9350997D01*
X32099704Y9321943D01*
X32133170Y9284590D01*
X32139007Y9276148D01*
X32150165Y9256447D01*
X32158136Y9233065D01*
X32163618Y9200933D01*
X32167307Y9154981D01*
X32169899Y9090141D01*
X32172092Y9001343D01*
X32172402Y8986331D01*
X32173400Y8889001D01*
X32171994Y8820066D01*
X32168164Y8779052D01*
X32161889Y8765486D01*
X32142898Y8769548D01*
X32110638Y8781856D01*
X32103041Y8785455D01*
X32091176Y8793602D01*
X32082994Y8806996D01*
X32077643Y8830392D01*
X32074269Y8868545D01*
X32072019Y8926210D01*
X32070040Y9008143D01*
X32069498Y9032093D01*
X32067403Y9107734D01*
X32064683Y9160672D01*
X32060515Y9195925D01*
X32054079Y9218513D01*
X32044550Y9233456D01*
X32031106Y9245773D01*
X31991305Y9267366D01*
X31942341Y9271524D01*
X31898529Y9255001D01*
X31867008Y9220790D01*
X31854914Y9171886D01*
X31854578Y9158593D01*
X31847972Y9134528D01*
X31828470Y9130856D01*
X31790283Y9145187D01*
X31781438Y9149783D01*
X31757534Y9176814D01*
X31757061Y9217006D01*
X31779836Y9272591D01*
X31800727Y9302883D01*
X31854142Y9345916D01*
X31920074Y9370245D01*
X31990574Y9373557D01*
X32057691Y9353533D01*
G37*
X32057691Y9353533D02*
X32062273Y9350997D01*
X32099704Y9321943D01*
X32133170Y9284590D01*
X32139007Y9276148D01*
X32150165Y9256447D01*
X32158136Y9233065D01*
X32163618Y9200933D01*
X32167307Y9154981D01*
X32169899Y9090141D01*
X32172092Y9001343D01*
X32172402Y8986331D01*
X32173400Y8889001D01*
X32171994Y8820066D01*
X32168164Y8779052D01*
X32161889Y8765486D01*
X32142898Y8769548D01*
X32110638Y8781856D01*
X32103041Y8785455D01*
X32091176Y8793602D01*
X32082994Y8806996D01*
X32077643Y8830392D01*
X32074269Y8868545D01*
X32072019Y8926210D01*
X32070040Y9008143D01*
X32069498Y9032093D01*
X32067403Y9107734D01*
X32064683Y9160672D01*
X32060515Y9195925D01*
X32054079Y9218513D01*
X32044550Y9233456D01*
X32031106Y9245773D01*
X31991305Y9267366D01*
X31942341Y9271524D01*
X31898529Y9255001D01*
X31867008Y9220790D01*
X31854914Y9171886D01*
X31854578Y9158593D01*
X31847972Y9134528D01*
X31828470Y9130856D01*
X31790283Y9145187D01*
X31781438Y9149783D01*
X31757534Y9176814D01*
X31757061Y9217006D01*
X31779836Y9272591D01*
X31800727Y9302883D01*
X31854142Y9345916D01*
X31920074Y9370245D01*
X31990574Y9373557D01*
X32057691Y9353533D01*
X29797400Y9361248D02*
X29780052Y9353666D01*
X29780052Y9353666D02*
X29738644Y9320872D01*
X29738644Y9320872D02*
X29703235Y9273453D01*
X29703235Y9273453D02*
X29681336Y9222849D01*
X29681336Y9222849D02*
X29677771Y9197902D01*
X29677771Y9197902D02*
X29689721Y9163073D01*
X29689721Y9163073D02*
X29715933Y9144643D01*
X29715933Y9144643D02*
X29744036Y9133484D01*
X29744036Y9133484D02*
X29756905Y9131428D01*
X29756905Y9131428D02*
X29763171Y9146351D01*
X29763171Y9146351D02*
X29775544Y9178825D01*
X29775544Y9178825D02*
X29780972Y9193498D01*
X29780972Y9193498D02*
X29811410Y9244256D01*
X29811410Y9244256D02*
X29855480Y9269573D01*
X29855480Y9269573D02*
X29911990Y9268794D01*
X29911990Y9268794D02*
X29916175Y9267797D01*
X29916175Y9267797D02*
X29946345Y9253493D01*
X29946345Y9253493D02*
X29968524Y9225607D01*
X29968524Y9225607D02*
X29983673Y9180713D01*
X29983673Y9180713D02*
X29992750Y9115385D01*
X29992750Y9115385D02*
X29996714Y9026196D01*
X29996714Y9026196D02*
X29997086Y8978739D01*
X29997086Y8978739D02*
X29997270Y8903929D01*
X29997270Y8903929D02*
X29998478Y8852931D01*
X29998478Y8852931D02*
X30001691Y8820529D01*
X30001691Y8820529D02*
X30007891Y8801505D01*
X30007891Y8801505D02*
X30018060Y8790644D01*
X30018060Y8790644D02*
X30033181Y8782728D01*
X30033181Y8782728D02*
X30034054Y8782330D01*
X30034054Y8782330D02*
X30063172Y8770019D01*
X30063172Y8770019D02*
X30077597Y8765486D01*
X30077597Y8765486D02*
X30079814Y8779191D01*
X30079814Y8779191D02*
X30081711Y8817075D01*
X30081711Y8817075D02*
X30083153Y8874285D01*
X30083153Y8874285D02*
X30084002Y8945973D01*
X30084002Y8945973D02*
X30084171Y8998435D01*
X30084171Y8998435D02*
X30083308Y9099953D01*
X30083308Y9099953D02*
X30079930Y9176968D01*
X30079930Y9176968D02*
X30072858Y9233977D01*
X30072858Y9233977D02*
X30060912Y9275474D01*
X30060912Y9275474D02*
X30042910Y9305957D01*
X30042910Y9305957D02*
X30017673Y9329920D01*
X30017673Y9329920D02*
X29992753Y9346645D01*
X29992753Y9346645D02*
X29932829Y9368903D01*
X29932829Y9368903D02*
X29863089Y9373924D01*
X29863089Y9373924D02*
X29797400Y9361248D01*
X29797400Y9361248D02*
X29797400Y9361248D01*
G36*
X29932829Y9368903D02*
G01*
X29992753Y9346645D01*
X30017673Y9329920D01*
X30042910Y9305957D01*
X30060912Y9275474D01*
X30072858Y9233977D01*
X30079930Y9176968D01*
X30083308Y9099953D01*
X30084171Y8998435D01*
X30084002Y8945973D01*
X30083153Y8874285D01*
X30081711Y8817075D01*
X30079814Y8779191D01*
X30077597Y8765486D01*
X30063172Y8770019D01*
X30034054Y8782330D01*
X30033181Y8782728D01*
X30018060Y8790644D01*
X30007891Y8801505D01*
X30001691Y8820529D01*
X29998478Y8852931D01*
X29997270Y8903929D01*
X29997086Y8978739D01*
X29996714Y9026196D01*
X29992750Y9115385D01*
X29983673Y9180713D01*
X29968524Y9225607D01*
X29946345Y9253493D01*
X29916175Y9267797D01*
X29911990Y9268794D01*
X29855480Y9269573D01*
X29811410Y9244256D01*
X29780972Y9193498D01*
X29775544Y9178825D01*
X29763171Y9146351D01*
X29756905Y9131428D01*
X29744036Y9133484D01*
X29715933Y9144643D01*
X29689721Y9163073D01*
X29677771Y9197902D01*
X29681336Y9222849D01*
X29703235Y9273453D01*
X29738644Y9320872D01*
X29780052Y9353666D01*
X29797400Y9361248D01*
X29863089Y9373924D01*
X29932829Y9368903D01*
G37*
X29932829Y9368903D02*
X29992753Y9346645D01*
X30017673Y9329920D01*
X30042910Y9305957D01*
X30060912Y9275474D01*
X30072858Y9233977D01*
X30079930Y9176968D01*
X30083308Y9099953D01*
X30084171Y8998435D01*
X30084002Y8945973D01*
X30083153Y8874285D01*
X30081711Y8817075D01*
X30079814Y8779191D01*
X30077597Y8765486D01*
X30063172Y8770019D01*
X30034054Y8782330D01*
X30033181Y8782728D01*
X30018060Y8790644D01*
X30007891Y8801505D01*
X30001691Y8820529D01*
X29998478Y8852931D01*
X29997270Y8903929D01*
X29997086Y8978739D01*
X29996714Y9026196D01*
X29992750Y9115385D01*
X29983673Y9180713D01*
X29968524Y9225607D01*
X29946345Y9253493D01*
X29916175Y9267797D01*
X29911990Y9268794D01*
X29855480Y9269573D01*
X29811410Y9244256D01*
X29780972Y9193498D01*
X29775544Y9178825D01*
X29763171Y9146351D01*
X29756905Y9131428D01*
X29744036Y9133484D01*
X29715933Y9144643D01*
X29689721Y9163073D01*
X29677771Y9197902D01*
X29681336Y9222849D01*
X29703235Y9273453D01*
X29738644Y9320872D01*
X29780052Y9353666D01*
X29797400Y9361248D01*
X29863089Y9373924D01*
X29932829Y9368903D01*
X34850256Y9400082D02*
X34794799Y9372432D01*
X34794799Y9372432D02*
X34745852Y9321520D01*
X34745852Y9321520D02*
X34732371Y9302662D01*
X34732371Y9302662D02*
X34717686Y9277985D01*
X34717686Y9277985D02*
X34708158Y9251184D01*
X34708158Y9251184D02*
X34702707Y9215413D01*
X34702707Y9215413D02*
X34700253Y9163831D01*
X34700253Y9163831D02*
X34699714Y9095733D01*
X34699714Y9095733D02*
X34702148Y9002412D01*
X34702148Y9002412D02*
X34710606Y8932343D01*
X34710606Y8932343D02*
X34726826Y8880069D01*
X34726826Y8880069D02*
X34752546Y8840131D01*
X34752546Y8840131D02*
X34789503Y8807071D01*
X34789503Y8807071D02*
X34792218Y8805114D01*
X34792218Y8805114D02*
X34828640Y8785092D01*
X34828640Y8785092D02*
X34872498Y8775185D01*
X34872498Y8775185D02*
X34928276Y8772743D01*
X34928276Y8772743D02*
X35018952Y8772743D01*
X35018952Y8772743D02*
X35018990Y8684717D01*
X35018990Y8684717D02*
X35019834Y8635692D01*
X35019834Y8635692D02*
X35024976Y8606935D01*
X35024976Y8606935D02*
X35038413Y8589689D01*
X35038413Y8589689D02*
X35064142Y8575192D01*
X35064142Y8575192D02*
X35070321Y8572231D01*
X35070321Y8572231D02*
X35099236Y8558352D01*
X35099236Y8558352D02*
X35121624Y8549586D01*
X35121624Y8549586D02*
X35138271Y8548829D01*
X35138271Y8548829D02*
X35149964Y8558977D01*
X35149964Y8558977D02*
X35157490Y8582927D01*
X35157490Y8582927D02*
X35161634Y8623574D01*
X35161634Y8623574D02*
X35163185Y8683814D01*
X35163185Y8683814D02*
X35162929Y8766545D01*
X35162929Y8766545D02*
X35161651Y8874661D01*
X35161651Y8874661D02*
X35161252Y8907000D01*
X35161252Y8907000D02*
X35159815Y9018476D01*
X35159815Y9018476D02*
X35158528Y9091397D01*
X35158528Y9091397D02*
X35019029Y9091397D01*
X35019029Y9091397D02*
X35018245Y9029501D01*
X35018245Y9029501D02*
X35014760Y8989003D01*
X35014760Y8989003D02*
X35006876Y8962292D01*
X35006876Y8962292D02*
X34992895Y8941756D01*
X34992895Y8941756D02*
X34983403Y8931740D01*
X34983403Y8931740D02*
X34944596Y8902433D01*
X34944596Y8902433D02*
X34910237Y8900048D01*
X34910237Y8900048D02*
X34874784Y8924250D01*
X34874784Y8924250D02*
X34873886Y8925143D01*
X34873886Y8925143D02*
X34859461Y8943847D01*
X34859461Y8943847D02*
X34850687Y8969268D01*
X34850687Y8969268D02*
X34846261Y9008416D01*
X34846261Y9008416D02*
X34844882Y9068303D01*
X34844882Y9068303D02*
X34844857Y9081570D01*
X34844857Y9081570D02*
X34848188Y9164099D01*
X34848188Y9164099D02*
X34859031Y9221309D01*
X34859031Y9221309D02*
X34878660Y9256234D01*
X34878660Y9256234D02*
X34908350Y9271906D01*
X34908350Y9271906D02*
X34925509Y9273486D01*
X34925509Y9273486D02*
X34966234Y9266074D01*
X34966234Y9266074D02*
X34994168Y9241670D01*
X34994168Y9241670D02*
X35010983Y9197020D01*
X35010983Y9197020D02*
X35018350Y9128870D01*
X35018350Y9128870D02*
X35019029Y9091397D01*
X35019029Y9091397D02*
X35158528Y9091397D01*
X35158528Y9091397D02*
X35158292Y9104755D01*
X35158292Y9104755D02*
X35156323Y9169667D01*
X35156323Y9169667D02*
X35153550Y9217042D01*
X35153550Y9217042D02*
X35149612Y9250710D01*
X35149612Y9250710D02*
X35144151Y9274502D01*
X35144151Y9274502D02*
X35136808Y9292247D01*
X35136808Y9292247D02*
X35127223Y9307776D01*
X35127223Y9307776D02*
X35123113Y9313619D01*
X35123113Y9313619D02*
X35068595Y9368815D01*
X35068595Y9368815D02*
X34999664Y9400110D01*
X34999664Y9400110D02*
X34919928Y9408835D01*
X34919928Y9408835D02*
X34850256Y9400082D01*
X34850256Y9400082D02*
X34850256Y9400082D01*
G36*
X35161252Y8907000D02*
G01*
X35161651Y8874661D01*
X35162929Y8766545D01*
X35163185Y8683814D01*
X35161634Y8623574D01*
X35157490Y8582927D01*
X35149964Y8558977D01*
X35138271Y8548829D01*
X35121624Y8549586D01*
X35099236Y8558352D01*
X35070321Y8572231D01*
X35064142Y8575192D01*
X35038413Y8589689D01*
X35024976Y8606935D01*
X35019834Y8635692D01*
X35018990Y8684717D01*
X35018952Y8772743D01*
X34928276Y8772743D01*
X34872498Y8775185D01*
X34828640Y8785092D01*
X34792218Y8805114D01*
X34789503Y8807071D01*
X34752546Y8840131D01*
X34726826Y8880069D01*
X34710606Y8932343D01*
X34702148Y9002412D01*
X34700083Y9081570D01*
X34844857Y9081570D01*
X34844882Y9068303D01*
X34846261Y9008416D01*
X34850687Y8969268D01*
X34859461Y8943847D01*
X34873886Y8925143D01*
X34874784Y8924250D01*
X34910237Y8900048D01*
X34944596Y8902433D01*
X34983403Y8931740D01*
X34992895Y8941756D01*
X35006876Y8962292D01*
X35014760Y8989003D01*
X35018245Y9029501D01*
X35019029Y9091397D01*
X35018350Y9128870D01*
X35010983Y9197020D01*
X34994168Y9241670D01*
X34966234Y9266074D01*
X34925509Y9273486D01*
X34908350Y9271906D01*
X34878660Y9256234D01*
X34859031Y9221309D01*
X34848188Y9164099D01*
X34844857Y9081570D01*
X34700083Y9081570D01*
X34699714Y9095733D01*
X34700253Y9163831D01*
X34702707Y9215413D01*
X34708158Y9251184D01*
X34717686Y9277985D01*
X34732371Y9302662D01*
X34745852Y9321520D01*
X34794799Y9372432D01*
X34850256Y9400082D01*
X34919928Y9408835D01*
X34999664Y9400110D01*
X35068595Y9368815D01*
X35123113Y9313619D01*
X35127223Y9307776D01*
X35136808Y9292247D01*
X35144151Y9274502D01*
X35149612Y9250710D01*
X35153550Y9217042D01*
X35156323Y9169667D01*
X35158292Y9104755D01*
X35158528Y9091397D01*
X35159815Y9018476D01*
X35161252Y8907000D01*
G37*
X35161252Y8907000D02*
X35161651Y8874661D01*
X35162929Y8766545D01*
X35163185Y8683814D01*
X35161634Y8623574D01*
X35157490Y8582927D01*
X35149964Y8558977D01*
X35138271Y8548829D01*
X35121624Y8549586D01*
X35099236Y8558352D01*
X35070321Y8572231D01*
X35064142Y8575192D01*
X35038413Y8589689D01*
X35024976Y8606935D01*
X35019834Y8635692D01*
X35018990Y8684717D01*
X35018952Y8772743D01*
X34928276Y8772743D01*
X34872498Y8775185D01*
X34828640Y8785092D01*
X34792218Y8805114D01*
X34789503Y8807071D01*
X34752546Y8840131D01*
X34726826Y8880069D01*
X34710606Y8932343D01*
X34702148Y9002412D01*
X34700083Y9081570D01*
X34844857Y9081570D01*
X34844882Y9068303D01*
X34846261Y9008416D01*
X34850687Y8969268D01*
X34859461Y8943847D01*
X34873886Y8925143D01*
X34874784Y8924250D01*
X34910237Y8900048D01*
X34944596Y8902433D01*
X34983403Y8931740D01*
X34992895Y8941756D01*
X35006876Y8962292D01*
X35014760Y8989003D01*
X35018245Y9029501D01*
X35019029Y9091397D01*
X35018350Y9128870D01*
X35010983Y9197020D01*
X34994168Y9241670D01*
X34966234Y9266074D01*
X34925509Y9273486D01*
X34908350Y9271906D01*
X34878660Y9256234D01*
X34859031Y9221309D01*
X34848188Y9164099D01*
X34844857Y9081570D01*
X34700083Y9081570D01*
X34699714Y9095733D01*
X34700253Y9163831D01*
X34702707Y9215413D01*
X34708158Y9251184D01*
X34717686Y9277985D01*
X34732371Y9302662D01*
X34745852Y9321520D01*
X34794799Y9372432D01*
X34850256Y9400082D01*
X34919928Y9408835D01*
X34999664Y9400110D01*
X35068595Y9368815D01*
X35123113Y9313619D01*
X35127223Y9307776D01*
X35136808Y9292247D01*
X35144151Y9274502D01*
X35149612Y9250710D01*
X35153550Y9217042D01*
X35156323Y9169667D01*
X35158292Y9104755D01*
X35158528Y9091397D01*
X35159815Y9018476D01*
X35161252Y8907000D01*
X35408885Y9398038D02*
X35340855Y9362267D01*
X35340855Y9362267D02*
X35290649Y9304699D01*
X35290649Y9304699D02*
X35272815Y9267688D01*
X35272815Y9267688D02*
X35258937Y9212118D01*
X35258937Y9212118D02*
X35251833Y9141904D01*
X35251833Y9141904D02*
X35251160Y9065273D01*
X35251160Y9065273D02*
X35256573Y8990448D01*
X35256573Y8990448D02*
X35267730Y8925658D01*
X35267730Y8925658D02*
X35284286Y8879127D01*
X35284286Y8879127D02*
X35289374Y8871113D01*
X35289374Y8871113D02*
X35349645Y8811293D01*
X35349645Y8811293D02*
X35421231Y8775465D01*
X35421231Y8775465D02*
X35498908Y8764980D01*
X35498908Y8764980D02*
X35577452Y8781190D01*
X35577452Y8781190D02*
X35599311Y8790908D01*
X35599311Y8790908D02*
X35641878Y8820857D01*
X35641878Y8820857D02*
X35679237Y8860567D01*
X35679237Y8860567D02*
X35682768Y8865603D01*
X35682768Y8865603D02*
X35697119Y8889876D01*
X35697119Y8889876D02*
X35706606Y8915822D01*
X35706606Y8915822D02*
X35712210Y8949978D01*
X35712210Y8949978D02*
X35714914Y8998881D01*
X35714914Y8998881D02*
X35715701Y9069065D01*
X35715701Y9069065D02*
X35715714Y9084800D01*
X35715714Y9084800D02*
X35715678Y9089808D01*
X35715678Y9089808D02*
X35570571Y9089808D01*
X35570571Y9089808D02*
X35569727Y9023570D01*
X35569727Y9023570D02*
X35566404Y8979614D01*
X35566404Y8979614D02*
X35559417Y8951221D01*
X35559417Y8951221D02*
X35547584Y8931675D01*
X35547584Y8931675D02*
X35541543Y8925143D01*
X35541543Y8925143D02*
X35506814Y8900320D01*
X35506814Y8900320D02*
X35473097Y8901452D01*
X35473097Y8901452D02*
X35439005Y8922984D01*
X35439005Y8922984D02*
X35418671Y8945971D01*
X35418671Y8945971D02*
X35406629Y8979522D01*
X35406629Y8979522D02*
X35399866Y9032431D01*
X35399866Y9032431D02*
X35399402Y9038601D01*
X35399402Y9038601D02*
X35398248Y9134487D01*
X35398248Y9134487D02*
X35410312Y9205701D01*
X35410312Y9205701D02*
X35435430Y9251806D01*
X35435430Y9251806D02*
X35473440Y9272365D01*
X35473440Y9272365D02*
X35487008Y9273486D01*
X35487008Y9273486D02*
X35522636Y9267848D01*
X35522636Y9267848D02*
X35547006Y9248314D01*
X35547006Y9248314D02*
X35561907Y9210958D01*
X35561907Y9210958D02*
X35569125Y9151850D01*
X35569125Y9151850D02*
X35570571Y9089808D01*
X35570571Y9089808D02*
X35715678Y9089808D01*
X35715678Y9089808D02*
X35715174Y9159587D01*
X35715174Y9159587D02*
X35712904Y9211841D01*
X35712904Y9211841D02*
X35707932Y9248051D01*
X35707932Y9248051D02*
X35699287Y9274701D01*
X35699287Y9274701D02*
X35685995Y9298278D01*
X35685995Y9298278D02*
X35683057Y9302662D01*
X35683057Y9302662D02*
X35633687Y9361751D01*
X35633687Y9361751D02*
X35579891Y9396053D01*
X35579891Y9396053D02*
X35514398Y9409669D01*
X35514398Y9409669D02*
X35492158Y9410335D01*
X35492158Y9410335D02*
X35408885Y9398038D01*
X35408885Y9398038D02*
X35408885Y9398038D01*
G36*
X35715701Y9069065D02*
G01*
X35714914Y8998881D01*
X35712210Y8949978D01*
X35706606Y8915822D01*
X35697119Y8889876D01*
X35682768Y8865603D01*
X35679237Y8860567D01*
X35641878Y8820857D01*
X35599311Y8790908D01*
X35577452Y8781190D01*
X35498908Y8764980D01*
X35421231Y8775465D01*
X35349645Y8811293D01*
X35289374Y8871113D01*
X35284286Y8879127D01*
X35267730Y8925658D01*
X35256573Y8990448D01*
X35251160Y9065273D01*
X35251768Y9134487D01*
X35398248Y9134487D01*
X35399402Y9038601D01*
X35399866Y9032431D01*
X35406629Y8979522D01*
X35418671Y8945971D01*
X35439005Y8922984D01*
X35473097Y8901452D01*
X35506814Y8900320D01*
X35541543Y8925143D01*
X35547584Y8931675D01*
X35559417Y8951221D01*
X35566404Y8979614D01*
X35569727Y9023570D01*
X35570571Y9089808D01*
X35569125Y9151850D01*
X35561907Y9210958D01*
X35547006Y9248314D01*
X35522636Y9267848D01*
X35487008Y9273486D01*
X35473440Y9272365D01*
X35435430Y9251806D01*
X35410312Y9205701D01*
X35398248Y9134487D01*
X35251768Y9134487D01*
X35251833Y9141904D01*
X35258937Y9212118D01*
X35272815Y9267688D01*
X35290649Y9304699D01*
X35340855Y9362267D01*
X35408885Y9398038D01*
X35492158Y9410335D01*
X35514398Y9409669D01*
X35579891Y9396053D01*
X35633687Y9361751D01*
X35683057Y9302662D01*
X35685995Y9298278D01*
X35699287Y9274701D01*
X35707932Y9248051D01*
X35712904Y9211841D01*
X35715174Y9159587D01*
X35715678Y9089808D01*
X35715714Y9084800D01*
X35715701Y9069065D01*
G37*
X35715701Y9069065D02*
X35714914Y8998881D01*
X35712210Y8949978D01*
X35706606Y8915822D01*
X35697119Y8889876D01*
X35682768Y8865603D01*
X35679237Y8860567D01*
X35641878Y8820857D01*
X35599311Y8790908D01*
X35577452Y8781190D01*
X35498908Y8764980D01*
X35421231Y8775465D01*
X35349645Y8811293D01*
X35289374Y8871113D01*
X35284286Y8879127D01*
X35267730Y8925658D01*
X35256573Y8990448D01*
X35251160Y9065273D01*
X35251768Y9134487D01*
X35398248Y9134487D01*
X35399402Y9038601D01*
X35399866Y9032431D01*
X35406629Y8979522D01*
X35418671Y8945971D01*
X35439005Y8922984D01*
X35473097Y8901452D01*
X35506814Y8900320D01*
X35541543Y8925143D01*
X35547584Y8931675D01*
X35559417Y8951221D01*
X35566404Y8979614D01*
X35569727Y9023570D01*
X35570571Y9089808D01*
X35569125Y9151850D01*
X35561907Y9210958D01*
X35547006Y9248314D01*
X35522636Y9267848D01*
X35487008Y9273486D01*
X35473440Y9272365D01*
X35435430Y9251806D01*
X35410312Y9205701D01*
X35398248Y9134487D01*
X35251768Y9134487D01*
X35251833Y9141904D01*
X35258937Y9212118D01*
X35272815Y9267688D01*
X35290649Y9304699D01*
X35340855Y9362267D01*
X35408885Y9398038D01*
X35492158Y9410335D01*
X35514398Y9409669D01*
X35579891Y9396053D01*
X35633687Y9361751D01*
X35683057Y9302662D01*
X35685995Y9298278D01*
X35699287Y9274701D01*
X35707932Y9248051D01*
X35712904Y9211841D01*
X35715174Y9159587D01*
X35715678Y9089808D01*
X35715714Y9084800D01*
X35715701Y9069065D01*
X33733907Y9392220D02*
X33687328Y9365277D01*
X33687328Y9365277D02*
X33654943Y9338534D01*
X33654943Y9338534D02*
X33631258Y9310516D01*
X33631258Y9310516D02*
X33614941Y9276252D01*
X33614941Y9276252D02*
X33604661Y9230773D01*
X33604661Y9230773D02*
X33599086Y9169108D01*
X33599086Y9169108D02*
X33596884Y9086289D01*
X33596884Y9086289D02*
X33596629Y9026754D01*
X33596629Y9026754D02*
X33596629Y8807609D01*
X33596629Y8807609D02*
X33658314Y8779956D01*
X33658314Y8779956D02*
X33720000Y8752303D01*
X33720000Y8752303D02*
X33727257Y8992330D01*
X33727257Y8992330D02*
X33730256Y9081972D01*
X33730256Y9081972D02*
X33733402Y9147038D01*
X33733402Y9147038D02*
X33737299Y9191974D01*
X33737299Y9191974D02*
X33742553Y9221230D01*
X33742553Y9221230D02*
X33749769Y9239252D01*
X33749769Y9239252D02*
X33759550Y9250489D01*
X33759550Y9250489D02*
X33762688Y9252921D01*
X33762688Y9252921D02*
X33810239Y9271917D01*
X33810239Y9271917D02*
X33858303Y9264400D01*
X33858303Y9264400D02*
X33886914Y9244457D01*
X33886914Y9244457D02*
X33898553Y9230325D01*
X33898553Y9230325D02*
X33906609Y9211780D01*
X33906609Y9211780D02*
X33911729Y9183666D01*
X33911729Y9183666D02*
X33914559Y9140827D01*
X33914559Y9140827D02*
X33915744Y9078105D01*
X33915744Y9078105D02*
X33915943Y9012739D01*
X33915943Y9012739D02*
X33915982Y8930732D01*
X33915982Y8930732D02*
X33917386Y8872684D01*
X33917386Y8872684D02*
X33922086Y8833535D01*
X33922086Y8833535D02*
X33932013Y8808220D01*
X33932013Y8808220D02*
X33949097Y8791677D01*
X33949097Y8791677D02*
X33975268Y8778844D01*
X33975268Y8778844D02*
X34010225Y8765509D01*
X34010225Y8765509D02*
X34048404Y8750993D01*
X34048404Y8750993D02*
X34043859Y9008611D01*
X34043859Y9008611D02*
X34042029Y9101481D01*
X34042029Y9101481D02*
X34039888Y9170111D01*
X34039888Y9170111D02*
X34036819Y9219289D01*
X34036819Y9219289D02*
X34032206Y9253802D01*
X34032206Y9253802D02*
X34025432Y9278438D01*
X34025432Y9278438D02*
X34015881Y9297984D01*
X34015881Y9297984D02*
X34004366Y9315230D01*
X34004366Y9315230D02*
X33948810Y9370320D01*
X33948810Y9370320D02*
X33881020Y9402178D01*
X33881020Y9402178D02*
X33807287Y9409809D01*
X33807287Y9409809D02*
X33733907Y9392220D01*
X33733907Y9392220D02*
X33733907Y9392220D01*
G36*
X33881020Y9402178D02*
G01*
X33948810Y9370320D01*
X34004366Y9315230D01*
X34015881Y9297984D01*
X34025432Y9278438D01*
X34032206Y9253802D01*
X34036819Y9219289D01*
X34039888Y9170111D01*
X34042029Y9101481D01*
X34043859Y9008611D01*
X34048404Y8750993D01*
X34010225Y8765509D01*
X33975268Y8778844D01*
X33949097Y8791677D01*
X33932013Y8808220D01*
X33922086Y8833535D01*
X33917386Y8872684D01*
X33915982Y8930732D01*
X33915943Y9012739D01*
X33915744Y9078105D01*
X33914559Y9140827D01*
X33911729Y9183666D01*
X33906609Y9211780D01*
X33898553Y9230325D01*
X33886914Y9244457D01*
X33858303Y9264400D01*
X33810239Y9271917D01*
X33762688Y9252921D01*
X33759550Y9250489D01*
X33749769Y9239252D01*
X33742553Y9221230D01*
X33737299Y9191974D01*
X33733402Y9147038D01*
X33730256Y9081972D01*
X33727257Y8992330D01*
X33720000Y8752303D01*
X33658314Y8779956D01*
X33596629Y8807609D01*
X33596629Y9026754D01*
X33596884Y9086289D01*
X33599086Y9169108D01*
X33604661Y9230773D01*
X33614941Y9276252D01*
X33631258Y9310516D01*
X33654943Y9338534D01*
X33687328Y9365277D01*
X33733907Y9392220D01*
X33807287Y9409809D01*
X33881020Y9402178D01*
G37*
X33881020Y9402178D02*
X33948810Y9370320D01*
X34004366Y9315230D01*
X34015881Y9297984D01*
X34025432Y9278438D01*
X34032206Y9253802D01*
X34036819Y9219289D01*
X34039888Y9170111D01*
X34042029Y9101481D01*
X34043859Y9008611D01*
X34048404Y8750993D01*
X34010225Y8765509D01*
X33975268Y8778844D01*
X33949097Y8791677D01*
X33932013Y8808220D01*
X33922086Y8833535D01*
X33917386Y8872684D01*
X33915982Y8930732D01*
X33915943Y9012739D01*
X33915744Y9078105D01*
X33914559Y9140827D01*
X33911729Y9183666D01*
X33906609Y9211780D01*
X33898553Y9230325D01*
X33886914Y9244457D01*
X33858303Y9264400D01*
X33810239Y9271917D01*
X33762688Y9252921D01*
X33759550Y9250489D01*
X33749769Y9239252D01*
X33742553Y9221230D01*
X33737299Y9191974D01*
X33733402Y9147038D01*
X33730256Y9081972D01*
X33727257Y8992330D01*
X33720000Y8752303D01*
X33658314Y8779956D01*
X33596629Y8807609D01*
X33596629Y9026754D01*
X33596884Y9086289D01*
X33599086Y9169108D01*
X33604661Y9230773D01*
X33614941Y9276252D01*
X33631258Y9310516D01*
X33654943Y9338534D01*
X33687328Y9365277D01*
X33733907Y9392220D01*
X33807287Y9409809D01*
X33881020Y9402178D01*
X30670167Y9361337D02*
X30667952Y9323150D01*
X30667952Y9323150D02*
X30666216Y9265114D01*
X30666216Y9265114D02*
X30665101Y9191820D01*
X30665101Y9191820D02*
X30664743Y9114945D01*
X30664743Y9114945D02*
X30664743Y8854804D01*
X30664743Y8854804D02*
X30710674Y8808873D01*
X30710674Y8808873D02*
X30742325Y8780571D01*
X30742325Y8780571D02*
X30770110Y8769107D01*
X30770110Y8769107D02*
X30808085Y8769832D01*
X30808085Y8769832D02*
X30823160Y8771679D01*
X30823160Y8771679D02*
X30870274Y8777052D01*
X30870274Y8777052D02*
X30909244Y8780131D01*
X30909244Y8780131D02*
X30918743Y8780415D01*
X30918743Y8780415D02*
X30950767Y8778555D01*
X30950767Y8778555D02*
X30996568Y8773886D01*
X30996568Y8773886D02*
X31014326Y8771679D01*
X31014326Y8771679D02*
X31057943Y8768265D01*
X31057943Y8768265D02*
X31087255Y8775680D01*
X31087255Y8775680D02*
X31116320Y8798573D01*
X31116320Y8798573D02*
X31126812Y8808873D01*
X31126812Y8808873D02*
X31172743Y8854804D01*
X31172743Y8854804D02*
X31172743Y9341398D01*
X31172743Y9341398D02*
X31135774Y9358242D01*
X31135774Y9358242D02*
X31103941Y9370718D01*
X31103941Y9370718D02*
X31085317Y9375086D01*
X31085317Y9375086D02*
X31080542Y9361282D01*
X31080542Y9361282D02*
X31076079Y9322714D01*
X31076079Y9322714D02*
X31072225Y9263644D01*
X31072225Y9263644D02*
X31069278Y9188337D01*
X31069278Y9188337D02*
X31067857Y9124714D01*
X31067857Y9124714D02*
X31063886Y8874343D01*
X31063886Y8874343D02*
X31029241Y8869444D01*
X31029241Y8869444D02*
X30997732Y8872869D01*
X30997732Y8872869D02*
X30982292Y8883959D01*
X30982292Y8883959D02*
X30977977Y8904692D01*
X30977977Y8904692D02*
X30974292Y8948855D01*
X30974292Y8948855D02*
X30971531Y9010854D01*
X30971531Y9010854D02*
X30969988Y9085091D01*
X30969988Y9085091D02*
X30969765Y9123294D01*
X30969765Y9123294D02*
X30969543Y9343217D01*
X30969543Y9343217D02*
X30923834Y9359151D01*
X30923834Y9359151D02*
X30891482Y9369985D01*
X30891482Y9369985D02*
X30873885Y9375038D01*
X30873885Y9375038D02*
X30873377Y9375086D01*
X30873377Y9375086D02*
X30871612Y9361352D01*
X30871612Y9361352D02*
X30869671Y9323270D01*
X30869671Y9323270D02*
X30867718Y9265518D01*
X30867718Y9265518D02*
X30865916Y9192773D01*
X30865916Y9192773D02*
X30864657Y9124714D01*
X30864657Y9124714D02*
X30860686Y8874343D01*
X30860686Y8874343D02*
X30773600Y8874343D01*
X30773600Y8874343D02*
X30769604Y9102760D01*
X30769604Y9102760D02*
X30765608Y9331178D01*
X30765608Y9331178D02*
X30723153Y9353132D01*
X30723153Y9353132D02*
X30691808Y9368207D01*
X30691808Y9368207D02*
X30673256Y9375049D01*
X30673256Y9375049D02*
X30672721Y9375086D01*
X30672721Y9375086D02*
X30670167Y9361337D01*
X30670167Y9361337D02*
X30670167Y9361337D01*
G36*
X31103941Y9370718D02*
G01*
X31135774Y9358242D01*
X31172743Y9341398D01*
X31172743Y8854804D01*
X31126812Y8808873D01*
X31116320Y8798573D01*
X31087255Y8775680D01*
X31057943Y8768265D01*
X31014326Y8771679D01*
X30996568Y8773886D01*
X30950767Y8778555D01*
X30918743Y8780415D01*
X30909244Y8780131D01*
X30870274Y8777052D01*
X30823160Y8771679D01*
X30808085Y8769832D01*
X30770110Y8769107D01*
X30742325Y8780571D01*
X30710674Y8808873D01*
X30664743Y8854804D01*
X30664743Y9114945D01*
X30665101Y9191820D01*
X30666216Y9265114D01*
X30667952Y9323150D01*
X30670167Y9361337D01*
X30672721Y9375086D01*
X30673256Y9375049D01*
X30691808Y9368207D01*
X30723153Y9353132D01*
X30765608Y9331178D01*
X30769604Y9102760D01*
X30773600Y8874343D01*
X30860686Y8874343D01*
X30864657Y9124714D01*
X30865916Y9192773D01*
X30867718Y9265518D01*
X30869671Y9323270D01*
X30871612Y9361352D01*
X30873377Y9375086D01*
X30873885Y9375038D01*
X30891482Y9369985D01*
X30923834Y9359151D01*
X30969543Y9343217D01*
X30969765Y9123294D01*
X30969988Y9085091D01*
X30971531Y9010854D01*
X30974292Y8948855D01*
X30977977Y8904692D01*
X30982292Y8883959D01*
X30997732Y8872869D01*
X31029241Y8869444D01*
X31063886Y8874343D01*
X31067857Y9124714D01*
X31069278Y9188337D01*
X31072225Y9263644D01*
X31076079Y9322714D01*
X31080542Y9361282D01*
X31085317Y9375086D01*
X31103941Y9370718D01*
G37*
X31103941Y9370718D02*
X31135774Y9358242D01*
X31172743Y9341398D01*
X31172743Y8854804D01*
X31126812Y8808873D01*
X31116320Y8798573D01*
X31087255Y8775680D01*
X31057943Y8768265D01*
X31014326Y8771679D01*
X30996568Y8773886D01*
X30950767Y8778555D01*
X30918743Y8780415D01*
X30909244Y8780131D01*
X30870274Y8777052D01*
X30823160Y8771679D01*
X30808085Y8769832D01*
X30770110Y8769107D01*
X30742325Y8780571D01*
X30710674Y8808873D01*
X30664743Y8854804D01*
X30664743Y9114945D01*
X30665101Y9191820D01*
X30666216Y9265114D01*
X30667952Y9323150D01*
X30670167Y9361337D01*
X30672721Y9375086D01*
X30673256Y9375049D01*
X30691808Y9368207D01*
X30723153Y9353132D01*
X30765608Y9331178D01*
X30769604Y9102760D01*
X30773600Y8874343D01*
X30860686Y8874343D01*
X30864657Y9124714D01*
X30865916Y9192773D01*
X30867718Y9265518D01*
X30869671Y9323270D01*
X30871612Y9361352D01*
X30873377Y9375086D01*
X30873885Y9375038D01*
X30891482Y9369985D01*
X30923834Y9359151D01*
X30969543Y9343217D01*
X30969765Y9123294D01*
X30969988Y9085091D01*
X30971531Y9010854D01*
X30974292Y8948855D01*
X30977977Y8904692D01*
X30982292Y8883959D01*
X30997732Y8872869D01*
X31029241Y8869444D01*
X31063886Y8874343D01*
X31067857Y9124714D01*
X31069278Y9188337D01*
X31072225Y9263644D01*
X31076079Y9322714D01*
X31080542Y9361282D01*
X31085317Y9375086D01*
X31103941Y9370718D01*
X29296405Y9353034D02*
X29238979Y9315503D01*
X29238979Y9315503D02*
X29211281Y9281904D01*
X29211281Y9281904D02*
X29189338Y9220936D01*
X29189338Y9220936D02*
X29187595Y9172692D01*
X29187595Y9172692D02*
X29191543Y9108184D01*
X29191543Y9108184D02*
X29340314Y9043066D01*
X29340314Y9043066D02*
X29412651Y9009798D01*
X29412651Y9009798D02*
X29459916Y8983036D01*
X29459916Y8983036D02*
X29484493Y8959856D01*
X29484493Y8959856D02*
X29488763Y8937333D01*
X29488763Y8937333D02*
X29475111Y8912545D01*
X29475111Y8912545D02*
X29460057Y8896114D01*
X29460057Y8896114D02*
X29416254Y8869765D01*
X29416254Y8869765D02*
X29368611Y8867919D01*
X29368611Y8867919D02*
X29324855Y8888454D01*
X29324855Y8888454D02*
X29292711Y8929248D01*
X29292711Y8929248D02*
X29286962Y8943653D01*
X29286962Y8943653D02*
X29259424Y8988644D01*
X29259424Y8988644D02*
X29227742Y9007818D01*
X29227742Y9007818D02*
X29184286Y9024221D01*
X29184286Y9024221D02*
X29184286Y8962034D01*
X29184286Y8962034D02*
X29188128Y8919717D01*
X29188128Y8919717D02*
X29203177Y8884031D01*
X29203177Y8884031D02*
X29234720Y8843057D01*
X29234720Y8843057D02*
X29239408Y8837733D01*
X29239408Y8837733D02*
X29274494Y8801280D01*
X29274494Y8801280D02*
X29304653Y8781717D01*
X29304653Y8781717D02*
X29342385Y8772717D01*
X29342385Y8772717D02*
X29373665Y8769770D01*
X29373665Y8769770D02*
X29429615Y8769035D01*
X29429615Y8769035D02*
X29469445Y8778340D01*
X29469445Y8778340D02*
X29494292Y8792154D01*
X29494292Y8792154D02*
X29533344Y8822533D01*
X29533344Y8822533D02*
X29560375Y8855387D01*
X29560375Y8855387D02*
X29577483Y8896706D01*
X29577483Y8896706D02*
X29586762Y8952479D01*
X29586762Y8952479D02*
X29590307Y9028695D01*
X29590307Y9028695D02*
X29590590Y9067378D01*
X29590590Y9067378D02*
X29589628Y9113753D01*
X29589628Y9113753D02*
X29501993Y9113753D01*
X29501993Y9113753D02*
X29500977Y9088874D01*
X29500977Y9088874D02*
X29498444Y9084800D01*
X29498444Y9084800D02*
X29481726Y9090335D01*
X29481726Y9090335D02*
X29445751Y9104983D01*
X29445751Y9104983D02*
X29397669Y9125810D01*
X29397669Y9125810D02*
X29387614Y9130286D01*
X29387614Y9130286D02*
X29326848Y9161186D01*
X29326848Y9161186D02*
X29293368Y9188343D01*
X29293368Y9188343D02*
X29286010Y9213780D01*
X29286010Y9213780D02*
X29303609Y9239519D01*
X29303609Y9239519D02*
X29318144Y9250891D01*
X29318144Y9250891D02*
X29370590Y9273636D01*
X29370590Y9273636D02*
X29419678Y9269878D01*
X29419678Y9269878D02*
X29460773Y9242116D01*
X29460773Y9242116D02*
X29489242Y9192848D01*
X29489242Y9192848D02*
X29498369Y9153743D01*
X29498369Y9153743D02*
X29501993Y9113753D01*
X29501993Y9113753D02*
X29589628Y9113753D01*
X29589628Y9113753D02*
X29588715Y9157751D01*
X29588715Y9157751D02*
X29581804Y9224616D01*
X29581804Y9224616D02*
X29568116Y9273305D01*
X29568116Y9273305D02*
X29545904Y9309151D01*
X29545904Y9309151D02*
X29513426Y9337487D01*
X29513426Y9337487D02*
X29499267Y9346645D01*
X29499267Y9346645D02*
X29434947Y9370493D01*
X29434947Y9370493D02*
X29364527Y9371994D01*
X29364527Y9371994D02*
X29296405Y9353034D01*
X29296405Y9353034D02*
X29296405Y9353034D01*
G36*
X29590307Y9028695D02*
G01*
X29586762Y8952479D01*
X29577483Y8896706D01*
X29560375Y8855387D01*
X29533344Y8822533D01*
X29494292Y8792154D01*
X29469445Y8778340D01*
X29429615Y8769035D01*
X29373665Y8769770D01*
X29342385Y8772717D01*
X29304653Y8781717D01*
X29274494Y8801280D01*
X29239408Y8837733D01*
X29234720Y8843057D01*
X29203177Y8884031D01*
X29188128Y8919717D01*
X29184286Y8962034D01*
X29184286Y9024221D01*
X29227742Y9007818D01*
X29259424Y8988644D01*
X29286962Y8943653D01*
X29292711Y8929248D01*
X29324855Y8888454D01*
X29368611Y8867919D01*
X29416254Y8869765D01*
X29460057Y8896114D01*
X29475111Y8912545D01*
X29488763Y8937333D01*
X29484493Y8959856D01*
X29459916Y8983036D01*
X29412651Y9009798D01*
X29340314Y9043066D01*
X29191543Y9108184D01*
X29187595Y9172692D01*
X29189079Y9213780D01*
X29286010Y9213780D01*
X29293368Y9188343D01*
X29326848Y9161186D01*
X29387614Y9130286D01*
X29397669Y9125810D01*
X29445751Y9104983D01*
X29481726Y9090335D01*
X29498444Y9084800D01*
X29500977Y9088874D01*
X29501993Y9113753D01*
X29498369Y9153743D01*
X29489242Y9192848D01*
X29460773Y9242116D01*
X29419678Y9269878D01*
X29370590Y9273636D01*
X29318144Y9250891D01*
X29303609Y9239519D01*
X29286010Y9213780D01*
X29189079Y9213780D01*
X29189338Y9220936D01*
X29211281Y9281904D01*
X29238979Y9315503D01*
X29296405Y9353034D01*
X29364527Y9371994D01*
X29434947Y9370493D01*
X29499267Y9346645D01*
X29513426Y9337487D01*
X29545904Y9309151D01*
X29568116Y9273305D01*
X29581804Y9224616D01*
X29588715Y9157751D01*
X29589628Y9113753D01*
X29590590Y9067378D01*
X29590307Y9028695D01*
G37*
X29590307Y9028695D02*
X29586762Y8952479D01*
X29577483Y8896706D01*
X29560375Y8855387D01*
X29533344Y8822533D01*
X29494292Y8792154D01*
X29469445Y8778340D01*
X29429615Y8769035D01*
X29373665Y8769770D01*
X29342385Y8772717D01*
X29304653Y8781717D01*
X29274494Y8801280D01*
X29239408Y8837733D01*
X29234720Y8843057D01*
X29203177Y8884031D01*
X29188128Y8919717D01*
X29184286Y8962034D01*
X29184286Y9024221D01*
X29227742Y9007818D01*
X29259424Y8988644D01*
X29286962Y8943653D01*
X29292711Y8929248D01*
X29324855Y8888454D01*
X29368611Y8867919D01*
X29416254Y8869765D01*
X29460057Y8896114D01*
X29475111Y8912545D01*
X29488763Y8937333D01*
X29484493Y8959856D01*
X29459916Y8983036D01*
X29412651Y9009798D01*
X29340314Y9043066D01*
X29191543Y9108184D01*
X29187595Y9172692D01*
X29189079Y9213780D01*
X29286010Y9213780D01*
X29293368Y9188343D01*
X29326848Y9161186D01*
X29387614Y9130286D01*
X29397669Y9125810D01*
X29445751Y9104983D01*
X29481726Y9090335D01*
X29498444Y9084800D01*
X29500977Y9088874D01*
X29501993Y9113753D01*
X29498369Y9153743D01*
X29489242Y9192848D01*
X29460773Y9242116D01*
X29419678Y9269878D01*
X29370590Y9273636D01*
X29318144Y9250891D01*
X29303609Y9239519D01*
X29286010Y9213780D01*
X29189079Y9213780D01*
X29189338Y9220936D01*
X29211281Y9281904D01*
X29238979Y9315503D01*
X29296405Y9353034D01*
X29364527Y9371994D01*
X29434947Y9370493D01*
X29499267Y9346645D01*
X29513426Y9337487D01*
X29545904Y9309151D01*
X29568116Y9273305D01*
X29581804Y9224616D01*
X29588715Y9157751D01*
X29589628Y9113753D01*
X29590590Y9067378D01*
X29590307Y9028695D01*
M02*
