G04 #@! TF.GenerationSoftware,KiCad,Pcbnew,(5.99.0-8491-gb8dfcb34c4)*
G04 #@! TF.CreationDate,2021-01-21T08:47:48+01:00*
G04 #@! TF.ProjectId,TMC2209_Driver,544d4332-3230-4395-9f44-72697665722e,rev?*
G04 #@! TF.SameCoordinates,PX67f3540PY6cb8080*
G04 #@! TF.FileFunction,Soldermask,Bot*
G04 #@! TF.FilePolarity,Negative*
%FSLAX46Y46*%
G04 Gerber Fmt 4.6, Leading zero omitted, Abs format (unit mm)*
G04 Created by KiCad (PCBNEW (5.99.0-8491-gb8dfcb34c4)) date 2021-01-21 08:47:48*
%MOMM*%
%LPD*%
G01*
G04 APERTURE LIST*
%ADD10C,2.700000*%
%ADD11O,0.650000X0.650000*%
%ADD12R,0.650000X3.600000*%
%ADD13R,0.650000X4.600000*%
%ADD14R,1.778000X1.778000*%
%ADD15C,1.778000*%
G04 APERTURE END LIST*
D10*
X2800000Y3256000D03*
X33750000Y3256000D03*
D11*
X27652800Y1014800D03*
X26652800Y1014800D03*
X22652800Y1014800D03*
X11652800Y1014800D03*
X14652800Y1014800D03*
X9652800Y1014800D03*
X24652800Y1014800D03*
X12652800Y1014800D03*
X21652800Y1014800D03*
X10652800Y1014800D03*
X25652800Y1014800D03*
X15652800Y1014800D03*
X13652800Y1014800D03*
X16652800Y1014800D03*
X18652800Y1014800D03*
X23652800Y1014800D03*
X17652800Y1014800D03*
D12*
X8652800Y3814800D03*
D13*
X9652800Y3314800D03*
X10652800Y3314800D03*
X11652800Y3314800D03*
X12652800Y3314800D03*
X13652800Y3314800D03*
X14652800Y3314800D03*
X15652800Y3314800D03*
X16652800Y3314800D03*
X17652800Y3314800D03*
X18652800Y3314800D03*
X21652800Y3314800D03*
X22652800Y3314800D03*
X23652800Y3314800D03*
X24652800Y3314800D03*
X25652800Y3314800D03*
X26652800Y3314800D03*
X27652800Y3314800D03*
D14*
X32551398Y28948602D03*
D15*
X32551398Y26408602D03*
X32551398Y23868602D03*
X32551398Y21328602D03*
G36*
X21037834Y32179644D02*
G01*
X21084471Y32126113D01*
X21095998Y32073464D01*
X21095998Y27442717D01*
X21100473Y27427478D01*
X21101863Y27426273D01*
X21109546Y27424602D01*
X22405098Y27424602D01*
X22473219Y27404600D01*
X22519712Y27350944D01*
X22531098Y27298602D01*
X22531098Y22723904D01*
X22511096Y22655783D01*
X22457440Y22609290D01*
X22405798Y22597906D01*
X21114113Y22590730D01*
X21098898Y22586170D01*
X21097581Y22584633D01*
X21095998Y22577259D01*
X21095998Y17601890D01*
X21075996Y17533769D01*
X21022340Y17487276D01*
X20969882Y17475890D01*
X15607771Y17480842D01*
X15539668Y17500907D01*
X15493225Y17554606D01*
X15481887Y17606951D01*
X15494368Y32059239D01*
X15514429Y32127342D01*
X15568125Y32173789D01*
X15620030Y32185130D01*
X20969660Y32199464D01*
X21037834Y32179644D01*
G37*
M02*
