G04 #@! TF.GenerationSoftware,KiCad,Pcbnew,(5.99.0-8491-gb8dfcb34c4)*
G04 #@! TF.CreationDate,2021-01-21T08:47:48+01:00*
G04 #@! TF.ProjectId,TMC2209_Driver,544d4332-3230-4395-9f44-72697665722e,rev?*
G04 #@! TF.SameCoordinates,PX67f3540PY6cb8080*
G04 #@! TF.FileFunction,Soldermask,Top*
G04 #@! TF.FilePolarity,Negative*
%FSLAX46Y46*%
G04 Gerber Fmt 4.6, Leading zero omitted, Abs format (unit mm)*
G04 Created by KiCad (PCBNEW (5.99.0-8491-gb8dfcb34c4)) date 2021-01-21 08:47:48*
%MOMM*%
%LPD*%
G01*
G04 APERTURE LIST*
G04 Aperture macros list*
%AMRoundRect*
0 Rectangle with rounded corners*
0 $1 Rounding radius*
0 $2 $3 $4 $5 $6 $7 $8 $9 X,Y pos of 4 corners*
0 Add a 4 corners polygon primitive as box body*
4,1,4,$2,$3,$4,$5,$6,$7,$8,$9,$2,$3,0*
0 Add four circle primitives for the rounded corners*
1,1,$1+$1,$2,$3*
1,1,$1+$1,$4,$5*
1,1,$1+$1,$6,$7*
1,1,$1+$1,$8,$9*
0 Add four rect primitives between the rounded corners*
20,1,$1+$1,$2,$3,$4,$5,0*
20,1,$1+$1,$4,$5,$6,$7,0*
20,1,$1+$1,$6,$7,$8,$9,0*
20,1,$1+$1,$8,$9,$2,$3,0*%
G04 Aperture macros list end*
%ADD10R,0.950000X0.875000*%
%ADD11R,0.640000X0.590000*%
%ADD12R,1.250000X1.750000*%
%ADD13C,2.700000*%
%ADD14C,0.650000*%
%ADD15R,0.650000X4.600000*%
%ADD16R,0.650000X3.600000*%
%ADD17R,1.778000X1.778000*%
%ADD18C,1.778000*%
%ADD19R,0.875000X0.950000*%
%ADD20R,0.250000X0.800000*%
%ADD21R,0.800000X0.250000*%
%ADD22R,3.700000X3.700000*%
%ADD23RoundRect,0.250000X1.075000X-0.375000X1.075000X0.375000X-1.075000X0.375000X-1.075000X-0.375000X0*%
%ADD24RoundRect,0.250000X-1.075000X0.375000X-1.075000X-0.375000X1.075000X-0.375000X1.075000X0.375000X0*%
%ADD25R,0.650000X0.400000*%
%ADD26RoundRect,0.250000X1.500000X0.550000X-1.500000X0.550000X-1.500000X-0.550000X1.500000X-0.550000X0*%
%ADD27R,1.000000X1.500000*%
%ADD28R,0.680000X0.300000*%
%ADD29R,1.450000X1.560000*%
G04 APERTURE END LIST*
D10*
X17514598Y19927500D03*
X17514598Y18352500D03*
X15736598Y30396602D03*
X15736598Y28821602D03*
X19930000Y31757500D03*
X19930000Y30182500D03*
X18276598Y31762000D03*
X18276598Y30187000D03*
D11*
X23991598Y20901602D03*
X23991598Y19931602D03*
X23991598Y29329602D03*
X23991598Y30299602D03*
D12*
X25200000Y34900000D03*
X28000000Y34900000D03*
X24600000Y15720000D03*
X27400000Y15720000D03*
D13*
X2800000Y3256000D03*
X33750000Y3256000D03*
D14*
X10652800Y1014800D03*
X18652800Y1014800D03*
X14652800Y1014800D03*
X13652800Y1014800D03*
X16652800Y1014800D03*
X8652800Y1014800D03*
X25652800Y1014800D03*
X21652800Y1014800D03*
X12652800Y1014800D03*
X11652800Y1014800D03*
X15652800Y1014800D03*
X23652800Y1014800D03*
X24652800Y1014800D03*
X22652800Y1014800D03*
X17652800Y1014800D03*
X27652800Y1014800D03*
X9652800Y1014800D03*
D15*
X8652800Y3314800D03*
X9652800Y3314800D03*
X10652800Y3314800D03*
X11652800Y3314800D03*
X12652800Y3314800D03*
X13652800Y3314800D03*
X14652800Y3314800D03*
X15652800Y3314800D03*
X16652800Y3314800D03*
X17652800Y3314800D03*
X18652800Y3314800D03*
X21652800Y3314800D03*
X22652800Y3314800D03*
X23652800Y3314800D03*
X24652800Y3314800D03*
X25652800Y3314800D03*
D16*
X26652800Y3814800D03*
D15*
X27652800Y3314800D03*
D17*
X32551398Y28948602D03*
D18*
X32551398Y26408602D03*
X32551398Y23868602D03*
X32551398Y21328602D03*
D19*
X12412000Y10876000D03*
X13987000Y10876000D03*
D20*
X21554598Y27575102D03*
X21054599Y27575102D03*
X20554597Y27575102D03*
X20054598Y27575102D03*
X19554599Y27575102D03*
X19054597Y27575102D03*
X18554598Y27575102D03*
D21*
X17554598Y26575102D03*
X17554598Y26075103D03*
X17554598Y25575101D03*
X17554598Y25075102D03*
X17554598Y24575103D03*
X17554598Y24075101D03*
X17554598Y23575102D03*
D20*
X18554598Y22575102D03*
X19054597Y22575102D03*
X19554599Y22575102D03*
X20054598Y22575102D03*
X20554597Y22575102D03*
X21054599Y22575102D03*
X21554598Y22575102D03*
D21*
X22554598Y23575102D03*
X22554598Y24075101D03*
X22554598Y24575103D03*
X22554598Y25075102D03*
X22554598Y25575101D03*
X22554598Y26075103D03*
X22554598Y26575102D03*
D22*
X20054598Y25075102D03*
D10*
X33643598Y16350102D03*
X33643598Y17925102D03*
X32119598Y16350102D03*
X32119598Y17925102D03*
X33643598Y33927102D03*
X33643598Y32352102D03*
D23*
X27852398Y17766602D03*
X27852398Y20566602D03*
D24*
X27826998Y32507602D03*
X27826998Y29707602D03*
D10*
X31992598Y33952602D03*
X31992598Y32377602D03*
D25*
X8985500Y12415000D03*
X8985500Y11765000D03*
X8985500Y11115000D03*
X10885500Y11115000D03*
X10885500Y12415000D03*
D19*
X10850000Y14051000D03*
X9275000Y14051000D03*
X5909700Y14965400D03*
X4334700Y14965400D03*
D26*
X22220000Y36020000D03*
X16820000Y36020000D03*
D27*
X16160000Y21890000D03*
X14860000Y21890000D03*
X13560000Y21890000D03*
D28*
X3076400Y13581800D03*
X3076400Y13081800D03*
X3076400Y12581800D03*
X3076400Y12081800D03*
X5796400Y12081800D03*
X5796400Y12581800D03*
X5796400Y13081800D03*
X5796400Y13581800D03*
D29*
X4436400Y12831800D03*
M02*
