G04 #@! TF.GenerationSoftware,KiCad,Pcbnew,(5.99.0-8491-gb8dfcb34c4)*
G04 #@! TF.CreationDate,2021-01-21T08:47:48+01:00*
G04 #@! TF.ProjectId,TMC2209_Driver,544d4332-3230-4395-9f44-72697665722e,rev?*
G04 #@! TF.SameCoordinates,PX67f3540PY6cb8080*
G04 #@! TF.FileFunction,Copper,L2,Bot*
G04 #@! TF.FilePolarity,Positive*
%FSLAX46Y46*%
G04 Gerber Fmt 4.6, Leading zero omitted, Abs format (unit mm)*
G04 Created by KiCad (PCBNEW (5.99.0-8491-gb8dfcb34c4)) date 2021-01-21 08:47:48*
%MOMM*%
%LPD*%
G01*
G04 APERTURE LIST*
G04 #@! TA.AperFunction,ConnectorPad*
%ADD10O,0.650000X0.650000*%
G04 #@! TD*
G04 #@! TA.AperFunction,ConnectorPad*
%ADD11R,0.650000X3.600000*%
G04 #@! TD*
G04 #@! TA.AperFunction,ConnectorPad*
%ADD12R,0.650000X4.600000*%
G04 #@! TD*
G04 #@! TA.AperFunction,ComponentPad*
%ADD13R,1.778000X1.778000*%
G04 #@! TD*
G04 #@! TA.AperFunction,ComponentPad*
%ADD14C,1.778000*%
G04 #@! TD*
G04 #@! TA.AperFunction,ViaPad*
%ADD15C,0.700000*%
G04 #@! TD*
G04 #@! TA.AperFunction,ViaPad*
%ADD16C,0.800000*%
G04 #@! TD*
G04 #@! TA.AperFunction,ViaPad*
%ADD17C,1.000000*%
G04 #@! TD*
G04 #@! TA.AperFunction,Conductor*
%ADD18C,0.650000*%
G04 #@! TD*
G04 #@! TA.AperFunction,Conductor*
%ADD19C,0.152400*%
G04 #@! TD*
G04 #@! TA.AperFunction,Conductor*
%ADD20C,0.254000*%
G04 #@! TD*
G04 #@! TA.AperFunction,Conductor*
%ADD21C,0.203200*%
G04 #@! TD*
G04 #@! TA.AperFunction,Conductor*
%ADD22C,0.250000*%
G04 #@! TD*
G04 #@! TA.AperFunction,Conductor*
%ADD23C,0.508000*%
G04 #@! TD*
G04 APERTURE END LIST*
D10*
X27652800Y1014800D03*
X26652800Y1014800D03*
X22652800Y1014800D03*
X11652800Y1014800D03*
X14652800Y1014800D03*
X9652800Y1014800D03*
X24652800Y1014800D03*
X12652800Y1014800D03*
X21652800Y1014800D03*
X10652800Y1014800D03*
X25652800Y1014800D03*
X15652800Y1014800D03*
X13652800Y1014800D03*
X16652800Y1014800D03*
X18652800Y1014800D03*
X23652800Y1014800D03*
X17652800Y1014800D03*
D11*
X8652800Y3814800D03*
D12*
X9652800Y3314800D03*
X10652800Y3314800D03*
X11652800Y3314800D03*
X12652800Y3314800D03*
X13652800Y3314800D03*
X14652800Y3314800D03*
X15652800Y3314800D03*
X16652800Y3314800D03*
X17652800Y3314800D03*
X18652800Y3314800D03*
X21652800Y3314800D03*
X22652800Y3314800D03*
X23652800Y3314800D03*
X24652800Y3314800D03*
X25652800Y3314800D03*
X26652800Y3314800D03*
X27652800Y3314800D03*
D13*
X32551398Y28948602D03*
D14*
X32551398Y26408602D03*
X32551398Y23868602D03*
X32551398Y21328602D03*
D15*
X21324598Y25672002D03*
X19419598Y23830502D03*
X20689598Y23830502D03*
X21324598Y24402002D03*
X19419598Y25037002D03*
X20054598Y25672002D03*
X19419598Y26307002D03*
X20689598Y26307002D03*
X20689598Y25037002D03*
X20054598Y24402002D03*
X18784598Y24402002D03*
X18784598Y25672002D03*
D16*
X6000000Y18000000D03*
X19000000Y11000000D03*
D17*
X33000000Y15000000D03*
X31500000Y35500000D03*
D16*
X2000000Y32000000D03*
X8000000Y34000000D03*
X8000000Y20000000D03*
X10000000Y32000000D03*
X7800000Y12310000D03*
X2000000Y20000000D03*
X6000000Y34000000D03*
D15*
X16010000Y15640000D03*
X17514598Y17264602D03*
D16*
X10000000Y34000000D03*
X10000000Y24000000D03*
X19000000Y15000000D03*
D17*
X33500000Y35500000D03*
D16*
X8000000Y26000000D03*
X6000000Y28000000D03*
D17*
X30341598Y17000000D03*
D16*
X4000000Y34000000D03*
X2000000Y28000000D03*
X2000000Y24000000D03*
X4000000Y28000000D03*
X10000000Y28000000D03*
X4000000Y32000000D03*
D15*
X23991598Y31488602D03*
D16*
X8000000Y16000000D03*
X8000000Y30000000D03*
X4037410Y18006844D03*
D17*
X28500000Y15000000D03*
D16*
X2000000Y34000000D03*
D17*
X29500000Y35500000D03*
D16*
X11000000Y18000000D03*
X8000000Y22000000D03*
X6000000Y32000000D03*
X10000000Y30000000D03*
X6000000Y24000000D03*
D17*
X31000000Y15000000D03*
D16*
X8000000Y28000000D03*
D15*
X16613598Y21757602D03*
D16*
X6000000Y30000000D03*
X2000000Y22000000D03*
X8000000Y32000000D03*
X2000000Y30000000D03*
X6000000Y20000000D03*
X4000000Y26000000D03*
D15*
X23966198Y18382202D03*
D16*
X4000000Y22000000D03*
X11000000Y16000000D03*
X2000000Y26000000D03*
X4000000Y24000000D03*
X4000000Y30000000D03*
X6000000Y26000000D03*
X19000000Y13000000D03*
D17*
X30000000Y34000000D03*
D15*
X29833598Y23335202D03*
X25337798Y24503602D03*
X29833598Y24427402D03*
X23610598Y24630602D03*
X22746998Y20388802D03*
X22746998Y21785802D03*
X22746998Y21074602D03*
X21680198Y20414202D03*
X21705598Y21100002D03*
X29833598Y25697402D03*
X29833598Y26789602D03*
X25337798Y25646602D03*
X23610598Y25519602D03*
X22696198Y29761402D03*
X22696198Y29050202D03*
X22696198Y28364402D03*
X21654798Y29075602D03*
X21654798Y29761402D03*
D16*
X13480000Y27440000D03*
X14887410Y32982590D03*
X12076765Y23683235D03*
D15*
X20918198Y32982590D03*
D16*
X17320000Y7170000D03*
X9652800Y6397200D03*
X16420000Y7550000D03*
D15*
X18080203Y16006887D03*
D16*
X8710000Y6860000D03*
X3360000Y14284202D03*
X3360000Y9750000D03*
X8910000Y8760000D03*
X13494495Y7124495D03*
D15*
X12285000Y6380200D03*
D16*
X2120000Y10030000D03*
X7930000Y9041390D03*
X22095584Y8243406D03*
X2170000Y18330000D03*
X14520000Y14060000D03*
X5900000Y14070000D03*
D17*
X18317500Y6824700D03*
D16*
X11551390Y14069638D03*
D15*
X15002800Y6436579D03*
D16*
X9650994Y8090994D03*
X18830000Y7800000D03*
X5840000Y10920000D03*
X16250000Y9980000D03*
X15820000Y10840000D03*
X6820000Y10910000D03*
D15*
X14113800Y6418300D03*
X14863598Y22742789D03*
D16*
X14910000Y23950000D03*
D18*
X23652800Y6264800D02*
X23664200Y6276200D01*
X24654800Y6266800D02*
X24654800Y8234400D01*
X26652800Y3314800D02*
X26652800Y6264800D01*
X24652800Y3314800D02*
X24652800Y6264800D01*
X25652800Y6264800D02*
X25645400Y6272200D01*
X26652800Y6264800D02*
X26636000Y6281600D01*
X23664200Y6276200D02*
X23664200Y8158200D01*
X27652800Y3314800D02*
X27652800Y8259000D01*
X26636000Y6281600D02*
X26636000Y8793200D01*
X25652800Y3314800D02*
X25652800Y6264800D01*
X23652800Y3314800D02*
X23652800Y6264800D01*
X24652800Y6264800D02*
X24654800Y6266800D01*
X25645400Y6272200D02*
X25645400Y8666200D01*
D19*
X12076765Y24141157D02*
X13570000Y25634392D01*
X12076765Y24141157D02*
X12076765Y23683235D01*
X20918198Y32982590D02*
X14887410Y32982590D01*
X13480000Y27440000D02*
X13570000Y27350000D01*
X13570000Y27350000D02*
X13570000Y25634392D01*
D20*
X20837386Y33063402D02*
X20918198Y32982590D01*
D19*
X15106904Y7753096D02*
X11008696Y7753096D01*
X17320000Y7170000D02*
X17061399Y6911399D01*
X17061399Y6911399D02*
X15948601Y6911399D01*
X15948601Y6911399D02*
X15106904Y7753096D01*
X11008696Y7753096D02*
X9652800Y6397200D01*
X9296258Y7446258D02*
X10270790Y7446258D01*
X10270790Y7446258D02*
X10882438Y8057906D01*
X8710000Y6860000D02*
X9296258Y7446258D01*
X15912094Y8057906D02*
X16420000Y7550000D01*
X10882438Y8057906D02*
X15912094Y8057906D01*
D20*
X18016288Y16070802D02*
X18080203Y16006887D01*
D19*
X3360000Y14040680D02*
X3360000Y9750000D01*
X20690000Y8760000D02*
X21680000Y7770000D01*
X8910000Y8760000D02*
X20690000Y8760000D01*
X20734432Y8715568D02*
X21680000Y7770000D01*
X21680000Y7770000D02*
X21680000Y3342000D01*
X9019485Y8759211D02*
X9717587Y8759211D01*
X13494495Y3473105D02*
X13494495Y7124495D01*
D21*
X12285000Y6380200D02*
X12652800Y6012400D01*
X12652800Y6012400D02*
X12652800Y3314800D01*
D19*
X2120000Y10030000D02*
X2120000Y13490000D01*
X2120000Y13490000D02*
X2120000Y18280000D01*
D22*
X2120000Y18280000D02*
X2170000Y18330000D01*
D19*
X21274179Y9064811D02*
X9843054Y9064811D01*
X2120000Y13490000D02*
X2120000Y15018312D01*
X8278990Y9390380D02*
X7930000Y9041390D01*
X9517485Y9390380D02*
X8278990Y9390380D01*
X22095584Y8243406D02*
X21274179Y9064811D01*
X9843054Y9064811D02*
X9517485Y9390380D01*
D23*
X11541752Y14060000D02*
X11551390Y14069638D01*
D18*
X17696022Y6203222D02*
X15236157Y6203222D01*
X15236157Y6203222D02*
X15002800Y6436579D01*
X18317500Y6824700D02*
X17696022Y6203222D01*
D23*
X5910000Y14060000D02*
X11541752Y14060000D01*
X14520000Y14060000D02*
X11561028Y14060000D01*
X11561028Y14060000D02*
X11551390Y14069638D01*
X5900000Y14070000D02*
X5910000Y14060000D01*
D19*
X9650994Y8090994D02*
X9603597Y8138390D01*
X9922716Y8362716D02*
X18267284Y8362716D01*
X18267284Y8362716D02*
X18830000Y7800000D01*
X9650994Y8090994D02*
X9922716Y8362716D01*
X6780000Y9980000D02*
X5840000Y10920000D01*
X16250000Y9980000D02*
X6780000Y9980000D01*
X6820000Y10910000D02*
X15750000Y10910000D01*
X15750000Y10910000D02*
X15820000Y10840000D01*
X14652800Y5879300D02*
X14652800Y3314800D01*
X14113800Y6418300D02*
X14652800Y5879300D01*
D22*
X14910000Y23950000D02*
X14910000Y22789191D01*
X14910000Y22789191D02*
X14863598Y22742789D01*
G04 #@! TA.AperFunction,Conductor*
G36*
X33611119Y30884400D02*
G01*
X33657612Y30830744D01*
X33668998Y30778402D01*
X33668998Y27758400D01*
X33648996Y27690279D01*
X33595340Y27643786D01*
X33542998Y27632400D01*
X23825152Y27632400D01*
X23821219Y27631901D01*
X23821212Y27631901D01*
X23796769Y27628802D01*
X23780923Y27627802D01*
X21399798Y27627802D01*
X21331677Y27647804D01*
X21285184Y27701460D01*
X21273798Y27753802D01*
X21273798Y30778402D01*
X21293800Y30846523D01*
X21347456Y30893016D01*
X21399798Y30904402D01*
X33542998Y30904402D01*
X33611119Y30884400D01*
G37*
G04 #@! TD.AperFunction*
G04 #@! TA.AperFunction,Conductor*
G36*
X33611119Y22375400D02*
G01*
X33657612Y22321744D01*
X33668998Y22269402D01*
X33668998Y19092402D01*
X33648996Y19024281D01*
X33595340Y18977788D01*
X33542998Y18966402D01*
X21399798Y18966402D01*
X21331677Y18986404D01*
X21285184Y19040060D01*
X21273798Y19092402D01*
X21273798Y22269402D01*
X21293800Y22337523D01*
X21347456Y22384016D01*
X21399798Y22395402D01*
X33542998Y22395402D01*
X33611119Y22375400D01*
G37*
G04 #@! TD.AperFunction*
G04 #@! TA.AperFunction,Conductor*
G36*
X33641819Y27459998D02*
G01*
X33688312Y27406342D01*
X33699698Y27353699D01*
X33694698Y25264076D01*
X33674533Y25196003D01*
X33620766Y25149638D01*
X33568925Y25138377D01*
X23744961Y25120772D01*
X23708637Y25126054D01*
X23685670Y25132923D01*
X23676694Y25132978D01*
X23676693Y25132978D01*
X23616280Y25133347D01*
X23541668Y25133803D01*
X23514559Y25126055D01*
X23511368Y25125143D01*
X23476971Y25120293D01*
X23024377Y25119481D01*
X22924023Y25119301D01*
X22855868Y25139181D01*
X22809278Y25192753D01*
X22797798Y25245301D01*
X22797798Y25685078D01*
X22812934Y25744954D01*
X23714288Y27413876D01*
X23764258Y27464308D01*
X23825152Y27480000D01*
X33573698Y27480000D01*
X33641819Y27459998D01*
G37*
G04 #@! TD.AperFunction*
G04 #@! TA.AperFunction,Conductor*
G36*
X33661728Y24966095D02*
G01*
X33708317Y24912524D01*
X33719798Y24859975D01*
X33719798Y22711902D01*
X33699796Y22643781D01*
X33646140Y22597288D01*
X33593798Y22585902D01*
X29909798Y22585902D01*
X23812710Y22598447D01*
X23744632Y22618589D01*
X23702010Y22664751D01*
X23676644Y22711902D01*
X22812837Y24317514D01*
X22797798Y24377210D01*
X22797798Y24840762D01*
X22817800Y24908883D01*
X22871456Y24955376D01*
X22923571Y24966762D01*
X29561051Y24978714D01*
X33593572Y24985975D01*
X33661728Y24966095D01*
G37*
G04 #@! TD.AperFunction*
G04 #@! TA.AperFunction,Conductor*
G36*
X35658981Y39197606D02*
G01*
X35659078Y39198313D01*
X35666138Y39197342D01*
X35673042Y39195581D01*
X35680160Y39195412D01*
X35680163Y39195412D01*
X35749979Y39193759D01*
X35759347Y39193187D01*
X35785154Y39190645D01*
X35797385Y39188831D01*
X35911911Y39166050D01*
X35923905Y39163045D01*
X35937757Y39158843D01*
X35949398Y39154678D01*
X35976310Y39143531D01*
X36057287Y39109990D01*
X36068446Y39104712D01*
X36081231Y39097879D01*
X36081248Y39097870D01*
X36091840Y39091521D01*
X36188942Y39026639D01*
X36198839Y39019299D01*
X36210080Y39010073D01*
X36219230Y39001779D01*
X36301776Y38919233D01*
X36310079Y38910073D01*
X36319284Y38898857D01*
X36326649Y38888927D01*
X36391528Y38791829D01*
X36397868Y38781251D01*
X36404711Y38768448D01*
X36409983Y38757302D01*
X36454683Y38649389D01*
X36458843Y38637760D01*
X36463048Y38623898D01*
X36466051Y38611912D01*
X36484163Y38520854D01*
X36488832Y38497379D01*
X36490646Y38485148D01*
X36493186Y38459357D01*
X36493758Y38449991D01*
X36495576Y38373233D01*
X36497312Y38366377D01*
X36498269Y38359373D01*
X36497604Y38359282D01*
X36500000Y38340058D01*
X36500000Y4563213D01*
X36479998Y4495092D01*
X36426342Y4448599D01*
X36374044Y4437213D01*
X34725808Y4436653D01*
X34657680Y4456632D01*
X34645789Y4465289D01*
X34614489Y4490999D01*
X34610579Y4494211D01*
X34401542Y4615873D01*
X34396819Y4617686D01*
X34396817Y4617687D01*
X34180463Y4700738D01*
X34180465Y4700738D01*
X34175743Y4702550D01*
X34170797Y4703583D01*
X34170791Y4703585D01*
X34025746Y4733886D01*
X33938990Y4752010D01*
X33933942Y4752239D01*
X33933936Y4752240D01*
X33818183Y4757495D01*
X33697375Y4762981D01*
X33692355Y4762400D01*
X33692351Y4762400D01*
X33462141Y4735764D01*
X33462137Y4735763D01*
X33457114Y4735182D01*
X33452249Y4733805D01*
X33452247Y4733805D01*
X33335390Y4700738D01*
X33224388Y4669328D01*
X33005185Y4567111D01*
X33001005Y4564270D01*
X33001001Y4564268D01*
X32844305Y4457778D01*
X32773526Y4435990D01*
X31126043Y4435430D01*
X31057915Y4455409D01*
X31011404Y4509049D01*
X31000000Y4561430D01*
X31000000Y6843315D01*
X31002569Y6868627D01*
X31005466Y6882748D01*
X31002709Y6999166D01*
X31002730Y7005884D01*
X31002764Y7007001D01*
X31003048Y7016570D01*
X31002196Y7020854D01*
X31002097Y7025028D01*
X31000300Y7032128D01*
X30999484Y7035349D01*
X30998051Y7041691D01*
X30959650Y7234742D01*
X30958974Y7238425D01*
X30958083Y7243723D01*
X30957190Y7249032D01*
X30956455Y7250806D01*
X30956118Y7252501D01*
X30953851Y7257570D01*
X30951903Y7261923D01*
X30950511Y7265156D01*
X30892292Y7405709D01*
X30872052Y7454574D01*
X30870695Y7457993D01*
X30866862Y7468082D01*
X30865794Y7469681D01*
X30865133Y7471276D01*
X30862132Y7475506D01*
X30862130Y7475511D01*
X30859162Y7479695D01*
X30857170Y7482588D01*
X30743269Y7653052D01*
X30741238Y7656191D01*
X30738368Y7660776D01*
X30738366Y7660778D01*
X30735534Y7665302D01*
X30734178Y7666659D01*
X30733217Y7668096D01*
X30725727Y7675179D01*
X30723204Y7677632D01*
X30578232Y7822605D01*
X30575629Y7825287D01*
X30571944Y7829198D01*
X30571942Y7829200D01*
X30568256Y7833111D01*
X30566659Y7834178D01*
X30565438Y7835399D01*
X30561032Y7838169D01*
X30561030Y7838170D01*
X30556726Y7840875D01*
X30553775Y7842787D01*
X30518522Y7866342D01*
X30383298Y7956695D01*
X30380231Y7958811D01*
X30375833Y7961943D01*
X30375829Y7961945D01*
X30371454Y7965060D01*
X30369675Y7965797D01*
X30368241Y7966755D01*
X30358623Y7970428D01*
X30355357Y7971728D01*
X30165925Y8050193D01*
X30162497Y8051673D01*
X30157570Y8053887D01*
X30152690Y8056080D01*
X30150807Y8056455D01*
X30149210Y8057116D01*
X30139000Y8058852D01*
X30135603Y8059479D01*
X30019142Y8082644D01*
X29942155Y8097958D01*
X29935607Y8099443D01*
X29925221Y8102092D01*
X29920853Y8102195D01*
X29916758Y8103010D01*
X29909688Y8102813D01*
X29909685Y8102813D01*
X29906104Y8102713D01*
X29899610Y8102699D01*
X29790010Y8105294D01*
X29790007Y8105294D01*
X29782941Y8105461D01*
X29768503Y8102525D01*
X29743405Y8100000D01*
X29356685Y8100000D01*
X29331373Y8102569D01*
X29317252Y8105466D01*
X29200834Y8102709D01*
X29194133Y8102730D01*
X29183430Y8103048D01*
X29179146Y8102196D01*
X29174972Y8102097D01*
X29168124Y8100363D01*
X29168122Y8100363D01*
X29164651Y8099484D01*
X29158311Y8098051D01*
X29051817Y8076868D01*
X28965258Y8059650D01*
X28961575Y8058974D01*
X28959869Y8058687D01*
X28950968Y8057190D01*
X28949194Y8056455D01*
X28947499Y8056118D01*
X28942748Y8053993D01*
X28942746Y8053992D01*
X28938077Y8051903D01*
X28934844Y8050511D01*
X28878871Y8027326D01*
X28745426Y7972052D01*
X28742007Y7970695D01*
X28731918Y7966862D01*
X28730319Y7965794D01*
X28728724Y7965133D01*
X28724494Y7962132D01*
X28724489Y7962130D01*
X28720305Y7959162D01*
X28717412Y7957170D01*
X28546948Y7843269D01*
X28543809Y7841238D01*
X28539224Y7838368D01*
X28539222Y7838366D01*
X28534698Y7835534D01*
X28533341Y7834178D01*
X28531904Y7833217D01*
X28527733Y7828806D01*
X28524821Y7825727D01*
X28522368Y7823204D01*
X28377395Y7678232D01*
X28374713Y7675629D01*
X28370802Y7671944D01*
X28370800Y7671942D01*
X28366889Y7668256D01*
X28365822Y7666659D01*
X28364601Y7665438D01*
X28361831Y7661032D01*
X28361830Y7661030D01*
X28359125Y7656726D01*
X28357219Y7653784D01*
X28243692Y7483875D01*
X28243316Y7483313D01*
X28241189Y7480231D01*
X28238057Y7475833D01*
X28238055Y7475829D01*
X28234940Y7471454D01*
X28234203Y7469675D01*
X28233245Y7468241D01*
X28229719Y7459007D01*
X28229572Y7458623D01*
X28228272Y7455357D01*
X28149807Y7265925D01*
X28148327Y7262497D01*
X28143920Y7252690D01*
X28143545Y7250807D01*
X28142884Y7249210D01*
X28141148Y7239000D01*
X28140521Y7235603D01*
X28122201Y7143500D01*
X28102042Y7042155D01*
X28100557Y7035607D01*
X28097908Y7025221D01*
X28097805Y7020853D01*
X28096990Y7016758D01*
X28097187Y7009688D01*
X28097187Y7009685D01*
X28097287Y7006104D01*
X28097301Y6999610D01*
X28094948Y6900207D01*
X28094539Y6882941D01*
X28097475Y6868503D01*
X28100000Y6843405D01*
X28100000Y6253800D01*
X28079998Y6185679D01*
X28026342Y6139186D01*
X27974000Y6127800D01*
X27924915Y6127800D01*
X27909676Y6123325D01*
X27908471Y6121935D01*
X27906800Y6114252D01*
X27906800Y4434336D01*
X27398800Y4434164D01*
X27398800Y6109685D01*
X27394325Y6124924D01*
X27392935Y6126129D01*
X27385252Y6127800D01*
X27330057Y6127800D01*
X27325550Y6127639D01*
X27261531Y6123060D01*
X27248309Y6120674D01*
X27195290Y6105107D01*
X27124293Y6105107D01*
X27113412Y6108302D01*
X26982246Y6127161D01*
X26973305Y6127800D01*
X26924915Y6127800D01*
X26909676Y6123325D01*
X26908471Y6121935D01*
X26906800Y6114252D01*
X26906800Y4433997D01*
X26398800Y4433824D01*
X26398800Y6109685D01*
X26394325Y6124924D01*
X26392935Y6126129D01*
X26385252Y6127800D01*
X26330057Y6127800D01*
X26325550Y6127639D01*
X26261531Y6123060D01*
X26248309Y6120674D01*
X26195290Y6105107D01*
X26124293Y6105107D01*
X26113412Y6108302D01*
X25982246Y6127161D01*
X25973305Y6127800D01*
X25924915Y6127800D01*
X25909676Y6123325D01*
X25908471Y6121935D01*
X25906800Y6114252D01*
X25906800Y4433657D01*
X25398800Y4433484D01*
X25398800Y6109685D01*
X25394325Y6124924D01*
X25392935Y6126129D01*
X25385252Y6127800D01*
X25330057Y6127800D01*
X25325550Y6127639D01*
X25261531Y6123060D01*
X25248309Y6120674D01*
X25195290Y6105107D01*
X25124293Y6105107D01*
X25113412Y6108302D01*
X24982246Y6127161D01*
X24973305Y6127800D01*
X24924915Y6127800D01*
X24909676Y6123325D01*
X24908471Y6121935D01*
X24906800Y6114252D01*
X24906800Y4433317D01*
X24398800Y4433144D01*
X24398800Y6109685D01*
X24394325Y6124924D01*
X24392935Y6126129D01*
X24385252Y6127800D01*
X24330057Y6127800D01*
X24325550Y6127639D01*
X24261531Y6123060D01*
X24248309Y6120674D01*
X24195290Y6105107D01*
X24124293Y6105107D01*
X24113412Y6108302D01*
X23982246Y6127161D01*
X23973305Y6127800D01*
X23924915Y6127800D01*
X23909676Y6123325D01*
X23908471Y6121935D01*
X23906800Y6114252D01*
X23906800Y4432977D01*
X23398800Y4432804D01*
X23398800Y6109685D01*
X23394325Y6124924D01*
X23392935Y6126129D01*
X23385252Y6127800D01*
X23330057Y6127800D01*
X23325550Y6127639D01*
X23261531Y6123060D01*
X23248309Y6120674D01*
X23123342Y6083981D01*
X23107108Y6076567D01*
X22999440Y6007374D01*
X22985953Y5995688D01*
X22902140Y5898962D01*
X22892492Y5883948D01*
X22875324Y5846357D01*
X22828831Y5792701D01*
X22760711Y5772700D01*
X22327800Y5772700D01*
X22321733Y5771493D01*
X22321730Y5771493D01*
X22279550Y5763103D01*
X22279549Y5763103D01*
X22267374Y5760681D01*
X22222801Y5730897D01*
X22155050Y5709683D01*
X22082799Y5730897D01*
X22038226Y5760681D01*
X22026051Y5763103D01*
X22026050Y5763103D01*
X22010519Y5766192D01*
X21947609Y5799099D01*
X21912477Y5860794D01*
X21909100Y5889771D01*
X21909100Y7563348D01*
X21929102Y7631469D01*
X21982758Y7677962D01*
X22043843Y7688593D01*
X22048900Y7687463D01*
X22057473Y7687912D01*
X22057476Y7687912D01*
X22191541Y7694938D01*
X22191542Y7694938D01*
X22200124Y7695388D01*
X22285569Y7724143D01*
X22335511Y7740950D01*
X22335513Y7740951D01*
X22343646Y7743688D01*
X22468892Y7828806D01*
X22566635Y7944468D01*
X22572425Y7957115D01*
X22626098Y8074346D01*
X22626098Y8074348D01*
X22629673Y8082155D01*
X22653362Y8231722D01*
X22653484Y8243406D01*
X22632932Y8393436D01*
X22572792Y8532413D01*
X22477493Y8650098D01*
X22421606Y8689815D01*
X22361059Y8732843D01*
X22354057Y8737819D01*
X22211578Y8789115D01*
X22203018Y8789744D01*
X22203016Y8789744D01*
X22112158Y8796416D01*
X22060553Y8800205D01*
X21962195Y8780373D01*
X21891465Y8786516D01*
X21848196Y8814791D01*
X21441191Y9221795D01*
X21436650Y9226581D01*
X21420643Y9244359D01*
X21420642Y9244360D01*
X21411780Y9254202D01*
X21392831Y9262638D01*
X21375465Y9272067D01*
X21358073Y9283362D01*
X21344996Y9285433D01*
X21337895Y9288159D01*
X21331906Y9289764D01*
X21322851Y9293795D01*
X21321747Y9293911D01*
X21301387Y9293911D01*
X21281676Y9295462D01*
X21275004Y9296519D01*
X21275003Y9296519D01*
X21261927Y9298590D01*
X21249139Y9295163D01*
X21235909Y9294470D01*
X21235883Y9294965D01*
X21227874Y9293911D01*
X16633394Y9293911D01*
X16565273Y9313913D01*
X16518780Y9367569D01*
X16508676Y9437843D01*
X16538170Y9502423D01*
X16562571Y9524123D01*
X16571634Y9530282D01*
X16623308Y9565400D01*
X16721051Y9681062D01*
X16743943Y9731062D01*
X16780514Y9810940D01*
X16780514Y9810942D01*
X16784089Y9818749D01*
X16807778Y9968316D01*
X16807900Y9980000D01*
X16797464Y10056184D01*
X16788514Y10121520D01*
X16788514Y10121522D01*
X16787348Y10130030D01*
X16727208Y10269007D01*
X16631909Y10386692D01*
X16598715Y10410282D01*
X16515475Y10469437D01*
X16508473Y10474413D01*
X16424545Y10504629D01*
X16367227Y10546524D01*
X16341658Y10612756D01*
X16350280Y10662038D01*
X16348031Y10662717D01*
X16350513Y10670939D01*
X16354089Y10678749D01*
X16377778Y10828316D01*
X16377900Y10840000D01*
X16357348Y10990030D01*
X16297208Y11129007D01*
X16201909Y11246692D01*
X16171483Y11268315D01*
X16085475Y11329437D01*
X16078473Y11334413D01*
X15935994Y11385709D01*
X15927434Y11386338D01*
X15927432Y11386338D01*
X15836574Y11393010D01*
X15784969Y11396799D01*
X15636525Y11366868D01*
X15628873Y11362969D01*
X15509250Y11302018D01*
X15509247Y11302016D01*
X15501599Y11298119D01*
X15495277Y11292306D01*
X15495276Y11292305D01*
X15438412Y11240016D01*
X15390131Y11195619D01*
X15385604Y11188317D01*
X15382679Y11184782D01*
X15323844Y11145046D01*
X15285596Y11139100D01*
X7403124Y11139100D01*
X7335003Y11159102D01*
X7298056Y11197046D01*
X7297208Y11199007D01*
X7289111Y11209007D01*
X7207315Y11310016D01*
X7201909Y11316692D01*
X7180835Y11331669D01*
X7085475Y11399437D01*
X7078473Y11404413D01*
X6935994Y11455709D01*
X6927434Y11456338D01*
X6927432Y11456338D01*
X6836574Y11463010D01*
X6784969Y11466799D01*
X6636525Y11436868D01*
X6628873Y11432969D01*
X6509250Y11372018D01*
X6509247Y11372016D01*
X6501599Y11368119D01*
X6495277Y11362306D01*
X6495276Y11362305D01*
X6420823Y11293842D01*
X6357141Y11262456D01*
X6286599Y11270482D01*
X6237618Y11307294D01*
X6227317Y11320014D01*
X6227316Y11320015D01*
X6221909Y11326692D01*
X6211045Y11334413D01*
X6105475Y11409437D01*
X6098473Y11414413D01*
X5955994Y11465709D01*
X5947434Y11466338D01*
X5947432Y11466338D01*
X5856574Y11473010D01*
X5804969Y11476799D01*
X5656525Y11446868D01*
X5648873Y11442969D01*
X5529250Y11382018D01*
X5529247Y11382016D01*
X5521599Y11378119D01*
X5515277Y11372306D01*
X5515276Y11372305D01*
X5416456Y11281436D01*
X5416453Y11281432D01*
X5410131Y11275619D01*
X5405603Y11268317D01*
X5405602Y11268315D01*
X5346554Y11173080D01*
X5330333Y11146918D01*
X5288085Y11001500D01*
X5286499Y10850077D01*
X5288722Y10841781D01*
X5288722Y10841780D01*
X5290437Y10835382D01*
X5325693Y10703805D01*
X5402777Y10573462D01*
X5512075Y10468649D01*
X5519641Y10464592D01*
X5519644Y10464590D01*
X5637957Y10401151D01*
X5637961Y10401149D01*
X5645532Y10397090D01*
X5793316Y10364057D01*
X5801889Y10364506D01*
X5801893Y10364506D01*
X5935957Y10371532D01*
X5935958Y10371532D01*
X5944540Y10371982D01*
X5952682Y10374722D01*
X5952687Y10374723D01*
X5959895Y10377149D01*
X6030838Y10379919D01*
X6089178Y10346825D01*
X6612988Y9823015D01*
X6617529Y9818230D01*
X6642399Y9790609D01*
X6661339Y9782176D01*
X6678711Y9772745D01*
X6696106Y9761449D01*
X6709186Y9759377D01*
X6716286Y9756652D01*
X6722271Y9755048D01*
X6731328Y9751016D01*
X6732432Y9750900D01*
X6752792Y9750900D01*
X6772503Y9749349D01*
X6779175Y9748292D01*
X6779176Y9748292D01*
X6792252Y9746221D01*
X6805041Y9749648D01*
X6818268Y9750341D01*
X6818294Y9749846D01*
X6826303Y9750900D01*
X7580153Y9750900D01*
X7648274Y9730898D01*
X7694767Y9677242D01*
X7704871Y9606968D01*
X7675377Y9542388D01*
X7637356Y9512633D01*
X7619250Y9503408D01*
X7619247Y9503406D01*
X7611599Y9499509D01*
X7605277Y9493696D01*
X7605276Y9493695D01*
X7506456Y9402826D01*
X7506453Y9402822D01*
X7500131Y9397009D01*
X7495603Y9389707D01*
X7495602Y9389705D01*
X7429667Y9283362D01*
X7420333Y9268308D01*
X7378085Y9122890D01*
X7376499Y8971467D01*
X7415693Y8825195D01*
X7492777Y8694852D01*
X7602075Y8590039D01*
X7609641Y8585982D01*
X7609644Y8585980D01*
X7727957Y8522541D01*
X7727961Y8522539D01*
X7735532Y8518480D01*
X7883316Y8485447D01*
X7891889Y8485896D01*
X7891893Y8485896D01*
X8025957Y8492922D01*
X8025958Y8492922D01*
X8034540Y8493372D01*
X8127125Y8524530D01*
X8169927Y8538934D01*
X8169929Y8538935D01*
X8178062Y8541672D01*
X8223225Y8572365D01*
X8290809Y8594111D01*
X8359422Y8575867D01*
X8402501Y8532293D01*
X8472777Y8413462D01*
X8582075Y8308649D01*
X8589641Y8304592D01*
X8589644Y8304590D01*
X8707957Y8241151D01*
X8707961Y8241149D01*
X8715532Y8237090D01*
X8863316Y8204057D01*
X8871889Y8204506D01*
X8871893Y8204506D01*
X8965548Y8209414D01*
X9034622Y8193004D01*
X9083859Y8141855D01*
X9098134Y8082267D01*
X9097493Y8021071D01*
X9099716Y8012775D01*
X9099716Y8012774D01*
X9124972Y7918521D01*
X9136687Y7874799D01*
X9166779Y7823917D01*
X9185087Y7792959D01*
X9202546Y7724143D01*
X9180029Y7656812D01*
X9165728Y7639725D01*
X9153500Y7627497D01*
X9138467Y7614657D01*
X9133003Y7610687D01*
X9133000Y7610684D01*
X9122288Y7602901D01*
X9115667Y7591433D01*
X9106806Y7581592D01*
X9106437Y7581924D01*
X9101520Y7575517D01*
X9008592Y7482588D01*
X8960270Y7434266D01*
X8897958Y7400241D01*
X8843081Y7403847D01*
X8842479Y7401014D01*
X8834069Y7402802D01*
X8825994Y7405709D01*
X8817437Y7406337D01*
X8817434Y7406338D01*
X8715249Y7413841D01*
X8674969Y7416799D01*
X8526525Y7386868D01*
X8518873Y7382969D01*
X8399250Y7322018D01*
X8399247Y7322016D01*
X8391599Y7318119D01*
X8385277Y7312306D01*
X8385276Y7312305D01*
X8333827Y7264995D01*
X8270145Y7233609D01*
X8199603Y7241635D01*
X8144599Y7286524D01*
X8132132Y7309525D01*
X8130981Y7312305D01*
X8072052Y7454574D01*
X8070695Y7457993D01*
X8066862Y7468082D01*
X8065794Y7469681D01*
X8065133Y7471276D01*
X8062132Y7475506D01*
X8062130Y7475511D01*
X8059162Y7479695D01*
X8057170Y7482588D01*
X7943269Y7653052D01*
X7941238Y7656191D01*
X7938368Y7660776D01*
X7938366Y7660778D01*
X7935534Y7665302D01*
X7934178Y7666659D01*
X7933217Y7668096D01*
X7925727Y7675179D01*
X7923204Y7677632D01*
X7778232Y7822605D01*
X7775629Y7825287D01*
X7771944Y7829198D01*
X7771942Y7829200D01*
X7768256Y7833111D01*
X7766659Y7834178D01*
X7765438Y7835399D01*
X7761032Y7838169D01*
X7761030Y7838170D01*
X7756726Y7840875D01*
X7753775Y7842787D01*
X7718522Y7866342D01*
X7583298Y7956695D01*
X7580231Y7958811D01*
X7575833Y7961943D01*
X7575829Y7961945D01*
X7571454Y7965060D01*
X7569675Y7965797D01*
X7568241Y7966755D01*
X7558623Y7970428D01*
X7555357Y7971728D01*
X7365925Y8050193D01*
X7362497Y8051673D01*
X7357570Y8053887D01*
X7352690Y8056080D01*
X7350807Y8056455D01*
X7349210Y8057116D01*
X7339000Y8058852D01*
X7335603Y8059479D01*
X7219142Y8082644D01*
X7142155Y8097958D01*
X7135607Y8099443D01*
X7125221Y8102092D01*
X7120853Y8102195D01*
X7116758Y8103010D01*
X7109688Y8102813D01*
X7109685Y8102813D01*
X7106104Y8102713D01*
X7099610Y8102699D01*
X6990010Y8105294D01*
X6990007Y8105294D01*
X6982941Y8105461D01*
X6968503Y8102525D01*
X6943405Y8100000D01*
X6656685Y8100000D01*
X6631373Y8102569D01*
X6617252Y8105466D01*
X6500834Y8102709D01*
X6494133Y8102730D01*
X6483430Y8103048D01*
X6479146Y8102196D01*
X6474972Y8102097D01*
X6468124Y8100363D01*
X6468122Y8100363D01*
X6464651Y8099484D01*
X6458311Y8098051D01*
X6351817Y8076868D01*
X6265258Y8059650D01*
X6261575Y8058974D01*
X6259869Y8058687D01*
X6250968Y8057190D01*
X6249194Y8056455D01*
X6247499Y8056118D01*
X6242748Y8053993D01*
X6242746Y8053992D01*
X6238077Y8051903D01*
X6234844Y8050511D01*
X6178871Y8027326D01*
X6045426Y7972052D01*
X6042007Y7970695D01*
X6031918Y7966862D01*
X6030319Y7965794D01*
X6028724Y7965133D01*
X6024494Y7962132D01*
X6024489Y7962130D01*
X6020305Y7959162D01*
X6017412Y7957170D01*
X5846948Y7843269D01*
X5843809Y7841238D01*
X5839224Y7838368D01*
X5839222Y7838366D01*
X5834698Y7835534D01*
X5833341Y7834178D01*
X5831904Y7833217D01*
X5827733Y7828806D01*
X5824821Y7825727D01*
X5822368Y7823204D01*
X5677395Y7678232D01*
X5674713Y7675629D01*
X5670802Y7671944D01*
X5670800Y7671942D01*
X5666889Y7668256D01*
X5665822Y7666659D01*
X5664601Y7665438D01*
X5661831Y7661032D01*
X5661830Y7661030D01*
X5659125Y7656726D01*
X5657219Y7653784D01*
X5543692Y7483875D01*
X5543316Y7483313D01*
X5541189Y7480231D01*
X5538057Y7475833D01*
X5538055Y7475829D01*
X5534940Y7471454D01*
X5534203Y7469675D01*
X5533245Y7468241D01*
X5529719Y7459007D01*
X5529572Y7458623D01*
X5528272Y7455357D01*
X5449807Y7265925D01*
X5448327Y7262497D01*
X5443920Y7252690D01*
X5443545Y7250807D01*
X5442884Y7249210D01*
X5441148Y7239000D01*
X5440521Y7235603D01*
X5422201Y7143500D01*
X5402042Y7042155D01*
X5400557Y7035607D01*
X5397908Y7025221D01*
X5397805Y7020853D01*
X5396990Y7016758D01*
X5397187Y7009688D01*
X5397187Y7009685D01*
X5397287Y7006104D01*
X5397301Y6999610D01*
X5394948Y6900207D01*
X5394539Y6882941D01*
X5397475Y6868503D01*
X5400000Y6843405D01*
X5400000Y4552645D01*
X5379998Y4484524D01*
X5326342Y4438031D01*
X5274044Y4426645D01*
X3788605Y4426140D01*
X3720478Y4446119D01*
X3708601Y4454765D01*
X3660579Y4494211D01*
X3451542Y4615873D01*
X3446819Y4617686D01*
X3446817Y4617687D01*
X3230463Y4700738D01*
X3230465Y4700738D01*
X3225743Y4702550D01*
X3220797Y4703583D01*
X3220791Y4703585D01*
X3075746Y4733886D01*
X2988990Y4752010D01*
X2983942Y4752239D01*
X2983936Y4752240D01*
X2868183Y4757495D01*
X2747375Y4762981D01*
X2742355Y4762400D01*
X2742351Y4762400D01*
X2512141Y4735764D01*
X2512137Y4735763D01*
X2507114Y4735182D01*
X2502249Y4733805D01*
X2502247Y4733805D01*
X2385390Y4700738D01*
X2274388Y4669328D01*
X2055185Y4567111D01*
X2051005Y4564270D01*
X2051001Y4564268D01*
X1878821Y4447255D01*
X1808043Y4425467D01*
X828684Y4425135D01*
X326043Y4424964D01*
X257915Y4444943D01*
X211404Y4498583D01*
X200000Y4550964D01*
X200000Y9960077D01*
X1566499Y9960077D01*
X1568722Y9951781D01*
X1568722Y9951780D01*
X1600952Y9831500D01*
X1605693Y9813805D01*
X1682777Y9683462D01*
X1792075Y9578649D01*
X1799641Y9574592D01*
X1799644Y9574590D01*
X1917957Y9511151D01*
X1917961Y9511149D01*
X1925532Y9507090D01*
X2073316Y9474057D01*
X2081889Y9474506D01*
X2081893Y9474506D01*
X2215957Y9481532D01*
X2215958Y9481532D01*
X2224540Y9481982D01*
X2349761Y9524123D01*
X2359927Y9527544D01*
X2359929Y9527545D01*
X2368062Y9530282D01*
X2493308Y9615400D01*
X2588694Y9728273D01*
X2647941Y9767392D01*
X2718933Y9768270D01*
X2779129Y9730628D01*
X2806639Y9679555D01*
X2845693Y9533805D01*
X2922777Y9403462D01*
X3032075Y9298649D01*
X3039641Y9294592D01*
X3039644Y9294590D01*
X3157957Y9231151D01*
X3157961Y9231149D01*
X3165532Y9227090D01*
X3313316Y9194057D01*
X3321889Y9194506D01*
X3321893Y9194506D01*
X3455957Y9201532D01*
X3455958Y9201532D01*
X3464540Y9201982D01*
X3551215Y9231151D01*
X3599927Y9247544D01*
X3599929Y9247545D01*
X3608062Y9250282D01*
X3622446Y9260057D01*
X3663796Y9288159D01*
X3733308Y9335400D01*
X3831051Y9451062D01*
X3834626Y9458870D01*
X3890514Y9580940D01*
X3890514Y9580942D01*
X3894089Y9588749D01*
X3917778Y9738316D01*
X3917900Y9750000D01*
X3907898Y9823015D01*
X3898514Y9891520D01*
X3898514Y9891522D01*
X3897348Y9900030D01*
X3837208Y10039007D01*
X3741909Y10156692D01*
X3642110Y10227615D01*
X3598171Y10283379D01*
X3589100Y10330320D01*
X3589100Y13704884D01*
X3609102Y13773005D01*
X3644277Y13809096D01*
X3679231Y13832851D01*
X3733308Y13869602D01*
X3831051Y13985264D01*
X3837833Y14000077D01*
X5346499Y14000077D01*
X5348722Y13991781D01*
X5348722Y13991780D01*
X5382754Y13864774D01*
X5385693Y13853805D01*
X5462777Y13723462D01*
X5572075Y13618649D01*
X5579641Y13614592D01*
X5579644Y13614590D01*
X5697957Y13551151D01*
X5697961Y13551149D01*
X5705532Y13547090D01*
X5853316Y13514057D01*
X5861889Y13514506D01*
X5861893Y13514506D01*
X5995957Y13521532D01*
X5995958Y13521532D01*
X6004540Y13521982D01*
X6091215Y13551151D01*
X6139927Y13567544D01*
X6139929Y13567545D01*
X6148062Y13570282D01*
X6237864Y13631312D01*
X6308687Y13653100D01*
X11136592Y13653100D01*
X11210651Y13629038D01*
X11217263Y13624234D01*
X11223465Y13618287D01*
X11231039Y13614226D01*
X11349347Y13550789D01*
X11349351Y13550787D01*
X11356922Y13546728D01*
X11504706Y13513695D01*
X11513279Y13514144D01*
X11513283Y13514144D01*
X11647347Y13521170D01*
X11647348Y13521170D01*
X11655930Y13521620D01*
X11742605Y13550789D01*
X11791317Y13567182D01*
X11791319Y13567183D01*
X11799452Y13569920D01*
X11889787Y13631312D01*
X11960609Y13653100D01*
X14095070Y13653100D01*
X14163191Y13633098D01*
X14182280Y13618042D01*
X14185877Y13614592D01*
X14185880Y13614590D01*
X14192075Y13608649D01*
X14199641Y13604592D01*
X14199644Y13604590D01*
X14317957Y13541151D01*
X14317961Y13541149D01*
X14325532Y13537090D01*
X14473316Y13504057D01*
X14481889Y13504506D01*
X14481893Y13504506D01*
X14615957Y13511532D01*
X14615958Y13511532D01*
X14624540Y13511982D01*
X14711215Y13541151D01*
X14759927Y13557544D01*
X14759929Y13557545D01*
X14768062Y13560282D01*
X14782777Y13570282D01*
X14803427Y13584317D01*
X14893308Y13645400D01*
X14991051Y13761062D01*
X14998853Y13778103D01*
X15050514Y13890940D01*
X15050514Y13890942D01*
X15054089Y13898749D01*
X15077778Y14048316D01*
X15077900Y14060000D01*
X15057348Y14210030D01*
X14997208Y14349007D01*
X14901909Y14466692D01*
X14868839Y14490194D01*
X14785475Y14549437D01*
X14778473Y14554413D01*
X14635994Y14605709D01*
X14627434Y14606338D01*
X14627432Y14606338D01*
X14536574Y14613010D01*
X14484969Y14616799D01*
X14336525Y14586868D01*
X14201599Y14518119D01*
X14195276Y14512305D01*
X14195272Y14512302D01*
X14182059Y14500152D01*
X14118377Y14468766D01*
X14096773Y14466900D01*
X11986779Y14466900D01*
X11913790Y14490194D01*
X11868606Y14522305D01*
X11809863Y14564051D01*
X11667384Y14615347D01*
X11658824Y14615976D01*
X11658822Y14615976D01*
X11567964Y14622648D01*
X11516359Y14626437D01*
X11416677Y14606338D01*
X11378132Y14598566D01*
X11367915Y14596506D01*
X11335289Y14579882D01*
X11241352Y14532018D01*
X11232989Y14527757D01*
X11226670Y14521947D01*
X11226665Y14521943D01*
X11202966Y14500151D01*
X11139284Y14468766D01*
X11117681Y14466900D01*
X6335899Y14466900D01*
X6262910Y14490194D01*
X6165475Y14559437D01*
X6158473Y14564413D01*
X6015994Y14615709D01*
X6007434Y14616338D01*
X6007432Y14616338D01*
X5916574Y14623010D01*
X5864969Y14626799D01*
X5716525Y14596868D01*
X5700232Y14588566D01*
X5589250Y14532018D01*
X5589247Y14532016D01*
X5581599Y14528119D01*
X5575277Y14522306D01*
X5575276Y14522305D01*
X5476456Y14431436D01*
X5476453Y14431432D01*
X5470131Y14425619D01*
X5465603Y14418317D01*
X5465602Y14418315D01*
X5417742Y14341124D01*
X5390333Y14296918D01*
X5348085Y14151500D01*
X5346499Y14000077D01*
X3837833Y14000077D01*
X3857833Y14043761D01*
X3890514Y14115142D01*
X3890514Y14115144D01*
X3894089Y14122951D01*
X3917778Y14272518D01*
X3917900Y14284202D01*
X3905606Y14373948D01*
X3898514Y14425722D01*
X3898514Y14425724D01*
X3897348Y14434232D01*
X3837208Y14573209D01*
X3741909Y14690894D01*
X3664058Y14746220D01*
X3625475Y14773639D01*
X3618473Y14778615D01*
X3475994Y14829911D01*
X3467434Y14830540D01*
X3467432Y14830540D01*
X3376574Y14837212D01*
X3324969Y14841001D01*
X3176525Y14811070D01*
X3168873Y14807171D01*
X3049250Y14746220D01*
X3049247Y14746218D01*
X3041599Y14742321D01*
X3035277Y14736508D01*
X3035276Y14736507D01*
X2936456Y14645638D01*
X2936453Y14645634D01*
X2930131Y14639821D01*
X2925603Y14632519D01*
X2925602Y14632517D01*
X2854862Y14518425D01*
X2850333Y14511120D01*
X2808085Y14365702D01*
X2806499Y14214279D01*
X2808722Y14205983D01*
X2808722Y14205982D01*
X2830971Y14122951D01*
X2845693Y14068007D01*
X2922777Y13937664D01*
X3032075Y13832851D01*
X3064442Y13815496D01*
X3115024Y13765680D01*
X3130900Y13704453D01*
X3130900Y10330833D01*
X3110898Y10262712D01*
X3062104Y10218567D01*
X3041599Y10208119D01*
X3001798Y10171520D01*
X2936456Y10111436D01*
X2936453Y10111432D01*
X2930131Y10105619D01*
X2925605Y10098319D01*
X2925604Y10098318D01*
X2899480Y10056184D01*
X2846583Y10008829D01*
X2776482Y9997590D01*
X2711433Y10026034D01*
X2672088Y10085132D01*
X2667560Y10105481D01*
X2658514Y10171520D01*
X2658514Y10171522D01*
X2657348Y10180030D01*
X2597208Y10319007D01*
X2501909Y10436692D01*
X2402110Y10507615D01*
X2358171Y10563379D01*
X2349100Y10610320D01*
X2349100Y16013092D01*
X17572341Y16013092D01*
X17591013Y15870303D01*
X17594627Y15862089D01*
X17594628Y15862086D01*
X17645396Y15746706D01*
X17649010Y15738493D01*
X17741671Y15628260D01*
X17749142Y15623287D01*
X17749143Y15623286D01*
X17854073Y15553438D01*
X17854076Y15553437D01*
X17861546Y15548464D01*
X17870110Y15545788D01*
X17870113Y15545787D01*
X17990432Y15508196D01*
X17990436Y15508195D01*
X17998999Y15505520D01*
X18064542Y15504319D01*
X18134002Y15503046D01*
X18134005Y15503046D01*
X18142980Y15502882D01*
X18151643Y15505244D01*
X18151645Y15505244D01*
X18273250Y15538397D01*
X18281914Y15540759D01*
X18404633Y15616109D01*
X18501271Y15722873D01*
X18564060Y15852469D01*
X18587951Y15994478D01*
X18588103Y16006887D01*
X18567688Y16149438D01*
X18561291Y16163509D01*
X18511801Y16272355D01*
X18508085Y16280529D01*
X18414084Y16389622D01*
X18293243Y16467947D01*
X18155275Y16509208D01*
X18146299Y16509263D01*
X18146298Y16509263D01*
X18085885Y16509632D01*
X18011273Y16510088D01*
X17872812Y16470515D01*
X17751023Y16393672D01*
X17655696Y16285736D01*
X17594496Y16155383D01*
X17572341Y16013092D01*
X2349100Y16013092D01*
X2349100Y17719227D01*
X2369102Y17787348D01*
X2416458Y17829742D01*
X2418062Y17830282D01*
X2543308Y17915400D01*
X2641051Y18031062D01*
X2704089Y18168749D01*
X2727778Y18318316D01*
X2727900Y18330000D01*
X2707348Y18480030D01*
X2647208Y18619007D01*
X2551909Y18736692D01*
X2474058Y18792018D01*
X2435475Y18819437D01*
X2428473Y18824413D01*
X2285994Y18875709D01*
X2277434Y18876338D01*
X2277432Y18876338D01*
X2186574Y18883010D01*
X2134969Y18886799D01*
X1986525Y18856868D01*
X1978873Y18852969D01*
X1859250Y18792018D01*
X1859247Y18792016D01*
X1851599Y18788119D01*
X1845277Y18782306D01*
X1845276Y18782305D01*
X1746456Y18691436D01*
X1746453Y18691432D01*
X1740131Y18685619D01*
X1660333Y18556918D01*
X1618085Y18411500D01*
X1616499Y18260077D01*
X1618722Y18251781D01*
X1618722Y18251780D01*
X1640971Y18168749D01*
X1655693Y18113805D01*
X1732777Y17983462D01*
X1841082Y17879601D01*
X1841083Y17879600D01*
X1842075Y17878649D01*
X1841932Y17878500D01*
X1882315Y17826129D01*
X1890900Y17780416D01*
X1890900Y10610833D01*
X1870898Y10542712D01*
X1822104Y10498567D01*
X1801599Y10488119D01*
X1751085Y10441669D01*
X1696456Y10391436D01*
X1696453Y10391432D01*
X1690131Y10385619D01*
X1685603Y10378317D01*
X1685602Y10378315D01*
X1626354Y10282758D01*
X1610333Y10256918D01*
X1568085Y10111500D01*
X1566499Y9960077D01*
X200000Y9960077D01*
X200000Y22748994D01*
X14355736Y22748994D01*
X14374408Y22606205D01*
X14378022Y22597991D01*
X14378023Y22597988D01*
X14428791Y22482608D01*
X14432405Y22474395D01*
X14438179Y22467526D01*
X14518635Y22371813D01*
X14525066Y22364162D01*
X14532537Y22359189D01*
X14532538Y22359188D01*
X14637468Y22289340D01*
X14637471Y22289339D01*
X14644941Y22284366D01*
X14653505Y22281690D01*
X14653508Y22281689D01*
X14773827Y22244098D01*
X14773831Y22244097D01*
X14782394Y22241422D01*
X14847937Y22240221D01*
X14917397Y22238948D01*
X14917400Y22238948D01*
X14926375Y22238784D01*
X14935038Y22241146D01*
X14935040Y22241146D01*
X15056645Y22274299D01*
X15065309Y22276661D01*
X15188028Y22352011D01*
X15250967Y22421545D01*
X15278638Y22452115D01*
X15278639Y22452116D01*
X15284666Y22458775D01*
X15291637Y22473162D01*
X15343541Y22580292D01*
X15343542Y22580294D01*
X15347455Y22588371D01*
X15371346Y22730380D01*
X15371498Y22742789D01*
X15351083Y22885340D01*
X15344686Y22899411D01*
X15295196Y23008257D01*
X15291480Y23016431D01*
X15218447Y23101190D01*
X15189133Y23165853D01*
X15187900Y23183438D01*
X15187900Y23403847D01*
X15207902Y23471968D01*
X15243077Y23508059D01*
X15283308Y23535400D01*
X15381051Y23651062D01*
X15444089Y23788749D01*
X15467778Y23938316D01*
X15467900Y23950000D01*
X15455606Y24039746D01*
X15448514Y24091520D01*
X15448514Y24091522D01*
X15447348Y24100030D01*
X15387208Y24239007D01*
X15291909Y24356692D01*
X15263038Y24377210D01*
X15175475Y24439437D01*
X15168473Y24444413D01*
X15025994Y24495709D01*
X15017434Y24496338D01*
X15017432Y24496338D01*
X14926574Y24503010D01*
X14874969Y24506799D01*
X14726525Y24476868D01*
X14718873Y24472969D01*
X14599250Y24412018D01*
X14599247Y24412016D01*
X14591599Y24408119D01*
X14585277Y24402306D01*
X14585276Y24402305D01*
X14486456Y24311436D01*
X14486453Y24311432D01*
X14480131Y24305619D01*
X14475603Y24298317D01*
X14475602Y24298315D01*
X14406495Y24186856D01*
X14400333Y24176918D01*
X14358085Y24031500D01*
X14356499Y23880077D01*
X14358722Y23871781D01*
X14358722Y23871780D01*
X14385196Y23772981D01*
X14395693Y23733805D01*
X14472777Y23603462D01*
X14530821Y23547800D01*
X14575874Y23504595D01*
X14575876Y23504593D01*
X14582075Y23498649D01*
X14582532Y23498404D01*
X14623513Y23445264D01*
X14632100Y23399545D01*
X14632100Y23260692D01*
X14612098Y23192571D01*
X14573337Y23154131D01*
X14547706Y23137958D01*
X14534418Y23129574D01*
X14439091Y23021638D01*
X14377891Y22891285D01*
X14355736Y22748994D01*
X200000Y22748994D01*
X200000Y23613312D01*
X11523264Y23613312D01*
X11525487Y23605016D01*
X11525487Y23605015D01*
X11553229Y23501484D01*
X11562458Y23467040D01*
X11639542Y23336697D01*
X11748840Y23231884D01*
X11756406Y23227827D01*
X11756409Y23227825D01*
X11874722Y23164386D01*
X11874726Y23164384D01*
X11882297Y23160325D01*
X12030081Y23127292D01*
X12038654Y23127741D01*
X12038658Y23127741D01*
X12172722Y23134767D01*
X12172723Y23134767D01*
X12181305Y23135217D01*
X12272339Y23165853D01*
X12316692Y23180779D01*
X12316694Y23180780D01*
X12324827Y23183517D01*
X12336143Y23191207D01*
X12360192Y23207552D01*
X12450073Y23268635D01*
X12547816Y23384297D01*
X12589495Y23475331D01*
X12607279Y23514175D01*
X12607279Y23514177D01*
X12610854Y23521984D01*
X12634543Y23671551D01*
X12634665Y23683235D01*
X12614113Y23833265D01*
X12553973Y23972242D01*
X12499310Y24039746D01*
X12481235Y24062067D01*
X12453910Y24127595D01*
X12466350Y24197493D01*
X12490061Y24230456D01*
X13726975Y25467371D01*
X13731760Y25471912D01*
X13749548Y25487928D01*
X13749549Y25487929D01*
X13759391Y25496791D01*
X13767827Y25515740D01*
X13777256Y25533106D01*
X13788551Y25550498D01*
X13790622Y25563575D01*
X13793348Y25570676D01*
X13794953Y25576665D01*
X13798984Y25585720D01*
X13799100Y25586824D01*
X13799100Y25607184D01*
X13800651Y25626895D01*
X13801708Y25633567D01*
X13801708Y25633568D01*
X13803779Y25646644D01*
X13800352Y25659432D01*
X13799659Y25672662D01*
X13800154Y25672688D01*
X13799100Y25680697D01*
X13799100Y26922061D01*
X13819102Y26990182D01*
X13840790Y27015698D01*
X13846201Y27020570D01*
X13853308Y27025400D01*
X13951051Y27141062D01*
X14014089Y27278749D01*
X14037778Y27428316D01*
X14037900Y27440000D01*
X14017348Y27590030D01*
X13957208Y27729007D01*
X13861909Y27846692D01*
X13784058Y27902018D01*
X13745475Y27929437D01*
X13738473Y27934413D01*
X13595994Y27985709D01*
X13587434Y27986338D01*
X13587432Y27986338D01*
X13496574Y27993010D01*
X13444969Y27996799D01*
X13296525Y27966868D01*
X13288873Y27962969D01*
X13169250Y27902018D01*
X13169247Y27902016D01*
X13161599Y27898119D01*
X13155277Y27892306D01*
X13155276Y27892305D01*
X13056456Y27801436D01*
X13056453Y27801432D01*
X13050131Y27795619D01*
X13045603Y27788317D01*
X13045602Y27788315D01*
X12997752Y27711141D01*
X12970333Y27666918D01*
X12928085Y27521500D01*
X12926499Y27370077D01*
X12928722Y27361781D01*
X12928722Y27361780D01*
X12950971Y27278749D01*
X12965693Y27223805D01*
X13042777Y27093462D01*
X13152075Y26988649D01*
X13159641Y26984592D01*
X13159644Y26984590D01*
X13274441Y26923037D01*
X13325024Y26873219D01*
X13340900Y26811993D01*
X13340900Y25781479D01*
X13320898Y25713358D01*
X13303995Y25692384D01*
X11919790Y24308178D01*
X11915005Y24303637D01*
X11887374Y24278758D01*
X11881988Y24266660D01*
X11878940Y24259813D01*
X11869509Y24242443D01*
X11858214Y24225051D01*
X11858060Y24224080D01*
X11820465Y24174843D01*
X11803131Y24164165D01*
X11758364Y24141354D01*
X11705029Y24092310D01*
X11653221Y24044671D01*
X11653218Y24044667D01*
X11646896Y24038854D01*
X11642368Y24031552D01*
X11642367Y24031550D01*
X11571627Y23917458D01*
X11567098Y23910153D01*
X11524850Y23764735D01*
X11523264Y23613312D01*
X200000Y23613312D01*
X200000Y30778402D01*
X21121398Y30778402D01*
X21121398Y27753802D01*
X21124881Y27721408D01*
X21136267Y27669066D01*
X21170008Y27601659D01*
X21216501Y27548003D01*
X21224078Y27543133D01*
X21224081Y27543131D01*
X21244909Y27529746D01*
X21288741Y27501577D01*
X21297385Y27499039D01*
X21297387Y27499038D01*
X21352539Y27482844D01*
X21352543Y27482843D01*
X21356862Y27481575D01*
X21361310Y27480935D01*
X21361317Y27480934D01*
X21395350Y27476041D01*
X21395357Y27476041D01*
X21399798Y27475402D01*
X23363059Y27475402D01*
X23431180Y27455400D01*
X23477673Y27401744D01*
X23487777Y27331470D01*
X23473923Y27289527D01*
X22678841Y25817375D01*
X22665182Y25782304D01*
X22650046Y25722428D01*
X22645398Y25685078D01*
X22645398Y25245301D01*
X22645762Y25241931D01*
X22647563Y25225253D01*
X22648910Y25212774D01*
X22660390Y25160226D01*
X22672076Y25136959D01*
X22691797Y25097691D01*
X22704496Y25027839D01*
X22685198Y24973020D01*
X22671573Y24951819D01*
X22669035Y24943175D01*
X22669034Y24943173D01*
X22654157Y24892504D01*
X22651571Y24883698D01*
X22650931Y24879250D01*
X22650930Y24879243D01*
X22647673Y24856584D01*
X22645398Y24840762D01*
X22645398Y24377210D01*
X22650016Y24339980D01*
X22650966Y24336208D01*
X22650967Y24336204D01*
X22663207Y24287621D01*
X22665055Y24280284D01*
X22678627Y24245310D01*
X22949352Y23742096D01*
X23491970Y22733498D01*
X23506630Y22664032D01*
X23481405Y22597667D01*
X23424306Y22555475D01*
X23381009Y22547802D01*
X21399798Y22547802D01*
X21367404Y22544319D01*
X21315062Y22532933D01*
X21247655Y22499192D01*
X21193999Y22452699D01*
X21189129Y22445122D01*
X21189127Y22445119D01*
X21173977Y22421545D01*
X21147573Y22380459D01*
X21145035Y22371815D01*
X21145034Y22371813D01*
X21139845Y22354138D01*
X21127571Y22312338D01*
X21126931Y22307890D01*
X21126930Y22307883D01*
X21122442Y22276661D01*
X21121398Y22269402D01*
X21121398Y19092402D01*
X21124881Y19060008D01*
X21136267Y19007666D01*
X21170008Y18940259D01*
X21216501Y18886603D01*
X21224078Y18881733D01*
X21224081Y18881731D01*
X21260127Y18858566D01*
X21288741Y18840177D01*
X21297385Y18837639D01*
X21297387Y18837638D01*
X21352539Y18821444D01*
X21352543Y18821443D01*
X21356862Y18820175D01*
X21361310Y18819535D01*
X21361317Y18819534D01*
X21395350Y18814641D01*
X21395357Y18814641D01*
X21399798Y18814002D01*
X33542998Y18814002D01*
X33575392Y18817485D01*
X33627734Y18828871D01*
X33695141Y18862612D01*
X33748797Y18909105D01*
X33753667Y18916682D01*
X33753669Y18916685D01*
X33790352Y18973766D01*
X33795223Y18981345D01*
X33800882Y19000617D01*
X33813956Y19045143D01*
X33813957Y19045147D01*
X33815225Y19049466D01*
X33816741Y19060008D01*
X33820759Y19087954D01*
X33820759Y19087961D01*
X33821398Y19092402D01*
X33821398Y22269402D01*
X33817915Y22301796D01*
X33806529Y22354138D01*
X33785700Y22395750D01*
X33773095Y22465619D01*
X33800312Y22528146D01*
X33799597Y22528605D01*
X33802432Y22533016D01*
X33802432Y22533017D01*
X33846023Y22600845D01*
X33857432Y22639700D01*
X33864756Y22664643D01*
X33864757Y22664647D01*
X33866025Y22668966D01*
X33872198Y22711902D01*
X33872198Y24859975D01*
X33868686Y24892504D01*
X33857205Y24945053D01*
X33843158Y24973020D01*
X33826859Y25005473D01*
X33826857Y25005476D01*
X33823313Y25012532D01*
X33820881Y25015328D01*
X33800116Y25081273D01*
X33815507Y25135349D01*
X33812003Y25136959D01*
X33815766Y25145146D01*
X33820657Y25152717D01*
X33837471Y25209477D01*
X33839542Y25216468D01*
X33839543Y25216472D01*
X33840822Y25220790D01*
X33847098Y25263711D01*
X33847586Y25467371D01*
X33852090Y27349947D01*
X33852090Y27349949D01*
X33852098Y27353334D01*
X33848654Y27385916D01*
X33839484Y27428316D01*
X33838939Y27430834D01*
X33838939Y27430835D01*
X33837268Y27438559D01*
X33803488Y27506143D01*
X33798317Y27512110D01*
X33797975Y27512623D01*
X33776780Y27580382D01*
X33788146Y27634932D01*
X33790353Y27639766D01*
X33795223Y27647343D01*
X33800971Y27666918D01*
X33813956Y27711141D01*
X33813957Y27711145D01*
X33815225Y27715464D01*
X33816080Y27721408D01*
X33820759Y27753952D01*
X33820759Y27753959D01*
X33821398Y27758400D01*
X33821398Y30778402D01*
X33817915Y30810796D01*
X33806529Y30863138D01*
X33772788Y30930545D01*
X33726295Y30984201D01*
X33718718Y30989071D01*
X33718715Y30989073D01*
X33661634Y31025756D01*
X33654055Y31030627D01*
X33645411Y31033165D01*
X33645409Y31033166D01*
X33590257Y31049360D01*
X33590253Y31049361D01*
X33585934Y31050629D01*
X33581486Y31051269D01*
X33581479Y31051270D01*
X33547446Y31056163D01*
X33547439Y31056163D01*
X33542998Y31056802D01*
X21399798Y31056802D01*
X21367404Y31053319D01*
X21315062Y31041933D01*
X21247655Y31008192D01*
X21193999Y30961699D01*
X21189129Y30954122D01*
X21189127Y30954119D01*
X21173977Y30930545D01*
X21147573Y30889459D01*
X21145035Y30880815D01*
X21145034Y30880813D01*
X21139845Y30863138D01*
X21127571Y30821338D01*
X21126931Y30816890D01*
X21126930Y30816883D01*
X21125574Y30807445D01*
X21121398Y30778402D01*
X200000Y30778402D01*
X200000Y32912667D01*
X14333909Y32912667D01*
X14336132Y32904371D01*
X14336132Y32904370D01*
X14356550Y32828172D01*
X14373103Y32766395D01*
X14450187Y32636052D01*
X14559485Y32531239D01*
X14567051Y32527182D01*
X14567054Y32527180D01*
X14685367Y32463741D01*
X14685371Y32463739D01*
X14692942Y32459680D01*
X14840726Y32426647D01*
X14849299Y32427096D01*
X14849303Y32427096D01*
X14983367Y32434122D01*
X14983368Y32434122D01*
X14991950Y32434572D01*
X15078625Y32463741D01*
X15127337Y32480134D01*
X15127339Y32480135D01*
X15135472Y32482872D01*
X15260718Y32567990D01*
X15313212Y32630108D01*
X15352916Y32677090D01*
X15352917Y32677092D01*
X15358461Y32683652D01*
X15362037Y32691462D01*
X15364285Y32695005D01*
X15417674Y32741803D01*
X15470670Y32753490D01*
X20395287Y32753490D01*
X20463408Y32733488D01*
X20491738Y32708565D01*
X20573888Y32610836D01*
X20573890Y32610834D01*
X20579666Y32603963D01*
X20587137Y32598990D01*
X20587138Y32598989D01*
X20692068Y32529141D01*
X20692071Y32529140D01*
X20699541Y32524167D01*
X20708105Y32521491D01*
X20708108Y32521490D01*
X20828427Y32483899D01*
X20828431Y32483898D01*
X20836994Y32481223D01*
X20902537Y32480022D01*
X20971997Y32478749D01*
X20972000Y32478749D01*
X20980975Y32478585D01*
X20989638Y32480947D01*
X20989640Y32480947D01*
X21111245Y32514100D01*
X21119909Y32516462D01*
X21242628Y32591812D01*
X21319818Y32677090D01*
X21333238Y32691916D01*
X21333239Y32691917D01*
X21339266Y32698576D01*
X21360210Y32741803D01*
X21398141Y32820093D01*
X21398142Y32820095D01*
X21402055Y32828172D01*
X21425946Y32970181D01*
X21426098Y32982590D01*
X21405683Y33125141D01*
X21346080Y33256232D01*
X21252079Y33365325D01*
X21131238Y33443650D01*
X20993270Y33484911D01*
X20984294Y33484966D01*
X20984293Y33484966D01*
X20923880Y33485335D01*
X20849268Y33485791D01*
X20710807Y33446218D01*
X20703220Y33441431D01*
X20703218Y33441430D01*
X20698993Y33438764D01*
X20589018Y33369375D01*
X20493691Y33261439D01*
X20492631Y33262375D01*
X20445746Y33222560D01*
X20394549Y33211690D01*
X15470534Y33211690D01*
X15402413Y33231692D01*
X15365466Y33269636D01*
X15364618Y33271597D01*
X15305967Y33344026D01*
X15274725Y33382606D01*
X15269319Y33389282D01*
X15192816Y33443650D01*
X15152885Y33472027D01*
X15145883Y33477003D01*
X15003404Y33528299D01*
X14994844Y33528928D01*
X14994842Y33528928D01*
X14903984Y33535600D01*
X14852379Y33539389D01*
X14703935Y33509458D01*
X14696283Y33505559D01*
X14576660Y33444608D01*
X14576657Y33444606D01*
X14569009Y33440709D01*
X14562687Y33434896D01*
X14562686Y33434895D01*
X14463866Y33344026D01*
X14463863Y33344022D01*
X14457541Y33338209D01*
X14453013Y33330907D01*
X14453012Y33330905D01*
X14382272Y33216813D01*
X14377743Y33209508D01*
X14335495Y33064090D01*
X14333909Y32912667D01*
X200000Y32912667D01*
X200000Y38339902D01*
X202394Y38358981D01*
X201687Y38359078D01*
X202658Y38366138D01*
X204419Y38373042D01*
X204654Y38382941D01*
X206241Y38449979D01*
X206813Y38459347D01*
X209355Y38485154D01*
X211169Y38497385D01*
X233950Y38611911D01*
X236955Y38623905D01*
X241157Y38637757D01*
X245322Y38649398D01*
X281734Y38737307D01*
X290011Y38757288D01*
X295288Y38768446D01*
X302132Y38781251D01*
X308484Y38791848D01*
X373361Y38888942D01*
X380701Y38898839D01*
X389927Y38910080D01*
X398221Y38919230D01*
X480767Y39001776D01*
X489927Y39010079D01*
X501143Y39019284D01*
X511076Y39026651D01*
X511082Y39026655D01*
X608171Y39091528D01*
X618752Y39097870D01*
X631552Y39104711D01*
X642698Y39109983D01*
X750611Y39154683D01*
X762236Y39158841D01*
X776107Y39163049D01*
X788088Y39166051D01*
X902622Y39188832D01*
X914852Y39190646D01*
X940643Y39193186D01*
X950009Y39193758D01*
X970420Y39194242D01*
X1026767Y39195576D01*
X1033623Y39197312D01*
X1040627Y39198269D01*
X1040718Y39197604D01*
X1059942Y39200000D01*
X35639902Y39200000D01*
X35658981Y39197606D01*
G37*
G04 #@! TD.AperFunction*
M02*
